<svg width="1406" height="934" viewBox="0 0 1406 934" fill="none" xmlns="http://www.w3.org/2000/svg">
<path d="M756.456 160.913C791.395 126.583 859.256 115.283 913.567 117.543C1067.11 123.98 1199.18 246.911 1168.94 363.061C1168.94 363.634 1166.3 372.702 1166.06 372.588C1216.53 398.765 1227.6 438.645 1229.65 471.745C1233.54 532.109 1205.04 600.484 1129.49 627.576C1090.98 641.451 1047 640.25 1005.26 637.389C1032.44 683.306 1006.58 738.148 959.144 768.673C884.761 816.536 757.698 833.272 686.343 770.676C680.093 795.279 638.903 809.755 606.448 812.216C573.993 814.676 539.558 811.729 511.219 797.911C495.263 790.13 482.102 773.394 477.754 759.29C397.665 779.487 298.708 788.328 224.675 747.846C180.263 723.615 153.088 683.019 147.42 641.566C141.752 600.112 153.67 548.502 186.63 510.538C172.377 505.452 160.202 497.679 151.339 488.007C142.476 478.336 137.24 467.11 136.162 455.467C134.143 432.008 151.224 403.371 177.507 391.67C143.965 361.288 143.499 313.597 172.46 281.098C201.421 248.599 255.655 232.034 306.9 236.182C320.332 167.751 417.153 110.505 505.201 97.3166C593.249 84.128 692.982 111.278 756.456 160.913Z" fill="#060D14"/>
<path d="M754.452 131.947C790.717 97.5392 861.152 86.0697 917.525 88.507C1076.93 94.9585 1213.97 218.169 1182.62 334.555C1182.62 335.129 1179.84 344.247 1179.6 344.103C1231.98 370.34 1243.51 410.339 1245.64 443.486C1249.67 503.987 1220.1 572.517 1141.68 599.671C1101.67 613.578 1056.06 612.402 1012.74 609.506C1040.95 655.527 1014.15 710.494 964.911 741.089C887.707 789.06 755.782 805.834 681.76 743.125C675.273 767.784 632.48 782.293 598.834 784.759C565.187 787.225 529.365 784.272 499.95 770.422C483.389 762.623 469.729 745.878 465.256 731.742C382.088 752.014 279.417 760.817 202.575 720.473C156.437 696.072 128.231 655.384 122.429 613.807C116.626 572.23 128.916 520.532 163.086 482.482C148.305 477.372 135.679 469.578 126.483 459.887C117.286 450.196 111.843 438.951 110.703 427.285C108.648 403.773 126.337 375.071 153.617 363.343C118.842 332.863 118.319 285.064 148.378 252.52C178.438 219.975 234.73 203.316 287.96 207.474C301.901 138.915 402.356 81.5106 493.785 68.3208C585.214 55.1309 688.61 82.2275 754.452 131.947Z" fill="#FFFAFA"/>
<path d="M1259.92 418.873C1251.88 390.77 1232.01 366.187 1199.6 349.074C1200.37 347.272 1200.89 345.423 1201.17 343.551C1202.06 340.546 1202.86 337.541 1203.54 334.479C1205.37 326.326 1206.39 318.092 1206.6 309.838C1207.02 293.463 1204.52 277.115 1199.16 261.188C1188.17 228.871 1167.3 198.677 1138.04 172.757C1078.45 119.642 985.25 85.5294 888.749 88.4198C841.142 89.8507 790.238 99.8671 756.06 124.45C697.369 87.7144 622.487 66.7299 544.361 65.1246C466.316 63.6651 390.201 89.307 337.326 129.601C308.979 151.208 287.105 177.508 280.39 206.87C238.211 205.067 195.067 213.91 163.423 234.401C147.527 244.832 135.305 257.781 127.746 272.2C120.188 286.618 117.506 302.1 119.917 317.394C122.232 334.238 131.118 350.286 145.57 363.726C117.947 376.633 102.225 402.59 103.029 425.513C103.744 437.561 108.874 449.267 117.91 459.468C126.945 469.669 139.572 478.011 154.537 483.665C131.296 510.108 118.831 541.073 114.73 572.009C110.709 602.23 115.012 632.88 131.336 661.097C147.137 689.21 175.162 712.987 211.312 728.951C251.159 746.122 298.082 753.792 344.363 754.507C384.113 754.742 423.679 750.65 461.692 742.373C466.95 751.96 475.199 760.571 485.817 767.557C502.544 778.46 526.75 784.356 548.503 787.733C587.787 793.8 632.941 793.456 668.486 778.346C679.81 773.773 689.326 767.236 696.149 759.344C743.676 786.502 810.101 794.916 869.57 786.388C936.919 776.715 1002.26 747.066 1030.4 701.048C1046.49 674.061 1049.26 643.383 1033.74 615.995C1074.47 618.428 1117.1 618.857 1155.17 607.066C1186.33 596.936 1212.35 580.231 1229.72 559.217C1247.32 537.84 1258.53 514.107 1262.65 489.503C1267.27 466.016 1266.35 442.144 1259.92 418.873ZM1234.63 474.479C1228.92 520.468 1202.7 569.405 1144.92 594.36C1104.27 611.931 1057.02 611.531 1011.19 608.669C1009.58 608.669 1002.06 608.011 1003.51 610.357C1031.65 656.862 1003.95 712.639 950.59 743.718C926.544 757.727 899.022 768.405 869.449 775.198C854.522 778.624 839.132 780.926 823.531 782.066C816.249 782.577 808.932 782.787 801.617 782.696C798.159 782.696 795.787 782.696 792.248 782.381C788.71 782.066 785.091 781.866 782.759 781.608L776.929 780.893C776.929 780.893 772.908 780.235 772.385 780.149L771.058 779.92C772.063 780.092 768.646 779.433 768.525 779.405C766.756 779.033 765.027 778.661 763.298 778.232L762.252 777.974L758.794 777.058C757.427 776.686 755.095 775.999 754.211 775.713C750.391 774.511 746.651 773.166 742.992 771.707C727.397 765.328 713.555 756.989 702.14 747.095C698.763 744.233 691.405 743.26 686.62 742.602C684.649 742.316 673.753 740.57 673.11 742.917C666.998 764.266 636.077 776.886 608.414 781.608C577.493 786.903 541.064 785.901 515.692 771.535C500.936 763.207 490.682 749.356 486.42 736.478C485.455 733.616 477.695 732.5 474.358 731.87C469.012 730.459 463.217 730.141 457.631 730.954C420.265 740.458 381.139 746.003 341.508 747.41C331.748 747.672 321.976 747.548 312.236 747.038C303.779 746.592 295.372 745.76 287.065 744.548C278.759 743.307 270.609 741.584 262.699 739.397C254.007 737.028 245.602 734.156 237.568 730.811C202.747 716.016 176.973 692.778 161.171 666.392C145.369 640.006 140.625 610.844 143.56 582.14C146.897 549.172 159.643 515.918 184.693 487.843C185.457 486.985 181.115 485.411 180.994 485.353C151.28 475.28 132.1 451.412 132.382 428.26C132.663 406.224 147.661 381.326 174.641 369.393C175.486 369.078 175.606 368.649 175.084 368.076C148.988 344.867 142.595 312.958 153.532 284.654C159.311 270.319 169.672 257.129 183.804 246.117C197.936 235.105 215.457 226.57 234.995 221.179C256.013 215.052 278.81 212.656 301.42 214.197C302.505 214.197 309.059 214.883 309.461 213.281C320.157 161.997 375.524 120.3 437.124 95.7747C468.175 83.043 502.672 75.1514 538.33 72.6226C555.76 71.5817 573.301 71.9851 590.601 73.8245C607.43 75.6214 623.924 78.7507 639.777 83.1541C679.762 94.1271 715.825 111.281 745.365 133.379C745.365 133.837 746.41 134.352 747.737 134.867C751.748 136.607 756.227 137.728 760.885 138.158C764.906 138.902 772.385 140.133 774.798 137.872C802.662 111.944 848.822 99.7526 893.052 96.2612C913.129 94.6242 933.43 94.9902 953.365 97.3487L957.386 97.8924H958.351C961.085 98.3217 963.779 98.751 966.393 99.2375L969.288 99.7526L971.338 100.182C973.992 100.726 976.686 101.327 979.38 101.928C982.918 102.757 987.422 103.959 992.448 105.362C997.474 106.764 1001.25 107.995 1005.68 109.511C1084.08 136.269 1144.64 190.1 1167.36 249.74C1173.94 266.801 1177.26 284.418 1177.21 302.111C1177.15 310.926 1176.18 319.726 1174.31 328.44C1173.63 331.588 1172.82 334.765 1171.9 337.884C1171.72 340.219 1170.98 342.515 1169.69 344.667C1169.74 345.011 1169.91 345.34 1170.19 345.621C1170.47 345.902 1170.85 346.126 1171.3 346.269C1199.93 361.082 1220.2 382.674 1228.47 407.169C1235.78 429.205 1237.86 451.955 1234.63 474.479Z" fill="#060D14"/>
</svg>
