<svg width="1406" height="934" viewBox="0 0 1406 934" fill="none" xmlns="http://www.w3.org/2000/svg">
<path d="M543.804 376.404C540.147 374.372 537.149 370.422 534.226 367.469C527.723 360.9 521.638 353.858 515.964 346.563C511.828 341.245 507.695 335.274 505.671 328.765C503.614 322.146 504.221 313.915 504.706 307.072C505.387 297.486 509.923 291.49 519.645 291.49C528.271 291.49 533.037 293.868 537.55 301.389C540.225 305.848 543.503 314.75 540.945 319.795C535.737 330.067 519.369 330.257 509.853 329.623C483.385 327.858 457.04 312.277 440.878 291.561C433.278 281.82 426.367 270.25 422.687 258.361C422.242 256.921 422.223 255.658 422.223 254.179" stroke="#E83A3B" stroke-width="6" stroke-linecap="round" stroke-dasharray="11 11"/>
</svg>
