<svg width="1406" height="934" viewBox="0 0 1406 934" fill="none" xmlns="http://www.w3.org/2000/svg">
<path d="M616.361 168.928C612.072 166 599.785 157.482 599.102 156.678C605.895 156.073 617.286 155.286 624.074 154.699C628.272 147.071 629.482 135.232 632.156 130.405C633.366 134.639 639.058 151.862 639.935 157.373C642.785 157.978 654.926 158.71 658.646 160.725C657.219 161.572 649.754 166.744 642.252 171.741C643.063 176.483 642.633 191.099 642.906 193.845C642.192 193.38 633.112 180.022 630.051 176.562C625.816 179.212 608.49 185.418 601.352 189.581C604.086 183.9 613.239 175.026 616.361 168.928Z" fill="#060D14"/>
<path d="M611.527 164.088C607.232 161.16 594.952 152.643 594.262 151.838C601.055 151.233 612.447 150.447 619.24 149.86C623.438 142.238 628.617 134.307 631.291 129.479C631.666 131.536 634.219 147.023 635.096 152.534C637.945 153.139 654.067 156.514 657.781 158.529C656.354 159.37 643.069 164.578 637.413 166.907C638.223 171.65 642.004 189.26 642.252 191.97C641.532 191.505 628.248 175.183 625.187 171.729C620.952 174.372 607.359 183.525 600.227 187.687C602.979 182.007 608.406 170.192 611.527 164.088Z" fill="#FCBE00"/>
<path d="M613.191 163.211C608.079 159.727 602.973 156.218 597.976 152.558C597.523 152.226 597.069 151.887 596.621 151.542C596.476 151.433 596.343 151.318 596.198 151.203C595.829 150.919 596.5 151.53 596.264 151.27L594.776 153.236C600.971 152.703 607.172 152.262 613.372 151.778L617.764 151.427C618.369 151.379 618.974 151.342 619.579 151.276C619.929 151.275 620.274 151.194 620.589 151.04C620.903 150.886 621.178 150.663 621.394 150.387C621.702 149.933 621.938 149.407 622.211 148.923C624.068 145.626 626.028 142.383 627.994 139.147C629.809 136.122 631.726 133.097 633.438 130.006L629.077 129.716C630.178 135.765 631.109 141.814 632.101 147.9C632.368 149.521 632.634 151.143 632.888 152.74C632.985 153.345 633.922 153.726 634.406 153.829C640.619 155.178 646.88 156.46 652.978 158.299L654.23 158.692C654.351 158.729 654.617 158.832 654.085 158.644L654.333 158.729L654.938 158.934C655.5 159.134 656.047 159.37 656.577 159.642L656.263 157.41C654.448 158.475 652.282 159.164 650.322 159.963C647.08 161.288 643.825 162.582 640.577 163.895C639.016 164.516 637.457 165.147 635.9 165.788C635.646 165.889 635.436 166.079 635.311 166.323C635.187 166.567 635.155 166.848 635.223 167.113C636.433 174.252 638.096 181.323 639.457 188.438C639.597 189.176 639.736 189.914 639.863 190.652C639.911 190.942 639.954 191.257 640.008 191.517C640.008 191.614 640.008 191.795 640.008 191.353C640.008 191.384 640.008 191.499 640.008 191.511C640.008 191.523 640.008 191.759 640.044 191.801L643.976 191.069C643.747 190.912 644.394 191.511 644.097 191.178C643.97 191.039 643.837 190.9 643.716 190.761C643.317 190.319 642.93 189.859 642.506 189.405C641.333 188.026 640.167 186.637 639.01 185.237C636.161 181.826 633.329 178.389 630.48 174.953C629.403 173.665 628.327 172.37 627.213 171.106C626.75 170.665 626.162 170.379 625.53 170.285C624.897 170.192 624.251 170.297 623.681 170.586C617.117 174.669 610.753 179.055 604.213 183.187C602.399 184.33 600.584 185.467 598.714 186.55L602.405 188.165C605.429 181.898 608.303 175.576 611.328 169.321C612.102 167.73 612.876 166.139 613.681 164.566C614.625 162.752 610.196 161.911 609.368 163.526C606.161 169.799 603.239 176.23 600.239 182.594C599.533 184.106 598.817 185.619 598.091 187.131C597.734 187.869 598.406 188.504 599.023 188.782C599.457 188.98 599.929 189.079 600.406 189.073C600.883 189.067 601.353 188.955 601.782 188.746C608.932 184.566 615.798 179.89 622.731 175.365C624.068 174.494 625.399 173.622 626.748 172.782L623.209 172.261C628.399 178.129 633.214 184.324 638.29 190.283C638.992 191.105 639.712 192.188 640.613 192.811C640.971 193.046 641.372 193.207 641.792 193.286C642.213 193.365 642.644 193.36 643.063 193.271C643.565 193.162 644.618 192.787 644.539 192.061C644.237 189.188 643.541 186.326 642.978 183.495C642.168 179.466 641.339 175.443 640.558 171.396C640.244 169.799 639.923 168.208 639.645 166.599L638.974 167.924C644.92 165.474 650.927 163.175 656.85 160.665C657.703 160.342 658.535 159.966 659.342 159.539C660.552 158.85 660.026 157.839 659.027 157.307C657.809 156.715 656.54 156.235 655.234 155.873C653.541 155.335 651.817 154.869 650.092 154.422C646.554 153.508 642.978 152.697 639.403 151.917C638.193 151.651 636.983 151.397 635.816 151.137L637.328 152.226C636.271 145.559 635.179 138.905 634.049 132.262C633.874 131.234 633.704 130.206 633.523 129.177C633.378 128.403 632.035 128.028 631.406 128.004C630.625 127.973 629.591 128.125 629.155 128.887C625.326 135.783 620.916 142.353 617.105 149.261L618.75 148.39C610.432 149.11 602.096 149.648 593.778 150.368C592.919 150.441 591.358 151.288 592.284 152.334C592.84 152.889 593.448 153.39 594.099 153.829C595.212 154.651 596.337 155.456 597.462 156.248C600.318 158.265 603.183 160.269 606.058 162.262C607.329 163.139 608.599 164.016 609.876 164.881C610.345 165.191 610.886 165.373 611.447 165.412C612.008 165.45 612.569 165.342 613.076 165.099C613.245 165.011 613.389 164.881 613.493 164.722C613.597 164.562 613.658 164.378 613.669 164.188C613.681 163.998 613.643 163.808 613.559 163.636C613.475 163.465 613.348 163.319 613.191 163.211Z" fill="#060D14"/>
</svg>
