<svg width="1406" height="934" viewBox="0 0 1406 934" fill="none" xmlns="http://www.w3.org/2000/svg">
<g style="mix-blend-mode:multiply">
<path d="M264.406 322.868C264.407 322.874 264.412 322.877 264.417 322.876C264.423 322.875 264.426 322.87 264.425 322.864C264.424 322.859 264.419 322.855 264.413 322.857C264.408 322.858 264.404 322.863 264.406 322.868Z" fill="#060D14"/>
<path d="M264.141 326.657C264.144 326.668 264.154 326.675 264.165 326.673C264.176 326.67 264.183 326.66 264.18 326.649C264.178 326.638 264.167 326.631 264.157 326.634C264.146 326.636 264.139 326.646 264.141 326.657Z" fill="#060D14"/>
<path d="M263.865 330.438C263.868 330.455 263.884 330.465 263.901 330.461C263.917 330.458 263.927 330.442 263.924 330.426C263.92 330.41 263.904 330.399 263.888 330.403C263.872 330.406 263.861 330.422 263.865 330.438Z" fill="#060D14"/>
<path d="M263.608 334.216C263.612 334.232 263.628 334.242 263.644 334.239C263.66 334.235 263.67 334.219 263.667 334.203C263.663 334.187 263.648 334.177 263.631 334.18C263.615 334.184 263.605 334.199 263.608 334.216Z" fill="#060D14"/>
<path d="M263.363 338C263.365 338.006 263.37 338.009 263.375 338.008C263.381 338.007 263.384 338.002 263.383 337.996C263.382 337.991 263.376 337.987 263.371 337.988C263.366 337.99 263.362 337.995 263.363 338Z" fill="#060D14"/>
<path d="M261.152 315.056C261.153 315.061 261.158 315.065 261.164 315.064C261.169 315.062 261.173 315.057 261.171 315.052C261.17 315.046 261.165 315.043 261.16 315.044C261.154 315.045 261.151 315.051 261.152 315.056Z" fill="#060D14"/>
<path d="M260.866 318.839C260.869 318.855 260.885 318.866 260.901 318.862C260.918 318.859 260.928 318.843 260.924 318.827C260.921 318.81 260.905 318.8 260.889 318.804C260.873 318.807 260.862 318.823 260.866 318.839Z" fill="#060D14"/>
<path d="M260.57 322.625C260.578 322.662 260.615 322.686 260.653 322.678C260.691 322.67 260.715 322.633 260.707 322.595C260.699 322.557 260.662 322.533 260.624 322.541C260.586 322.55 260.562 322.587 260.57 322.625Z" fill="#060D14"/>
<path d="M260.245 326.416C260.26 326.486 260.329 326.531 260.399 326.516C260.469 326.501 260.514 326.432 260.499 326.362C260.484 326.291 260.415 326.247 260.345 326.262C260.275 326.277 260.23 326.346 260.245 326.416Z" fill="#060D14"/>
<path d="M259.961 330.209C259.979 330.296 260.064 330.351 260.151 330.332C260.237 330.314 260.292 330.229 260.274 330.142C260.255 330.056 260.17 330.001 260.084 330.019C259.997 330.038 259.942 330.123 259.961 330.209Z" fill="#060D14"/>
<path d="M259.714 333.984C259.73 334.06 259.804 334.108 259.88 334.092C259.956 334.075 260.004 334.001 259.988 333.926C259.972 333.85 259.897 333.802 259.822 333.818C259.746 333.834 259.698 333.908 259.714 333.984Z" fill="#060D14"/>
<path d="M259.526 337.746C259.534 337.784 259.571 337.808 259.609 337.8C259.647 337.792 259.671 337.755 259.663 337.717C259.654 337.679 259.617 337.655 259.58 337.663C259.542 337.671 259.518 337.708 259.526 337.746Z" fill="#060D14"/>
<path d="M259.298 341.517C259.302 341.533 259.318 341.543 259.334 341.54C259.35 341.537 259.36 341.521 259.357 341.504C259.354 341.488 259.338 341.478 259.321 341.481C259.305 341.485 259.295 341.501 259.298 341.517Z" fill="#060D14"/>
<path d="M259.063 345.3C259.064 345.305 259.07 345.308 259.075 345.307C259.08 345.306 259.084 345.301 259.083 345.295C259.082 345.29 259.076 345.287 259.071 345.288C259.066 345.289 259.062 345.294 259.063 345.3Z" fill="#060D14"/>
<path d="M257.343 314.796C257.347 314.812 257.363 314.822 257.379 314.819C257.395 314.815 257.406 314.799 257.402 314.783C257.399 314.767 257.383 314.757 257.367 314.76C257.35 314.764 257.34 314.78 257.343 314.796Z" fill="#060D14"/>
<path d="M256.999 318.591C257.013 318.656 257.076 318.697 257.141 318.684C257.206 318.67 257.247 318.606 257.233 318.541C257.22 318.476 257.156 318.435 257.091 318.449C257.026 318.463 256.985 318.527 256.999 318.591Z" fill="#060D14"/>
<path d="M256.597 322.41C256.627 322.55 256.766 322.64 256.906 322.61C257.046 322.58 257.136 322.442 257.106 322.301C257.076 322.161 256.938 322.071 256.797 322.101C256.657 322.131 256.567 322.269 256.597 322.41Z" fill="#060D14"/>
<path d="M256.184 326.22C256.233 326.447 256.456 326.591 256.683 326.543C256.91 326.495 257.054 326.271 257.006 326.045C256.957 325.818 256.734 325.673 256.507 325.722C256.28 325.77 256.136 325.993 256.184 326.22Z" fill="#060D14"/>
<path d="M255.869 330.009C255.924 330.269 256.179 330.434 256.439 330.378C256.698 330.323 256.863 330.068 256.808 329.809C256.752 329.55 256.497 329.384 256.238 329.44C255.979 329.495 255.813 329.75 255.869 330.009Z" fill="#060D14"/>
<path d="M255.671 333.774C255.718 333.995 255.936 334.137 256.157 334.089C256.379 334.042 256.52 333.824 256.473 333.603C256.425 333.381 256.208 333.24 255.986 333.287C255.765 333.335 255.624 333.552 255.671 333.774Z" fill="#060D14"/>
<path d="M255.582 337.525C255.61 337.655 255.738 337.737 255.867 337.709C255.997 337.682 256.08 337.554 256.052 337.425C256.024 337.295 255.897 337.212 255.767 337.24C255.637 337.268 255.555 337.395 255.582 337.525Z" fill="#060D14"/>
<path d="M255.443 341.277C255.456 341.336 255.514 341.374 255.574 341.362C255.633 341.349 255.671 341.291 255.658 341.231C255.646 341.172 255.587 341.134 255.528 341.147C255.468 341.159 255.43 341.218 255.443 341.277Z" fill="#060D14"/>
<path d="M255.265 345.037C255.268 345.053 255.284 345.064 255.3 345.06C255.316 345.057 255.327 345.041 255.323 345.024C255.32 345.008 255.304 344.998 255.288 345.001C255.271 345.005 255.261 345.021 255.265 345.037Z" fill="#060D14"/>
<path d="M255.018 348.812C255.019 348.817 255.024 348.821 255.03 348.82C255.035 348.818 255.038 348.813 255.037 348.808C255.036 348.802 255.031 348.799 255.025 348.8C255.02 348.801 255.017 348.806 255.018 348.812Z" fill="#060D14"/>
<path d="M253.841 310.748C253.843 310.759 253.854 310.766 253.865 310.763C253.875 310.761 253.882 310.751 253.88 310.74C253.878 310.729 253.867 310.722 253.856 310.724C253.845 310.727 253.838 310.737 253.841 310.748Z" fill="#060D14"/>
<path d="M253.518 314.55C253.527 314.593 253.569 314.62 253.613 314.611C253.656 314.602 253.683 314.559 253.674 314.516C253.665 314.473 253.622 314.445 253.579 314.455C253.536 314.464 253.508 314.506 253.518 314.55Z" fill="#060D14"/>
<path d="M253.085 318.364C253.115 318.504 253.253 318.594 253.394 318.564C253.534 318.534 253.623 318.396 253.593 318.255C253.564 318.115 253.425 318.025 253.285 318.055C253.144 318.085 253.055 318.223 253.085 318.364Z" fill="#060D14"/>
<path d="M252.515 322.208C252.581 322.516 252.884 322.712 253.192 322.646C253.5 322.58 253.696 322.277 253.63 321.97C253.564 321.662 253.262 321.465 252.954 321.531C252.646 321.597 252.45 321.9 252.515 322.208Z" fill="#060D14"/>
<path d="M251.936 326.053C252.04 326.54 252.518 326.849 253.004 326.746C253.49 326.642 253.8 326.164 253.696 325.678C253.592 325.191 253.114 324.882 252.628 324.985C252.142 325.089 251.832 325.567 251.936 326.053Z" fill="#060D14"/>
<path d="M251.535 329.872C251.655 330.434 252.207 330.792 252.769 330.672C253.331 330.552 253.689 329.999 253.569 329.437C253.449 328.876 252.896 328.518 252.334 328.638C251.773 328.758 251.415 329.31 251.535 329.872Z" fill="#060D14"/>
<path d="M251.434 333.615C251.536 334.091 252.003 334.394 252.479 334.292C252.954 334.191 253.257 333.723 253.156 333.248C253.054 332.773 252.586 332.47 252.111 332.571C251.636 332.673 251.333 333.14 251.434 333.615Z" fill="#060D14"/>
<path d="M251.471 337.33C251.537 337.638 251.84 337.834 252.147 337.768C252.455 337.702 252.651 337.399 252.586 337.092C252.52 336.784 252.217 336.587 251.909 336.653C251.601 336.719 251.405 337.022 251.471 337.33Z" fill="#060D14"/>
<path d="M251.498 341.046C251.53 341.197 251.679 341.294 251.83 341.261C251.981 341.229 252.078 341.08 252.045 340.929C252.013 340.778 251.864 340.681 251.713 340.714C251.562 340.746 251.465 340.895 251.498 341.046Z" fill="#060D14"/>
<path d="M251.4 344.799C251.412 344.858 251.471 344.896 251.53 344.884C251.59 344.871 251.627 344.813 251.615 344.753C251.602 344.694 251.544 344.656 251.484 344.668C251.425 344.681 251.387 344.74 251.4 344.799Z" fill="#060D14"/>
<path d="M251.221 348.559C251.225 348.576 251.241 348.586 251.257 348.583C251.273 348.579 251.283 348.563 251.28 348.547C251.276 348.531 251.26 348.52 251.244 348.524C251.228 348.527 251.218 348.543 251.221 348.559Z" fill="#060D14"/>
<path d="M250.984 352.332C250.985 352.338 250.991 352.341 250.996 352.34C251.001 352.339 251.005 352.334 251.004 352.328C251.003 352.323 250.997 352.319 250.992 352.32C250.986 352.322 250.983 352.327 250.984 352.332Z" fill="#060D14"/>
<path d="M250.044 310.495C250.048 310.512 250.064 310.522 250.08 310.519C250.096 310.515 250.106 310.499 250.103 310.483C250.099 310.467 250.084 310.456 250.067 310.46C250.051 310.463 250.041 310.479 250.044 310.495Z" fill="#060D14"/>
<path d="M249.69 314.293C249.705 314.363 249.774 314.408 249.844 314.393C249.914 314.378 249.959 314.309 249.944 314.239C249.929 314.169 249.86 314.124 249.79 314.139C249.72 314.154 249.675 314.223 249.69 314.293Z" fill="#060D14"/>
<path d="M249.149 318.131C249.197 318.352 249.415 318.493 249.636 318.446C249.857 318.399 249.999 318.181 249.951 317.96C249.904 317.738 249.686 317.597 249.465 317.644C249.243 317.692 249.102 317.909 249.149 318.131Z" fill="#060D14"/>
<path d="M248.425 322.018C248.528 322.499 249.001 322.805 249.482 322.703C249.962 322.6 250.269 322.127 250.166 321.646C250.063 321.166 249.591 320.859 249.11 320.962C248.629 321.064 248.323 321.537 248.425 322.018Z" fill="#060D14"/>
<path d="M247.631 325.91C247.796 326.682 248.556 327.175 249.328 327.01C250.1 326.845 250.593 326.085 250.428 325.313C250.263 324.54 249.503 324.048 248.731 324.213C247.958 324.378 247.466 325.138 247.631 325.91Z" fill="#060D14"/>
<path d="M247.13 329.739C247.323 330.646 248.216 331.225 249.124 331.031C250.031 330.837 250.609 329.944 250.416 329.037C250.222 328.13 249.329 327.551 248.422 327.745C247.514 327.939 246.936 328.831 247.13 329.739Z" fill="#060D14"/>
<path d="M247.059 333.476C247.231 334.281 248.022 334.794 248.827 334.622C249.632 334.45 250.145 333.658 249.973 332.854C249.801 332.049 249.009 331.536 248.205 331.708C247.4 331.88 246.887 332.671 247.059 333.476Z" fill="#060D14"/>
<path d="M247.234 337.171C247.354 337.732 247.907 338.091 248.469 337.971C249.03 337.851 249.388 337.298 249.269 336.736C249.149 336.175 248.596 335.817 248.034 335.936C247.472 336.056 247.114 336.609 247.234 337.171Z" fill="#060D14"/>
<path d="M247.408 340.856C247.477 341.18 247.796 341.387 248.12 341.317C248.444 341.248 248.651 340.929 248.582 340.605C248.512 340.281 248.193 340.075 247.869 340.144C247.545 340.213 247.339 340.532 247.408 340.856Z" fill="#060D14"/>
<path d="M247.445 344.57C247.478 344.727 247.632 344.827 247.789 344.793C247.945 344.76 248.045 344.606 248.012 344.449C247.978 344.292 247.824 344.193 247.668 344.226C247.511 344.26 247.411 344.414 247.445 344.57Z" fill="#060D14"/>
<path d="M247.356 348.321C247.37 348.386 247.434 348.427 247.499 348.414C247.564 348.4 247.605 348.336 247.591 348.271C247.577 348.206 247.513 348.165 247.449 348.179C247.384 348.193 247.342 348.257 247.356 348.321Z" fill="#060D14"/>
<path d="M247.178 352.082C247.181 352.098 247.197 352.108 247.213 352.105C247.23 352.102 247.24 352.086 247.236 352.069C247.233 352.053 247.217 352.043 247.201 352.046C247.185 352.05 247.174 352.066 247.178 352.082Z" fill="#060D14"/>
<path d="M246.265 310.229C246.269 310.245 246.285 310.255 246.301 310.252C246.317 310.248 246.327 310.233 246.324 310.216C246.32 310.2 246.304 310.19 246.288 310.193C246.272 310.197 246.262 310.213 246.265 310.229Z" fill="#060D14"/>
<path d="M245.883 314.043C245.902 314.13 245.987 314.185 246.073 314.166C246.16 314.148 246.215 314.063 246.196 313.976C246.178 313.89 246.093 313.835 246.006 313.853C245.92 313.872 245.865 313.957 245.883 314.043Z" fill="#060D14"/>
<path d="M245.294 317.891C245.351 318.156 245.611 318.324 245.876 318.268C246.14 318.211 246.309 317.951 246.253 317.686C246.196 317.422 245.936 317.253 245.671 317.309C245.406 317.366 245.238 317.626 245.294 317.891Z" fill="#060D14"/>
<path d="M244.461 321.791C244.585 322.374 245.159 322.746 245.742 322.622C246.326 322.497 246.697 321.923 246.573 321.34C246.448 320.757 245.874 320.385 245.291 320.509C244.708 320.634 244.336 321.208 244.461 321.791Z" fill="#060D14"/>
<path d="M243.541 325.72C243.743 326.665 244.673 327.268 245.618 327.066C246.563 326.864 247.166 325.934 246.964 324.989C246.762 324.044 245.832 323.441 244.887 323.643C243.942 323.845 243.339 324.775 243.541 325.72Z" fill="#060D14"/>
<path d="M242.903 329.578C243.15 330.734 244.287 331.471 245.443 331.224C246.598 330.977 247.335 329.84 247.088 328.684C246.841 327.528 245.704 326.791 244.549 327.038C243.393 327.285 242.656 328.422 242.903 329.578Z" fill="#060D14"/>
<path d="M242.734 333.336C242.969 334.438 244.053 335.141 245.155 334.905C246.257 334.67 246.959 333.586 246.724 332.484C246.489 331.382 245.405 330.68 244.303 330.915C243.201 331.151 242.499 332.235 242.734 333.336Z" fill="#060D14"/>
<path d="M242.917 337.019C243.101 337.878 243.946 338.426 244.805 338.242C245.663 338.059 246.211 337.214 246.027 336.355C245.844 335.496 244.999 334.949 244.14 335.132C243.281 335.316 242.734 336.161 242.917 337.019Z" fill="#060D14"/>
<path d="M243.171 340.698C243.294 341.27 243.857 341.635 244.429 341.513C245.002 341.391 245.367 340.827 245.245 340.255C245.122 339.682 244.559 339.317 243.987 339.44C243.414 339.562 243.049 340.125 243.171 340.698Z" fill="#060D14"/>
<path d="M243.355 344.38C243.425 344.71 243.749 344.92 244.079 344.849C244.408 344.779 244.618 344.455 244.548 344.125C244.477 343.796 244.153 343.586 243.824 343.656C243.494 343.727 243.284 344.051 243.355 344.38Z" fill="#060D14"/>
<path d="M243.421 348.088C243.452 348.234 243.595 348.327 243.741 348.296C243.887 348.265 243.98 348.121 243.949 347.975C243.918 347.83 243.774 347.737 243.628 347.768C243.483 347.799 243.39 347.942 243.421 348.088Z" fill="#060D14"/>
<path d="M243.35 351.826C243.359 351.869 243.402 351.896 243.445 351.887C243.488 351.878 243.516 351.835 243.506 351.792C243.497 351.749 243.455 351.721 243.411 351.731C243.368 351.74 243.341 351.782 243.35 351.826Z" fill="#060D14"/>
<path d="M243.154 355.6C243.156 355.61 243.167 355.617 243.178 355.615C243.188 355.613 243.195 355.602 243.193 355.591C243.191 355.581 243.18 355.574 243.169 355.576C243.158 355.578 243.152 355.589 243.154 355.6Z" fill="#060D14"/>
<path d="M242.498 309.97C242.5 309.981 242.511 309.988 242.522 309.986C242.533 309.983 242.539 309.973 242.537 309.962C242.535 309.951 242.524 309.944 242.513 309.947C242.503 309.949 242.496 309.959 242.498 309.97Z" fill="#060D14"/>
<path d="M242.114 313.775C242.13 313.85 242.205 313.898 242.28 313.882C242.356 313.866 242.404 313.792 242.388 313.716C242.372 313.64 242.297 313.592 242.222 313.608C242.146 313.624 242.098 313.699 242.114 313.775Z" fill="#060D14"/>
<path d="M241.547 317.628C241.6 317.876 241.844 318.035 242.093 317.982C242.341 317.929 242.499 317.684 242.446 317.436C242.393 317.187 242.149 317.029 241.9 317.082C241.652 317.135 241.494 317.379 241.547 317.628Z" fill="#060D14"/>
<path d="M240.693 321.532C240.816 322.105 241.379 322.47 241.951 322.347C242.524 322.225 242.889 321.662 242.767 321.089C242.644 320.517 242.081 320.152 241.509 320.274C240.936 320.396 240.571 320.96 240.693 321.532Z" fill="#060D14"/>
<path d="M239.723 325.462C239.929 326.428 240.88 327.045 241.847 326.838C242.814 326.632 243.43 325.681 243.224 324.714C243.017 323.747 242.066 323.131 241.099 323.337C240.133 323.544 239.516 324.495 239.723 325.462Z" fill="#060D14"/>
<path d="M238.957 329.347C239.223 330.59 240.445 331.382 241.687 331.116C242.929 330.851 243.721 329.629 243.456 328.386C243.191 327.144 241.969 326.352 240.726 326.618C239.484 326.883 238.692 328.105 238.957 329.347Z" fill="#060D14"/>
<path d="M238.654 333.145C238.925 334.414 240.174 335.223 241.443 334.952C242.712 334.681 243.521 333.432 243.25 332.163C242.979 330.894 241.73 330.085 240.461 330.356C239.192 330.627 238.383 331.875 238.654 333.145Z" fill="#060D14"/>
<path d="M238.681 336.861C238.918 337.974 240.013 338.683 241.126 338.445C242.238 338.208 242.948 337.113 242.71 336C242.472 334.888 241.378 334.178 240.265 334.416C239.152 334.654 238.443 335.748 238.681 336.861Z" fill="#060D14"/>
<path d="M238.923 340.531C239.101 341.363 239.919 341.893 240.751 341.716C241.582 341.538 242.113 340.72 241.935 339.888C241.757 339.056 240.939 338.526 240.107 338.704C239.276 338.881 238.745 339.699 238.923 340.531Z" fill="#060D14"/>
<path d="M239.233 344.187C239.344 344.706 239.854 345.036 240.373 344.925C240.891 344.815 241.222 344.304 241.111 343.786C241 343.267 240.49 342.937 239.972 343.048C239.453 343.158 239.123 343.669 239.233 344.187Z" fill="#060D14"/>
<path d="M239.468 347.869C239.52 348.112 239.759 348.267 240.002 348.215C240.245 348.163 240.4 347.924 240.348 347.681C240.296 347.438 240.057 347.283 239.814 347.335C239.571 347.387 239.416 347.626 239.468 347.869Z" fill="#060D14"/>
<path d="M239.495 351.586C239.513 351.672 239.598 351.727 239.685 351.709C239.771 351.69 239.826 351.605 239.808 351.519C239.789 351.432 239.704 351.377 239.618 351.396C239.531 351.414 239.476 351.499 239.495 351.586Z" fill="#060D14"/>
<path d="M239.355 355.338C239.359 355.354 239.375 355.364 239.391 355.361C239.407 355.357 239.417 355.341 239.414 355.325C239.411 355.309 239.395 355.299 239.378 355.302C239.362 355.306 239.352 355.322 239.355 355.338Z" fill="#060D14"/>
<path d="M238.711 309.716C238.714 309.727 238.724 309.734 238.735 309.731C238.746 309.729 238.753 309.718 238.75 309.708C238.748 309.697 238.737 309.69 238.727 309.692C238.716 309.694 238.709 309.705 238.711 309.716Z" fill="#060D14"/>
<path d="M238.367 313.511C238.379 313.571 238.438 313.609 238.497 313.596C238.557 313.583 238.594 313.525 238.582 313.465C238.569 313.406 238.511 313.368 238.451 313.381C238.392 313.394 238.354 313.452 238.367 313.511Z" fill="#060D14"/>
<path d="M237.846 317.345C237.89 317.55 238.092 317.681 238.297 317.637C238.502 317.593 238.633 317.391 238.589 317.186C238.545 316.981 238.343 316.85 238.138 316.894C237.933 316.938 237.802 317.14 237.846 317.345Z" fill="#060D14"/>
<path d="M237.061 321.234C237.166 321.726 237.65 322.039 238.141 321.934C238.632 321.829 238.946 321.346 238.841 320.854C238.736 320.363 238.252 320.049 237.761 320.154C237.269 320.259 236.956 320.743 237.061 321.234Z" fill="#060D14"/>
<path d="M236.102 325.172C236.29 326.052 237.157 326.613 238.037 326.425C238.917 326.237 239.478 325.371 239.29 324.491C239.102 323.61 238.236 323.049 237.356 323.237C236.476 323.425 235.914 324.291 236.102 325.172Z" fill="#060D14"/>
<path d="M235.269 329.072C235.524 330.265 236.698 331.026 237.892 330.771C239.085 330.516 239.846 329.342 239.591 328.149C239.336 326.955 238.162 326.194 236.968 326.449C235.775 326.704 235.014 327.878 235.269 329.072Z" fill="#060D14"/>
<path d="M234.836 332.887C235.112 334.177 236.382 335 237.672 334.725C238.963 334.449 239.786 333.179 239.51 331.888C239.235 330.597 237.965 329.774 236.674 330.05C235.383 330.326 234.56 331.596 234.836 332.887Z" fill="#060D14"/>
<path d="M234.736 336.63C234.992 337.829 236.171 338.593 237.37 338.337C238.569 338.081 239.334 336.901 239.078 335.702C238.822 334.503 237.642 333.739 236.443 333.995C235.244 334.251 234.479 335.431 234.736 336.63Z" fill="#060D14"/>
<path d="M234.941 340.318C235.143 341.264 236.072 341.866 237.018 341.664C237.963 341.462 238.565 340.533 238.363 339.587C238.162 338.642 237.232 338.04 236.287 338.242C235.341 338.443 234.739 339.373 234.941 340.318Z" fill="#060D14"/>
<path d="M235.3 343.964C235.428 344.563 236.018 344.945 236.617 344.817C237.217 344.689 237.599 344.1 237.471 343.5C237.343 342.901 236.753 342.518 236.154 342.646C235.554 342.774 235.172 343.364 235.3 343.964Z" fill="#060D14"/>
<path d="M235.591 347.624C235.654 347.921 235.947 348.11 236.244 348.047C236.541 347.983 236.73 347.691 236.667 347.394C236.603 347.097 236.311 346.907 236.014 346.971C235.717 347.034 235.527 347.327 235.591 347.624Z" fill="#060D14"/>
<path d="M235.686 351.325C235.708 351.428 235.809 351.493 235.912 351.471C236.014 351.449 236.08 351.348 236.058 351.246C236.036 351.143 235.935 351.078 235.832 351.1C235.73 351.122 235.664 351.223 235.686 351.325Z" fill="#060D14"/>
<path d="M235.569 355.083C235.573 355.105 235.594 355.119 235.616 355.114C235.638 355.109 235.651 355.088 235.647 355.066C235.642 355.045 235.621 355.031 235.599 355.036C235.578 355.04 235.564 355.062 235.569 355.083Z" fill="#060D14"/>
<path d="M234.942 309.447C234.943 309.452 234.948 309.456 234.954 309.455C234.959 309.454 234.963 309.448 234.962 309.443C234.96 309.437 234.955 309.434 234.95 309.435C234.944 309.436 234.941 309.442 234.942 309.447Z" fill="#060D14"/>
<path d="M234.627 313.236C234.635 313.274 234.672 313.298 234.71 313.29C234.748 313.282 234.772 313.245 234.764 313.207C234.756 313.169 234.718 313.145 234.681 313.153C234.643 313.161 234.619 313.199 234.627 313.236Z" fill="#060D14"/>
<path d="M234.157 317.069C234.189 317.22 234.338 317.317 234.489 317.284C234.641 317.252 234.737 317.103 234.705 316.952C234.672 316.801 234.524 316.704 234.372 316.737C234.221 316.769 234.125 316.918 234.157 317.069Z" fill="#060D14"/>
<path d="M233.46 320.94C233.544 321.335 233.932 321.586 234.327 321.502C234.721 321.417 234.972 321.03 234.888 320.635C234.804 320.241 234.416 319.99 234.022 320.074C233.627 320.158 233.376 320.546 233.46 320.94Z" fill="#060D14"/>
<path d="M232.578 324.851C232.734 325.585 233.457 326.054 234.192 325.897C234.926 325.74 235.394 325.017 235.238 324.283C235.081 323.548 234.358 323.08 233.623 323.237C232.889 323.394 232.421 324.116 232.578 324.851Z" fill="#060D14"/>
<path d="M231.812 328.736C232.029 329.752 233.028 330.399 234.044 330.182C235.059 329.965 235.706 328.966 235.489 327.951C235.272 326.935 234.274 326.288 233.258 326.505C232.243 326.722 231.595 327.721 231.812 328.736Z" fill="#060D14"/>
<path d="M231.372 332.563C231.61 333.675 232.704 334.385 233.817 334.147C234.929 333.909 235.639 332.815 235.401 331.702C235.163 330.589 234.069 329.88 232.956 330.118C231.844 330.355 231.134 331.45 231.372 332.563Z" fill="#060D14"/>
<path d="M231.272 336.306C231.491 337.332 232.5 337.987 233.527 337.767C234.553 337.548 235.207 336.539 234.988 335.512C234.769 334.486 233.759 333.832 232.733 334.051C231.707 334.27 231.052 335.28 231.272 336.306Z" fill="#060D14"/>
<path d="M231.406 340C231.579 340.81 232.376 341.326 233.186 341.153C233.997 340.98 234.513 340.183 234.34 339.373C234.167 338.563 233.37 338.047 232.56 338.22C231.75 338.393 231.233 339.19 231.406 340Z" fill="#060D14"/>
<path d="M231.668 343.666C231.778 344.185 232.289 344.515 232.807 344.404C233.326 344.294 233.656 343.783 233.545 343.265C233.435 342.746 232.925 342.416 232.406 342.527C231.888 342.637 231.557 343.148 231.668 343.666Z" fill="#060D14"/>
<path d="M231.892 347.35C231.947 347.604 232.196 347.766 232.45 347.712C232.704 347.658 232.866 347.408 232.812 347.154C232.757 346.9 232.508 346.738 232.254 346.793C232 346.847 231.838 347.096 231.892 347.35Z" fill="#060D14"/>
<path d="M231.919 351.067C231.939 351.159 232.029 351.217 232.121 351.198C232.213 351.178 232.271 351.088 232.252 350.996C232.232 350.904 232.142 350.845 232.05 350.865C231.958 350.885 231.899 350.975 231.919 351.067Z" fill="#060D14"/>
<path d="M231.799 354.814C231.803 354.831 231.819 354.841 231.835 354.837C231.851 354.834 231.862 354.818 231.858 354.802C231.855 354.786 231.839 354.775 231.822 354.779C231.806 354.782 231.796 354.798 231.799 354.814Z" fill="#060D14"/>
<path d="M230.869 312.976C230.874 312.997 230.895 313.011 230.917 313.007C230.938 313.002 230.952 312.981 230.948 312.959C230.943 312.937 230.922 312.924 230.9 312.928C230.878 312.933 230.865 312.954 230.869 312.976Z" fill="#060D14"/>
<path d="M230.466 316.784C230.488 316.886 230.589 316.952 230.691 316.93C230.794 316.908 230.859 316.807 230.838 316.704C230.816 316.602 230.715 316.536 230.612 316.558C230.509 316.58 230.444 316.681 230.466 316.784Z" fill="#060D14"/>
<path d="M229.896 320.628C229.955 320.903 230.226 321.079 230.502 321.02C230.777 320.961 230.953 320.69 230.894 320.415C230.835 320.139 230.564 319.964 230.288 320.023C230.013 320.081 229.837 320.352 229.896 320.628Z" fill="#060D14"/>
<path d="M229.192 324.511C229.303 325.029 229.813 325.36 230.331 325.249C230.85 325.138 231.18 324.628 231.069 324.11C230.959 323.591 230.449 323.261 229.93 323.371C229.412 323.482 229.081 323.992 229.192 324.511Z" fill="#060D14"/>
<path d="M228.593 328.361C228.744 329.068 229.44 329.519 230.148 329.368C230.855 329.217 231.306 328.521 231.155 327.813C231.004 327.106 230.308 326.655 229.6 326.806C228.893 326.957 228.442 327.653 228.593 328.361Z" fill="#060D14"/>
<path d="M228.238 332.159C228.4 332.915 229.144 333.397 229.9 333.235C230.656 333.074 231.138 332.33 230.977 331.574C230.815 330.818 230.071 330.336 229.315 330.497C228.559 330.659 228.077 331.402 228.238 332.159Z" fill="#060D14"/>
<path d="M228.138 335.902C228.281 336.572 228.94 336.999 229.61 336.856C230.279 336.713 230.706 336.054 230.563 335.384C230.42 334.714 229.761 334.287 229.092 334.43C228.422 334.573 227.995 335.232 228.138 335.902Z" fill="#060D14"/>
<path d="M228.147 339.632C228.258 340.151 228.768 340.481 229.287 340.371C229.805 340.26 230.136 339.75 230.025 339.231C229.914 338.713 229.404 338.382 228.886 338.493C228.367 338.604 228.037 339.114 228.147 339.632Z" fill="#060D14"/>
<path d="M228.233 343.336C228.303 343.666 228.628 343.876 228.957 343.805C229.286 343.735 229.496 343.411 229.426 343.081C229.356 342.752 229.032 342.542 228.702 342.612C228.373 342.683 228.163 343.007 228.233 343.336Z" fill="#060D14"/>
<path d="M228.28 347.048C228.313 347.205 228.467 347.305 228.624 347.271C228.78 347.238 228.88 347.084 228.847 346.927C228.813 346.771 228.659 346.671 228.503 346.704C228.346 346.738 228.246 346.892 228.28 347.048Z" fill="#060D14"/>
<path d="M228.201 350.798C228.214 350.857 228.272 350.895 228.331 350.882C228.391 350.869 228.429 350.811 228.416 350.752C228.403 350.692 228.345 350.654 228.286 350.667C228.226 350.68 228.188 350.738 228.201 350.798Z" fill="#060D14"/>
<path d="M228.032 354.556C228.035 354.567 228.045 354.573 228.056 354.571C228.067 354.569 228.074 354.558 228.071 354.547C228.069 354.537 228.058 354.53 228.048 354.532C228.037 354.534 228.03 354.545 228.032 354.556Z" fill="#060D14"/>
<path d="M227.11 312.705C227.112 312.716 227.123 312.723 227.134 312.721C227.144 312.718 227.151 312.708 227.149 312.697C227.147 312.686 227.136 312.679 227.125 312.681C227.114 312.684 227.108 312.694 227.11 312.705Z" fill="#060D14"/>
<path d="M226.787 316.506C226.797 316.555 226.845 316.586 226.894 316.576C226.942 316.565 226.973 316.517 226.963 316.469C226.952 316.42 226.905 316.389 226.856 316.4C226.807 316.41 226.776 316.458 226.787 316.506Z" fill="#060D14"/>
<path d="M226.344 320.323C226.375 320.469 226.519 320.562 226.665 320.531C226.811 320.5 226.903 320.356 226.872 320.21C226.841 320.064 226.698 319.972 226.552 320.003C226.406 320.034 226.313 320.177 226.344 320.323Z" fill="#060D14"/>
<path d="M225.833 324.154C225.894 324.441 226.176 324.623 226.462 324.562C226.749 324.501 226.931 324.219 226.87 323.933C226.809 323.647 226.527 323.464 226.241 323.525C225.955 323.586 225.772 323.868 225.833 324.154Z" fill="#060D14"/>
<path d="M225.403 327.978C225.483 328.357 225.855 328.598 226.233 328.517C226.611 328.436 226.852 328.064 226.772 327.686C226.691 327.308 226.319 327.067 225.941 327.148C225.563 327.228 225.322 327.6 225.403 327.978Z" fill="#060D14"/>
<path d="M225.117 331.762C225.201 332.156 225.589 332.407 225.983 332.323C226.377 332.239 226.629 331.851 226.544 331.457C226.46 331.062 226.072 330.811 225.678 330.895C225.284 330.979 225.032 331.367 225.117 331.762Z" fill="#060D14"/>
<path d="M224.967 335.516C225.039 335.851 225.368 336.064 225.703 335.993C226.038 335.921 226.252 335.592 226.18 335.257C226.109 334.922 225.779 334.708 225.444 334.78C225.109 334.851 224.896 335.181 224.967 335.516Z" fill="#060D14"/>
<path d="M224.867 339.259C224.919 339.502 225.158 339.657 225.401 339.605C225.644 339.554 225.799 339.314 225.747 339.071C225.695 338.828 225.456 338.673 225.213 338.725C224.97 338.777 224.815 339.016 224.867 339.259Z" fill="#060D14"/>
<path d="M224.798 343.006C224.828 343.147 224.966 343.236 225.107 343.206C225.247 343.176 225.337 343.038 225.307 342.898C225.277 342.757 225.139 342.668 224.998 342.698C224.858 342.728 224.768 342.866 224.798 343.006Z" fill="#060D14"/>
<path d="M224.659 346.758C224.674 346.828 224.743 346.873 224.813 346.858C224.883 346.843 224.928 346.774 224.913 346.704C224.898 346.634 224.829 346.589 224.759 346.604C224.689 346.619 224.644 346.688 224.659 346.758Z" fill="#060D14"/>
<path d="M224.49 350.516C224.495 350.538 224.516 350.552 224.538 350.547C224.559 350.542 224.573 350.521 224.569 350.5C224.564 350.478 224.543 350.464 224.521 350.469C224.499 350.473 224.486 350.495 224.49 350.516Z" fill="#060D14"/>
<path d="M224.253 354.289C224.254 354.294 224.26 354.298 224.265 354.297C224.27 354.295 224.274 354.29 224.273 354.285C224.272 354.279 224.266 354.276 224.261 354.277C224.255 354.278 224.252 354.283 224.253 354.289Z" fill="#060D14"/>
<path d="M223.343 312.446C223.344 312.451 223.349 312.455 223.355 312.454C223.36 312.453 223.363 312.447 223.362 312.442C223.361 312.437 223.356 312.433 223.35 312.434C223.345 312.435 223.341 312.441 223.343 312.446Z" fill="#060D14"/>
<path d="M223.057 316.229C223.06 316.246 223.076 316.256 223.092 316.252C223.108 316.249 223.119 316.233 223.115 316.217C223.112 316.201 223.096 316.19 223.08 316.194C223.063 316.197 223.053 316.213 223.057 316.229Z" fill="#060D14"/>
<path d="M222.724 320.033C222.736 320.092 222.795 320.13 222.854 320.118C222.914 320.105 222.952 320.046 222.939 319.987C222.926 319.928 222.868 319.89 222.808 319.902C222.749 319.915 222.711 319.974 222.724 320.033Z" fill="#060D14"/>
<path d="M222.369 323.831C222.393 323.944 222.505 324.016 222.618 323.992C222.732 323.968 222.804 323.856 222.78 323.743C222.756 323.63 222.644 323.557 222.531 323.581C222.417 323.606 222.345 323.717 222.369 323.831Z" fill="#060D14"/>
<path d="M222.044 327.622C222.075 327.768 222.219 327.861 222.364 327.83C222.51 327.799 222.603 327.655 222.572 327.51C222.541 327.364 222.398 327.271 222.252 327.302C222.106 327.333 222.013 327.477 222.044 327.622Z" fill="#060D14"/>
<path d="M221.787 331.399C221.818 331.545 221.962 331.638 222.108 331.607C222.254 331.576 222.347 331.432 222.315 331.286C222.284 331.141 222.141 331.048 221.995 331.079C221.849 331.11 221.756 331.253 221.787 331.399Z" fill="#060D14"/>
<path d="M221.582 335.175C221.606 335.289 221.717 335.361 221.831 335.337C221.944 335.313 222.017 335.201 221.992 335.088C221.968 334.974 221.857 334.902 221.743 334.926C221.63 334.95 221.557 335.062 221.582 335.175Z" fill="#060D14"/>
<path d="M221.393 338.938C221.41 339.013 221.484 339.061 221.56 339.045C221.635 339.029 221.683 338.955 221.667 338.879C221.651 338.803 221.577 338.755 221.501 338.771C221.425 338.788 221.377 338.862 221.393 338.938Z" fill="#060D14"/>
<path d="M221.186 342.704C221.195 342.748 221.237 342.775 221.28 342.766C221.324 342.757 221.351 342.714 221.342 342.671C221.333 342.628 221.29 342.6 221.247 342.609C221.204 342.619 221.176 342.661 221.186 342.704Z" fill="#060D14"/>
<path d="M220.978 346.471C220.981 346.487 220.997 346.497 221.013 346.494C221.03 346.49 221.04 346.474 221.036 346.458C221.033 346.442 221.017 346.432 221.001 346.435C220.985 346.438 220.974 346.454 220.978 346.471Z" fill="#060D14"/>
<path d="M220.733 350.256C220.734 350.261 220.739 350.265 220.745 350.263C220.75 350.262 220.754 350.257 220.752 350.251C220.751 350.246 220.746 350.243 220.741 350.244C220.735 350.245 220.732 350.25 220.733 350.256Z" fill="#060D14"/>
<path d="M219.299 315.969C219.3 315.974 219.306 315.977 219.311 315.976C219.316 315.975 219.32 315.97 219.319 315.964C219.318 315.959 219.312 315.956 219.307 315.957C219.301 315.958 219.298 315.963 219.299 315.969Z" fill="#060D14"/>
<path d="M219.023 319.75C219.026 319.766 219.042 319.776 219.059 319.773C219.075 319.769 219.085 319.754 219.082 319.737C219.078 319.721 219.062 319.711 219.046 319.714C219.03 319.718 219.019 319.734 219.023 319.75Z" fill="#060D14"/>
<path d="M218.737 323.533C218.743 323.56 218.769 323.577 218.796 323.571C218.823 323.565 218.84 323.539 218.835 323.512C218.829 323.485 218.802 323.468 218.775 323.473C218.748 323.479 218.731 323.506 218.737 323.533Z" fill="#060D14"/>
<path d="M218.463 327.324C218.471 327.362 218.508 327.386 218.546 327.378C218.584 327.37 218.608 327.332 218.6 327.295C218.592 327.257 218.554 327.233 218.516 327.241C218.479 327.249 218.455 327.286 218.463 327.324Z" fill="#060D14"/>
<path d="M218.206 331.101C218.213 331.133 218.245 331.154 218.277 331.147C218.31 331.14 218.33 331.108 218.323 331.076C218.316 331.043 218.284 331.023 218.252 331.03C218.22 331.037 218.199 331.068 218.206 331.101Z" fill="#060D14"/>
<path d="M217.969 334.874C217.973 334.895 217.995 334.909 218.016 334.904C218.038 334.9 218.052 334.879 218.047 334.857C218.042 334.835 218.021 334.822 218 334.826C217.978 334.831 217.964 334.852 217.969 334.874Z" fill="#060D14"/>
<path d="M217.722 338.648C217.725 338.665 217.741 338.675 217.757 338.671C217.774 338.668 217.784 338.652 217.781 338.636C217.777 338.62 217.761 338.609 217.745 338.613C217.729 338.616 217.718 338.632 217.722 338.648Z" fill="#060D14"/>
<path d="M217.477 342.433C217.478 342.438 217.484 342.442 217.489 342.441C217.494 342.439 217.498 342.434 217.497 342.429C217.495 342.423 217.49 342.42 217.485 342.421C217.479 342.422 217.476 342.428 217.477 342.433Z" fill="#060D14"/>
<path d="M214.999 323.268C215 323.273 215.006 323.277 215.011 323.276C215.016 323.274 215.02 323.269 215.019 323.264C215.018 323.258 215.012 323.255 215.007 323.256C215.001 323.257 214.998 323.262 214.999 323.268Z" fill="#060D14"/>
<path d="M214.742 327.045C214.744 327.05 214.749 327.054 214.754 327.052C214.76 327.051 214.763 327.046 214.762 327.041C214.761 327.035 214.755 327.032 214.75 327.033C214.745 327.034 214.741 327.039 214.742 327.045Z" fill="#060D14"/>
<path d="M214.476 330.824C214.477 330.829 214.482 330.832 214.488 330.831C214.493 330.83 214.497 330.825 214.495 330.819C214.494 330.814 214.489 330.811 214.484 330.812C214.478 330.813 214.475 330.818 214.476 330.824Z" fill="#060D14"/>
</g>
<path d="M245.568 336.454C246.862 335.784 247.926 334.743 248.624 333.464C249.322 332.186 249.622 330.728 249.485 329.277C249.439 329.062 249.393 328.847 249.426 328.472C249.94 328.536 250.351 328.591 250.775 328.613C251.808 328.699 252.849 328.579 253.835 328.26C254.822 327.941 255.735 327.429 256.523 326.753C257.31 326.078 257.955 325.253 258.421 324.327C258.886 323.4 259.163 322.39 259.236 321.356C259.352 319.071 258.57 316.832 257.057 315.116C255.544 313.401 253.42 312.345 251.139 312.175C249.837 312.044 248.523 312.25 247.322 312.771C246.121 313.293 245.074 314.112 244.28 315.153C244.153 315.323 243.991 315.522 243.817 315.763C243.544 315.535 243.312 315.36 243.109 315.178C242.054 314.321 240.733 313.858 239.374 313.87C237.87 313.89 236.406 314.354 235.165 315.203C233.924 316.052 232.961 317.248 232.397 318.642C232.216 319.14 232.093 319.657 232.031 320.183C231.858 321.334 232.057 322.51 232.599 323.54C233.141 324.569 233.997 325.4 235.043 325.91C235.334 326.073 235.618 326.206 235.963 326.388C235.573 326.809 235.258 327.152 234.968 327.521C234.525 328.036 234.216 328.652 234.069 329.315C233.921 329.978 233.94 330.667 234.123 331.321C234.266 331.975 234.534 332.595 234.912 333.147C235.594 334.234 236.504 335.16 237.579 335.861C238.653 336.562 239.868 337.021 241.137 337.206C242.657 337.484 244.225 337.218 245.568 336.454ZM241.756 334.886C240.7 334.754 239.681 334.414 238.759 333.884C237.836 333.354 237.029 332.646 236.383 331.8C236.182 331.515 236.013 331.207 235.881 330.885C235.693 330.518 235.603 330.109 235.619 329.697C235.634 329.285 235.756 328.885 235.972 328.534C236.424 327.792 237.069 327.188 237.838 326.785C238.342 326.514 238.886 326.285 239.389 326.004C239.601 325.892 239.787 325.737 239.936 325.55C239.997 325.427 240.007 325.285 239.964 325.155C239.883 325.06 239.706 324.904 239.628 324.92C239.154 324.975 238.692 325.102 238.256 325.295C237.885 325.474 237.474 325.552 237.063 325.521C236.653 325.491 236.257 325.352 235.917 325.12C235.139 324.725 234.52 324.074 234.164 323.277C233.807 322.481 233.735 321.586 233.96 320.742C234.164 319.845 234.593 319.014 235.207 318.328C235.821 317.642 236.599 317.124 237.469 316.823C239.492 316.053 240.807 316.273 242.982 317.547C243.096 318.085 243.133 318.639 243.254 319.207C243.291 319.286 243.344 319.357 243.409 319.415C243.474 319.473 243.55 319.517 243.633 319.545C243.702 319.55 243.772 319.538 243.835 319.51C243.899 319.482 243.955 319.439 243.998 319.385L244.626 318.402C245.033 317.815 245.396 317.216 245.843 316.629C246.513 315.736 247.428 315.056 248.477 314.672C249.526 314.288 250.663 314.217 251.752 314.467C252.876 314.678 253.919 315.199 254.763 315.97C255.607 316.742 256.219 317.735 256.53 318.835C256.913 319.857 257.032 320.959 256.874 322.039C256.717 323.118 256.289 324.14 255.629 325.01C254.897 326.008 253.87 326.75 252.692 327.132C251.515 327.514 250.247 327.515 249.069 327.137C248.709 326.997 248.402 326.748 248.191 326.425C247.978 326.123 247.705 325.867 247.389 325.674C247.074 325.481 246.722 325.355 246.356 325.303C246.209 325.454 246.113 325.648 246.082 325.856C246.051 326.065 246.087 326.278 246.185 326.465C246.454 327.187 246.686 327.922 246.881 328.668C247.128 329.777 247.005 330.937 246.532 331.971C246.058 333.004 245.26 333.855 244.258 334.392C243.496 334.825 242.613 334.996 241.744 334.878L241.756 334.886Z" fill="#060D14"/>
<path d="M241.743 334.878C240.688 334.746 239.669 334.406 238.746 333.876C237.823 333.346 237.016 332.638 236.37 331.792C236.169 331.507 236.001 331.2 235.868 330.877C235.68 330.51 235.59 330.101 235.606 329.689C235.622 329.277 235.743 328.877 235.959 328.526C236.411 327.784 237.056 327.18 237.825 326.777C238.329 326.506 238.874 326.277 239.376 325.996C239.588 325.884 239.774 325.73 239.923 325.542C239.984 325.419 239.994 325.277 239.951 325.147C239.87 325.052 239.693 324.896 239.615 324.912C239.141 324.967 238.679 325.094 238.243 325.287C237.872 325.466 237.461 325.544 237.05 325.513C236.64 325.483 236.245 325.344 235.905 325.112C235.126 324.717 234.507 324.066 234.151 323.27C233.794 322.473 233.723 321.578 233.947 320.734C234.151 319.837 234.58 319.006 235.194 318.32C235.808 317.634 236.586 317.116 237.456 316.815C239.48 316.045 240.795 316.265 242.969 317.539C243.084 318.077 243.12 318.632 243.241 319.199C243.278 319.278 243.331 319.349 243.396 319.407C243.461 319.465 243.538 319.51 243.62 319.537C243.69 319.542 243.759 319.53 243.822 319.502C243.886 319.474 243.942 319.431 243.985 319.377L244.614 318.394C245.02 317.807 245.383 317.208 245.83 316.621C246.5 315.728 247.415 315.048 248.464 314.664C249.513 314.28 250.65 314.209 251.739 314.459C252.863 314.67 253.906 315.191 254.75 315.963C255.594 316.734 256.206 317.727 256.517 318.828C256.9 319.849 257.019 320.951 256.862 322.031C256.704 323.11 256.276 324.132 255.617 325.002C254.884 326 253.857 326.742 252.68 327.124C251.502 327.506 250.235 327.507 249.056 327.129C248.696 326.989 248.389 326.74 248.178 326.417C247.965 326.115 247.692 325.859 247.377 325.666C247.061 325.473 246.709 325.347 246.343 325.295C246.196 325.446 246.1 325.64 246.069 325.848C246.039 326.057 246.075 326.27 246.172 326.457C246.441 327.179 246.674 327.914 246.868 328.66C247.115 329.77 246.992 330.929 246.519 331.963C246.046 332.996 245.247 333.847 244.246 334.384C243.488 334.817 242.609 334.99 241.743 334.878Z" fill="white"/>
<g opacity="0.3">
<path d="M235.923 325.149C236.263 325.381 236.658 325.52 237.068 325.551C237.479 325.581 237.89 325.503 238.261 325.324C238.476 325.211 238.707 325.13 238.946 325.086C237.278 324.839 234.323 324.028 236.214 321.436C237.027 320.377 238.043 319.491 239.202 318.829C240.362 318.167 241.642 317.742 242.967 317.58C240.793 316.306 239.478 316.086 237.454 316.856C236.585 317.158 235.806 317.676 235.193 318.362C234.579 319.047 234.15 319.878 233.946 320.775C233.724 321.621 233.799 322.516 234.159 323.313C234.519 324.109 235.142 324.757 235.923 325.149Z" fill="#707070"/>
<path d="M248.003 326.27L248.177 326.458C248.388 326.782 248.695 327.031 249.055 327.171C250.233 327.549 251.501 327.547 252.678 327.165C253.855 326.784 254.883 326.041 255.615 325.043C256.151 324.34 256.534 323.533 256.741 322.674C256.949 321.815 256.975 320.922 256.819 320.052C255.739 326.581 249.535 326.403 248.003 326.27Z" fill="#707070"/>
<path d="M244.244 334.425C245.246 333.888 246.044 333.038 246.518 332.004C246.991 330.971 247.113 329.811 246.866 328.701C246.816 328.467 246.764 328.222 246.714 327.987C246.763 331.044 245.447 333.452 241.645 331.115C238.707 329.329 239.129 327.041 239.608 325.885C239.554 325.931 239.493 325.968 239.427 325.995C238.925 326.277 238.38 326.505 237.876 326.777C237.107 327.179 236.462 327.784 236.01 328.525C235.794 328.876 235.673 329.277 235.657 329.689C235.641 330.1 235.731 330.509 235.919 330.876C236.052 331.199 236.22 331.506 236.421 331.791C237.067 332.637 237.874 333.346 238.797 333.875C239.72 334.405 240.739 334.746 241.794 334.877C242.638 334.991 243.496 334.833 244.244 334.425Z" fill="#707070"/>
</g>
</svg>
