<svg width="1406" height="934" viewBox="0 0 1406 934" fill="none" xmlns="http://www.w3.org/2000/svg">
<path d="M1187.15 733.619C1186.43 732.496 1185.63 731.429 1184.74 730.427C1182.58 728.154 1179.96 727.951 1177.97 729.121C1175.24 730.737 1173.44 734.218 1172.37 737.507C1172.09 738.151 1171.97 738.849 1172.01 739.548C1172.04 740.247 1172.24 740.928 1172.58 741.54C1173.64 743.136 1176.45 743.687 1177.14 745.409C1176.14 747.515 1175.85 749.893 1176.32 752.179C1176.68 753.474 1177.23 754.707 1177.97 755.835C1180.09 759.12 1183.13 761.719 1186.7 763.32C1190.27 764.921 1194.23 765.455 1198.1 764.859C1206.03 763.282 1213.58 757.324 1218.08 750.651C1220.45 747.385 1221.76 743.474 1221.85 739.441C1221.84 737.079 1221.35 734.744 1220.4 732.581C1219.45 730.418 1218.07 728.473 1216.33 726.868C1211.57 722.825 1205.86 723.725 1201.33 725.465C1196.21 727.429 1191.43 730.18 1187.15 733.619Z" fill="#060D14"/>
<path d="M1175.45 721.926C1174.74 720.799 1173.94 719.731 1173.05 718.734C1170.88 716.461 1168.26 716.248 1166.28 717.419C1163.54 719.034 1161.74 722.525 1160.66 725.804C1160.39 726.449 1160.27 727.148 1160.31 727.846C1160.35 728.545 1160.54 729.226 1160.88 729.837C1161.95 731.443 1164.75 731.984 1165.45 733.754C1164.44 735.86 1164.15 738.239 1164.63 740.524C1164.98 741.821 1165.53 743.055 1166.26 744.18C1168.39 747.463 1171.43 750.06 1175 751.657C1178.58 753.255 1182.54 753.785 1186.41 753.185C1194.34 751.608 1201.83 745.65 1206.38 738.967C1208.75 735.706 1210.06 731.797 1210.14 727.767C1210.13 725.406 1209.64 723.071 1208.69 720.907C1207.74 718.744 1206.36 716.8 1204.63 715.194C1199.88 711.161 1194.15 712.06 1189.63 713.792C1184.51 715.752 1179.73 718.496 1175.45 721.926Z" fill="#FFFAFA"/>
<path d="M1178.94 721.443C1179.04 720.688 1178.44 720.089 1177.98 719.508C1177.51 718.928 1176.95 718.135 1176.38 717.496C1175.38 716.451 1174.13 715.672 1172.75 715.23C1171.38 714.787 1169.91 714.695 1168.49 714.962C1166.84 715.224 1165.25 715.809 1163.83 716.683C1162.41 717.558 1161.17 718.705 1160.19 720.059C1158.6 722.226 1156.94 725.35 1156.78 728.077C1156.72 728.714 1156.79 729.357 1156.98 729.965C1157.18 730.573 1157.51 731.133 1157.94 731.608C1158.86 732.377 1159.85 733.06 1160.89 733.648C1161.09 733.784 1161.75 734.2 1161.79 734.451C1161.88 734.915 1161.29 735.941 1161.18 736.385C1160.79 737.877 1160.73 739.433 1160.99 740.95C1161.71 743.815 1163.22 746.424 1165.33 748.485C1167.1 750.293 1169.16 751.782 1171.43 752.885C1182.07 758.118 1194.23 753.911 1202.72 746.56C1207.05 742.807 1211.11 737.962 1212.81 732.391C1213.62 729.69 1213.81 726.839 1213.35 724.056C1212.89 721.274 1211.8 718.633 1210.16 716.336C1205.94 710.368 1198.56 709.517 1191.89 711.229C1184.9 713.018 1178.24 716.936 1172.63 721.404C1171.49 722.313 1171.89 723.445 1173.25 723.696C1174.12 723.81 1175.01 723.75 1175.86 723.52C1176.71 723.289 1177.5 722.892 1178.2 722.352C1182.16 719.237 1186.56 716.73 1191.26 714.914C1192.23 714.518 1190.84 715.04 1191.46 714.846L1192.28 714.595L1192.94 714.421C1194 714.131 1192.54 714.479 1193.19 714.353C1193.7 714.253 1194.22 714.182 1194.75 714.14C1194.27 714.14 1194.85 714.14 1194.91 714.14C1195.27 714.14 1195.63 714.14 1195.97 714.14C1198.07 714.391 1200.04 715.286 1201.6 716.703C1203.26 718.288 1204.56 720.205 1205.42 722.329C1206.28 724.453 1206.68 726.735 1206.59 729.025C1206.4 733.948 1203.91 738.252 1200.79 741.927C1197.88 745.462 1194.23 748.314 1190.09 750.284C1189.51 750.535 1188.91 750.777 1188.31 750.98C1188.83 750.806 1188.23 750.98 1188.15 750.98L1187.24 751.232C1186.94 751.319 1186.64 751.386 1186.33 751.454C1186.46 751.454 1187 751.357 1186.4 751.454L1185.87 751.531C1185.57 751.531 1185.08 751.589 1185.66 751.531C1185.19 751.556 1184.72 751.556 1184.25 751.531H1183.68C1184.19 751.531 1183.56 751.531 1183.43 751.531C1182.48 751.423 1181.53 751.252 1180.6 751.019C1176.72 749.946 1173.27 747.679 1170.75 744.539C1169.09 742.669 1168.07 740.317 1167.85 737.826C1167.86 736.569 1168.1 735.324 1168.55 734.151C1168.76 733.581 1169.04 733.184 1168.8 732.555C1168.56 732.083 1168.23 731.662 1167.83 731.317C1166.11 729.77 1163.31 729.296 1163.81 726.365C1164.31 723.835 1165.44 721.471 1167.09 719.489C1167.42 719.124 1167.77 718.784 1168.14 718.473C1167.92 718.676 1168.61 718.357 1168.23 718.396C1167.92 718.446 1167.61 718.514 1167.31 718.599C1166.91 718.676 1167.77 718.715 1167.36 718.599C1167.58 718.65 1167.79 718.718 1168 718.802C1168.53 719.036 1169.01 719.364 1169.42 719.769C1169.92 720.289 1170.39 720.842 1170.83 721.423L1171.56 722.39L1171.85 722.797C1172.11 723.145 1171.85 722.797 1171.85 722.41C1171.63 724.973 1178.66 723.677 1178.94 721.443Z" fill="#060D14"/>
</svg>
