<svg width="1406" height="934" viewBox="0 0 1406 934" fill="none" xmlns="http://www.w3.org/2000/svg">
<g style="mix-blend-mode:multiply">
<path d="M1155.41 449.868C1155.41 449.874 1155.41 449.877 1155.42 449.876C1155.42 449.875 1155.43 449.87 1155.43 449.864C1155.42 449.859 1155.42 449.855 1155.41 449.857C1155.41 449.858 1155.41 449.863 1155.41 449.868Z" fill="#060D14"/>
<path d="M1155.14 453.657C1155.15 453.668 1155.16 453.675 1155.17 453.673C1155.18 453.67 1155.18 453.66 1155.18 453.649C1155.18 453.638 1155.17 453.631 1155.16 453.634C1155.15 453.636 1155.14 453.646 1155.14 453.657Z" fill="#060D14"/>
<path d="M1154.87 457.438C1154.87 457.455 1154.88 457.465 1154.9 457.461C1154.92 457.458 1154.93 457.442 1154.92 457.426C1154.92 457.41 1154.9 457.399 1154.89 457.403C1154.87 457.406 1154.86 457.422 1154.87 457.438Z" fill="#060D14"/>
<path d="M1154.61 461.216C1154.61 461.232 1154.63 461.242 1154.65 461.239C1154.66 461.235 1154.67 461.219 1154.67 461.203C1154.66 461.187 1154.65 461.177 1154.63 461.18C1154.62 461.184 1154.61 461.199 1154.61 461.216Z" fill="#060D14"/>
<path d="M1154.36 465C1154.36 465.006 1154.37 465.009 1154.38 465.008C1154.38 465.007 1154.38 465.002 1154.38 464.996C1154.38 464.991 1154.38 464.987 1154.37 464.988C1154.37 464.99 1154.36 464.995 1154.36 465Z" fill="#060D14"/>
<path d="M1152.15 442.056C1152.15 442.061 1152.16 442.065 1152.16 442.064C1152.17 442.062 1152.17 442.057 1152.17 442.052C1152.17 442.046 1152.17 442.043 1152.16 442.044C1152.15 442.045 1152.15 442.051 1152.15 442.056Z" fill="#060D14"/>
<path d="M1151.87 445.839C1151.87 445.855 1151.89 445.866 1151.9 445.862C1151.92 445.859 1151.93 445.843 1151.93 445.827C1151.92 445.81 1151.91 445.8 1151.89 445.804C1151.87 445.807 1151.86 445.823 1151.87 445.839Z" fill="#060D14"/>
<path d="M1151.57 449.625C1151.58 449.662 1151.62 449.686 1151.65 449.678C1151.69 449.67 1151.72 449.633 1151.71 449.595C1151.7 449.557 1151.66 449.533 1151.62 449.541C1151.59 449.55 1151.56 449.587 1151.57 449.625Z" fill="#060D14"/>
<path d="M1151.25 453.416C1151.26 453.486 1151.33 453.531 1151.4 453.516C1151.47 453.501 1151.51 453.432 1151.5 453.362C1151.48 453.291 1151.42 453.247 1151.35 453.262C1151.28 453.277 1151.23 453.346 1151.25 453.416Z" fill="#060D14"/>
<path d="M1150.96 457.209C1150.98 457.296 1151.06 457.351 1151.15 457.332C1151.24 457.314 1151.29 457.229 1151.27 457.142C1151.26 457.056 1151.17 457.001 1151.08 457.019C1151 457.038 1150.94 457.123 1150.96 457.209Z" fill="#060D14"/>
<path d="M1150.71 460.984C1150.73 461.06 1150.8 461.108 1150.88 461.092C1150.96 461.075 1151 461.001 1150.99 460.926C1150.97 460.85 1150.9 460.802 1150.82 460.818C1150.75 460.834 1150.7 460.908 1150.71 460.984Z" fill="#060D14"/>
<path d="M1150.53 464.746C1150.53 464.784 1150.57 464.808 1150.61 464.8C1150.65 464.792 1150.67 464.755 1150.66 464.717C1150.65 464.679 1150.62 464.655 1150.58 464.663C1150.54 464.671 1150.52 464.708 1150.53 464.746Z" fill="#060D14"/>
<path d="M1150.3 468.517C1150.3 468.533 1150.32 468.543 1150.33 468.54C1150.35 468.537 1150.36 468.521 1150.36 468.504C1150.35 468.488 1150.34 468.478 1150.32 468.481C1150.31 468.485 1150.3 468.501 1150.3 468.517Z" fill="#060D14"/>
<path d="M1150.06 472.3C1150.07 472.305 1150.07 472.308 1150.08 472.307C1150.08 472.306 1150.09 472.301 1150.08 472.295C1150.08 472.29 1150.08 472.287 1150.07 472.288C1150.07 472.289 1150.06 472.294 1150.06 472.3Z" fill="#060D14"/>
<path d="M1148.34 441.796C1148.35 441.812 1148.36 441.822 1148.38 441.819C1148.4 441.815 1148.41 441.799 1148.4 441.783C1148.4 441.767 1148.38 441.757 1148.37 441.76C1148.35 441.764 1148.34 441.78 1148.34 441.796Z" fill="#060D14"/>
<path d="M1148 445.591C1148.01 445.656 1148.08 445.697 1148.14 445.684C1148.21 445.67 1148.25 445.606 1148.23 445.541C1148.22 445.476 1148.16 445.435 1148.09 445.449C1148.03 445.463 1147.99 445.527 1148 445.591Z" fill="#060D14"/>
<path d="M1147.6 449.41C1147.63 449.55 1147.77 449.64 1147.91 449.61C1148.05 449.58 1148.14 449.442 1148.11 449.301C1148.08 449.161 1147.94 449.071 1147.8 449.101C1147.66 449.131 1147.57 449.269 1147.6 449.41Z" fill="#060D14"/>
<path d="M1147.18 453.22C1147.23 453.447 1147.46 453.591 1147.68 453.543C1147.91 453.495 1148.05 453.271 1148.01 453.045C1147.96 452.818 1147.73 452.673 1147.51 452.722C1147.28 452.77 1147.14 452.993 1147.18 453.22Z" fill="#060D14"/>
<path d="M1146.87 457.009C1146.93 457.269 1147.18 457.434 1147.44 457.378C1147.7 457.323 1147.86 457.068 1147.81 456.809C1147.75 456.55 1147.5 456.384 1147.24 456.44C1146.98 456.495 1146.82 456.75 1146.87 457.009Z" fill="#060D14"/>
<path d="M1146.67 460.774C1146.72 460.995 1146.94 461.137 1147.16 461.089C1147.38 461.042 1147.52 460.824 1147.47 460.603C1147.43 460.381 1147.21 460.24 1146.99 460.287C1146.77 460.335 1146.63 460.552 1146.67 460.774Z" fill="#060D14"/>
<path d="M1146.58 464.525C1146.61 464.655 1146.74 464.737 1146.87 464.709C1147 464.682 1147.08 464.554 1147.05 464.425C1147.02 464.295 1146.9 464.212 1146.77 464.24C1146.64 464.268 1146.55 464.395 1146.58 464.525Z" fill="#060D14"/>
<path d="M1146.44 468.277C1146.46 468.336 1146.52 468.374 1146.58 468.362C1146.63 468.349 1146.67 468.291 1146.66 468.231C1146.65 468.172 1146.59 468.134 1146.53 468.147C1146.47 468.159 1146.43 468.218 1146.44 468.277Z" fill="#060D14"/>
<path d="M1146.27 472.037C1146.27 472.053 1146.29 472.064 1146.3 472.06C1146.32 472.057 1146.33 472.041 1146.32 472.024C1146.32 472.008 1146.31 471.998 1146.29 472.001C1146.27 472.005 1146.26 472.021 1146.27 472.037Z" fill="#060D14"/>
<path d="M1146.02 475.812C1146.02 475.817 1146.02 475.821 1146.03 475.82C1146.03 475.818 1146.04 475.813 1146.04 475.808C1146.04 475.802 1146.03 475.799 1146.03 475.8C1146.02 475.801 1146.02 475.806 1146.02 475.812Z" fill="#060D14"/>
<path d="M1144.84 437.748C1144.84 437.759 1144.85 437.766 1144.87 437.763C1144.88 437.761 1144.88 437.751 1144.88 437.74C1144.88 437.729 1144.87 437.722 1144.86 437.724C1144.85 437.727 1144.84 437.737 1144.84 437.748Z" fill="#060D14"/>
<path d="M1144.52 441.55C1144.53 441.593 1144.57 441.62 1144.61 441.611C1144.66 441.602 1144.68 441.559 1144.67 441.516C1144.67 441.473 1144.62 441.445 1144.58 441.455C1144.54 441.464 1144.51 441.506 1144.52 441.55Z" fill="#060D14"/>
<path d="M1144.08 445.364C1144.11 445.504 1144.25 445.594 1144.39 445.564C1144.53 445.534 1144.62 445.396 1144.59 445.255C1144.56 445.115 1144.43 445.025 1144.28 445.055C1144.14 445.085 1144.05 445.223 1144.08 445.364Z" fill="#060D14"/>
<path d="M1143.52 449.208C1143.58 449.516 1143.88 449.712 1144.19 449.646C1144.5 449.58 1144.7 449.277 1144.63 448.97C1144.57 448.662 1144.26 448.465 1143.95 448.531C1143.65 448.597 1143.45 448.9 1143.52 449.208Z" fill="#060D14"/>
<path d="M1142.94 453.053C1143.04 453.54 1143.52 453.849 1144.01 453.746C1144.49 453.642 1144.8 453.164 1144.7 452.678C1144.59 452.191 1144.12 451.882 1143.63 451.985C1143.14 452.089 1142.83 452.567 1142.94 453.053Z" fill="#060D14"/>
<path d="M1142.53 456.872C1142.65 457.434 1143.21 457.792 1143.77 457.672C1144.33 457.552 1144.69 456.999 1144.57 456.437C1144.45 455.876 1143.9 455.518 1143.33 455.638C1142.77 455.758 1142.41 456.31 1142.53 456.872Z" fill="#060D14"/>
<path d="M1142.44 460.615C1142.54 461.091 1143 461.394 1143.48 461.292C1143.95 461.191 1144.26 460.723 1144.16 460.248C1144.05 459.773 1143.59 459.47 1143.11 459.571C1142.64 459.673 1142.33 460.14 1142.44 460.615Z" fill="#060D14"/>
<path d="M1142.47 464.33C1142.54 464.638 1142.84 464.834 1143.15 464.768C1143.46 464.702 1143.65 464.399 1143.59 464.092C1143.52 463.784 1143.22 463.587 1142.91 463.653C1142.6 463.719 1142.41 464.022 1142.47 464.33Z" fill="#060D14"/>
<path d="M1142.5 468.046C1142.53 468.197 1142.68 468.294 1142.83 468.261C1142.98 468.229 1143.08 468.08 1143.05 467.929C1143.01 467.778 1142.87 467.681 1142.71 467.714C1142.56 467.746 1142.47 467.895 1142.5 468.046Z" fill="#060D14"/>
<path d="M1142.4 471.799C1142.41 471.858 1142.47 471.896 1142.53 471.884C1142.59 471.871 1142.63 471.813 1142.61 471.753C1142.6 471.694 1142.54 471.656 1142.48 471.668C1142.42 471.681 1142.39 471.74 1142.4 471.799Z" fill="#060D14"/>
<path d="M1142.22 475.559C1142.22 475.576 1142.24 475.586 1142.26 475.583C1142.27 475.579 1142.28 475.563 1142.28 475.547C1142.28 475.531 1142.26 475.52 1142.24 475.524C1142.23 475.527 1142.22 475.543 1142.22 475.559Z" fill="#060D14"/>
<path d="M1141.98 479.332C1141.99 479.338 1141.99 479.341 1142 479.34C1142 479.339 1142.01 479.334 1142 479.328C1142 479.323 1142 479.319 1141.99 479.32C1141.99 479.322 1141.98 479.327 1141.98 479.332Z" fill="#060D14"/>
<path d="M1141.05 437.495C1141.05 437.512 1141.06 437.522 1141.08 437.519C1141.1 437.515 1141.11 437.499 1141.1 437.483C1141.1 437.467 1141.08 437.456 1141.07 437.46C1141.05 437.463 1141.04 437.479 1141.05 437.495Z" fill="#060D14"/>
<path d="M1140.69 441.293C1140.71 441.363 1140.77 441.408 1140.85 441.393C1140.92 441.378 1140.96 441.309 1140.95 441.239C1140.93 441.169 1140.86 441.124 1140.79 441.139C1140.72 441.154 1140.68 441.223 1140.69 441.293Z" fill="#060D14"/>
<path d="M1140.15 445.131C1140.2 445.352 1140.42 445.493 1140.64 445.446C1140.86 445.399 1141 445.181 1140.95 444.96C1140.91 444.738 1140.69 444.597 1140.47 444.644C1140.24 444.692 1140.1 444.909 1140.15 445.131Z" fill="#060D14"/>
<path d="M1139.43 449.018C1139.53 449.499 1140 449.805 1140.48 449.703C1140.96 449.6 1141.27 449.127 1141.17 448.646C1141.06 448.166 1140.59 447.859 1140.11 447.962C1139.63 448.064 1139.32 448.537 1139.43 449.018Z" fill="#060D14"/>
<path d="M1138.63 452.91C1138.8 453.682 1139.56 454.175 1140.33 454.01C1141.1 453.845 1141.59 453.085 1141.43 452.313C1141.26 451.54 1140.5 451.048 1139.73 451.213C1138.96 451.378 1138.47 452.138 1138.63 452.91Z" fill="#060D14"/>
<path d="M1138.13 456.739C1138.32 457.646 1139.22 458.225 1140.12 458.031C1141.03 457.837 1141.61 456.944 1141.42 456.037C1141.22 455.13 1140.33 454.551 1139.42 454.745C1138.51 454.939 1137.94 455.831 1138.13 456.739Z" fill="#060D14"/>
<path d="M1138.06 460.476C1138.23 461.281 1139.02 461.794 1139.83 461.622C1140.63 461.45 1141.15 460.658 1140.97 459.854C1140.8 459.049 1140.01 458.536 1139.2 458.708C1138.4 458.88 1137.89 459.671 1138.06 460.476Z" fill="#060D14"/>
<path d="M1138.24 464.171C1138.36 464.732 1138.91 465.091 1139.47 464.971C1140.03 464.851 1140.39 464.298 1140.27 463.736C1140.15 463.175 1139.6 462.817 1139.04 462.936C1138.47 463.056 1138.12 463.609 1138.24 464.171Z" fill="#060D14"/>
<path d="M1138.41 467.856C1138.48 468.18 1138.8 468.387 1139.12 468.317C1139.44 468.248 1139.65 467.929 1139.58 467.605C1139.51 467.281 1139.19 467.075 1138.87 467.144C1138.55 467.213 1138.34 467.532 1138.41 467.856Z" fill="#060D14"/>
<path d="M1138.44 471.57C1138.48 471.727 1138.63 471.827 1138.79 471.793C1138.95 471.76 1139.05 471.606 1139.01 471.449C1138.98 471.292 1138.82 471.193 1138.67 471.226C1138.51 471.26 1138.41 471.414 1138.44 471.57Z" fill="#060D14"/>
<path d="M1138.36 475.321C1138.37 475.386 1138.43 475.427 1138.5 475.414C1138.56 475.4 1138.61 475.336 1138.59 475.271C1138.58 475.206 1138.51 475.165 1138.45 475.179C1138.38 475.193 1138.34 475.257 1138.36 475.321Z" fill="#060D14"/>
<path d="M1138.18 479.082C1138.18 479.098 1138.2 479.108 1138.21 479.105C1138.23 479.102 1138.24 479.086 1138.24 479.069C1138.23 479.053 1138.22 479.043 1138.2 479.046C1138.18 479.05 1138.17 479.066 1138.18 479.082Z" fill="#060D14"/>
<path d="M1137.27 437.229C1137.27 437.245 1137.29 437.255 1137.3 437.252C1137.32 437.248 1137.33 437.233 1137.32 437.216C1137.32 437.2 1137.31 437.19 1137.29 437.193C1137.27 437.197 1137.26 437.213 1137.27 437.229Z" fill="#060D14"/>
<path d="M1136.88 441.043C1136.9 441.13 1136.99 441.185 1137.07 441.166C1137.16 441.148 1137.22 441.063 1137.2 440.976C1137.18 440.89 1137.09 440.835 1137.01 440.853C1136.92 440.872 1136.87 440.957 1136.88 441.043Z" fill="#060D14"/>
<path d="M1136.29 444.891C1136.35 445.156 1136.61 445.324 1136.88 445.268C1137.14 445.211 1137.31 444.951 1137.25 444.686C1137.2 444.422 1136.94 444.253 1136.67 444.309C1136.41 444.366 1136.24 444.626 1136.29 444.891Z" fill="#060D14"/>
<path d="M1135.46 448.791C1135.59 449.374 1136.16 449.746 1136.74 449.622C1137.33 449.497 1137.7 448.923 1137.57 448.34C1137.45 447.757 1136.87 447.385 1136.29 447.509C1135.71 447.634 1135.34 448.208 1135.46 448.791Z" fill="#060D14"/>
<path d="M1134.54 452.72C1134.74 453.665 1135.67 454.268 1136.62 454.066C1137.56 453.864 1138.17 452.934 1137.97 451.989C1137.76 451.044 1136.83 450.441 1135.89 450.643C1134.94 450.845 1134.34 451.775 1134.54 452.72Z" fill="#060D14"/>
<path d="M1133.9 456.578C1134.15 457.734 1135.29 458.471 1136.44 458.224C1137.6 457.977 1138.34 456.84 1138.09 455.684C1137.84 454.528 1136.71 453.791 1135.55 454.038C1134.39 454.285 1133.66 455.422 1133.9 456.578Z" fill="#060D14"/>
<path d="M1133.73 460.336C1133.97 461.438 1135.05 462.141 1136.16 461.905C1137.26 461.67 1137.96 460.586 1137.72 459.484C1137.49 458.382 1136.41 457.68 1135.3 457.915C1134.2 458.151 1133.5 459.235 1133.73 460.336Z" fill="#060D14"/>
<path d="M1133.92 464.019C1134.1 464.878 1134.95 465.426 1135.8 465.242C1136.66 465.059 1137.21 464.214 1137.03 463.355C1136.84 462.496 1136 461.949 1135.14 462.132C1134.28 462.316 1133.73 463.161 1133.92 464.019Z" fill="#060D14"/>
<path d="M1134.17 467.698C1134.29 468.27 1134.86 468.635 1135.43 468.513C1136 468.391 1136.37 467.827 1136.24 467.255C1136.12 466.682 1135.56 466.317 1134.99 466.44C1134.41 466.562 1134.05 467.125 1134.17 467.698Z" fill="#060D14"/>
<path d="M1134.36 471.38C1134.43 471.71 1134.75 471.92 1135.08 471.849C1135.41 471.779 1135.62 471.455 1135.55 471.125C1135.48 470.796 1135.15 470.586 1134.83 470.656C1134.5 470.727 1134.29 471.051 1134.36 471.38Z" fill="#060D14"/>
<path d="M1134.42 475.088C1134.45 475.234 1134.6 475.327 1134.74 475.296C1134.89 475.265 1134.98 475.121 1134.95 474.975C1134.92 474.83 1134.77 474.737 1134.63 474.768C1134.48 474.799 1134.39 474.942 1134.42 475.088Z" fill="#060D14"/>
<path d="M1134.35 478.826C1134.36 478.869 1134.4 478.896 1134.45 478.887C1134.49 478.878 1134.52 478.835 1134.51 478.792C1134.5 478.749 1134.46 478.721 1134.41 478.731C1134.37 478.74 1134.34 478.782 1134.35 478.826Z" fill="#060D14"/>
<path d="M1134.15 482.6C1134.16 482.61 1134.17 482.617 1134.18 482.615C1134.19 482.613 1134.2 482.602 1134.19 482.591C1134.19 482.581 1134.18 482.574 1134.17 482.576C1134.16 482.578 1134.15 482.589 1134.15 482.6Z" fill="#060D14"/>
<path d="M1133.5 436.97C1133.5 436.981 1133.51 436.988 1133.52 436.986C1133.53 436.983 1133.54 436.973 1133.54 436.962C1133.54 436.951 1133.52 436.944 1133.51 436.947C1133.5 436.949 1133.5 436.959 1133.5 436.97Z" fill="#060D14"/>
<path d="M1133.11 440.775C1133.13 440.85 1133.21 440.898 1133.28 440.882C1133.36 440.866 1133.4 440.792 1133.39 440.716C1133.37 440.64 1133.3 440.592 1133.22 440.608C1133.15 440.624 1133.1 440.699 1133.11 440.775Z" fill="#060D14"/>
<path d="M1132.55 444.628C1132.6 444.876 1132.85 445.035 1133.09 444.982C1133.34 444.929 1133.5 444.684 1133.45 444.436C1133.39 444.187 1133.15 444.029 1132.9 444.082C1132.65 444.135 1132.49 444.379 1132.55 444.628Z" fill="#060D14"/>
<path d="M1131.7 448.532C1131.82 449.105 1132.38 449.47 1132.95 449.347C1133.53 449.225 1133.89 448.662 1133.77 448.089C1133.65 447.517 1133.08 447.152 1132.51 447.274C1131.94 447.396 1131.57 447.96 1131.7 448.532Z" fill="#060D14"/>
<path d="M1130.72 452.462C1130.93 453.428 1131.88 454.045 1132.85 453.838C1133.82 453.632 1134.43 452.681 1134.23 451.714C1134.02 450.747 1133.07 450.131 1132.1 450.337C1131.13 450.544 1130.52 451.495 1130.72 452.462Z" fill="#060D14"/>
<path d="M1129.96 456.347C1130.22 457.59 1131.45 458.382 1132.69 458.116C1133.93 457.851 1134.72 456.629 1134.46 455.386C1134.19 454.144 1132.97 453.352 1131.73 453.618C1130.49 453.883 1129.69 455.105 1129.96 456.347Z" fill="#060D14"/>
<path d="M1129.65 460.145C1129.93 461.414 1131.17 462.223 1132.44 461.952C1133.71 461.681 1134.52 460.432 1134.25 459.163C1133.98 457.894 1132.73 457.085 1131.46 457.356C1130.19 457.627 1129.38 458.875 1129.65 460.145Z" fill="#060D14"/>
<path d="M1129.68 463.861C1129.92 464.974 1131.01 465.683 1132.13 465.445C1133.24 465.208 1133.95 464.113 1133.71 463C1133.47 461.888 1132.38 461.178 1131.27 461.416C1130.15 461.654 1129.44 462.748 1129.68 463.861Z" fill="#060D14"/>
<path d="M1129.92 467.531C1130.1 468.363 1130.92 468.893 1131.75 468.716C1132.58 468.538 1133.11 467.72 1132.93 466.888C1132.76 466.056 1131.94 465.526 1131.11 465.704C1130.28 465.881 1129.75 466.699 1129.92 467.531Z" fill="#060D14"/>
<path d="M1130.23 471.187C1130.35 471.706 1130.86 472.036 1131.37 471.925C1131.89 471.815 1132.22 471.304 1132.11 470.786C1132 470.267 1131.49 469.937 1130.97 470.048C1130.45 470.158 1130.12 470.669 1130.23 471.187Z" fill="#060D14"/>
<path d="M1130.47 474.869C1130.52 475.112 1130.76 475.267 1131 475.215C1131.24 475.163 1131.4 474.924 1131.35 474.681C1131.3 474.438 1131.06 474.283 1130.81 474.335C1130.57 474.387 1130.42 474.626 1130.47 474.869Z" fill="#060D14"/>
<path d="M1130.5 478.586C1130.51 478.672 1130.6 478.727 1130.69 478.709C1130.77 478.69 1130.83 478.605 1130.81 478.519C1130.79 478.432 1130.71 478.377 1130.62 478.396C1130.53 478.414 1130.48 478.499 1130.5 478.586Z" fill="#060D14"/>
<path d="M1130.36 482.338C1130.36 482.354 1130.38 482.364 1130.39 482.361C1130.41 482.357 1130.42 482.341 1130.41 482.325C1130.41 482.309 1130.4 482.299 1130.38 482.302C1130.36 482.306 1130.35 482.322 1130.36 482.338Z" fill="#060D14"/>
<path d="M1129.71 436.716C1129.71 436.727 1129.72 436.734 1129.73 436.731C1129.75 436.729 1129.75 436.718 1129.75 436.708C1129.75 436.697 1129.74 436.69 1129.73 436.692C1129.72 436.694 1129.71 436.705 1129.71 436.716Z" fill="#060D14"/>
<path d="M1129.37 440.511C1129.38 440.571 1129.44 440.609 1129.5 440.596C1129.56 440.583 1129.59 440.525 1129.58 440.465C1129.57 440.406 1129.51 440.368 1129.45 440.381C1129.39 440.394 1129.35 440.452 1129.37 440.511Z" fill="#060D14"/>
<path d="M1128.85 444.345C1128.89 444.55 1129.09 444.681 1129.3 444.637C1129.5 444.593 1129.63 444.391 1129.59 444.186C1129.55 443.981 1129.34 443.85 1129.14 443.894C1128.93 443.938 1128.8 444.14 1128.85 444.345Z" fill="#060D14"/>
<path d="M1128.06 448.234C1128.17 448.726 1128.65 449.039 1129.14 448.934C1129.63 448.829 1129.95 448.346 1129.84 447.854C1129.74 447.363 1129.25 447.049 1128.76 447.154C1128.27 447.259 1127.96 447.743 1128.06 448.234Z" fill="#060D14"/>
<path d="M1127.1 452.172C1127.29 453.052 1128.16 453.613 1129.04 453.425C1129.92 453.237 1130.48 452.371 1130.29 451.491C1130.1 450.61 1129.24 450.049 1128.36 450.237C1127.48 450.425 1126.92 451.291 1127.1 452.172Z" fill="#060D14"/>
<path d="M1126.27 456.072C1126.52 457.265 1127.7 458.026 1128.89 457.771C1130.09 457.516 1130.85 456.342 1130.59 455.149C1130.34 453.955 1129.16 453.194 1127.97 453.449C1126.78 453.704 1126.02 454.878 1126.27 456.072Z" fill="#060D14"/>
<path d="M1125.84 459.887C1126.11 461.177 1127.38 462 1128.67 461.725C1129.96 461.449 1130.79 460.179 1130.51 458.888C1130.24 457.597 1128.97 456.774 1127.67 457.05C1126.38 457.326 1125.56 458.596 1125.84 459.887Z" fill="#060D14"/>
<path d="M1125.74 463.63C1125.99 464.829 1127.17 465.593 1128.37 465.337C1129.57 465.081 1130.34 463.901 1130.08 462.702C1129.82 461.503 1128.64 460.739 1127.44 460.995C1126.25 461.251 1125.48 462.431 1125.74 463.63Z" fill="#060D14"/>
<path d="M1125.94 467.318C1126.14 468.264 1127.07 468.866 1128.02 468.664C1128.96 468.462 1129.57 467.533 1129.36 466.587C1129.16 465.642 1128.23 465.04 1127.29 465.242C1126.34 465.443 1125.74 466.373 1125.94 467.318Z" fill="#060D14"/>
<path d="M1126.3 470.964C1126.43 471.563 1127.02 471.945 1127.62 471.817C1128.22 471.689 1128.6 471.1 1128.47 470.5C1128.34 469.901 1127.75 469.518 1127.15 469.646C1126.56 469.774 1126.17 470.364 1126.3 470.964Z" fill="#060D14"/>
<path d="M1126.59 474.624C1126.66 474.921 1126.95 475.11 1127.24 475.047C1127.54 474.983 1127.73 474.691 1127.67 474.394C1127.6 474.097 1127.31 473.907 1127.01 473.971C1126.72 474.034 1126.53 474.327 1126.59 474.624Z" fill="#060D14"/>
<path d="M1126.69 478.325C1126.71 478.428 1126.81 478.493 1126.91 478.471C1127.02 478.449 1127.08 478.348 1127.06 478.246C1127.04 478.143 1126.94 478.078 1126.83 478.1C1126.73 478.122 1126.67 478.223 1126.69 478.325Z" fill="#060D14"/>
<path d="M1126.57 482.083C1126.57 482.105 1126.59 482.119 1126.62 482.114C1126.64 482.109 1126.65 482.088 1126.65 482.066C1126.64 482.045 1126.62 482.031 1126.6 482.036C1126.58 482.04 1126.56 482.062 1126.57 482.083Z" fill="#060D14"/>
<path d="M1125.94 436.447C1125.94 436.452 1125.95 436.456 1125.96 436.455C1125.96 436.454 1125.96 436.448 1125.96 436.443C1125.96 436.437 1125.96 436.434 1125.95 436.435C1125.95 436.436 1125.94 436.442 1125.94 436.447Z" fill="#060D14"/>
<path d="M1125.63 440.236C1125.64 440.274 1125.67 440.298 1125.71 440.29C1125.75 440.282 1125.77 440.245 1125.76 440.207C1125.76 440.169 1125.72 440.145 1125.68 440.153C1125.64 440.161 1125.62 440.199 1125.63 440.236Z" fill="#060D14"/>
<path d="M1125.16 444.069C1125.19 444.22 1125.34 444.317 1125.49 444.284C1125.64 444.252 1125.74 444.103 1125.7 443.952C1125.67 443.801 1125.52 443.704 1125.37 443.737C1125.22 443.769 1125.13 443.918 1125.16 444.069Z" fill="#060D14"/>
<path d="M1124.46 447.94C1124.55 448.335 1124.93 448.586 1125.33 448.502C1125.72 448.417 1125.97 448.03 1125.89 447.635C1125.8 447.241 1125.42 446.99 1125.02 447.074C1124.63 447.158 1124.38 447.546 1124.46 447.94Z" fill="#060D14"/>
<path d="M1123.58 451.851C1123.74 452.585 1124.46 453.054 1125.19 452.897C1125.93 452.74 1126.4 452.017 1126.24 451.283C1126.08 450.548 1125.36 450.08 1124.63 450.237C1123.89 450.394 1123.42 451.116 1123.58 451.851Z" fill="#060D14"/>
<path d="M1122.81 455.736C1123.03 456.752 1124.03 457.399 1125.04 457.182C1126.06 456.965 1126.71 455.966 1126.49 454.951C1126.27 453.935 1125.27 453.288 1124.26 453.505C1123.24 453.722 1122.6 454.721 1122.81 455.736Z" fill="#060D14"/>
<path d="M1122.37 459.563C1122.61 460.675 1123.7 461.385 1124.82 461.147C1125.93 460.909 1126.64 459.815 1126.4 458.702C1126.16 457.589 1125.07 456.88 1123.96 457.118C1122.84 457.355 1122.13 458.45 1122.37 459.563Z" fill="#060D14"/>
<path d="M1122.27 463.306C1122.49 464.332 1123.5 464.987 1124.53 464.767C1125.55 464.548 1126.21 463.539 1125.99 462.512C1125.77 461.486 1124.76 460.832 1123.73 461.051C1122.71 461.27 1122.05 462.28 1122.27 463.306Z" fill="#060D14"/>
<path d="M1122.41 467C1122.58 467.81 1123.38 468.326 1124.19 468.153C1125 467.98 1125.51 467.183 1125.34 466.373C1125.17 465.563 1124.37 465.047 1123.56 465.22C1122.75 465.393 1122.23 466.19 1122.41 467Z" fill="#060D14"/>
<path d="M1122.67 470.666C1122.78 471.185 1123.29 471.515 1123.81 471.404C1124.33 471.294 1124.66 470.783 1124.55 470.265C1124.44 469.746 1123.93 469.416 1123.41 469.527C1122.89 469.637 1122.56 470.148 1122.67 470.666Z" fill="#060D14"/>
<path d="M1122.89 474.35C1122.95 474.604 1123.2 474.766 1123.45 474.712C1123.71 474.658 1123.87 474.408 1123.81 474.154C1123.76 473.9 1123.51 473.738 1123.26 473.793C1123 473.847 1122.84 474.096 1122.89 474.35Z" fill="#060D14"/>
<path d="M1122.92 478.067C1122.94 478.159 1123.03 478.217 1123.12 478.198C1123.21 478.178 1123.27 478.088 1123.25 477.996C1123.23 477.904 1123.14 477.845 1123.05 477.865C1122.96 477.885 1122.9 477.975 1122.92 478.067Z" fill="#060D14"/>
<path d="M1122.8 481.814C1122.8 481.831 1122.82 481.841 1122.83 481.837C1122.85 481.834 1122.86 481.818 1122.86 481.802C1122.85 481.786 1122.84 481.775 1122.82 481.779C1122.81 481.782 1122.8 481.798 1122.8 481.814Z" fill="#060D14"/>
<path d="M1121.87 439.976C1121.87 439.997 1121.9 440.011 1121.92 440.007C1121.94 440.002 1121.95 439.981 1121.95 439.959C1121.94 439.937 1121.92 439.924 1121.9 439.928C1121.88 439.933 1121.86 439.954 1121.87 439.976Z" fill="#060D14"/>
<path d="M1121.47 443.784C1121.49 443.886 1121.59 443.952 1121.69 443.93C1121.8 443.908 1121.86 443.807 1121.84 443.704C1121.82 443.602 1121.72 443.536 1121.61 443.558C1121.51 443.58 1121.44 443.681 1121.47 443.784Z" fill="#060D14"/>
<path d="M1120.9 447.628C1120.95 447.903 1121.23 448.079 1121.5 448.02C1121.78 447.961 1121.95 447.69 1121.89 447.415C1121.83 447.139 1121.56 446.964 1121.29 447.023C1121.01 447.081 1120.84 447.352 1120.9 447.628Z" fill="#060D14"/>
<path d="M1120.19 451.511C1120.3 452.029 1120.81 452.36 1121.33 452.249C1121.85 452.138 1122.18 451.628 1122.07 451.11C1121.96 450.591 1121.45 450.261 1120.93 450.371C1120.41 450.482 1120.08 450.992 1120.19 451.511Z" fill="#060D14"/>
<path d="M1119.59 455.361C1119.75 456.068 1120.44 456.519 1121.15 456.368C1121.86 456.217 1122.31 455.521 1122.16 454.813C1122.01 454.106 1121.31 453.655 1120.6 453.806C1119.89 453.957 1119.44 454.653 1119.59 455.361Z" fill="#060D14"/>
<path d="M1119.24 459.159C1119.4 459.915 1120.15 460.397 1120.9 460.235C1121.66 460.074 1122.14 459.33 1121.98 458.574C1121.82 457.818 1121.07 457.336 1120.32 457.497C1119.56 457.659 1119.08 458.402 1119.24 459.159Z" fill="#060D14"/>
<path d="M1119.14 462.902C1119.28 463.572 1119.94 463.999 1120.61 463.856C1121.28 463.713 1121.71 463.054 1121.56 462.384C1121.42 461.714 1120.76 461.287 1120.09 461.43C1119.42 461.573 1119 462.232 1119.14 462.902Z" fill="#060D14"/>
<path d="M1119.15 466.632C1119.26 467.151 1119.77 467.481 1120.29 467.371C1120.81 467.26 1121.14 466.75 1121.03 466.231C1120.92 465.713 1120.41 465.382 1119.89 465.493C1119.37 465.604 1119.04 466.114 1119.15 466.632Z" fill="#060D14"/>
<path d="M1119.23 470.336C1119.3 470.666 1119.63 470.876 1119.96 470.805C1120.29 470.735 1120.5 470.411 1120.43 470.081C1120.36 469.752 1120.03 469.542 1119.7 469.612C1119.37 469.683 1119.16 470.007 1119.23 470.336Z" fill="#060D14"/>
<path d="M1119.28 474.048C1119.31 474.205 1119.47 474.305 1119.62 474.271C1119.78 474.238 1119.88 474.084 1119.85 473.927C1119.81 473.771 1119.66 473.671 1119.5 473.704C1119.35 473.738 1119.25 473.892 1119.28 474.048Z" fill="#060D14"/>
<path d="M1119.2 477.798C1119.22 477.857 1119.27 477.895 1119.33 477.882C1119.39 477.869 1119.43 477.811 1119.42 477.752C1119.4 477.692 1119.35 477.654 1119.29 477.667C1119.23 477.68 1119.19 477.738 1119.2 477.798Z" fill="#060D14"/>
<path d="M1119.03 481.556C1119.04 481.567 1119.05 481.573 1119.06 481.571C1119.07 481.569 1119.07 481.558 1119.07 481.547C1119.07 481.537 1119.06 481.53 1119.05 481.532C1119.04 481.534 1119.03 481.545 1119.03 481.556Z" fill="#060D14"/>
<path d="M1118.11 439.705C1118.11 439.716 1118.12 439.723 1118.13 439.721C1118.14 439.718 1118.15 439.708 1118.15 439.697C1118.15 439.686 1118.14 439.679 1118.12 439.681C1118.11 439.684 1118.11 439.694 1118.11 439.705Z" fill="#060D14"/>
<path d="M1117.79 443.506C1117.8 443.555 1117.85 443.586 1117.89 443.576C1117.94 443.565 1117.97 443.517 1117.96 443.469C1117.95 443.42 1117.91 443.389 1117.86 443.4C1117.81 443.41 1117.78 443.458 1117.79 443.506Z" fill="#060D14"/>
<path d="M1117.34 447.323C1117.38 447.469 1117.52 447.562 1117.67 447.531C1117.81 447.5 1117.9 447.356 1117.87 447.21C1117.84 447.064 1117.7 446.972 1117.55 447.003C1117.41 447.034 1117.31 447.177 1117.34 447.323Z" fill="#060D14"/>
<path d="M1116.83 451.154C1116.9 451.441 1117.18 451.623 1117.46 451.562C1117.75 451.501 1117.93 451.219 1117.87 450.933C1117.81 450.647 1117.53 450.464 1117.24 450.525C1116.96 450.586 1116.77 450.868 1116.83 451.154Z" fill="#060D14"/>
<path d="M1116.4 454.978C1116.48 455.357 1116.86 455.598 1117.23 455.517C1117.61 455.436 1117.85 455.064 1117.77 454.686C1117.69 454.308 1117.32 454.067 1116.94 454.148C1116.56 454.228 1116.32 454.6 1116.4 454.978Z" fill="#060D14"/>
<path d="M1116.12 458.762C1116.2 459.156 1116.59 459.407 1116.98 459.323C1117.38 459.239 1117.63 458.851 1117.55 458.457C1117.46 458.062 1117.07 457.811 1116.68 457.895C1116.28 457.979 1116.03 458.367 1116.12 458.762Z" fill="#060D14"/>
<path d="M1115.97 462.516C1116.04 462.851 1116.37 463.064 1116.7 462.993C1117.04 462.921 1117.25 462.592 1117.18 462.257C1117.11 461.922 1116.78 461.708 1116.44 461.78C1116.11 461.851 1115.9 462.181 1115.97 462.516Z" fill="#060D14"/>
<path d="M1115.87 466.259C1115.92 466.502 1116.16 466.657 1116.4 466.605C1116.65 466.554 1116.8 466.314 1116.75 466.071C1116.7 465.828 1116.46 465.673 1116.21 465.725C1115.97 465.777 1115.82 466.016 1115.87 466.259Z" fill="#060D14"/>
<path d="M1115.8 470.006C1115.83 470.147 1115.97 470.236 1116.11 470.206C1116.25 470.176 1116.34 470.038 1116.31 469.898C1116.28 469.757 1116.14 469.668 1116 469.698C1115.86 469.728 1115.77 469.866 1115.8 470.006Z" fill="#060D14"/>
<path d="M1115.66 473.758C1115.67 473.828 1115.74 473.873 1115.81 473.858C1115.88 473.843 1115.93 473.774 1115.91 473.704C1115.9 473.634 1115.83 473.589 1115.76 473.604C1115.69 473.619 1115.64 473.688 1115.66 473.758Z" fill="#060D14"/>
<path d="M1115.49 477.516C1115.5 477.538 1115.52 477.552 1115.54 477.547C1115.56 477.542 1115.57 477.521 1115.57 477.5C1115.56 477.478 1115.54 477.464 1115.52 477.469C1115.5 477.473 1115.49 477.495 1115.49 477.516Z" fill="#060D14"/>
<path d="M1115.25 481.289C1115.26 481.294 1115.26 481.298 1115.27 481.297C1115.27 481.295 1115.27 481.29 1115.27 481.285C1115.27 481.279 1115.27 481.276 1115.26 481.277C1115.26 481.278 1115.25 481.283 1115.25 481.289Z" fill="#060D14"/>
<path d="M1114.34 439.446C1114.35 439.451 1114.35 439.455 1114.36 439.454C1114.36 439.453 1114.36 439.447 1114.36 439.442C1114.36 439.437 1114.36 439.433 1114.35 439.434C1114.35 439.435 1114.34 439.441 1114.34 439.446Z" fill="#060D14"/>
<path d="M1114.06 443.229C1114.06 443.246 1114.08 443.256 1114.09 443.252C1114.11 443.249 1114.12 443.233 1114.12 443.217C1114.11 443.201 1114.1 443.19 1114.08 443.194C1114.06 443.197 1114.05 443.213 1114.06 443.229Z" fill="#060D14"/>
<path d="M1113.72 447.033C1113.74 447.092 1113.79 447.13 1113.85 447.118C1113.91 447.105 1113.95 447.046 1113.94 446.987C1113.93 446.928 1113.87 446.89 1113.81 446.902C1113.75 446.915 1113.71 446.974 1113.72 447.033Z" fill="#060D14"/>
<path d="M1113.37 450.831C1113.39 450.944 1113.51 451.016 1113.62 450.992C1113.73 450.968 1113.8 450.856 1113.78 450.743C1113.76 450.63 1113.64 450.557 1113.53 450.581C1113.42 450.606 1113.35 450.717 1113.37 450.831Z" fill="#060D14"/>
<path d="M1113.04 454.622C1113.08 454.768 1113.22 454.861 1113.36 454.83C1113.51 454.799 1113.6 454.655 1113.57 454.51C1113.54 454.364 1113.4 454.271 1113.25 454.302C1113.11 454.333 1113.01 454.477 1113.04 454.622Z" fill="#060D14"/>
<path d="M1112.79 458.399C1112.82 458.545 1112.96 458.638 1113.11 458.607C1113.25 458.576 1113.35 458.432 1113.32 458.286C1113.29 458.141 1113.14 458.048 1113 458.079C1112.85 458.11 1112.76 458.253 1112.79 458.399Z" fill="#060D14"/>
<path d="M1112.58 462.175C1112.61 462.289 1112.72 462.361 1112.83 462.337C1112.94 462.313 1113.02 462.201 1112.99 462.088C1112.97 461.974 1112.86 461.902 1112.74 461.926C1112.63 461.95 1112.56 462.062 1112.58 462.175Z" fill="#060D14"/>
<path d="M1112.39 465.938C1112.41 466.013 1112.48 466.061 1112.56 466.045C1112.64 466.029 1112.68 465.955 1112.67 465.879C1112.65 465.803 1112.58 465.755 1112.5 465.771C1112.43 465.788 1112.38 465.862 1112.39 465.938Z" fill="#060D14"/>
<path d="M1112.19 469.704C1112.2 469.748 1112.24 469.775 1112.28 469.766C1112.32 469.757 1112.35 469.714 1112.34 469.671C1112.33 469.628 1112.29 469.6 1112.25 469.609C1112.2 469.619 1112.18 469.661 1112.19 469.704Z" fill="#060D14"/>
<path d="M1111.98 473.471C1111.98 473.487 1112 473.497 1112.01 473.494C1112.03 473.49 1112.04 473.474 1112.04 473.458C1112.03 473.442 1112.02 473.432 1112 473.435C1111.99 473.438 1111.98 473.454 1111.98 473.471Z" fill="#060D14"/>
<path d="M1111.73 477.256C1111.74 477.261 1111.74 477.265 1111.75 477.263C1111.75 477.262 1111.76 477.257 1111.75 477.251C1111.75 477.246 1111.75 477.243 1111.74 477.244C1111.74 477.245 1111.73 477.25 1111.73 477.256Z" fill="#060D14"/>
<path d="M1110.3 442.969C1110.3 442.974 1110.31 442.977 1110.31 442.976C1110.32 442.975 1110.32 442.97 1110.32 442.964C1110.32 442.959 1110.31 442.956 1110.31 442.957C1110.3 442.958 1110.3 442.963 1110.3 442.969Z" fill="#060D14"/>
<path d="M1110.02 446.75C1110.03 446.766 1110.04 446.776 1110.06 446.773C1110.08 446.769 1110.09 446.754 1110.08 446.737C1110.08 446.721 1110.06 446.711 1110.05 446.714C1110.03 446.718 1110.02 446.734 1110.02 446.75Z" fill="#060D14"/>
<path d="M1109.74 450.533C1109.74 450.56 1109.77 450.577 1109.8 450.571C1109.82 450.565 1109.84 450.539 1109.83 450.512C1109.83 450.485 1109.8 450.468 1109.78 450.473C1109.75 450.479 1109.73 450.506 1109.74 450.533Z" fill="#060D14"/>
<path d="M1109.46 454.324C1109.47 454.362 1109.51 454.386 1109.55 454.378C1109.58 454.37 1109.61 454.332 1109.6 454.295C1109.59 454.257 1109.56 454.233 1109.52 454.241C1109.48 454.249 1109.46 454.286 1109.46 454.324Z" fill="#060D14"/>
<path d="M1109.21 458.101C1109.21 458.133 1109.25 458.154 1109.28 458.147C1109.31 458.14 1109.33 458.108 1109.33 458.076C1109.32 458.043 1109.29 458.023 1109.25 458.03C1109.22 458.037 1109.2 458.068 1109.21 458.101Z" fill="#060D14"/>
<path d="M1108.97 461.874C1108.97 461.895 1109 461.909 1109.02 461.904C1109.04 461.9 1109.05 461.879 1109.05 461.857C1109.04 461.835 1109.02 461.822 1109 461.826C1108.98 461.831 1108.96 461.852 1108.97 461.874Z" fill="#060D14"/>
<path d="M1108.72 465.648C1108.73 465.665 1108.74 465.675 1108.76 465.671C1108.77 465.668 1108.79 465.652 1108.78 465.636C1108.78 465.62 1108.76 465.609 1108.75 465.613C1108.73 465.616 1108.72 465.632 1108.72 465.648Z" fill="#060D14"/>
<path d="M1108.48 469.433C1108.48 469.438 1108.49 469.442 1108.49 469.441C1108.5 469.439 1108.5 469.434 1108.5 469.429C1108.5 469.423 1108.49 469.42 1108.49 469.421C1108.48 469.422 1108.48 469.428 1108.48 469.433Z" fill="#060D14"/>
<path d="M1106 450.268C1106 450.273 1106.01 450.277 1106.01 450.276C1106.02 450.274 1106.02 450.269 1106.02 450.264C1106.02 450.258 1106.01 450.255 1106.01 450.256C1106 450.257 1106 450.262 1106 450.268Z" fill="#060D14"/>
<path d="M1105.74 454.045C1105.74 454.05 1105.75 454.054 1105.75 454.052C1105.76 454.051 1105.76 454.046 1105.76 454.041C1105.76 454.035 1105.76 454.032 1105.75 454.033C1105.74 454.034 1105.74 454.039 1105.74 454.045Z" fill="#060D14"/>
<path d="M1105.48 457.824C1105.48 457.829 1105.48 457.832 1105.49 457.831C1105.49 457.83 1105.5 457.825 1105.5 457.819C1105.5 457.814 1105.49 457.811 1105.48 457.812C1105.48 457.813 1105.48 457.818 1105.48 457.824Z" fill="#060D14"/>
</g>
<path d="M1136.57 463.454C1137.86 462.784 1138.93 461.743 1139.62 460.464C1140.32 459.186 1140.62 457.728 1140.49 456.277C1140.44 456.062 1140.39 455.847 1140.43 455.472C1140.94 455.536 1141.35 455.591 1141.77 455.613C1142.81 455.699 1143.85 455.579 1144.84 455.26C1145.82 454.941 1146.74 454.429 1147.52 453.753C1148.31 453.078 1148.95 452.253 1149.42 451.327C1149.89 450.4 1150.16 449.39 1150.24 448.356C1150.35 446.071 1149.57 443.832 1148.06 442.116C1146.54 440.401 1144.42 439.345 1142.14 439.175C1140.84 439.044 1139.52 439.25 1138.32 439.771C1137.12 440.293 1136.07 441.112 1135.28 442.153C1135.15 442.323 1134.99 442.522 1134.82 442.763C1134.54 442.535 1134.31 442.36 1134.11 442.178C1133.05 441.321 1131.73 440.858 1130.37 440.87C1128.87 440.89 1127.41 441.354 1126.16 442.203C1124.92 443.052 1123.96 444.248 1123.4 445.642C1123.22 446.14 1123.09 446.657 1123.03 447.183C1122.86 448.334 1123.06 449.51 1123.6 450.54C1124.14 451.569 1125 452.4 1126.04 452.91C1126.33 453.073 1126.62 453.206 1126.96 453.388C1126.57 453.809 1126.26 454.152 1125.97 454.521C1125.52 455.036 1125.22 455.652 1125.07 456.315C1124.92 456.978 1124.94 457.667 1125.12 458.321C1125.27 458.975 1125.53 459.595 1125.91 460.147C1126.59 461.234 1127.5 462.16 1128.58 462.861C1129.65 463.562 1130.87 464.021 1132.14 464.206C1133.66 464.484 1135.23 464.218 1136.57 463.454ZM1132.76 461.886C1131.7 461.754 1130.68 461.414 1129.76 460.884C1128.84 460.354 1128.03 459.646 1127.38 458.8C1127.18 458.515 1127.01 458.207 1126.88 457.885C1126.69 457.518 1126.6 457.109 1126.62 456.697C1126.63 456.285 1126.76 455.885 1126.97 455.534C1127.42 454.792 1128.07 454.188 1128.84 453.785C1129.34 453.514 1129.89 453.285 1130.39 453.004C1130.6 452.892 1130.79 452.737 1130.94 452.55C1131 452.427 1131.01 452.285 1130.96 452.155C1130.88 452.06 1130.71 451.904 1130.63 451.92C1130.15 451.975 1129.69 452.102 1129.26 452.295C1128.88 452.474 1128.47 452.552 1128.06 452.521C1127.65 452.491 1127.26 452.352 1126.92 452.12C1126.14 451.725 1125.52 451.074 1125.16 450.277C1124.81 449.481 1124.74 448.586 1124.96 447.742C1125.16 446.845 1125.59 446.014 1126.21 445.328C1126.82 444.642 1127.6 444.124 1128.47 443.823C1130.49 443.053 1131.81 443.273 1133.98 444.547C1134.1 445.085 1134.13 445.639 1134.25 446.207C1134.29 446.286 1134.34 446.357 1134.41 446.415C1134.47 446.473 1134.55 446.517 1134.63 446.545C1134.7 446.55 1134.77 446.538 1134.83 446.51C1134.9 446.482 1134.95 446.439 1135 446.385L1135.63 445.402C1136.03 444.815 1136.4 444.216 1136.84 443.629C1137.51 442.736 1138.43 442.056 1139.48 441.672C1140.53 441.288 1141.66 441.217 1142.75 441.467C1143.88 441.678 1144.92 442.199 1145.76 442.97C1146.61 443.742 1147.22 444.735 1147.53 445.835C1147.91 446.857 1148.03 447.959 1147.87 449.039C1147.72 450.118 1147.29 451.14 1146.63 452.01C1145.9 453.008 1144.87 453.75 1143.69 454.132C1142.51 454.514 1141.25 454.515 1140.07 454.137C1139.71 453.997 1139.4 453.748 1139.19 453.425C1138.98 453.123 1138.7 452.867 1138.39 452.674C1138.07 452.481 1137.72 452.355 1137.36 452.303C1137.21 452.454 1137.11 452.648 1137.08 452.856C1137.05 453.065 1137.09 453.278 1137.18 453.465C1137.45 454.187 1137.69 454.922 1137.88 455.668C1138.13 456.777 1138.01 457.937 1137.53 458.971C1137.06 460.004 1136.26 460.855 1135.26 461.392C1134.5 461.825 1133.61 461.996 1132.74 461.878L1132.76 461.886Z" fill="#060D14"/>
<path d="M1132.74 461.878C1131.69 461.746 1130.67 461.406 1129.75 460.876C1128.82 460.346 1128.02 459.638 1127.37 458.792C1127.17 458.507 1127 458.2 1126.87 457.877C1126.68 457.51 1126.59 457.101 1126.61 456.689C1126.62 456.277 1126.74 455.877 1126.96 455.526C1127.41 454.784 1128.06 454.18 1128.83 453.777C1129.33 453.506 1129.87 453.277 1130.38 452.996C1130.59 452.884 1130.77 452.73 1130.92 452.542C1130.98 452.419 1131 452.277 1130.95 452.147C1130.87 452.052 1130.69 451.896 1130.62 451.912C1130.14 451.967 1129.68 452.094 1129.24 452.287C1128.87 452.466 1128.46 452.544 1128.05 452.513C1127.64 452.483 1127.25 452.344 1126.91 452.112C1126.13 451.717 1125.51 451.066 1125.15 450.27C1124.8 449.473 1124.72 448.578 1124.95 447.734C1125.15 446.837 1125.58 446.006 1126.19 445.32C1126.81 444.634 1127.59 444.116 1128.46 443.815C1130.48 443.045 1131.8 443.265 1133.97 444.539C1134.08 445.077 1134.12 445.632 1134.24 446.199C1134.28 446.278 1134.33 446.349 1134.4 446.407C1134.46 446.465 1134.54 446.51 1134.62 446.537C1134.69 446.542 1134.76 446.53 1134.82 446.502C1134.89 446.474 1134.94 446.431 1134.99 446.377L1135.61 445.394C1136.02 444.807 1136.38 444.208 1136.83 443.621C1137.5 442.728 1138.42 442.048 1139.46 441.664C1140.51 441.28 1141.65 441.209 1142.74 441.459C1143.86 441.67 1144.91 442.191 1145.75 442.963C1146.6 443.734 1147.21 444.727 1147.52 445.828C1147.9 446.849 1148.02 447.951 1147.86 449.031C1147.7 450.11 1147.28 451.132 1146.62 452.002C1145.89 453 1144.86 453.742 1143.68 454.124C1142.5 454.506 1141.24 454.507 1140.06 454.129C1139.7 453.989 1139.39 453.74 1139.18 453.417C1138.97 453.115 1138.69 452.859 1138.38 452.666C1138.06 452.473 1137.71 452.347 1137.34 452.295C1137.2 452.446 1137.1 452.64 1137.07 452.848C1137.04 453.057 1137.08 453.27 1137.17 453.457C1137.44 454.179 1137.67 454.914 1137.87 455.66C1138.12 456.77 1137.99 457.929 1137.52 458.963C1137.05 459.996 1136.25 460.847 1135.25 461.384C1134.49 461.817 1133.61 461.99 1132.74 461.878Z" fill="white"/>
<g opacity="0.3">
<path d="M1126.92 452.149C1127.26 452.381 1127.66 452.52 1128.07 452.551C1128.48 452.581 1128.89 452.503 1129.26 452.324C1129.48 452.211 1129.71 452.13 1129.95 452.086C1128.28 451.839 1125.32 451.028 1127.21 448.436C1128.03 447.377 1129.04 446.491 1130.2 445.829C1131.36 445.167 1132.64 444.742 1133.97 444.58C1131.79 443.306 1130.48 443.086 1128.45 443.856C1127.58 444.158 1126.81 444.676 1126.19 445.362C1125.58 446.047 1125.15 446.878 1124.95 447.775C1124.72 448.621 1124.8 449.516 1125.16 450.313C1125.52 451.109 1126.14 451.757 1126.92 452.149Z" fill="#707070"/>
<path d="M1139 453.27L1139.18 453.458C1139.39 453.782 1139.69 454.031 1140.05 454.171C1141.23 454.549 1142.5 454.547 1143.68 454.165C1144.85 453.784 1145.88 453.041 1146.61 452.043C1147.15 451.34 1147.53 450.533 1147.74 449.674C1147.95 448.815 1147.97 447.922 1147.82 447.052C1146.74 453.581 1140.53 453.403 1139 453.27Z" fill="#707070"/>
<path d="M1135.24 461.425C1136.25 460.888 1137.04 460.038 1137.52 459.004C1137.99 457.971 1138.11 456.811 1137.87 455.701C1137.82 455.467 1137.76 455.222 1137.71 454.987C1137.76 458.044 1136.45 460.452 1132.65 458.115C1129.71 456.329 1130.13 454.041 1130.61 452.885C1130.55 452.931 1130.49 452.968 1130.43 452.995C1129.92 453.277 1129.38 453.505 1128.88 453.777C1128.11 454.179 1127.46 454.784 1127.01 455.525C1126.79 455.876 1126.67 456.277 1126.66 456.689C1126.64 457.1 1126.73 457.509 1126.92 457.876C1127.05 458.199 1127.22 458.506 1127.42 458.791C1128.07 459.637 1128.87 460.346 1129.8 460.875C1130.72 461.405 1131.74 461.746 1132.79 461.877C1133.64 461.991 1134.5 461.833 1135.24 461.425Z" fill="#707070"/>
</g>
</svg>
