<svg width="1406" height="934" viewBox="0 0 1406 934" fill="none" xmlns="http://www.w3.org/2000/svg">
<path d="M1103.32 684.947C1099.45 686.881 1097.36 691.379 1097.4 695.692C1097.44 700.006 1099.34 704.107 1101.81 707.637C1107.47 715.732 1117.8 721.661 1127.19 718.576C1129.38 717.843 1131.39 716.671 1133.11 715.13C1134.83 713.59 1136.22 711.715 1137.18 709.62C1137.76 708.343 1138.3 706.863 1139.58 706.302C1140.34 706.055 1141.14 705.966 1141.94 706.041C1150.37 706.041 1157.25 697.394 1156.82 688.97C1156.38 680.546 1149.88 673.196 1141.99 670.217C1139.26 669.182 1134.11 669.985 1131.65 671.561C1129.97 668.246 1127.15 665.646 1123.71 664.238C1120.27 662.83 1116.44 662.707 1112.92 663.892C1105.96 666.474 1099.04 675.304 1103.32 684.947Z" fill="#060D14"/>
<path d="M1092.75 675.48L1094.88 674.412L1093.91 672.229C1092.13 668.211 1092.66 664.419 1094.4 661.282C1096.17 658.086 1099.15 655.641 1102.06 654.545C1105 653.564 1108.2 653.669 1111.07 654.842C1113.95 656.02 1116.32 658.196 1117.73 660.972L1118.98 663.44L1121.31 661.941C1122.12 661.42 1123.63 660.901 1125.36 660.659C1127.12 660.413 1128.6 660.521 1129.4 660.822L1129.4 660.823C1136.58 663.542 1142.26 670.155 1142.63 677.374C1142.8 680.887 1141.45 684.543 1139.1 687.323C1136.77 690.073 1133.64 691.778 1130.34 691.809C1129.25 691.732 1128.16 691.865 1127.12 692.202L1127.01 692.237L1126.9 692.282C1125.6 692.84 1124.8 693.824 1124.29 694.654C1123.89 695.305 1123.56 696.054 1123.33 696.583C1123.29 696.683 1123.25 696.775 1123.21 696.857C1122.39 698.645 1121.21 700.246 1119.75 701.562C1118.28 702.879 1116.57 703.882 1114.7 704.51C1106.8 707.094 1097.49 702.137 1092.17 694.513L1092.17 694.511C1089.84 691.186 1088.25 687.566 1088.21 683.961C1088.17 680.35 1089.95 676.88 1092.75 675.48Z" fill="#FFFAFA" stroke="#060D14" stroke-width="5"/>
</svg>
