<svg width="1406" height="934" viewBox="0 0 1406 934" fill="none" xmlns="http://www.w3.org/2000/svg">
<path d="M543.803 376.404C540.146 374.372 537.148 370.422 534.225 367.469C527.722 360.9 521.638 353.858 515.963 346.563C511.827 341.245 507.694 335.274 505.67 328.765C503.613 322.146 504.22 313.915 504.706 307.072C505.386 297.486 509.922 291.49 519.644 291.49C528.27 291.49 533.036 293.868 537.549 301.389C540.224 305.848 543.502 314.75 540.944 319.795C535.736 330.067 519.368 330.257 509.852 329.623C483.384 327.858 457.039 312.277 440.877 291.561C433.277 281.82 426.366 270.25 422.686 258.361C422.241 256.921 422.222 255.658 422.222 254.179" stroke="#E83A3B" stroke-width="6" stroke-linecap="round" stroke-dasharray="11 11"/>
</svg>
