<svg width="1406" height="934" viewBox="0 0 1406 934" fill="none" xmlns="http://www.w3.org/2000/svg">
<path d="M1246.57 775.752C1242.57 777.131 1239.25 779.999 1237.32 783.76C1235.89 786.429 1235.1 790.114 1236.6 792.706C1237.53 794.136 1238.96 795.17 1240.61 795.608C1243.64 796.584 1246.86 796.799 1249.98 796.236C1253.11 795.673 1256.05 794.347 1258.54 792.377C1260.48 790.898 1262.41 788.76 1262.6 785.965C1262.89 782.628 1260.74 779.746 1258.49 777.88C1256.85 776.53 1254.9 775.626 1252.81 775.253C1250.72 774.88 1248.57 775.052 1246.57 775.752Z" fill="#060D14"/>
<path d="M1234.88 764.049C1230.87 765.428 1227.55 768.3 1225.61 772.067C1224.19 774.726 1223.4 778.46 1224.89 781.013C1225.82 782.446 1227.25 783.481 1228.9 783.914C1231.93 784.889 1235.15 785.103 1238.28 784.536C1241.41 783.969 1244.35 782.64 1246.84 780.665C1248.78 779.185 1250.66 777.057 1250.9 774.252C1251.18 770.925 1249.05 768.033 1246.79 766.167C1245.16 764.822 1243.2 763.921 1241.11 763.55C1239.03 763.179 1236.88 763.351 1234.88 764.049Z" fill="#FFFAFA"/>
<path d="M1252.3 768.643C1247.82 762.569 1239.08 760.344 1232.04 762.53C1229.43 763.423 1227.07 764.923 1225.16 766.907C1223.24 768.892 1221.82 771.303 1221.02 773.943C1220.25 776.632 1220.42 779.678 1222.36 781.845C1224.67 784.417 1228.44 785.481 1231.72 786.11C1237.75 787.311 1244.01 786.069 1249.12 782.657C1251.41 781.27 1253.17 779.155 1254.12 776.651C1255 773.817 1253.98 770.925 1252.3 768.643ZM1247.13 774.784C1246.43 776.714 1245.12 778.37 1243.42 779.514C1241.61 780.878 1239.56 781.904 1237.38 782.541C1236.49 782.803 1235.57 782.984 1234.64 783.083C1233.79 783.139 1232.95 783.139 1232.1 783.083C1231.35 783.02 1230.6 782.867 1229.89 782.628L1229.41 782.435H1229.35L1229.26 782.377C1228.95 782.157 1228.68 781.885 1228.47 781.574C1227.24 779.804 1227.5 777.367 1228.13 775.432C1228.86 773.158 1230.11 771.084 1231.77 769.373C1233.44 767.661 1235.48 766.359 1237.73 765.567C1238.62 765.28 1239.54 765.114 1240.48 765.074C1240.8 765.049 1241.13 765.069 1241.45 765.132H1241.62L1241.96 765.219C1242.72 765.517 1243.43 765.945 1244.05 766.486C1244.83 767.157 1245.51 767.932 1246.08 768.788C1246.69 769.644 1247.11 770.627 1247.29 771.666C1247.47 772.704 1247.42 773.77 1247.13 774.784Z" fill="#060D14"/>
</svg>
