<svg width="1406" height="934" viewBox="0 0 1406 934" fill="none" xmlns="http://www.w3.org/2000/svg">
<path d="M553.482 663.04C549.351 662.629 537.47 661.361 536.683 661.059C541.216 658.032 548.905 653.117 553.441 650.105C553.464 643.146 549.777 634.378 549.804 629.968C552.274 632.474 562.865 642.374 565.591 645.904C567.822 645.237 576.619 641.099 580 641.087C579.323 642.228 576.068 648.716 572.72 655.094C575.106 658.111 580.403 668.527 581.647 670.349C580.967 670.296 569.481 664.405 566.009 663.151C564.053 666.631 554.278 677.622 550.865 683.276C550.607 678.244 553.628 668.513 553.482 663.04Z" fill="#060D14"/>
<path d="M548.236 661.496C544.102 661.088 532.225 659.817 531.433 659.517C535.967 656.49 543.656 651.575 548.196 648.561C548.221 641.606 548.815 634.06 548.841 629.649C549.892 630.948 557.616 640.833 560.342 644.363C562.572 643.696 575.174 639.888 578.551 639.878C577.872 641.014 570.549 649.757 567.473 653.557C569.859 656.574 579.257 667.477 580.469 669.283C579.786 669.232 564.215 662.873 560.745 661.623C558.787 665.099 552.759 676.727 549.35 682.378C549.105 677.339 548.385 666.973 548.236 661.496Z" fill="#FCBE00"/>
<path d="M549.067 660.244C544.147 659.758 539.222 659.253 534.315 658.6C533.869 658.54 533.421 658.476 532.975 658.406C532.831 658.385 532.694 658.356 532.548 658.331C532.18 658.272 532.885 658.444 532.62 658.352L532.329 660.301C536.471 657.554 540.651 654.869 544.815 652.155L547.761 650.226C548.167 649.96 548.577 649.703 548.976 649.425C549.221 649.29 549.433 649.101 549.594 648.873C549.756 648.644 549.863 648.382 549.909 648.106C549.951 647.669 549.915 647.21 549.921 646.766C549.96 643.742 550.093 640.717 550.232 637.693C550.347 634.877 550.533 632.02 550.55 629.196L547.379 630.663C550.469 634.485 553.44 638.371 556.467 642.26C557.275 643.295 558.082 644.33 558.872 645.353C559.172 645.741 559.976 645.649 560.354 645.535C565.229 644.102 570.112 642.603 575.094 641.557L576.123 641.353C576.222 641.332 576.448 641.302 576.003 641.375L576.209 641.339L576.712 641.252C577.182 641.176 577.657 641.133 578.133 641.12L577.057 639.675C576.192 641.117 574.937 642.43 573.868 643.741C572.102 645.913 570.315 648.067 568.539 650.233C567.682 651.266 566.83 652.306 565.984 653.352C565.844 653.52 565.77 653.734 565.776 653.953C565.782 654.171 565.867 654.381 566.016 654.541C569.6 659.085 573.475 663.408 577.155 667.876C577.536 668.341 577.916 668.805 578.288 669.274C578.433 669.459 578.583 669.664 578.721 669.825C578.758 669.893 578.828 670.021 578.659 669.711C578.67 669.732 578.714 669.813 578.719 669.821C578.724 669.83 578.814 669.995 578.856 670.011L581.333 667.991C581.112 667.969 581.795 668.141 581.46 668.021C581.317 667.972 581.171 667.926 581.033 667.874C580.583 667.718 580.136 667.543 579.665 667.387C578.313 666.869 576.964 666.341 575.616 665.803C572.31 664.501 569.008 663.176 565.693 661.857C564.444 661.366 563.193 660.87 561.928 660.41C561.434 660.278 560.912 660.302 560.432 660.479C559.953 660.656 559.54 660.977 559.25 661.398C556.211 666.777 553.427 672.291 550.422 677.694C549.587 679.192 548.75 680.685 547.854 682.16L551.061 681.88C550.782 676.325 550.376 670.79 550.101 665.243C550.035 663.831 549.968 662.418 549.93 661.007C549.897 659.372 546.469 660.479 546.506 661.929C546.66 667.558 547.074 673.188 547.408 678.801C547.492 680.132 547.569 681.467 547.639 682.806C547.672 683.461 548.386 683.649 548.925 683.608C549.305 683.58 549.675 683.469 550.007 683.282C550.339 683.095 550.626 682.836 550.846 682.526C554.261 676.854 557.285 670.944 560.415 665.114C561.019 663.991 561.619 662.87 562.243 661.764L559.561 662.754C565.45 664.882 571.201 667.383 577.043 669.618C577.851 669.926 578.77 670.41 579.641 670.502C579.982 670.529 580.325 670.489 580.65 670.383C580.976 670.277 581.277 670.108 581.536 669.886C581.847 669.617 582.441 668.951 582.108 668.472C580.795 666.572 579.211 664.831 577.732 663.061C575.62 660.545 573.497 658.041 571.4 655.501C570.567 654.502 569.733 653.508 568.921 652.486L568.958 653.673C572.19 649.676 575.523 645.763 578.716 641.733C579.191 641.179 579.631 640.597 580.033 639.989C580.618 639.042 579.861 638.535 578.957 638.544C577.876 638.595 576.802 638.744 575.747 638.991C574.353 639.262 572.965 639.596 571.584 639.942C568.752 640.657 565.934 641.458 563.127 642.28C562.177 642.557 561.231 642.842 560.312 643.107L561.79 643.292C558.495 639.02 555.179 634.771 551.843 630.545C551.326 629.891 550.813 629.234 550.292 628.582C549.893 628.095 548.807 628.346 548.357 628.57C547.798 628.848 547.13 629.35 547.117 630.052C547.072 636.356 546.496 642.654 546.469 648.96L547.289 647.718C541.731 651.41 536.09 654.981 530.531 658.672C529.956 659.052 529.186 660.244 530.236 660.623C530.838 660.8 531.456 660.918 532.081 660.976C533.177 661.127 534.275 661.26 535.368 661.385C538.143 661.706 540.921 662.014 543.701 662.31C544.928 662.439 546.155 662.567 547.382 662.685C547.829 662.722 548.279 662.643 548.687 662.455C549.095 662.267 549.448 661.977 549.71 661.612C549.795 661.486 549.846 661.339 549.858 661.188C549.87 661.036 549.842 660.883 549.777 660.746C549.712 660.608 549.613 660.489 549.488 660.401C549.364 660.313 549.219 660.259 549.067 660.244Z" fill="#060D14"/>
</svg>
