<svg width="1406" height="934" viewBox="0 0 1406 934" fill="none" xmlns="http://www.w3.org/2000/svg">
<path d="M1011.82 459.063C1010.02 455.323 1004.92 444.518 1004.77 443.688C1009.71 445.984 1017.91 449.991 1022.84 452.298C1028.8 448.695 1034.37 440.985 1038.15 438.712C1037.29 442.126 1034.35 456.322 1032.75 460.487C1034.48 462.044 1042.59 467.403 1044.36 470.284C1043.04 470.299 1035.8 470.896 1028.62 471.357C1027.28 474.964 1021.14 484.908 1020.23 486.918C1019.93 486.31 1018.98 473.437 1018.24 469.818C1014.25 469.96 999.781 467.333 993.177 467.361C997.339 464.522 1007.22 462.037 1011.82 459.063Z" fill="#060D14"/>
<path d="M1010.41 453.782C1008.6 450.039 1003.51 439.236 1003.35 438.403C1008.3 440.699 1016.49 444.707 1021.43 447.016C1027.38 443.418 1034.14 439.998 1037.92 437.725C1037.35 439.298 1032.93 451.038 1031.34 455.203C1033.07 456.76 1042.88 465.539 1044.64 468.417C1043.32 468.429 1032.04 466.725 1027.2 466.077C1025.86 469.684 1021.44 483.383 1020.53 485.358C1020.22 484.748 1017.55 468.143 1016.81 464.529C1012.82 464.666 999.755 465.569 993.155 465.6C997.33 462.768 1005.81 456.759 1010.41 453.782Z" fill="#FCBE00"/>
<path d="M1011.91 453.84C1009.76 449.385 1007.63 444.916 1005.64 440.386C1005.45 439.975 1005.28 439.559 1005.1 439.141C1005.05 439.008 1005 438.875 1004.95 438.738C1004.8 438.393 1005.02 439.085 1004.97 438.81L1003.15 439.576C1007.65 441.683 1012.12 443.856 1016.6 445.999L1019.78 447.511C1020.22 447.719 1020.65 447.936 1021.1 448.131C1021.34 448.27 1021.61 448.353 1021.89 448.372C1022.17 448.391 1022.45 448.346 1022.71 448.241C1023.11 448.05 1023.48 447.78 1023.86 447.554C1026.46 446.014 1029.12 444.553 1031.77 443.099C1034.24 441.73 1036.77 440.403 1039.19 438.948L1036.29 437.004C1034.63 441.631 1032.86 446.19 1031.12 450.799C1030.65 452.027 1030.19 453.256 1029.73 454.463C1029.55 454.92 1030.05 455.559 1030.34 455.823C1034.1 459.24 1037.92 462.63 1041.41 466.339L1042.12 467.112C1042.19 467.185 1042.33 467.363 1042.04 467.02L1042.18 467.178L1042.51 467.562C1042.82 467.925 1043.11 468.307 1043.37 468.707L1044.04 467.036C1042.36 467.048 1040.58 466.66 1038.91 466.429C1036.13 466.051 1033.36 465.646 1030.59 465.257C1029.26 465.063 1027.93 464.877 1026.6 464.698C1026.38 464.666 1026.16 464.714 1025.98 464.833C1025.79 464.952 1025.66 465.134 1025.6 465.345C1023.58 470.769 1021.91 476.328 1020.01 481.796C1019.81 482.363 1019.61 482.929 1019.4 483.491C1019.32 483.711 1019.23 483.946 1019.16 484.148C1019.12 484.215 1019.05 484.34 1019.22 484.035C1019.21 484.056 1019.17 484.135 1019.16 484.144C1019.16 484.152 1019.06 484.315 1019.07 484.359L1022.08 485.424C1021.99 485.223 1022.2 485.896 1022.12 485.547C1022.09 485.4 1022.06 485.251 1022.03 485.106C1021.93 484.641 1021.84 484.168 1021.73 483.685C1021.47 482.261 1021.22 480.834 1020.98 479.403C1020.37 475.902 1019.78 472.393 1019.18 468.876C1018.95 467.554 1018.72 466.227 1018.46 464.907C1018.32 464.417 1018.02 463.984 1017.62 463.667C1017.22 463.349 1016.73 463.164 1016.22 463.136C1010.05 463.339 1003.89 463.831 997.713 464.078C996 464.144 994.289 464.206 992.563 464.209L994.471 466.801C999.069 463.672 1003.58 460.445 1008.18 457.324C1009.35 456.532 1010.52 455.741 1011.71 454.973C1013.08 454.094 1010.36 451.743 1009.14 452.53C1004.41 455.59 999.819 458.874 995.199 462.079C994.106 462.844 993.006 463.605 991.899 464.362C991.357 464.73 991.568 465.438 991.884 465.877C992.106 466.187 992.393 466.445 992.725 466.631C993.058 466.817 993.428 466.927 993.808 466.954C1000.43 466.918 1007.05 466.425 1013.66 466.064C1014.93 465.995 1016.2 465.924 1017.47 465.881L1015.23 464.107C1016.47 470.243 1017.33 476.454 1018.46 482.607C1018.62 483.457 1018.69 484.494 1019.06 485.285C1019.21 485.591 1019.43 485.863 1019.69 486.085C1019.95 486.308 1020.25 486.477 1020.57 486.583C1020.96 486.708 1021.84 486.869 1022.08 486.335C1023.02 484.225 1023.68 481.967 1024.42 479.783C1025.47 476.67 1026.5 473.554 1027.58 470.441C1028 469.21 1028.41 467.981 1028.87 466.756L1027.87 467.405C1032.97 468.085 1038.04 468.894 1043.14 469.524C1043.86 469.641 1044.59 469.714 1045.32 469.741C1046.43 469.747 1046.47 468.837 1045.99 468.07C1045.39 467.173 1044.7 466.334 1043.94 465.562C1042.98 464.512 1041.98 463.501 1040.96 462.502C1038.88 460.456 1036.73 458.466 1034.56 456.497C1033.83 455.829 1033.1 455.17 1032.39 454.523L1033.01 455.881C1034.94 450.845 1036.84 445.802 1038.71 440.754C1039 439.972 1039.3 439.192 1039.58 438.408C1039.79 437.814 1039.01 437.018 1038.59 436.749C1038.06 436.417 1037.28 436.108 1036.68 436.462C1031.27 439.705 1025.59 442.49 1020.19 445.748L1021.68 445.803C1015.63 442.977 1009.65 440.019 1003.6 437.193C1002.98 436.9 1001.56 436.862 1001.78 437.957C1001.95 438.563 1002.17 439.152 1002.44 439.716C1002.89 440.73 1003.34 441.737 1003.8 442.735C1004.98 445.272 1006.16 447.804 1007.35 450.332C1007.88 451.447 1008.41 452.562 1008.95 453.671C1009.15 454.072 1009.45 454.415 1009.82 454.666C1010.2 454.916 1010.63 455.066 1011.07 455.1C1011.23 455.107 1011.38 455.075 1011.51 455.006C1011.65 454.937 1011.77 454.834 1011.85 454.707C1011.93 454.58 1011.98 454.433 1011.99 454.281C1012 454.129 1011.97 453.977 1011.91 453.84Z" fill="#060D14"/>
</svg>
