<svg width="1406" height="934" viewBox="0 0 1406 934" fill="none" xmlns="http://www.w3.org/2000/svg">
<g style="mix-blend-mode:multiply">
<path d="M709.29 669.02C709.296 669.02 709.3 669.016 709.3 669.01C709.3 669.004 709.296 669 709.29 669C709.285 669 709.28 669.004 709.28 669.01C709.28 669.016 709.285 669.02 709.29 669.02Z" fill="#060D14"/>
<path d="M712.94 670.07C712.951 670.07 712.96 670.061 712.96 670.05C712.96 670.039 712.951 670.03 712.94 670.03C712.929 670.03 712.92 670.039 712.92 670.05C712.92 670.061 712.929 670.07 712.94 670.07Z" fill="#060D14"/>
<path d="M716.58 671.13C716.596 671.13 716.61 671.116 716.61 671.1C716.61 671.083 716.596 671.07 716.58 671.07C716.563 671.07 716.55 671.083 716.55 671.1C716.55 671.116 716.563 671.13 716.58 671.13Z" fill="#060D14"/>
<path d="M720.22 672.17C720.237 672.17 720.25 672.156 720.25 672.14C720.25 672.123 720.237 672.11 720.22 672.11C720.204 672.11 720.19 672.123 720.19 672.14C720.19 672.156 720.204 672.17 720.22 672.17Z" fill="#060D14"/>
<path d="M723.87 673.2C723.876 673.2 723.88 673.196 723.88 673.19C723.88 673.185 723.876 673.18 723.87 673.18C723.865 673.18 723.86 673.185 723.86 673.19C723.86 673.196 723.865 673.2 723.87 673.2Z" fill="#060D14"/>
<path d="M700.97 670.57C700.975 670.57 700.98 670.565 700.98 670.56C700.98 670.554 700.975 670.55 700.97 670.55C700.964 670.55 700.96 670.554 700.96 670.56C700.96 670.565 700.964 670.57 700.97 670.57Z" fill="#060D14"/>
<path d="M704.61 671.64C704.627 671.64 704.64 671.627 704.64 671.61C704.64 671.594 704.627 671.58 704.61 671.58C704.594 671.58 704.58 671.594 704.58 671.61C704.58 671.627 704.594 671.64 704.61 671.64Z" fill="#060D14"/>
<path d="M708.25 672.72C708.288 672.72 708.32 672.689 708.32 672.65C708.32 672.611 708.288 672.58 708.25 672.58C708.211 672.58 708.18 672.611 708.18 672.65C708.18 672.689 708.211 672.72 708.25 672.72Z" fill="#060D14"/>
<path d="M711.89 673.83C711.962 673.83 712.02 673.772 712.02 673.7C712.02 673.628 711.962 673.57 711.89 673.57C711.818 673.57 711.76 673.628 711.76 673.7C711.76 673.772 711.818 673.83 711.89 673.83Z" fill="#060D14"/>
<path d="M715.54 674.9C715.628 674.9 715.7 674.828 715.7 674.74C715.7 674.652 715.628 674.58 715.54 674.58C715.452 674.58 715.38 674.652 715.38 674.74C715.38 674.828 715.452 674.9 715.54 674.9Z" fill="#060D14"/>
<path d="M719.18 675.93C719.257 675.93 719.32 675.867 719.32 675.79C719.32 675.713 719.257 675.65 719.18 675.65C719.103 675.65 719.04 675.713 719.04 675.79C719.04 675.867 719.103 675.93 719.18 675.93Z" fill="#060D14"/>
<path d="M722.82 676.9C722.859 676.9 722.89 676.868 722.89 676.83C722.89 676.791 722.859 676.76 722.82 676.76C722.781 676.76 722.75 676.791 722.75 676.83C722.75 676.868 722.781 676.9 722.82 676.9Z" fill="#060D14"/>
<path d="M726.46 677.91C726.476 677.91 726.49 677.897 726.49 677.88C726.49 677.864 726.476 677.85 726.46 677.85C726.443 677.85 726.43 677.864 726.43 677.88C726.43 677.897 726.443 677.91 726.46 677.91Z" fill="#060D14"/>
<path d="M730.11 678.93C730.115 678.93 730.12 678.926 730.12 678.92C730.12 678.915 730.115 678.91 730.11 678.91C730.104 678.91 730.1 678.915 730.1 678.92C730.1 678.926 730.104 678.93 730.11 678.93Z" fill="#060D14"/>
<path d="M699.92 674.24C699.936 674.24 699.95 674.227 699.95 674.21C699.95 674.194 699.936 674.18 699.92 674.18C699.903 674.18 699.89 674.194 699.89 674.21C699.89 674.227 699.903 674.24 699.92 674.24Z" fill="#060D14"/>
<path d="M703.56 675.37C703.627 675.37 703.68 675.316 703.68 675.25C703.68 675.184 703.627 675.13 703.56 675.13C703.494 675.13 703.44 675.184 703.44 675.25C703.44 675.316 703.494 675.37 703.56 675.37Z" fill="#060D14"/>
<path d="M707.21 676.56C707.354 676.56 707.47 676.444 707.47 676.3C707.47 676.156 707.354 676.04 707.21 676.04C707.067 676.04 706.95 676.156 706.95 676.3C706.95 676.444 707.067 676.56 707.21 676.56Z" fill="#060D14"/>
<path d="M710.85 677.76C711.082 677.76 711.27 677.572 711.27 677.34C711.27 677.108 711.082 676.92 710.85 676.92C710.618 676.92 710.43 677.108 710.43 677.34C710.43 677.572 710.618 677.76 710.85 677.76Z" fill="#060D14"/>
<path d="M714.49 678.86C714.755 678.86 714.97 678.645 714.97 678.38C714.97 678.115 714.755 677.9 714.49 677.9C714.225 677.9 714.01 678.115 714.01 678.38C714.01 678.645 714.225 678.86 714.49 678.86Z" fill="#060D14"/>
<path d="M718.13 679.84C718.356 679.84 718.54 679.656 718.54 679.43C718.54 679.204 718.356 679.02 718.13 679.02C717.903 679.02 717.72 679.204 717.72 679.43C717.72 679.656 717.903 679.84 718.13 679.84Z" fill="#060D14"/>
<path d="M721.78 680.71C721.913 680.71 722.02 680.603 722.02 680.47C722.02 680.337 721.913 680.23 721.78 680.23C721.648 680.23 721.54 680.337 721.54 680.47C721.54 680.603 721.648 680.71 721.78 680.71Z" fill="#060D14"/>
<path d="M725.42 681.63C725.48 681.63 725.53 681.581 725.53 681.52C725.53 681.459 725.48 681.41 725.42 681.41C725.359 681.41 725.31 681.459 725.31 681.52C725.31 681.581 725.359 681.63 725.42 681.63Z" fill="#060D14"/>
<path d="M729.06 682.59C729.077 682.59 729.09 682.576 729.09 682.56C729.09 682.543 729.077 682.53 729.06 682.53C729.044 682.53 729.03 682.543 729.03 682.56C729.03 682.576 729.044 682.59 729.06 682.59Z" fill="#060D14"/>
<path d="M732.7 683.62C732.706 683.62 732.71 683.616 732.71 683.61C732.71 683.605 732.706 683.6 732.7 683.6C732.695 683.6 732.69 683.605 732.69 683.61C732.69 683.616 732.695 683.62 732.7 683.62Z" fill="#060D14"/>
<path d="M695.23 676.82C695.241 676.82 695.25 676.811 695.25 676.8C695.25 676.789 695.241 676.78 695.23 676.78C695.219 676.78 695.21 676.789 695.21 676.8C695.21 676.811 695.219 676.82 695.23 676.82Z" fill="#060D14"/>
<path d="M698.88 677.93C698.924 677.93 698.96 677.894 698.96 677.85C698.96 677.806 698.924 677.77 698.88 677.77C698.836 677.77 698.8 677.806 698.8 677.85C698.8 677.894 698.836 677.93 698.88 677.93Z" fill="#060D14"/>
<path d="M702.52 679.15C702.663 679.15 702.78 679.033 702.78 678.89C702.78 678.746 702.663 678.63 702.52 678.63C702.376 678.63 702.26 678.746 702.26 678.89C702.26 679.033 702.376 679.15 702.52 679.15Z" fill="#060D14"/>
<path d="M706.16 680.51C706.475 680.51 706.73 680.255 706.73 679.94C706.73 679.625 706.475 679.37 706.16 679.37C705.845 679.37 705.59 679.625 705.59 679.94C705.59 680.255 705.845 680.51 706.16 680.51Z" fill="#060D14"/>
<path d="M709.8 681.88C710.297 681.88 710.7 681.477 710.7 680.98C710.7 680.483 710.297 680.08 709.8 680.08C709.303 680.08 708.9 680.483 708.9 680.98C708.9 681.477 709.303 681.88 709.8 681.88Z" fill="#060D14"/>
<path d="M713.45 683.07C714.025 683.07 714.49 682.605 714.49 682.03C714.49 681.456 714.025 680.99 713.45 680.99C712.876 680.99 712.41 681.456 712.41 682.03C712.41 682.605 712.876 683.07 713.45 683.07Z" fill="#060D14"/>
<path d="M717.09 683.95C717.576 683.95 717.97 683.556 717.97 683.07C717.97 682.584 717.576 682.19 717.09 682.19C716.604 682.19 716.21 682.584 716.21 683.07C716.21 683.556 716.604 683.95 717.09 683.95Z" fill="#060D14"/>
<path d="M720.73 684.69C721.045 684.69 721.3 684.435 721.3 684.12C721.3 683.805 721.045 683.55 720.73 683.55C720.415 683.55 720.16 683.805 720.16 684.12C720.16 684.435 720.415 684.69 720.73 684.69Z" fill="#060D14"/>
<path d="M724.37 685.44C724.524 685.44 724.65 685.315 724.65 685.16C724.65 685.005 724.524 684.88 724.37 684.88C724.215 684.88 724.09 685.005 724.09 685.16C724.09 685.315 724.215 685.44 724.37 685.44Z" fill="#060D14"/>
<path d="M728.02 686.32C728.081 686.32 728.13 686.271 728.13 686.21C728.13 686.149 728.081 686.1 728.02 686.1C727.959 686.1 727.91 686.149 727.91 686.21C727.91 686.271 727.959 686.32 728.02 686.32Z" fill="#060D14"/>
<path d="M731.66 687.28C731.676 687.28 731.69 687.267 731.69 687.25C731.69 687.234 731.676 687.22 731.66 687.22C731.643 687.22 731.63 687.234 731.63 687.25C731.63 687.267 731.643 687.28 731.66 687.28Z" fill="#060D14"/>
<path d="M735.3 688.3C735.306 688.3 735.31 688.295 735.31 688.29C735.31 688.284 735.306 688.28 735.3 688.28C735.295 688.28 735.29 688.284 735.29 688.29C735.29 688.295 735.295 688.3 735.3 688.3Z" fill="#060D14"/>
<path d="M694.19 680.48C694.207 680.48 694.22 680.466 694.22 680.45C694.22 680.433 694.207 680.42 694.19 680.42C694.174 680.42 694.16 680.433 694.16 680.45C694.16 680.466 694.174 680.48 694.19 680.48Z" fill="#060D14"/>
<path d="M697.83 681.62C697.902 681.62 697.96 681.562 697.96 681.49C697.96 681.418 697.902 681.36 697.83 681.36C697.758 681.36 697.7 681.418 697.7 681.49C697.7 681.562 697.758 681.62 697.83 681.62Z" fill="#060D14"/>
<path d="M701.47 682.95C701.696 682.95 701.88 682.766 701.88 682.54C701.88 682.313 701.696 682.13 701.47 682.13C701.243 682.13 701.06 682.313 701.06 682.54C701.06 682.766 701.243 682.95 701.47 682.95Z" fill="#060D14"/>
<path d="M705.12 684.47C705.612 684.47 706.01 684.071 706.01 683.58C706.01 683.088 705.612 682.69 705.12 682.69C704.629 682.69 704.23 683.088 704.23 683.58C704.23 684.071 704.629 684.47 705.12 684.47Z" fill="#060D14"/>
<path d="M708.76 686.06C709.55 686.06 710.19 685.42 710.19 684.63C710.19 683.84 709.55 683.2 708.76 683.2C707.97 683.2 707.33 683.84 707.33 684.63C707.33 685.42 707.97 686.06 708.76 686.06Z" fill="#060D14"/>
<path d="M712.4 687.35C713.328 687.35 714.08 686.598 714.08 685.67C714.08 684.742 713.328 683.99 712.4 683.99C711.472 683.99 710.72 684.742 710.72 685.67C710.72 686.598 711.472 687.35 712.4 687.35Z" fill="#060D14"/>
<path d="M716.04 688.2C716.863 688.2 717.53 687.533 717.53 686.71C717.53 685.887 716.863 685.22 716.04 685.22C715.217 685.22 714.55 685.887 714.55 686.71C714.55 687.533 715.217 688.2 716.04 688.2Z" fill="#060D14"/>
<path d="M719.69 688.8C720.265 688.8 720.73 688.335 720.73 687.76C720.73 687.186 720.265 686.72 719.69 686.72C719.116 686.72 718.65 687.186 718.65 687.76C718.65 688.335 719.116 688.8 719.69 688.8Z" fill="#060D14"/>
<path d="M723.33 689.4C723.662 689.4 723.93 689.132 723.93 688.8C723.93 688.469 723.662 688.2 723.33 688.2C722.999 688.2 722.73 688.469 722.73 688.8C722.73 689.132 722.999 689.4 723.33 689.4Z" fill="#060D14"/>
<path d="M726.97 690.14C727.13 690.14 727.26 690.01 727.26 689.85C727.26 689.69 727.13 689.56 726.97 689.56C726.81 689.56 726.68 689.69 726.68 689.85C726.68 690.01 726.81 690.14 726.97 690.14Z" fill="#060D14"/>
<path d="M730.62 691.01C730.686 691.01 730.74 690.956 730.74 690.89C730.74 690.824 730.686 690.77 730.62 690.77C730.554 690.77 730.5 690.824 730.5 690.89C730.5 690.956 730.554 691.01 730.62 691.01Z" fill="#060D14"/>
<path d="M734.26 691.97C734.277 691.97 734.29 691.957 734.29 691.94C734.29 691.924 734.277 691.91 734.26 691.91C734.244 691.91 734.23 691.924 734.23 691.94C734.23 691.957 734.244 691.97 734.26 691.97Z" fill="#060D14"/>
<path d="M693.14 684.12C693.157 684.12 693.17 684.107 693.17 684.09C693.17 684.073 693.157 684.06 693.14 684.06C693.124 684.06 693.11 684.073 693.11 684.09C693.11 684.107 693.124 684.12 693.14 684.12Z" fill="#060D14"/>
<path d="M696.79 685.29C696.878 685.29 696.95 685.219 696.95 685.13C696.95 685.042 696.878 684.97 696.79 684.97C696.702 684.97 696.63 685.042 696.63 685.13C696.63 685.219 696.702 685.29 696.79 685.29Z" fill="#060D14"/>
<path d="M700.43 686.67C700.701 686.67 700.92 686.451 700.92 686.18C700.92 685.909 700.701 685.69 700.43 685.69C700.16 685.69 699.94 685.909 699.94 686.18C699.94 686.451 700.16 686.67 700.43 686.67Z" fill="#060D14"/>
<path d="M704.07 688.3C704.667 688.3 705.15 687.817 705.15 687.22C705.15 686.624 704.667 686.14 704.07 686.14C703.474 686.14 702.99 686.624 702.99 687.22C702.99 687.817 703.474 688.3 704.07 688.3Z" fill="#060D14"/>
<path d="M707.72 690.02C708.686 690.02 709.47 689.237 709.47 688.27C709.47 687.304 708.686 686.52 707.72 686.52C706.753 686.52 705.97 687.304 705.97 688.27C705.97 689.237 706.753 690.02 707.72 690.02Z" fill="#060D14"/>
<path d="M711.36 691.45C712.542 691.45 713.5 690.492 713.5 689.31C713.5 688.128 712.542 687.17 711.36 687.17C710.178 687.17 709.22 688.128 709.22 689.31C709.22 690.492 710.178 691.45 711.36 691.45Z" fill="#060D14"/>
<path d="M715 692.4C716.127 692.4 717.04 691.486 717.04 690.36C717.04 689.233 716.127 688.32 715 688.32C713.873 688.32 712.96 689.233 712.96 690.36C712.96 691.486 713.873 692.4 715 692.4Z" fill="#060D14"/>
<path d="M718.64 692.99C719.518 692.99 720.23 692.278 720.23 691.4C720.23 690.522 719.518 689.81 718.64 689.81C717.762 689.81 717.05 690.522 717.05 691.4C717.05 692.278 717.762 692.99 718.64 692.99Z" fill="#060D14"/>
<path d="M722.29 693.51C722.876 693.51 723.35 693.036 723.35 692.45C723.35 691.865 722.876 691.39 722.29 691.39C721.705 691.39 721.23 691.865 721.23 692.45C721.23 693.036 721.705 693.51 722.29 693.51Z" fill="#060D14"/>
<path d="M725.93 694.1C726.267 694.1 726.54 693.827 726.54 693.49C726.54 693.153 726.267 692.88 725.93 692.88C725.593 692.88 725.32 693.153 725.32 693.49C725.32 693.827 725.593 694.1 725.93 694.1Z" fill="#060D14"/>
<path d="M729.57 694.81C729.719 694.81 729.84 694.689 729.84 694.54C729.84 694.391 729.719 694.27 729.57 694.27C729.421 694.27 729.3 694.391 729.3 694.54C729.3 694.689 729.421 694.81 729.57 694.81Z" fill="#060D14"/>
<path d="M733.21 695.66C733.254 695.66 733.29 695.624 733.29 695.58C733.29 695.536 733.254 695.5 733.21 695.5C733.166 695.5 733.13 695.536 733.13 695.58C733.13 695.624 733.166 695.66 733.21 695.66Z" fill="#060D14"/>
<path d="M736.86 696.64C736.871 696.64 736.88 696.631 736.88 696.62C736.88 696.609 736.871 696.6 736.86 696.6C736.849 696.6 736.84 696.609 736.84 696.62C736.84 696.631 736.849 696.64 736.86 696.64Z" fill="#060D14"/>
<path d="M692.1 687.75C692.111 687.75 692.12 687.741 692.12 687.73C692.12 687.719 692.111 687.71 692.1 687.71C692.089 687.71 692.08 687.719 692.08 687.73C692.08 687.741 692.089 687.75 692.1 687.75Z" fill="#060D14"/>
<path d="M695.74 688.92C695.817 688.92 695.88 688.857 695.88 688.78C695.88 688.703 695.817 688.64 695.74 688.64C695.662 688.64 695.6 688.703 695.6 688.78C695.6 688.857 695.662 688.92 695.74 688.92Z" fill="#060D14"/>
<path d="M699.39 690.28C699.644 690.28 699.85 690.074 699.85 689.82C699.85 689.566 699.644 689.36 699.39 689.36C699.136 689.36 698.93 689.566 698.93 689.82C698.93 690.074 699.136 690.28 699.39 690.28Z" fill="#060D14"/>
<path d="M703.03 691.93C703.615 691.93 704.09 691.455 704.09 690.87C704.09 690.285 703.615 689.81 703.03 689.81C702.444 689.81 701.97 690.285 701.97 690.87C701.97 691.455 702.444 691.93 703.03 691.93Z" fill="#060D14"/>
<path d="M706.67 693.7C707.658 693.7 708.46 692.899 708.46 691.91C708.46 690.922 707.658 690.12 706.67 690.12C705.681 690.12 704.88 690.922 704.88 691.91C704.88 692.899 705.681 693.7 706.67 693.7Z" fill="#060D14"/>
<path d="M710.31 695.26C711.58 695.26 712.61 694.23 712.61 692.96C712.61 691.69 711.58 690.66 710.31 690.66C709.04 690.66 708.01 691.69 708.01 692.96C708.01 694.23 709.04 695.26 710.31 695.26Z" fill="#060D14"/>
<path d="M713.96 696.35C715.258 696.35 716.31 695.298 716.31 694C716.31 692.702 715.258 691.65 713.96 691.65C712.662 691.65 711.61 692.702 711.61 694C711.61 695.298 712.662 696.35 713.96 696.35Z" fill="#060D14"/>
<path d="M717.6 697.1C718.738 697.1 719.66 696.178 719.66 695.04C719.66 693.902 718.738 692.98 717.6 692.98C716.462 692.98 715.54 693.902 715.54 695.04C715.54 696.178 716.462 697.1 717.6 697.1Z" fill="#060D14"/>
<path d="M721.24 697.63C722.091 697.63 722.78 696.94 722.78 696.09C722.78 695.239 722.091 694.55 721.24 694.55C720.39 694.55 719.7 695.239 719.7 696.09C719.7 696.94 720.39 697.63 721.24 697.63Z" fill="#060D14"/>
<path d="M724.88 698.09C725.41 698.09 725.84 697.66 725.84 697.13C725.84 696.6 725.41 696.17 724.88 696.17C724.35 696.17 723.92 696.6 723.92 697.13C723.92 697.66 724.35 698.09 724.88 698.09Z" fill="#060D14"/>
<path d="M728.53 698.63C728.779 698.63 728.98 698.429 728.98 698.18C728.98 697.931 728.779 697.73 728.53 697.73C728.282 697.73 728.08 697.931 728.08 698.18C728.08 698.429 728.282 698.63 728.53 698.63Z" fill="#060D14"/>
<path d="M732.17 699.38C732.258 699.38 732.33 699.308 732.33 699.22C732.33 699.132 732.258 699.06 732.17 699.06C732.081 699.06 732.01 699.132 732.01 699.22C732.01 699.308 732.081 699.38 732.17 699.38Z" fill="#060D14"/>
<path d="M735.81 700.3C735.827 700.3 735.84 700.287 735.84 700.27C735.84 700.254 735.827 700.24 735.81 700.24C735.794 700.24 735.78 700.254 735.78 700.27C735.78 700.287 735.794 700.3 735.81 700.3Z" fill="#060D14"/>
<path d="M691.06 691.4C691.071 691.4 691.08 691.391 691.08 691.38C691.08 691.369 691.071 691.36 691.06 691.36C691.049 691.36 691.04 691.369 691.04 691.38C691.04 691.391 691.049 691.4 691.06 691.4Z" fill="#060D14"/>
<path d="M694.7 692.53C694.761 692.53 694.81 692.481 694.81 692.42C694.81 692.359 694.761 692.31 694.7 692.31C694.639 692.31 694.59 692.359 694.59 692.42C694.59 692.481 694.639 692.53 694.7 692.53Z" fill="#060D14"/>
<path d="M698.34 693.84C698.55 693.84 698.72 693.67 698.72 693.46C698.72 693.25 698.55 693.08 698.34 693.08C698.13 693.08 697.96 693.25 697.96 693.46C697.96 693.67 698.13 693.84 698.34 693.84Z" fill="#060D14"/>
<path d="M701.98 695.42C702.483 695.42 702.89 695.013 702.89 694.51C702.89 694.008 702.483 693.6 701.98 693.6C701.478 693.6 701.07 694.008 701.07 694.51C701.07 695.013 701.478 695.42 701.98 695.42Z" fill="#060D14"/>
<path d="M705.63 697.18C706.53 697.18 707.26 696.45 707.26 695.55C707.26 694.65 706.53 693.92 705.63 693.92C704.73 693.92 704 694.65 704 695.55C704 696.45 704.73 697.18 705.63 697.18Z" fill="#060D14"/>
<path d="M709.27 698.81C710.49 698.81 711.48 697.821 711.48 696.6C711.48 695.38 710.49 694.39 709.27 694.39C708.049 694.39 707.06 695.38 707.06 696.6C707.06 697.821 708.049 698.81 709.27 698.81Z" fill="#060D14"/>
<path d="M712.91 700.03C714.229 700.03 715.3 698.96 715.3 697.64C715.3 696.32 714.229 695.25 712.91 695.25C711.59 695.25 710.52 696.32 710.52 697.64C710.52 698.96 711.59 700.03 712.91 700.03Z" fill="#060D14"/>
<path d="M716.55 700.91C717.776 700.91 718.77 699.916 718.77 698.69C718.77 697.464 717.776 696.47 716.55 696.47C715.324 696.47 714.33 697.464 714.33 698.69C714.33 699.916 715.324 700.91 716.55 700.91Z" fill="#060D14"/>
<path d="M720.2 701.48C721.167 701.48 721.95 700.696 721.95 699.73C721.95 698.763 721.167 697.98 720.2 697.98C719.234 697.98 718.45 698.763 718.45 699.73C718.45 700.696 719.234 701.48 720.2 701.48Z" fill="#060D14"/>
<path d="M723.84 701.89C724.454 701.89 724.95 701.393 724.95 700.78C724.95 700.167 724.454 699.67 723.84 699.67C723.227 699.67 722.73 700.167 722.73 700.78C722.73 701.393 723.227 701.89 723.84 701.89Z" fill="#060D14"/>
<path d="M727.48 702.37C727.783 702.37 728.03 702.124 728.03 701.82C728.03 701.516 727.783 701.27 727.48 701.27C727.176 701.27 726.93 701.516 726.93 701.82C726.93 702.124 727.176 702.37 727.48 702.37Z" fill="#060D14"/>
<path d="M731.12 703.05C731.225 703.05 731.31 702.965 731.31 702.86C731.31 702.755 731.225 702.67 731.12 702.67C731.015 702.67 730.93 702.755 730.93 702.86C730.93 702.965 731.015 703.05 731.12 703.05Z" fill="#060D14"/>
<path d="M734.77 703.95C734.793 703.95 734.81 703.932 734.81 703.91C734.81 703.888 734.793 703.87 734.77 703.87C734.748 703.87 734.73 703.888 734.73 703.91C734.73 703.932 734.748 703.95 734.77 703.95Z" fill="#060D14"/>
<path d="M690.01 695.03C690.016 695.03 690.02 695.025 690.02 695.02C690.02 695.014 690.016 695.01 690.01 695.01C690.004 695.01 690 695.014 690 695.02C690 695.025 690.004 695.03 690.01 695.03Z" fill="#060D14"/>
<path d="M693.65 696.13C693.689 696.13 693.72 696.099 693.72 696.06C693.72 696.022 693.689 695.99 693.65 695.99C693.611 695.99 693.58 696.022 693.58 696.06C693.58 696.099 693.611 696.13 693.65 696.13Z" fill="#060D14"/>
<path d="M697.3 697.39C697.454 697.39 697.58 697.265 697.58 697.11C697.58 696.955 697.454 696.83 697.3 696.83C697.145 696.83 697.02 696.955 697.02 697.11C697.02 697.265 697.145 697.39 697.3 697.39Z" fill="#060D14"/>
<path d="M700.94 698.88C701.343 698.88 701.67 698.553 701.67 698.15C701.67 697.747 701.343 697.42 700.94 697.42C700.537 697.42 700.21 697.747 700.21 698.15C700.21 698.553 700.537 698.88 700.94 698.88Z" fill="#060D14"/>
<path d="M704.58 700.56C705.331 700.56 705.94 699.951 705.94 699.2C705.94 698.449 705.331 697.84 704.58 697.84C703.829 697.84 703.22 698.449 703.22 699.2C703.22 699.951 703.829 700.56 704.58 700.56Z" fill="#060D14"/>
<path d="M708.22 702.12C709.258 702.12 710.1 701.278 710.1 700.24C710.1 699.202 709.258 698.36 708.22 698.36C707.182 698.36 706.34 699.202 706.34 700.24C706.34 701.278 707.182 702.12 708.22 702.12Z" fill="#060D14"/>
<path d="M711.87 703.35C713.007 703.35 713.93 702.428 713.93 701.29C713.93 700.152 713.007 699.23 711.87 699.23C710.732 699.23 709.81 700.152 709.81 701.29C709.81 702.428 710.732 703.35 711.87 703.35Z" fill="#060D14"/>
<path d="M715.51 704.23C716.56 704.23 717.41 703.38 717.41 702.33C717.41 701.281 716.56 700.43 715.51 700.43C714.461 700.43 713.61 701.281 713.61 702.33C713.61 703.38 714.461 704.23 715.51 704.23Z" fill="#060D14"/>
<path d="M719.15 704.87C719.979 704.87 720.65 704.199 720.65 703.37C720.65 702.542 719.979 701.87 719.15 701.87C718.322 701.87 717.65 702.542 717.65 703.37C717.65 704.199 718.322 704.87 719.15 704.87Z" fill="#060D14"/>
<path d="M722.79 705.38C723.32 705.38 723.75 704.95 723.75 704.42C723.75 703.89 723.32 703.46 722.79 703.46C722.26 703.46 721.83 703.89 721.83 704.42C721.83 704.95 722.26 705.38 722.79 705.38Z" fill="#060D14"/>
<path d="M726.44 705.93C726.699 705.93 726.91 705.72 726.91 705.46C726.91 705.201 726.699 704.99 726.44 704.99C726.18 704.99 725.97 705.201 725.97 705.46C725.97 705.72 726.18 705.93 726.44 705.93Z" fill="#060D14"/>
<path d="M730.08 706.68C730.174 706.68 730.25 706.604 730.25 706.51C730.25 706.416 730.174 706.34 730.08 706.34C729.986 706.34 729.91 706.416 729.91 706.51C729.91 706.604 729.986 706.68 730.08 706.68Z" fill="#060D14"/>
<path d="M733.72 707.58C733.737 707.58 733.75 707.567 733.75 707.55C733.75 707.533 733.737 707.52 733.72 707.52C733.704 707.52 733.69 707.533 733.69 707.55C733.69 707.567 733.704 707.58 733.72 707.58Z" fill="#060D14"/>
<path d="M692.61 699.75C692.632 699.75 692.65 699.732 692.65 699.71C692.65 699.688 692.632 699.67 692.61 699.67C692.588 699.67 692.57 699.688 692.57 699.71C692.57 699.732 692.588 699.75 692.61 699.75Z" fill="#060D14"/>
<path d="M696.25 700.94C696.354 700.94 696.44 700.855 696.44 700.75C696.44 700.645 696.354 700.56 696.25 700.56C696.145 700.56 696.06 700.645 696.06 700.75C696.06 700.855 696.145 700.94 696.25 700.94Z" fill="#060D14"/>
<path d="M699.89 702.3C700.172 702.3 700.4 702.071 700.4 701.79C700.4 701.508 700.172 701.28 699.89 701.28C699.608 701.28 699.38 701.508 699.38 701.79C699.38 702.071 699.608 702.3 699.89 702.3Z" fill="#060D14"/>
<path d="M703.54 703.8C704.07 703.8 704.5 703.37 704.5 702.84C704.5 702.31 704.07 701.88 703.54 701.88C703.01 701.88 702.58 702.31 702.58 702.84C702.58 703.37 703.01 703.8 703.54 703.8Z" fill="#060D14"/>
<path d="M707.18 705.19C707.904 705.19 708.49 704.603 708.49 703.88C708.49 703.156 707.904 702.57 707.18 702.57C706.457 702.57 705.87 703.156 705.87 703.88C705.87 704.603 706.457 705.19 707.18 705.19Z" fill="#060D14"/>
<path d="M710.82 706.33C711.593 706.33 712.22 705.703 712.22 704.93C712.22 704.157 711.593 703.53 710.82 703.53C710.047 703.53 709.42 704.157 709.42 704.93C709.42 705.703 710.047 706.33 710.82 706.33Z" fill="#060D14"/>
<path d="M714.46 707.21C715.145 707.21 715.7 706.655 715.7 705.97C715.7 705.285 715.145 704.73 714.46 704.73C713.775 704.73 713.22 705.285 713.22 705.97C713.22 706.655 713.775 707.21 714.46 707.21Z" fill="#060D14"/>
<path d="M718.11 707.98C718.641 707.98 719.07 707.55 719.07 707.02C719.07 706.49 718.641 706.06 718.11 706.06C717.58 706.06 717.15 706.49 717.15 707.02C717.15 707.55 717.58 707.98 718.11 707.98Z" fill="#060D14"/>
<path d="M721.75 708.67C722.087 708.67 722.36 708.397 722.36 708.06C722.36 707.723 722.087 707.45 721.75 707.45C721.413 707.45 721.14 707.723 721.14 708.06C721.14 708.397 721.413 708.67 721.75 708.67Z" fill="#060D14"/>
<path d="M725.39 709.4C725.55 709.4 725.68 709.27 725.68 709.11C725.68 708.95 725.55 708.82 725.39 708.82C725.229 708.82 725.1 708.95 725.1 709.11C725.1 709.27 725.229 709.4 725.39 709.4Z" fill="#060D14"/>
<path d="M729.04 710.26C729.1 710.26 729.15 710.211 729.15 710.15C729.15 710.089 729.1 710.04 729.04 710.04C728.979 710.04 728.93 710.089 728.93 710.15C728.93 710.211 728.979 710.26 729.04 710.26Z" fill="#060D14"/>
<path d="M732.68 711.21C732.691 711.21 732.7 711.201 732.7 711.19C732.7 711.179 732.691 711.17 732.68 711.17C732.669 711.17 732.66 711.179 732.66 711.19C732.66 711.201 732.669 711.21 732.68 711.21Z" fill="#060D14"/>
<path d="M691.56 703.37C691.571 703.37 691.58 703.361 691.58 703.35C691.58 703.339 691.571 703.33 691.56 703.33C691.549 703.33 691.54 703.339 691.54 703.35C691.54 703.361 691.549 703.37 691.56 703.37Z" fill="#060D14"/>
<path d="M695.21 704.48C695.26 704.48 695.3 704.44 695.3 704.39C695.3 704.34 695.26 704.3 695.21 704.3C695.16 704.3 695.12 704.34 695.12 704.39C695.12 704.44 695.16 704.48 695.21 704.48Z" fill="#060D14"/>
<path d="M698.85 705.71C698.999 705.71 699.12 705.589 699.12 705.44C699.12 705.291 698.999 705.17 698.85 705.17C698.701 705.17 698.58 705.291 698.58 705.44C698.58 705.589 698.701 705.71 698.85 705.71Z" fill="#060D14"/>
<path d="M702.49 707.01C702.783 707.01 703.02 706.773 703.02 706.48C703.02 706.187 702.783 705.95 702.49 705.95C702.197 705.95 701.96 706.187 701.96 706.48C701.96 706.773 702.197 707.01 702.49 707.01Z" fill="#060D14"/>
<path d="M706.14 708.23C706.527 708.23 706.84 707.917 706.84 707.53C706.84 707.143 706.527 706.83 706.14 706.83C705.754 706.83 705.44 707.143 705.44 707.53C705.44 707.917 705.754 708.23 706.14 708.23Z" fill="#060D14"/>
<path d="M709.78 709.3C710.183 709.3 710.51 708.973 710.51 708.57C710.51 708.167 710.183 707.84 709.78 707.84C709.377 707.84 709.05 708.167 709.05 708.57C709.05 708.973 709.377 709.3 709.78 709.3Z" fill="#060D14"/>
<path d="M713.42 710.23C713.762 710.23 714.04 709.953 714.04 709.61C714.04 709.268 713.762 708.99 713.42 708.99C713.077 708.99 712.8 709.268 712.8 709.61C712.8 709.953 713.077 710.23 713.42 710.23Z" fill="#060D14"/>
<path d="M717.06 711.11C717.309 711.11 717.51 710.909 717.51 710.66C717.51 710.411 717.309 710.21 717.06 710.21C716.812 710.21 716.61 710.411 716.61 710.66C716.61 710.909 716.812 711.11 717.06 711.11Z" fill="#060D14"/>
<path d="M720.71 711.96C720.854 711.96 720.97 711.844 720.97 711.7C720.97 711.556 720.854 711.44 720.71 711.44C720.567 711.44 720.45 711.556 720.45 711.7C720.45 711.844 720.567 711.96 720.71 711.96Z" fill="#060D14"/>
<path d="M724.35 712.88C724.422 712.88 724.48 712.822 724.48 712.75C724.48 712.678 724.422 712.62 724.35 712.62C724.278 712.62 724.22 712.678 724.22 712.75C724.22 712.822 724.278 712.88 724.35 712.88Z" fill="#060D14"/>
<path d="M727.99 713.83C728.012 713.83 728.03 713.812 728.03 713.79C728.03 713.768 728.012 713.75 727.99 713.75C727.968 713.75 727.95 713.768 727.95 713.79C727.95 713.812 727.968 713.83 727.99 713.83Z" fill="#060D14"/>
<path d="M731.63 714.85C731.636 714.85 731.64 714.846 731.64 714.84C731.64 714.835 731.636 714.83 731.63 714.83C731.625 714.83 731.62 714.835 731.62 714.84C731.62 714.846 731.625 714.85 731.63 714.85Z" fill="#060D14"/>
<path d="M690.52 707C690.525 707 690.53 706.995 690.53 706.99C690.53 706.984 690.525 706.98 690.52 706.98C690.514 706.98 690.51 706.984 690.51 706.99C690.51 706.995 690.514 707 690.52 707Z" fill="#060D14"/>
<path d="M694.16 708.07C694.176 708.07 694.19 708.056 694.19 708.04C694.19 708.023 694.176 708.01 694.16 708.01C694.143 708.01 694.13 708.023 694.13 708.04C694.13 708.056 694.143 708.07 694.16 708.07Z" fill="#060D14"/>
<path d="M697.81 709.19C697.871 709.19 697.92 709.141 697.92 709.08C697.92 709.019 697.871 708.97 697.81 708.97C697.749 708.97 697.7 709.019 697.7 709.08C697.7 709.141 697.749 709.19 697.81 709.19Z" fill="#060D14"/>
<path d="M701.45 710.33C701.566 710.33 701.66 710.236 701.66 710.12C701.66 710.004 701.566 709.91 701.45 709.91C701.334 709.91 701.24 710.004 701.24 710.12C701.24 710.236 701.334 710.33 701.45 710.33Z" fill="#060D14"/>
<path d="M705.09 711.44C705.239 711.44 705.36 711.319 705.36 711.17C705.36 711.021 705.239 710.9 705.09 710.9C704.941 710.9 704.82 711.021 704.82 711.17C704.82 711.319 704.941 711.44 705.09 711.44Z" fill="#060D14"/>
<path d="M708.73 712.48C708.879 712.48 709 712.359 709 712.21C709 712.061 708.879 711.94 708.73 711.94C708.581 711.94 708.46 712.061 708.46 712.21C708.46 712.359 708.581 712.48 708.73 712.48Z" fill="#060D14"/>
<path d="M712.38 713.47C712.496 713.47 712.59 713.376 712.59 713.26C712.59 713.144 712.496 713.05 712.38 713.05C712.264 713.05 712.17 713.144 712.17 713.26C712.17 713.376 712.264 713.47 712.38 713.47Z" fill="#060D14"/>
<path d="M716.02 714.44C716.097 714.44 716.16 714.377 716.16 714.3C716.16 714.223 716.097 714.16 716.02 714.16C715.943 714.16 715.88 714.223 715.88 714.3C715.88 714.377 715.943 714.44 716.02 714.44Z" fill="#060D14"/>
<path d="M719.66 715.43C719.704 715.43 719.74 715.394 719.74 715.35C719.74 715.306 719.704 715.27 719.66 715.27C719.616 715.27 719.58 715.306 719.58 715.35C719.58 715.394 719.616 715.43 719.66 715.43Z" fill="#060D14"/>
<path d="M723.3 716.42C723.316 716.42 723.33 716.406 723.33 716.39C723.33 716.373 723.316 716.36 723.3 716.36C723.283 716.36 723.27 716.373 723.27 716.39C723.27 716.406 723.283 716.42 723.3 716.42Z" fill="#060D14"/>
<path d="M726.95 717.45C726.956 717.45 726.96 717.446 726.96 717.44C726.96 717.435 726.956 717.43 726.95 717.43C726.945 717.43 726.94 717.435 726.94 717.44C726.94 717.446 726.945 717.45 726.95 717.45Z" fill="#060D14"/>
<path d="M693.12 711.69C693.126 711.69 693.13 711.685 693.13 711.68C693.13 711.674 693.126 711.67 693.12 711.67C693.115 711.67 693.11 711.674 693.11 711.68C693.11 711.685 693.115 711.69 693.12 711.69Z" fill="#060D14"/>
<path d="M696.76 712.75C696.777 712.75 696.79 712.737 696.79 712.72C696.79 712.703 696.777 712.69 696.76 712.69C696.744 712.69 696.73 712.703 696.73 712.72C696.73 712.737 696.744 712.75 696.76 712.75Z" fill="#060D14"/>
<path d="M700.4 713.82C700.427 713.82 700.45 713.798 700.45 713.77C700.45 713.743 700.427 713.72 700.4 713.72C700.372 713.72 700.35 713.743 700.35 713.77C700.35 713.798 700.372 713.82 700.4 713.82Z" fill="#060D14"/>
<path d="M704.05 714.88C704.089 714.88 704.12 714.849 704.12 714.81C704.12 714.772 704.089 714.74 704.05 714.74C704.012 714.74 703.98 714.772 703.98 714.81C703.98 714.849 704.012 714.88 704.05 714.88Z" fill="#060D14"/>
<path d="M707.69 715.92C707.723 715.92 707.75 715.893 707.75 715.86C707.75 715.827 707.723 715.8 707.69 715.8C707.657 715.8 707.63 715.827 707.63 715.86C707.63 715.893 707.657 715.92 707.69 715.92Z" fill="#060D14"/>
<path d="M711.33 716.94C711.352 716.94 711.37 716.922 711.37 716.9C711.37 716.878 711.352 716.86 711.33 716.86C711.308 716.86 711.29 716.878 711.29 716.9C711.29 716.922 711.308 716.94 711.33 716.94Z" fill="#060D14"/>
<path d="M714.97 717.97C714.987 717.97 715 717.957 715 717.94C715 717.924 714.987 717.91 714.97 717.91C714.954 717.91 714.94 717.924 714.94 717.94C714.94 717.957 714.954 717.97 714.97 717.97Z" fill="#060D14"/>
<path d="M718.62 719C718.626 719 718.63 718.995 718.63 718.99C718.63 718.984 718.626 718.98 718.62 718.98C718.615 718.98 718.61 718.984 718.61 718.99C718.61 718.995 718.615 719 718.62 719Z" fill="#060D14"/>
<path d="M699.36 717.42C699.365 717.42 699.37 717.415 699.37 717.41C699.37 717.404 699.365 717.4 699.36 717.4C699.354 717.4 699.35 717.404 699.35 717.41C699.35 717.415 699.354 717.42 699.36 717.42Z" fill="#060D14"/>
<path d="M703 718.46C703.006 718.46 703.01 718.455 703.01 718.45C703.01 718.444 703.006 718.44 703 718.44C702.995 718.44 702.99 718.444 702.99 718.45C702.99 718.455 702.995 718.46 703 718.46Z" fill="#060D14"/>
<path d="M706.64 719.51C706.645 719.51 706.65 719.506 706.65 719.5C706.65 719.495 706.645 719.49 706.64 719.49C706.634 719.49 706.63 719.495 706.63 719.5C706.63 719.506 706.634 719.51 706.64 719.51Z" fill="#060D14"/>
</g>
<path d="M718.641 690.28C718.256 688.875 717.46 687.617 716.355 686.667C715.251 685.718 713.888 685.12 712.441 684.95C712.221 684.95 712.001 684.95 711.641 684.84C711.811 684.35 711.951 683.96 712.061 683.55C712.361 682.558 712.461 681.515 712.354 680.484C712.248 679.452 711.938 678.452 711.442 677.541C710.946 676.63 710.275 675.827 709.466 675.178C708.657 674.529 707.727 674.047 706.731 673.76C704.521 673.169 702.168 673.466 700.174 674.587C698.18 675.709 696.704 677.565 696.061 679.76C695.661 681.007 695.588 682.335 695.847 683.618C696.106 684.901 696.689 686.096 697.541 687.09C697.681 687.25 697.841 687.45 698.041 687.67C697.761 687.89 697.541 688.08 697.321 688.24C696.262 689.093 695.534 690.289 695.261 691.62C694.967 693.095 695.115 694.624 695.686 696.015C696.257 697.406 697.225 698.597 698.471 699.44C698.92 699.721 699.4 699.949 699.901 700.12C700.99 700.529 702.182 700.58 703.302 700.265C704.423 699.951 705.413 699.287 706.131 698.37C706.351 698.12 706.541 697.87 706.791 697.57C707.121 698.04 707.391 698.42 707.691 698.78C708.101 699.321 708.64 699.752 709.257 700.035C709.875 700.317 710.553 700.443 711.231 700.4C711.9 700.397 712.562 700.265 713.181 700.01C714.386 699.571 715.482 698.874 716.392 697.97C717.302 697.065 718.004 695.973 718.451 694.77C719.04 693.343 719.107 691.753 718.641 690.28ZM716.311 693.68C715.962 694.685 715.416 695.611 714.705 696.402C713.994 697.194 713.133 697.836 712.171 698.29C711.85 698.428 711.514 698.528 711.171 698.59C710.773 698.697 710.354 698.7 709.955 698.599C709.555 698.497 709.189 698.295 708.891 698.01C708.26 697.414 707.804 696.657 707.571 695.82C707.411 695.27 707.301 694.69 707.131 694.14C707.065 693.91 706.953 693.695 706.801 693.51C706.693 693.425 706.557 693.386 706.421 693.4C706.311 693.46 706.121 693.6 706.121 693.68C706.076 694.155 706.103 694.634 706.201 695.1C706.298 695.5 706.289 695.919 706.173 696.314C706.057 696.709 705.839 697.066 705.541 697.35C704.992 698.029 704.226 698.499 703.373 698.681C702.519 698.863 701.629 698.746 700.851 698.35C700.016 697.963 699.293 697.37 698.75 696.627C698.208 695.883 697.864 695.014 697.751 694.1C697.421 691.96 697.911 690.72 699.611 688.86C700.161 688.86 700.711 688.94 701.291 688.94C701.376 688.921 701.456 688.884 701.527 688.833C701.597 688.781 701.656 688.716 701.701 688.64C701.72 688.574 701.722 688.503 701.708 688.436C701.695 688.368 701.664 688.304 701.621 688.25L700.791 687.43C700.301 686.91 699.791 686.43 699.311 685.87C698.577 685.028 698.103 683.992 697.947 682.886C697.791 681.78 697.959 680.653 698.431 679.64C698.872 678.585 699.599 677.674 700.53 677.009C701.461 676.345 702.559 675.954 703.701 675.88C704.78 675.719 705.882 675.833 706.905 676.212C707.928 676.592 708.838 677.224 709.551 678.05C710.374 678.975 710.885 680.135 711.012 681.366C711.14 682.597 710.877 683.837 710.261 684.91C710.049 685.233 709.741 685.481 709.381 685.62C709.041 685.766 708.734 685.979 708.479 686.247C708.225 686.516 708.028 686.833 707.901 687.18C708.017 687.356 708.187 687.49 708.384 687.564C708.582 687.637 708.797 687.647 709.001 687.59C709.763 687.478 710.531 687.404 711.301 687.37C712.437 687.36 713.546 687.722 714.458 688.401C715.37 689.08 716.034 690.038 716.351 691.13C716.615 691.966 716.597 692.866 716.301 693.69L716.311 693.68Z" fill="#060D14"/>
<path d="M716.3 693.691C715.951 694.696 715.405 695.621 714.695 696.413C713.984 697.204 713.122 697.846 712.16 698.301C711.839 698.438 711.504 698.539 711.16 698.601C710.762 698.708 710.344 698.711 709.944 698.609C709.545 698.508 709.178 698.305 708.88 698.021C708.249 697.424 707.793 696.667 707.56 695.831C707.4 695.281 707.29 694.701 707.12 694.151C707.055 693.92 706.943 693.706 706.79 693.521C706.683 693.435 706.546 693.396 706.41 693.411C706.3 693.471 706.11 693.611 706.11 693.691C706.065 694.165 706.092 694.644 706.19 695.111C706.288 695.511 706.278 695.929 706.162 696.324C706.046 696.719 705.828 697.077 705.53 697.361C704.981 698.039 704.216 698.509 703.362 698.691C702.509 698.873 701.618 698.757 700.84 698.361C700.005 697.974 699.282 697.381 698.74 696.637C698.198 695.893 697.854 695.024 697.74 694.111C697.41 691.971 697.9 690.731 699.6 688.871C700.15 688.871 700.7 688.951 701.28 688.951C701.365 688.931 701.446 688.895 701.516 688.843C701.587 688.792 701.646 688.726 701.69 688.651C701.709 688.584 701.712 688.514 701.698 688.446C701.684 688.378 701.654 688.314 701.61 688.261L700.78 687.441C700.29 686.921 699.78 686.441 699.3 685.881C698.566 685.039 698.093 684.002 697.936 682.896C697.78 681.79 697.948 680.663 698.42 679.651C698.861 678.595 699.588 677.684 700.519 677.02C701.451 676.355 702.549 675.964 703.69 675.891C704.769 675.729 705.872 675.843 706.895 676.223C707.918 676.602 708.828 677.234 709.54 678.061C710.363 678.985 710.874 680.145 711.002 681.376C711.129 682.607 710.866 683.847 710.25 684.921C710.038 685.243 709.73 685.492 709.37 685.631C709.03 685.776 708.723 685.989 708.469 686.258C708.214 686.526 708.017 686.843 707.89 687.191C708.007 687.366 708.176 687.5 708.374 687.574C708.571 687.648 708.787 687.657 708.99 687.601C709.753 687.488 710.52 687.415 711.29 687.381C712.427 687.371 713.536 687.733 714.447 688.412C715.359 689.09 716.024 690.049 716.34 691.141C716.605 691.972 716.591 692.868 716.3 693.691Z" fill="white"/>
<g opacity="0.3">
<path d="M705.57 697.35C705.868 697.067 706.086 696.709 706.202 696.314C706.318 695.919 706.328 695.5 706.23 695.1C706.164 694.866 706.134 694.624 706.14 694.38C705.55 695.96 704.14 698.68 702 696.29C701.134 695.274 700.48 694.095 700.074 692.823C699.669 691.551 699.522 690.21 699.64 688.88C697.94 690.74 697.45 691.98 697.78 694.12C697.894 695.034 698.238 695.903 698.78 696.647C699.322 697.39 700.045 697.983 700.88 698.37C701.66 698.764 702.552 698.877 703.406 698.692C704.26 698.506 705.024 698.032 705.57 697.35Z" fill="#707070"/>
<path d="M709.19 685.771L709.41 685.641C709.77 685.502 710.078 685.253 710.29 684.931C710.906 683.857 711.169 682.617 711.042 681.386C710.914 680.155 710.403 678.995 709.58 678.071C709.004 677.4 708.295 676.856 707.498 676.474C706.701 676.092 705.834 675.88 704.95 675.851C711.11 678.271 709.64 684.301 709.19 685.771Z" fill="#707070"/>
<path d="M716.381 691.151C716.064 690.059 715.399 689.101 714.488 688.422C713.576 687.743 712.467 687.381 711.331 687.391C711.091 687.391 710.841 687.391 710.601 687.391C713.601 687.981 715.681 689.771 712.601 693.001C710.241 695.501 708.091 694.611 707.061 693.901C707.094 693.963 707.118 694.031 707.131 694.101C707.301 694.651 707.411 695.231 707.571 695.781C707.803 696.617 708.26 697.374 708.891 697.971C709.189 698.255 709.555 698.458 709.955 698.559C710.354 698.661 710.773 698.658 711.171 698.551C711.514 698.489 711.85 698.388 712.171 698.251C713.132 697.796 713.994 697.154 714.705 696.363C715.416 695.571 715.962 694.646 716.311 693.641C716.598 692.839 716.623 691.967 716.381 691.151Z" fill="#707070"/>
</g>
</svg>
