<svg width="1406" height="934" viewBox="0 0 1406 934" fill="none" xmlns="http://www.w3.org/2000/svg">
<path d="M408.748 424.88C395.204 411.592 380.865 397.563 368.811 382.914C368.572 382.676 368.414 382.37 368.359 382.038C368.336 381.492 368.896 381.082 369.39 380.801L390.896 368.587C396.465 387.427 402.714 406.186 408.748 424.88Z" fill="#060D14"/>
<path d="M409.821 415.718C396.276 402.436 381.938 388.401 369.879 373.756C369.642 373.518 369.485 373.212 369.432 372.881C369.404 372.335 369.969 371.92 370.462 371.644L391.966 359.44C397.534 378.291 403.783 397.023 409.821 415.718Z" fill="#E83A3B"/>
<path d="M410.69 416.202C410.633 415.905 410.546 415.614 410.432 415.334C405.766 400.888 401.003 386.473 396.518 371.988C395.245 367.905 394.002 363.807 392.789 359.694C392.714 359.443 391.956 357.17 391.276 357.554L375.433 366.549L371.504 368.78C370.541 369.33 368.826 369.932 368.542 371.116C368.115 372.893 369.389 374.634 370.452 375.915C371.345 376.989 372.241 378.05 373.14 379.096C380.553 387.757 388.466 395.975 396.508 404.042C400.875 408.418 405.263 412.739 409.702 417.073C409.832 417.295 410.025 417.473 410.257 417.583C410.295 417.607 410.339 417.621 410.384 417.621C410.429 417.621 410.473 417.608 410.511 417.584C410.916 417.471 410.833 416.774 410.69 416.202ZM386.83 391.219C383.124 387.342 379.488 383.394 375.922 379.376C374.252 377.486 372.604 375.571 370.979 373.631C371.318 373.398 371.681 373.213 372.056 372.987L375.751 370.888L391.931 361.731C396.115 375.718 400.618 389.61 405.144 403.496L408.058 412.489C400.885 405.474 393.752 398.455 386.83 391.219Z" fill="#060D14"/>
<path d="M415.646 421.354C414.374 421.031 413.031 421.125 411.815 421.621C410.599 422.118 409.575 422.991 408.893 424.113C408.21 425.235 407.905 426.546 408.023 427.854C408.141 429.162 408.675 430.397 409.547 431.379C410.043 431.949 410.654 432.405 411.341 432.719C412.004 432.994 412.708 433.153 413.424 433.189C414.375 433.274 415.333 433.168 416.243 432.88C417.152 432.591 417.996 432.125 418.724 431.508C419.514 430.767 420.088 429.826 420.384 428.784C420.681 427.742 420.688 426.639 420.406 425.594C420.052 424.533 419.427 423.583 418.591 422.839C417.756 422.095 416.741 421.583 415.646 421.354Z" fill="#E83A3B"/>
<path d="M423.047 427.532C423.052 423.694 419.831 420.311 416.165 419.578C414.679 419.231 413.124 419.338 411.699 419.884C410.275 420.43 409.047 421.39 408.174 422.641C406.448 425.153 406.682 428.768 408.31 431.264C409.348 432.91 410.954 434.118 412.823 434.659C414.458 435.084 416.176 435.058 417.797 434.583C419.328 434.152 420.673 433.227 421.623 431.952C422.573 430.677 423.073 429.122 423.047 427.532ZM418.864 429.053C418.315 429.919 417.501 430.585 416.542 430.95C415.58 431.336 414.537 431.48 413.507 431.368C412.35 431.202 411.842 430.95 411.234 430.22L411.096 430.022L410.885 429.655C410.884 429.644 410.886 429.633 410.89 429.623L410.885 429.655L410.866 429.608C410.849 429.573 410.835 429.536 410.826 429.498L410.756 429.34C410.709 429.207 410.668 429.07 410.627 428.938L410.58 428.74C410.531 428.488 410.498 428.232 410.482 427.976C410.453 427.555 410.487 427.132 410.584 426.721C410.604 426.611 410.623 426.501 410.643 426.39C410.662 426.28 410.657 426.306 410.662 426.28C410.665 426.257 410.669 426.234 410.674 426.212C410.784 425.921 410.915 425.638 411.067 425.366C411.608 424.482 412.408 423.786 413.357 423.371C414.343 422.92 415.453 422.816 416.506 423.076L416.926 423.15L416.974 423.159L417.063 423.174C417.249 423.256 417.435 423.337 417.619 423.429L417.801 423.532C417.928 423.614 418.048 423.7 418.167 423.791L418.447 424.014C418.101 423.736 418.525 424.098 418.571 424.144L418.811 424.408L418.861 424.461C418.98 424.649 419.098 424.838 419.205 425.063C419.205 425.063 419.356 425.403 419.387 425.501C419.474 425.724 419.519 425.962 419.518 426.201C419.605 427.197 419.376 428.194 418.864 429.053Z" fill="#060D14"/>
</svg>
