<svg width="1406" height="934" viewBox="0 0 1406 934" fill="none" xmlns="http://www.w3.org/2000/svg">
<mask id="path-1-outside-1_5_269113" maskUnits="userSpaceOnUse" x="853.229" y="535.096" width="139.937" height="68.9745" fill="black">
<rect fill="white" x="853.229" y="535.096" width="139.937" height="68.9745"/>
<path d="M866.016 539.74C865.703 540.298 864.962 541.693 863.794 543.924L862.39 546.637C861.29 548.747 860.254 550.849 859.283 552.943C859.191 553.143 859.07 553.471 858.922 553.93C858.181 556.232 858.468 557.594 859.783 558.018C861.185 558.47 864.193 557.878 868.808 556.242C869.143 556.12 869.38 556.082 869.519 556.127C869.839 556.23 869.939 556.673 869.821 557.456C869.775 557.747 869.71 558.022 869.626 558.282C869.389 559.017 869.012 559.507 868.494 559.751C865.377 560.828 862.906 561.384 861.08 561.416C860.063 561.432 859.195 561.325 858.477 561.093C856.694 560.519 855.859 559.17 855.97 557.047C856.044 555.629 856.449 554.002 857.184 552.166C857.563 551.228 858.556 549.184 860.163 546.035C860.6 545.182 861.25 543.935 862.113 542.293C862.985 540.654 863.432 539.815 863.455 539.774C864.16 538.712 864.851 538.228 865.528 538.322C865.628 538.335 865.726 538.357 865.822 538.388C866.246 538.525 866.384 538.822 866.236 539.281C866.2 539.393 866.126 539.546 866.016 539.74ZM879.812 547.122C878.404 546.869 877.126 546.582 875.978 546.26C875.566 546.146 875.338 545.891 875.294 545.495C875.262 545.207 875.327 544.842 875.49 544.397C875.873 543.356 876.424 542.936 877.142 543.139C878.794 543.614 880.658 543.995 882.733 544.281C883.997 544.45 885.889 544.701 888.408 545.035C888.508 545.049 888.593 545.066 888.662 545.089C889.225 545.27 889.381 545.75 889.13 546.529C889.091 546.65 889.036 546.79 888.966 546.949C888.463 548.095 887.779 548.572 886.914 548.379C886.494 548.292 885.742 548.15 884.659 547.954L882.382 547.549C880.854 550.486 878.825 555.419 876.295 562.35C877.262 562.461 878.847 562.657 881.049 562.937C881.141 562.947 881.23 562.966 881.317 562.994C881.923 563.189 882.067 563.78 881.749 564.767C881.57 565.32 881.272 565.802 880.853 566.212C880.361 566.702 879.86 566.894 879.35 566.787C878.465 566.598 876.49 566.267 873.423 565.795C870.938 565.414 868.975 565.016 867.533 564.599C867.086 564.474 866.846 564.182 866.813 563.722C866.787 563.389 866.866 562.98 867.051 562.495C867.502 561.303 868.108 560.815 868.869 561.032C870.25 561.429 871.859 561.757 873.696 562.014C875.918 556.302 877.957 551.338 879.812 547.122ZM903.592 550.157C905.341 551.724 906.082 553.916 905.814 556.733C905.746 557.447 905.593 558.175 905.353 558.92C904.656 561.083 903.228 563.364 901.07 565.763C899.7 567.289 898.302 568.529 896.877 569.484C896.998 570.354 897.14 571.321 897.303 572.386C897.328 572.547 897.312 572.714 897.256 572.887C897.114 573.328 896.703 573.773 896.023 574.223C895.669 574.462 895.337 574.561 895.026 574.518C894.712 574.483 894.542 574.18 894.516 573.609C894.47 572.715 894.411 571.803 894.338 570.872C892.085 571.817 890.076 572.006 888.311 571.437C887.411 571.147 886.571 570.657 885.79 569.966C884.021 568.402 883.238 566.192 883.443 563.335C883.495 562.579 883.644 561.82 883.89 561.058C884.592 558.878 886.058 556.642 888.286 554.351C891.328 551.225 894.205 549.349 896.919 548.723C898.528 548.354 899.964 548.372 901.228 548.779C902.093 549.058 902.881 549.517 903.592 550.157ZM896.578 566.722C896.649 566.679 896.832 566.556 897.126 566.355C899.573 564.689 901.247 562.769 902.148 560.595C902.277 560.283 902.393 559.967 902.497 559.647C903.001 558.081 903.074 556.581 902.715 555.147C902.298 553.475 901.35 552.401 899.871 551.924C897.898 551.288 895.435 551.875 892.484 553.684C889.961 555.23 888.249 557.133 887.349 559.393C887.248 559.647 887.15 559.922 887.055 560.216C886.436 562.137 886.405 563.865 886.961 565.4C887.455 566.772 888.322 567.697 889.563 568.173C890.804 568.649 892.28 568.59 893.99 567.995C893.778 566.666 893.539 565.481 893.273 564.44L892.178 560.147C892.1 559.826 892.192 559.464 892.456 559.062C893.087 558.11 893.806 557.716 894.613 557.88C895.008 557.96 895.28 558.329 895.431 558.989C895.843 560.822 896.225 563.4 896.578 566.722ZM919.983 557.144C918.269 560.24 916.791 563.45 915.548 566.775L911.873 576.622C911.596 577.364 910.982 577.758 910.031 577.805C909.855 577.816 909.711 577.803 909.599 577.766C909.097 577.605 909.002 577.039 909.315 576.07C909.365 575.914 909.417 575.769 909.47 575.633L910.58 572.81C910.415 572.671 910.22 572.565 909.995 572.493C909.25 572.253 908.226 572.439 906.921 573.05C905.247 573.828 903.817 574.399 902.63 574.762C902.604 574.782 902.577 574.792 902.549 574.793C902.031 575.094 901.517 575.134 901.006 574.912C900.495 574.69 900.458 574.033 900.896 572.942L904.391 564.14C905.465 561.429 906.84 558.214 908.516 554.495C908.752 553.969 909.388 553.701 910.423 553.691C910.624 553.689 910.807 553.714 910.971 553.767C911.369 553.895 911.487 554.21 911.326 554.712C911.275 554.868 911.182 555.067 911.047 555.31C909.663 557.768 907.913 561.702 905.796 567.114C905.488 567.893 905.216 568.632 904.982 569.33C904.856 569.691 904.932 569.916 905.209 570.005C905.607 570.133 907.178 569.718 909.923 568.759C910.934 568.407 911.826 568.069 912.599 567.745C914.285 563.55 915.903 559.745 917.452 556.328C917.691 555.794 918.333 555.509 919.376 555.472C919.617 555.464 919.803 555.481 919.933 555.523C920.331 555.651 920.445 555.979 920.275 556.507C920.216 556.689 920.119 556.901 919.983 557.144ZM925.572 561.867C924.163 561.614 922.885 561.326 921.738 561.004C921.326 560.891 921.097 560.636 921.053 560.239C921.021 559.952 921.087 559.586 921.249 559.142C921.632 558.1 922.183 557.681 922.901 557.883C924.553 558.358 926.417 558.739 928.493 559.026C929.757 559.195 931.648 559.446 934.167 559.78C934.268 559.793 934.353 559.811 934.422 559.833C934.984 560.015 935.14 560.495 934.889 561.273C934.85 561.395 934.795 561.535 934.725 561.693C934.222 562.84 933.538 563.317 932.674 563.124C932.253 563.036 931.501 562.894 930.418 562.698L928.142 562.294C926.613 565.23 924.584 570.164 922.054 577.095C923.022 577.206 924.606 577.402 926.808 577.681C926.9 577.692 926.99 577.711 927.076 577.739C927.682 577.934 927.826 578.525 927.508 579.511C927.33 580.065 927.031 580.547 926.613 580.956C926.12 581.447 925.619 581.639 925.109 581.532C924.225 581.343 922.249 581.012 919.182 580.539C916.698 580.159 914.734 579.76 913.293 579.343C912.846 579.219 912.606 578.926 912.572 578.467C912.546 578.133 912.625 577.724 912.81 577.24C913.261 576.048 913.867 575.56 914.628 575.777C916.009 576.174 917.618 576.501 919.455 576.759C921.678 571.047 923.716 566.083 925.572 561.867ZM933.688 568.781C934.185 567.833 934.421 566.863 934.397 565.871C934.391 565.621 934.418 565.405 934.476 565.224C934.68 564.592 935.224 564.194 936.107 564.03C940.429 563.216 943.753 563.184 946.081 563.934C948.807 564.812 950.346 566.364 950.699 568.588C950.871 569.685 950.753 570.865 950.346 572.128C950.054 573.037 949.602 573.994 948.991 575.001C947.526 577.413 945.477 579.489 942.843 581.229C940.961 582.476 938.894 583.496 936.643 584.289C934.488 585.046 932.843 585.261 931.707 584.933C930.046 584.455 929.155 583.414 929.032 581.808C928.933 580.515 929.153 579.034 929.691 577.364C929.838 576.905 930.01 576.43 930.207 575.94C930.74 574.612 931.9 572.225 933.688 568.781ZM936.139 581.361C938.888 580.833 941.279 579.651 943.314 577.813C944.986 576.299 946.065 574.789 946.55 573.283C947.197 571.276 946.682 569.644 945.004 568.387C944.619 568.1 944.15 567.868 943.596 567.689C942.004 567.176 939.731 567.132 936.777 567.555L934.442 572.089C933.562 573.84 932.856 575.38 932.323 576.708C932.18 577.063 932.065 577.374 931.979 577.643C931.313 579.711 931.633 580.955 932.939 581.376C933.718 581.627 934.785 581.622 936.139 581.361ZM957.918 572.29C956.51 572.037 955.232 571.749 954.084 571.427C953.672 571.313 953.444 571.058 953.4 570.662C953.368 570.375 953.433 570.009 953.596 569.565C953.979 568.523 954.53 568.104 955.248 568.306C956.9 568.781 958.764 569.162 960.839 569.449C962.103 569.617 963.994 569.869 966.513 570.203C966.614 570.216 966.699 570.234 966.768 570.256C967.331 570.438 967.487 570.917 967.236 571.696C967.197 571.817 967.142 571.957 967.072 572.116C966.569 573.263 965.885 573.74 965.02 573.547C964.6 573.459 963.848 573.317 962.765 573.121L960.488 572.717C958.96 575.653 956.93 580.587 954.401 587.518C955.368 587.629 956.953 587.824 959.155 588.104C959.247 588.115 959.336 588.134 959.423 588.162C960.029 588.357 960.172 588.948 959.855 589.934C959.676 590.488 959.378 590.97 958.959 591.379C958.467 591.87 957.966 592.062 957.456 591.955C956.571 591.765 954.596 591.434 951.529 590.962C949.044 590.582 947.081 590.183 945.639 589.766C945.192 589.641 944.952 589.349 944.919 588.889C944.893 588.556 944.972 588.147 945.157 587.662C945.608 586.471 946.214 585.983 946.975 586.199C948.356 586.597 949.965 586.924 951.802 587.182C954.024 581.47 956.063 576.506 957.918 572.29ZM970.51 577.365C968.599 577.16 966.972 576.903 965.629 576.594C965.168 576.484 964.92 576.203 964.883 575.752C964.869 575.442 964.951 575.038 965.13 574.542C965.569 573.356 966.177 572.85 966.952 573.023C968.738 573.436 970.797 573.732 973.128 573.91C974.511 574.002 976.588 574.151 979.359 574.356C979.48 574.367 979.584 574.386 979.67 574.414C980.241 574.598 980.372 575.17 980.063 576.13C979.862 576.753 979.499 577.3 978.975 577.771C978.559 578.143 978.115 578.292 977.643 578.216C976.669 578.065 975.163 577.88 973.122 577.662C971.706 580.396 970.471 583.192 969.416 586.052L966.271 594.609C966.014 595.319 965.407 595.692 964.45 595.727C964.295 595.735 964.148 595.716 964.009 595.671C963.516 595.512 963.42 594.966 963.721 594.031C963.766 593.893 963.815 593.756 963.868 593.62L966.951 585.788C967.904 583.363 969.09 580.556 970.51 577.365ZM990.52 578.168C990.659 578.212 990.812 578.3 990.98 578.43C991.757 579.044 992.036 579.63 991.817 580.19C990.326 584.017 988.928 587.392 987.623 590.315L983.579 599.398C983.033 600.617 982.353 601.248 981.537 601.29C981.149 601.309 980.734 601.247 980.293 601.104C979.575 600.873 978.734 600.43 977.77 599.776C976.241 598.739 975.315 597.967 974.991 597.462C974.579 596.813 974.437 596.233 974.564 595.72C974.846 594.636 975.398 594.064 976.22 594.004C976.573 593.975 976.75 594.137 976.751 594.49C976.753 595.255 977.427 596.036 978.775 596.833C979.056 597 979.36 597.136 979.689 597.242C979.94 597.323 980.181 597.377 980.411 597.403C980.964 597.467 981.384 597.273 981.673 596.821C982.547 595.441 983.535 593.486 984.637 590.957C982.148 590.766 980.177 590.585 978.724 590.412C978.292 590.359 977.912 590.28 977.583 590.174C975.861 589.619 975.371 588.191 976.112 585.889C976.218 585.56 976.339 585.231 976.473 584.902C977.22 583.089 978.57 580.454 980.525 576.996C980.764 576.433 981.407 576.143 982.453 576.127C982.674 576.122 982.854 576.141 982.992 576.186C983.399 576.317 983.516 576.651 983.343 577.187C983.293 577.343 983.197 577.551 983.056 577.811C980.643 582.277 979.275 585.012 978.951 586.016C978.664 586.907 979.005 587.509 979.974 587.821C980.511 587.994 981.223 588.08 982.111 588.08C983.543 588.083 984.602 587.88 985.288 587.47C986.022 587.029 986.653 586.167 987.181 584.885C987.64 583.61 988.094 582.333 988.544 581.055C989.377 578.974 990.036 578.011 990.52 578.168Z"/>
</mask>
<path d="M866.016 539.74C865.703 540.298 864.962 541.693 863.794 543.924L862.39 546.637C861.29 548.747 860.254 550.849 859.283 552.943C859.191 553.143 859.07 553.471 858.922 553.93C858.181 556.232 858.468 557.594 859.783 558.018C861.185 558.47 864.193 557.878 868.808 556.242C869.143 556.12 869.38 556.082 869.519 556.127C869.839 556.23 869.939 556.673 869.821 557.456C869.775 557.747 869.71 558.022 869.626 558.282C869.389 559.017 869.012 559.507 868.494 559.751C865.377 560.828 862.906 561.384 861.08 561.416C860.063 561.432 859.195 561.325 858.477 561.093C856.694 560.519 855.859 559.17 855.97 557.047C856.044 555.629 856.449 554.002 857.184 552.166C857.563 551.228 858.556 549.184 860.163 546.035C860.6 545.182 861.25 543.935 862.113 542.293C862.985 540.654 863.432 539.815 863.455 539.774C864.16 538.712 864.851 538.228 865.528 538.322C865.628 538.335 865.726 538.357 865.822 538.388C866.246 538.525 866.384 538.822 866.236 539.281C866.2 539.393 866.126 539.546 866.016 539.74ZM879.812 547.122C878.404 546.869 877.126 546.582 875.978 546.26C875.566 546.146 875.338 545.891 875.294 545.495C875.262 545.207 875.327 544.842 875.49 544.397C875.873 543.356 876.424 542.936 877.142 543.139C878.794 543.614 880.658 543.995 882.733 544.281C883.997 544.45 885.889 544.701 888.408 545.035C888.508 545.049 888.593 545.066 888.662 545.089C889.225 545.27 889.381 545.75 889.13 546.529C889.091 546.65 889.036 546.79 888.966 546.949C888.463 548.095 887.779 548.572 886.914 548.379C886.494 548.292 885.742 548.15 884.659 547.954L882.382 547.549C880.854 550.486 878.825 555.419 876.295 562.35C877.262 562.461 878.847 562.657 881.049 562.937C881.141 562.947 881.23 562.966 881.317 562.994C881.923 563.189 882.067 563.78 881.749 564.767C881.57 565.32 881.272 565.802 880.853 566.212C880.361 566.702 879.86 566.894 879.35 566.787C878.465 566.598 876.49 566.267 873.423 565.795C870.938 565.414 868.975 565.016 867.533 564.599C867.086 564.474 866.846 564.182 866.813 563.722C866.787 563.389 866.866 562.98 867.051 562.495C867.502 561.303 868.108 560.815 868.869 561.032C870.25 561.429 871.859 561.757 873.696 562.014C875.918 556.302 877.957 551.338 879.812 547.122ZM903.592 550.157C905.341 551.724 906.082 553.916 905.814 556.733C905.746 557.447 905.593 558.175 905.353 558.92C904.656 561.083 903.228 563.364 901.07 565.763C899.7 567.289 898.302 568.529 896.877 569.484C896.998 570.354 897.14 571.321 897.303 572.386C897.328 572.547 897.312 572.714 897.256 572.887C897.114 573.328 896.703 573.773 896.023 574.223C895.669 574.462 895.337 574.561 895.026 574.518C894.712 574.483 894.542 574.18 894.516 573.609C894.47 572.715 894.411 571.803 894.338 570.872C892.085 571.817 890.076 572.006 888.311 571.437C887.411 571.147 886.571 570.657 885.79 569.966C884.021 568.402 883.238 566.192 883.443 563.335C883.495 562.579 883.644 561.82 883.89 561.058C884.592 558.878 886.058 556.642 888.286 554.351C891.328 551.225 894.205 549.349 896.919 548.723C898.528 548.354 899.964 548.372 901.228 548.779C902.093 549.058 902.881 549.517 903.592 550.157ZM896.578 566.722C896.649 566.679 896.832 566.556 897.126 566.355C899.573 564.689 901.247 562.769 902.148 560.595C902.277 560.283 902.393 559.967 902.497 559.647C903.001 558.081 903.074 556.581 902.715 555.147C902.298 553.475 901.35 552.401 899.871 551.924C897.898 551.288 895.435 551.875 892.484 553.684C889.961 555.23 888.249 557.133 887.349 559.393C887.248 559.647 887.15 559.922 887.055 560.216C886.436 562.137 886.405 563.865 886.961 565.4C887.455 566.772 888.322 567.697 889.563 568.173C890.804 568.649 892.28 568.59 893.99 567.995C893.778 566.666 893.539 565.481 893.273 564.44L892.178 560.147C892.1 559.826 892.192 559.464 892.456 559.062C893.087 558.11 893.806 557.716 894.613 557.88C895.008 557.96 895.28 558.329 895.431 558.989C895.843 560.822 896.225 563.4 896.578 566.722ZM919.983 557.144C918.269 560.24 916.791 563.45 915.548 566.775L911.873 576.622C911.596 577.364 910.982 577.758 910.031 577.805C909.855 577.816 909.711 577.803 909.599 577.766C909.097 577.605 909.002 577.039 909.315 576.07C909.365 575.914 909.417 575.769 909.47 575.633L910.58 572.81C910.415 572.671 910.22 572.565 909.995 572.493C909.25 572.253 908.226 572.439 906.921 573.05C905.247 573.828 903.817 574.399 902.63 574.762C902.604 574.782 902.577 574.792 902.549 574.793C902.031 575.094 901.517 575.134 901.006 574.912C900.495 574.69 900.458 574.033 900.896 572.942L904.391 564.14C905.465 561.429 906.84 558.214 908.516 554.495C908.752 553.969 909.388 553.701 910.423 553.691C910.624 553.689 910.807 553.714 910.971 553.767C911.369 553.895 911.487 554.21 911.326 554.712C911.275 554.868 911.182 555.067 911.047 555.31C909.663 557.768 907.913 561.702 905.796 567.114C905.488 567.893 905.216 568.632 904.982 569.33C904.856 569.691 904.932 569.916 905.209 570.005C905.607 570.133 907.178 569.718 909.923 568.759C910.934 568.407 911.826 568.069 912.599 567.745C914.285 563.55 915.903 559.745 917.452 556.328C917.691 555.794 918.333 555.509 919.376 555.472C919.617 555.464 919.803 555.481 919.933 555.523C920.331 555.651 920.445 555.979 920.275 556.507C920.216 556.689 920.119 556.901 919.983 557.144ZM925.572 561.867C924.163 561.614 922.885 561.326 921.738 561.004C921.326 560.891 921.097 560.636 921.053 560.239C921.021 559.952 921.087 559.586 921.249 559.142C921.632 558.1 922.183 557.681 922.901 557.883C924.553 558.358 926.417 558.739 928.493 559.026C929.757 559.195 931.648 559.446 934.167 559.78C934.268 559.793 934.353 559.811 934.422 559.833C934.984 560.015 935.14 560.495 934.889 561.273C934.85 561.395 934.795 561.535 934.725 561.693C934.222 562.84 933.538 563.317 932.674 563.124C932.253 563.036 931.501 562.894 930.418 562.698L928.142 562.294C926.613 565.23 924.584 570.164 922.054 577.095C923.022 577.206 924.606 577.402 926.808 577.681C926.9 577.692 926.99 577.711 927.076 577.739C927.682 577.934 927.826 578.525 927.508 579.511C927.33 580.065 927.031 580.547 926.613 580.956C926.12 581.447 925.619 581.639 925.109 581.532C924.225 581.343 922.249 581.012 919.182 580.539C916.698 580.159 914.734 579.76 913.293 579.343C912.846 579.219 912.606 578.926 912.572 578.467C912.546 578.133 912.625 577.724 912.81 577.24C913.261 576.048 913.867 575.56 914.628 575.777C916.009 576.174 917.618 576.501 919.455 576.759C921.678 571.047 923.716 566.083 925.572 561.867ZM933.688 568.781C934.185 567.833 934.421 566.863 934.397 565.871C934.391 565.621 934.418 565.405 934.476 565.224C934.68 564.592 935.224 564.194 936.107 564.03C940.429 563.216 943.753 563.184 946.081 563.934C948.807 564.812 950.346 566.364 950.699 568.588C950.871 569.685 950.753 570.865 950.346 572.128C950.054 573.037 949.602 573.994 948.991 575.001C947.526 577.413 945.477 579.489 942.843 581.229C940.961 582.476 938.894 583.496 936.643 584.289C934.488 585.046 932.843 585.261 931.707 584.933C930.046 584.455 929.155 583.414 929.032 581.808C928.933 580.515 929.153 579.034 929.691 577.364C929.838 576.905 930.01 576.43 930.207 575.94C930.74 574.612 931.9 572.225 933.688 568.781ZM936.139 581.361C938.888 580.833 941.279 579.651 943.314 577.813C944.986 576.299 946.065 574.789 946.55 573.283C947.197 571.276 946.682 569.644 945.004 568.387C944.619 568.1 944.15 567.868 943.596 567.689C942.004 567.176 939.731 567.132 936.777 567.555L934.442 572.089C933.562 573.84 932.856 575.38 932.323 576.708C932.18 577.063 932.065 577.374 931.979 577.643C931.313 579.711 931.633 580.955 932.939 581.376C933.718 581.627 934.785 581.622 936.139 581.361ZM957.918 572.29C956.51 572.037 955.232 571.749 954.084 571.427C953.672 571.313 953.444 571.058 953.4 570.662C953.368 570.375 953.433 570.009 953.596 569.565C953.979 568.523 954.53 568.104 955.248 568.306C956.9 568.781 958.764 569.162 960.839 569.449C962.103 569.617 963.994 569.869 966.513 570.203C966.614 570.216 966.699 570.234 966.768 570.256C967.331 570.438 967.487 570.917 967.236 571.696C967.197 571.817 967.142 571.957 967.072 572.116C966.569 573.263 965.885 573.74 965.02 573.547C964.6 573.459 963.848 573.317 962.765 573.121L960.488 572.717C958.96 575.653 956.93 580.587 954.401 587.518C955.368 587.629 956.953 587.824 959.155 588.104C959.247 588.115 959.336 588.134 959.423 588.162C960.029 588.357 960.172 588.948 959.855 589.934C959.676 590.488 959.378 590.97 958.959 591.379C958.467 591.87 957.966 592.062 957.456 591.955C956.571 591.765 954.596 591.434 951.529 590.962C949.044 590.582 947.081 590.183 945.639 589.766C945.192 589.641 944.952 589.349 944.919 588.889C944.893 588.556 944.972 588.147 945.157 587.662C945.608 586.471 946.214 585.983 946.975 586.199C948.356 586.597 949.965 586.924 951.802 587.182C954.024 581.47 956.063 576.506 957.918 572.29ZM970.51 577.365C968.599 577.16 966.972 576.903 965.629 576.594C965.168 576.484 964.92 576.203 964.883 575.752C964.869 575.442 964.951 575.038 965.13 574.542C965.569 573.356 966.177 572.85 966.952 573.023C968.738 573.436 970.797 573.732 973.128 573.91C974.511 574.002 976.588 574.151 979.359 574.356C979.48 574.367 979.584 574.386 979.67 574.414C980.241 574.598 980.372 575.17 980.063 576.13C979.862 576.753 979.499 577.3 978.975 577.771C978.559 578.143 978.115 578.292 977.643 578.216C976.669 578.065 975.163 577.88 973.122 577.662C971.706 580.396 970.471 583.192 969.416 586.052L966.271 594.609C966.014 595.319 965.407 595.692 964.45 595.727C964.295 595.735 964.148 595.716 964.009 595.671C963.516 595.512 963.42 594.966 963.721 594.031C963.766 593.893 963.815 593.756 963.868 593.62L966.951 585.788C967.904 583.363 969.09 580.556 970.51 577.365ZM990.52 578.168C990.659 578.212 990.812 578.3 990.98 578.43C991.757 579.044 992.036 579.63 991.817 580.19C990.326 584.017 988.928 587.392 987.623 590.315L983.579 599.398C983.033 600.617 982.353 601.248 981.537 601.29C981.149 601.309 980.734 601.247 980.293 601.104C979.575 600.873 978.734 600.43 977.77 599.776C976.241 598.739 975.315 597.967 974.991 597.462C974.579 596.813 974.437 596.233 974.564 595.72C974.846 594.636 975.398 594.064 976.22 594.004C976.573 593.975 976.75 594.137 976.751 594.49C976.753 595.255 977.427 596.036 978.775 596.833C979.056 597 979.36 597.136 979.689 597.242C979.94 597.323 980.181 597.377 980.411 597.403C980.964 597.467 981.384 597.273 981.673 596.821C982.547 595.441 983.535 593.486 984.637 590.957C982.148 590.766 980.177 590.585 978.724 590.412C978.292 590.359 977.912 590.28 977.583 590.174C975.861 589.619 975.371 588.191 976.112 585.889C976.218 585.56 976.339 585.231 976.473 584.902C977.22 583.089 978.57 580.454 980.525 576.996C980.764 576.433 981.407 576.143 982.453 576.127C982.674 576.122 982.854 576.141 982.992 576.186C983.399 576.317 983.516 576.651 983.343 577.187C983.293 577.343 983.197 577.551 983.056 577.811C980.643 582.277 979.275 585.012 978.951 586.016C978.664 586.907 979.005 587.509 979.974 587.821C980.511 587.994 981.223 588.08 982.111 588.08C983.543 588.083 984.602 587.88 985.288 587.47C986.022 587.029 986.653 586.167 987.181 584.885C987.64 583.61 988.094 582.333 988.544 581.055C989.377 578.974 990.036 578.011 990.52 578.168Z" fill="#E83A3B"/>
<path d="M866.016 539.74L865.842 539.641L865.842 539.642L866.016 539.74ZM863.794 543.924L863.617 543.831L863.617 543.832L863.794 543.924ZM862.39 546.637L862.567 546.73L862.567 546.729L862.39 546.637ZM859.283 552.943L859.465 553.028L859.465 553.027L859.283 552.943ZM868.808 556.242L868.875 556.43L868.876 556.43L868.808 556.242ZM869.821 557.456L870.018 557.487L870.019 557.486L869.821 557.456ZM868.494 559.751L868.559 559.94L868.569 559.936L868.579 559.932L868.494 559.751ZM861.08 561.416L861.084 561.616L861.084 561.616L861.08 561.416ZM855.97 557.047L855.77 557.037L855.77 557.037L855.97 557.047ZM857.184 552.166L856.999 552.092L856.998 552.092L857.184 552.166ZM860.163 546.035L859.985 545.943L859.985 545.944L860.163 546.035ZM862.113 542.293L861.937 542.199L861.936 542.2L862.113 542.293ZM863.455 539.774L863.288 539.664L863.284 539.67L863.28 539.677L863.455 539.774ZM865.528 538.322L865.5 538.52L865.501 538.52L865.528 538.322ZM865.842 539.642C865.527 540.203 864.784 541.601 863.617 543.831L863.971 544.017C865.14 541.784 865.879 540.393 866.191 539.838L865.842 539.642ZM863.617 543.832L862.212 546.546L862.567 546.729L863.972 544.016L863.617 543.832ZM862.212 546.545C861.111 548.657 860.074 550.762 859.102 552.859L859.465 553.027C860.434 550.936 861.468 548.837 862.567 546.73L862.212 546.545ZM859.102 552.859C859.004 553.07 858.88 553.409 858.732 553.869L859.113 553.991C859.26 553.534 859.377 553.215 859.465 553.028L859.102 552.859ZM858.732 553.869C858.357 555.031 858.232 555.987 858.386 556.72C858.544 557.47 858.995 557.974 859.721 558.209L859.844 557.828C859.255 557.638 858.906 557.249 858.777 556.637C858.644 556.006 858.746 555.13 859.113 553.991L858.732 553.869ZM859.721 558.209C860.474 558.451 861.62 558.406 863.129 558.109C864.647 557.81 866.563 557.25 868.875 556.43L868.741 556.053C866.438 556.869 864.543 557.423 863.052 557.717C861.552 558.012 860.493 558.037 859.844 557.828L859.721 558.209ZM868.876 556.43C869.037 556.371 869.167 556.336 869.269 556.319C869.374 556.302 869.432 556.309 869.457 556.317L869.58 555.936C869.467 555.9 869.337 555.903 869.205 555.924C869.07 555.946 868.914 555.99 868.74 556.053L868.876 556.43ZM869.457 556.317C869.527 556.339 869.598 556.401 869.639 556.581C869.681 556.766 869.681 557.044 869.623 557.426L870.019 557.486C870.079 557.085 870.088 556.75 870.029 556.492C869.969 556.229 869.83 556.017 869.58 555.936L869.457 556.317ZM869.623 557.425C869.579 557.706 869.516 557.971 869.436 558.22L869.817 558.343C869.904 558.073 869.971 557.788 870.018 557.487L869.623 557.425ZM869.436 558.22C869.21 558.922 868.861 559.357 868.409 559.57L868.579 559.932C869.163 559.657 869.569 559.112 869.817 558.343L869.436 558.22ZM868.429 559.562C865.318 560.637 862.871 561.184 861.077 561.216L861.084 561.616C862.941 561.583 865.436 561.02 868.559 559.94L868.429 559.562ZM861.077 561.216C860.074 561.232 859.23 561.126 858.538 560.903L858.415 561.283C859.16 561.523 860.051 561.632 861.084 561.616L861.077 561.216ZM858.538 560.903C857.684 560.627 857.072 560.173 856.683 559.546C856.293 558.916 856.115 558.092 856.169 557.058L855.77 557.037C855.713 558.125 855.898 559.037 856.343 559.756C856.79 560.478 857.488 560.985 858.415 561.283L858.538 560.903ZM856.169 557.058C856.243 555.668 856.64 554.064 857.37 552.241L856.998 552.092C856.258 553.941 855.846 555.59 855.77 557.037L856.169 557.058ZM857.37 552.241C857.744 551.313 858.733 549.277 860.341 546.125L859.985 545.944C858.379 549.091 857.381 551.144 856.999 552.092L857.37 552.241ZM860.341 546.126C860.777 545.274 861.427 544.028 862.29 542.386L861.936 542.2C861.073 543.842 860.422 545.09 859.985 545.943L860.341 546.126ZM862.29 542.387C862.726 541.568 863.056 540.948 863.279 540.528C863.391 540.319 863.476 540.159 863.535 540.049C863.564 539.994 863.587 539.951 863.603 539.921C863.611 539.907 863.617 539.895 863.622 539.886C863.624 539.882 863.626 539.879 863.627 539.876C863.628 539.875 863.629 539.874 863.629 539.873C863.63 539.872 863.63 539.872 863.63 539.872L863.28 539.677C863.257 539.72 862.808 540.563 861.937 542.199L862.29 542.387ZM863.622 539.885C864.322 538.83 864.949 538.444 865.5 538.52L865.555 538.124C864.753 538.012 863.999 538.594 863.288 539.664L863.622 539.885ZM865.501 538.52C865.59 538.532 865.677 538.551 865.76 538.578L865.883 538.198C865.776 538.163 865.666 538.138 865.554 538.124L865.501 538.52ZM865.76 538.578C865.939 538.636 866.024 538.716 866.062 538.798C866.102 538.883 866.111 539.016 866.046 539.219L866.426 539.342C866.508 539.087 866.523 538.841 866.425 538.629C866.325 538.414 866.128 538.277 865.883 538.198L865.76 538.578ZM866.046 539.219C866.016 539.312 865.951 539.451 865.842 539.641L866.19 539.839C866.302 539.642 866.384 539.474 866.426 539.342L866.046 539.219ZM879.812 547.122L879.995 547.203L880.098 546.971L879.848 546.926L879.812 547.122ZM875.978 546.26L876.033 546.067L876.032 546.067L875.978 546.26ZM875.294 545.495L875.095 545.516L875.095 545.517L875.294 545.495ZM875.49 544.397L875.302 544.328L875.302 544.329L875.49 544.397ZM877.142 543.139L877.197 542.946L877.196 542.946L877.142 543.139ZM882.733 544.281L882.706 544.48L882.707 544.48L882.733 544.281ZM888.408 545.035L888.381 545.233L888.381 545.233L888.408 545.035ZM888.966 546.949L888.783 546.868L888.783 546.868L888.966 546.949ZM886.914 548.379L886.958 548.184L886.955 548.184L886.914 548.379ZM884.659 547.954L884.695 547.757L884.694 547.757L884.659 547.954ZM882.382 547.549L882.417 547.353L882.273 547.327L882.205 547.457L882.382 547.549ZM876.295 562.35L876.107 562.282L876.02 562.52L876.272 562.549L876.295 562.35ZM881.049 562.937L881.024 563.135L881.026 563.135L881.049 562.937ZM880.853 566.212L880.713 566.069L880.712 566.07L880.853 566.212ZM879.35 566.787L879.308 566.983L879.309 566.983L879.35 566.787ZM873.423 565.795L873.454 565.597L873.453 565.597L873.423 565.795ZM867.533 564.599L867.589 564.407L867.587 564.406L867.533 564.599ZM866.813 563.722L867.012 563.707L867.012 563.706L866.813 563.722ZM867.051 562.495L867.238 562.566L867.238 562.566L867.051 562.495ZM868.869 561.032L868.924 560.84L868.924 560.84L868.869 561.032ZM873.696 562.014L873.668 562.212L873.825 562.234L873.882 562.087L873.696 562.014ZM879.848 546.926C878.444 546.673 877.173 546.387 876.033 546.067L875.924 546.452C877.079 546.776 878.363 547.065 879.777 547.319L879.848 546.926ZM876.032 546.067C875.853 546.018 875.73 545.942 875.647 545.85C875.565 545.758 875.511 545.636 875.493 545.472L875.095 545.517C875.121 545.749 875.203 545.953 875.349 546.116C875.494 546.279 875.691 546.388 875.925 546.452L876.032 546.067ZM875.493 545.473C875.466 545.23 875.52 544.898 875.678 544.466L875.302 544.329C875.135 544.786 875.058 545.185 875.095 545.516L875.493 545.473ZM875.677 544.466C875.863 543.962 876.08 543.637 876.312 543.46C876.532 543.292 876.783 543.245 877.087 543.331L877.196 542.946C876.782 542.829 876.399 542.891 876.069 543.142C875.75 543.385 875.5 543.791 875.302 544.328L875.677 544.466ZM877.086 543.331C878.749 543.809 880.623 544.192 882.706 544.48L882.761 544.083C880.693 543.798 878.838 543.418 877.197 542.946L877.086 543.331ZM882.707 544.48C883.971 544.648 885.862 544.899 888.381 545.233L888.434 544.837C885.915 544.503 884.024 544.252 882.76 544.083L882.707 544.48ZM888.381 545.233C888.474 545.246 888.547 545.262 888.601 545.279L888.724 544.898C888.64 544.871 888.542 544.851 888.434 544.837L888.381 545.233ZM888.601 545.279C888.833 545.354 888.956 545.478 889.011 545.646C889.07 545.828 889.059 546.095 888.939 546.467L889.32 546.59C889.451 546.183 889.488 545.821 889.391 545.523C889.29 545.211 889.054 545.005 888.724 544.898L888.601 545.279ZM888.939 546.467C888.903 546.58 888.851 546.713 888.783 546.868L889.149 547.03C889.221 546.866 889.278 546.72 889.32 546.59L888.939 546.467ZM888.783 546.868C888.539 547.424 888.261 547.793 887.961 548.002C887.668 548.206 887.339 548.269 886.958 548.184L886.871 548.575C887.354 548.682 887.799 548.603 888.19 548.33C888.574 548.063 888.889 547.62 889.149 547.029L888.783 546.868ZM886.955 548.184C886.532 548.095 885.778 547.953 884.695 547.757L884.623 548.15C885.707 548.346 886.456 548.488 886.874 548.575L886.955 548.184ZM884.694 547.757L882.417 547.353L882.347 547.746L884.624 548.15L884.694 547.757ZM882.205 547.457C880.67 550.406 878.637 555.35 876.107 562.282L876.483 562.419C879.012 555.489 881.038 550.566 882.56 547.642L882.205 547.457ZM876.272 562.549C877.238 562.66 878.822 562.855 881.024 563.135L881.074 562.738C878.872 562.458 877.286 562.263 876.318 562.152L876.272 562.549ZM881.026 563.135C881.105 563.144 881.182 563.161 881.256 563.185L881.378 562.804C881.279 562.772 881.177 562.75 881.072 562.738L881.026 563.135ZM881.256 563.185C881.496 563.262 881.63 563.407 881.685 563.631C881.744 563.873 881.713 564.225 881.558 564.705L881.939 564.828C882.102 564.321 882.158 563.885 882.073 563.536C881.984 563.17 881.744 562.922 881.378 562.804L881.256 563.185ZM881.558 564.705C881.39 565.228 881.109 565.682 880.713 566.069L880.993 566.355C881.435 565.922 881.751 565.413 881.939 564.828L881.558 564.705ZM880.712 566.07C880.25 566.531 879.814 566.68 879.391 566.592L879.309 566.983C879.906 567.108 880.472 566.874 880.994 566.353L880.712 566.07ZM879.392 566.592C878.5 566.401 876.519 566.069 873.454 565.597L873.393 565.992C876.461 566.465 878.43 566.795 879.308 566.983L879.392 566.592ZM873.453 565.597C870.972 565.217 869.019 564.82 867.589 564.407L867.478 564.791C868.931 565.211 870.904 565.611 873.393 565.992L873.453 565.597ZM867.587 564.406C867.394 564.352 867.261 564.267 867.173 564.159C867.084 564.051 867.027 563.905 867.012 563.707L866.614 563.736C866.633 563.998 866.712 564.228 866.864 564.413C867.015 564.597 867.226 564.72 867.48 564.791L867.587 564.406ZM867.012 563.706C866.989 563.414 867.058 563.037 867.238 562.566L866.864 562.424C866.674 562.922 866.584 563.363 866.614 563.738L867.012 563.706ZM867.238 562.566C867.458 561.984 867.706 561.602 867.969 561.391C868.22 561.189 868.495 561.133 868.814 561.224L868.924 560.84C868.482 560.714 868.073 560.794 867.718 561.079C867.375 561.356 867.095 561.814 866.864 562.424L867.238 562.566ZM868.814 561.224C870.206 561.625 871.824 561.954 873.668 562.212L873.723 561.816C871.893 561.559 870.294 561.234 868.924 560.84L868.814 561.224ZM873.882 562.087C876.104 556.377 878.142 551.416 879.995 547.203L879.629 547.042C877.773 551.261 875.733 556.228 873.509 561.942L873.882 562.087ZM903.592 550.157L903.458 550.306L903.458 550.306L903.592 550.157ZM905.814 556.733L905.615 556.714L905.615 556.714L905.814 556.733ZM901.07 565.763L900.922 565.629L900.921 565.63L901.07 565.763ZM896.877 569.484L896.766 569.318L896.662 569.387L896.679 569.511L896.877 569.484ZM897.303 572.386L897.501 572.356L897.501 572.356L897.303 572.386ZM896.023 574.223L895.913 574.056L895.911 574.057L896.023 574.223ZM895.026 574.518L895.053 574.319L895.047 574.319L895.026 574.518ZM894.516 573.609L894.716 573.6L894.716 573.598L894.516 573.609ZM894.338 570.872L894.537 570.856L894.516 570.58L894.261 570.688L894.338 570.872ZM885.79 569.966L885.923 569.816L885.923 569.816L885.79 569.966ZM883.443 563.335L883.642 563.35L883.642 563.349L883.443 563.335ZM888.286 554.351L888.143 554.212L888.143 554.212L888.286 554.351ZM896.919 548.723L896.874 548.528L896.874 548.528L896.919 548.723ZM896.578 566.722L896.379 566.744L896.412 567.059L896.682 566.893L896.578 566.722ZM897.126 566.355L897.013 566.189L897.013 566.19L897.126 566.355ZM902.148 560.595L902.333 560.671L902.333 560.671L902.148 560.595ZM902.715 555.147L902.52 555.195L902.521 555.195L902.715 555.147ZM892.484 553.684L892.588 553.855L892.588 553.855L892.484 553.684ZM887.349 559.393L887.163 559.319L887.163 559.32L887.349 559.393ZM886.961 565.4L887.149 565.332L887.149 565.332L886.961 565.4ZM893.99 567.995L894.056 568.184L894.214 568.129L894.188 567.963L893.99 567.995ZM893.273 564.44L893.079 564.489L893.079 564.489L893.273 564.44ZM892.178 560.147L891.983 560.194L891.984 560.197L892.178 560.147ZM892.456 559.062L892.289 558.951L892.288 558.952L892.456 559.062ZM894.613 557.88L894.573 558.076L894.574 558.076L894.613 557.88ZM895.431 558.989L895.626 558.945L895.626 558.944L895.431 558.989ZM903.458 550.306C905.15 551.821 905.878 553.945 905.615 556.714L906.013 556.752C906.285 553.886 905.532 551.626 903.725 550.008L903.458 550.306ZM905.615 556.714C905.549 557.412 905.398 558.127 905.162 558.858L905.543 558.981C905.787 558.224 905.944 557.481 906.013 556.752L905.615 556.714ZM905.162 558.858C904.477 560.986 903.068 563.243 900.922 565.629L901.219 565.897C903.388 563.485 904.835 561.18 905.543 558.981L905.162 558.858ZM900.921 565.63C899.56 567.145 898.175 568.374 896.766 569.318L896.988 569.65C898.43 568.685 899.84 567.433 901.219 565.897L900.921 565.63ZM896.679 569.511C896.8 570.382 896.942 571.351 897.105 572.416L897.501 572.356C897.338 571.292 897.196 570.325 897.075 569.456L896.679 569.511ZM897.105 572.416C897.125 572.543 897.113 572.678 897.066 572.825L897.447 572.948C897.511 572.749 897.53 572.551 897.501 572.356L897.105 572.416ZM897.066 572.825C896.945 573.201 896.581 573.615 895.913 574.056L896.134 574.39C896.826 573.932 897.283 573.455 897.447 572.948L897.066 572.825ZM895.911 574.057C895.583 574.279 895.3 574.354 895.053 574.32L894.998 574.716C895.374 574.768 895.755 574.646 896.135 574.389L895.911 574.057ZM895.047 574.319C894.962 574.31 894.895 574.269 894.838 574.167C894.775 574.055 894.729 573.872 894.716 573.6L894.317 573.618C894.33 573.917 894.382 574.172 894.489 574.362C894.601 574.564 894.776 574.692 895.004 574.716L895.047 574.319ZM894.716 573.598C894.67 572.703 894.61 571.789 894.537 570.856L894.139 570.887C894.211 571.817 894.27 572.727 894.317 573.619L894.716 573.598ZM894.261 570.688C892.037 571.62 890.079 571.797 888.372 571.247L888.249 571.627C890.073 572.215 892.132 572.014 894.415 571.056L894.261 570.688ZM888.372 571.247C887.501 570.966 886.685 570.49 885.923 569.816L885.658 570.116C886.457 570.823 887.321 571.328 888.249 571.627L888.372 571.247ZM885.923 569.816C884.21 568.303 883.441 566.159 883.642 563.35L883.243 563.321C883.036 566.225 883.832 568.502 885.658 570.116L885.923 569.816ZM883.642 563.349C883.694 562.61 883.839 561.866 884.08 561.12L883.699 560.997C883.449 561.773 883.297 562.548 883.243 563.321L883.642 563.349ZM884.08 561.12C884.77 558.978 886.215 556.768 888.429 554.491L888.143 554.212C885.901 556.517 884.414 558.778 883.699 560.997L884.08 561.12ZM888.429 554.491C891.458 551.377 894.303 549.531 896.964 548.918L896.874 548.528C894.107 549.166 891.197 551.072 888.143 554.212L888.429 554.491ZM896.964 548.918C898.546 548.555 899.945 548.576 901.166 548.97L901.289 548.589C899.984 548.168 898.51 548.153 896.874 548.528L896.964 548.918ZM901.166 548.97C902.003 549.239 902.767 549.684 903.458 550.306L903.725 550.008C902.995 549.351 902.182 548.877 901.289 548.589L901.166 548.97ZM896.682 566.893C896.759 566.846 896.947 566.72 897.239 566.52L897.013 566.19C896.717 566.392 896.539 566.511 896.473 566.552L896.682 566.893ZM897.239 566.52C899.71 564.838 901.414 562.889 902.333 560.671L901.963 560.518C901.081 562.648 899.437 564.54 897.013 566.189L897.239 566.52ZM902.333 560.671C902.464 560.354 902.582 560.033 902.687 559.708L902.306 559.585C902.205 559.9 902.091 560.211 901.963 560.518L902.333 560.671ZM902.687 559.708C903.202 558.111 903.278 556.572 902.909 555.098L902.521 555.195C902.87 556.589 902.801 558.051 902.306 559.585L902.687 559.708ZM902.909 555.098C902.478 553.368 901.485 552.234 899.932 551.733L899.809 552.114C901.215 552.567 902.119 553.582 902.52 555.195L902.909 555.098ZM899.932 551.733C897.875 551.071 895.348 551.694 892.379 553.513L892.588 553.855C895.522 552.056 897.92 551.505 899.809 552.114L899.932 551.733ZM892.379 553.513C889.828 555.077 888.082 557.011 887.163 559.319L887.535 559.467C888.416 557.255 890.094 555.383 892.588 553.855L892.379 553.513ZM887.163 559.32C887.06 559.578 886.961 559.856 886.865 560.154L887.246 560.277C887.339 559.987 887.436 559.717 887.535 559.467L887.163 559.32ZM886.865 560.154C886.236 562.107 886.198 563.882 886.773 565.468L887.149 565.332C886.611 563.847 886.637 562.166 887.246 560.277L886.865 560.154ZM886.772 565.468C887.284 566.889 888.19 567.86 889.491 568.36L889.635 567.986C888.454 567.533 887.625 566.656 887.149 565.332L886.772 565.468ZM889.491 568.36C890.79 568.858 892.317 568.789 894.056 568.184L893.924 567.806C892.242 568.391 890.818 568.44 889.635 567.986L889.491 568.36ZM894.188 567.963C893.975 566.63 893.735 565.438 893.467 564.39L893.079 564.489C893.344 565.523 893.582 566.702 893.793 568.026L894.188 567.963ZM893.467 564.39L892.372 560.098L891.984 560.197L893.079 564.489L893.467 564.39ZM892.372 560.1C892.312 559.853 892.376 559.549 892.623 559.171L892.288 558.952C892.009 559.38 891.887 559.799 891.983 560.194L892.372 560.1ZM892.622 559.172C892.927 558.713 893.243 558.404 893.565 558.228C893.883 558.054 894.216 558.003 894.573 558.076L894.653 557.684C894.204 557.593 893.774 557.657 893.373 557.877C892.976 558.094 892.616 558.458 892.289 558.951L892.622 559.172ZM894.574 558.076C894.847 558.131 895.09 558.394 895.236 559.033L895.626 558.944C895.471 558.264 895.168 557.788 894.653 557.684L894.574 558.076ZM895.236 559.033C895.645 560.855 896.027 563.424 896.379 566.744L896.777 566.701C896.424 563.376 896.041 560.789 895.626 558.945L895.236 559.033ZM919.983 557.144L919.809 557.046L919.808 557.047L919.983 557.144ZM915.548 566.775L915.36 566.705L915.36 566.705L915.548 566.775ZM911.873 576.622L912.06 576.692L912.06 576.692L911.873 576.622ZM910.031 577.805L910.021 577.605L910.019 577.606L910.031 577.805ZM909.47 575.633L909.284 575.56L909.284 575.56L909.47 575.633ZM910.58 572.81L910.766 572.883L910.819 572.75L910.709 572.657L910.58 572.81ZM906.921 573.05L907.005 573.231L907.006 573.231L906.921 573.05ZM902.63 574.762L902.572 574.57L902.535 574.581L902.506 574.605L902.63 574.762ZM902.549 574.793L902.547 574.593L902.494 574.593L902.448 574.62L902.549 574.793ZM901.006 574.912L900.926 575.095L901.006 574.912ZM900.896 572.942L901.081 573.016L901.081 573.016L900.896 572.942ZM904.391 564.14L904.577 564.214L904.577 564.213L904.391 564.14ZM908.516 554.495L908.698 554.577L908.698 554.577L908.516 554.495ZM910.423 553.691L910.425 553.891L910.425 553.891L910.423 553.691ZM911.047 555.31L911.221 555.408L911.222 555.408L911.047 555.31ZM905.796 567.114L905.982 567.188L905.983 567.187L905.796 567.114ZM904.982 569.33L905.171 569.396L905.172 569.394L904.982 569.33ZM909.923 568.759L909.857 568.57L909.857 568.57L909.923 568.759ZM912.599 567.745L912.676 567.929L912.753 567.897L912.785 567.819L912.599 567.745ZM917.452 556.328L917.635 556.411L917.635 556.41L917.452 556.328ZM919.376 555.472L919.369 555.273L919.369 555.273L919.376 555.472ZM919.808 557.047C918.09 560.152 916.607 563.371 915.36 566.705L915.735 566.845C916.975 563.53 918.449 560.328 920.158 557.241L919.808 557.047ZM915.36 566.705L911.686 576.553L912.06 576.692L915.735 566.845L915.36 566.705ZM911.686 576.552C911.561 576.886 911.364 577.134 911.097 577.306C910.827 577.479 910.472 577.583 910.021 577.606L910.04 578.005C910.541 577.98 910.968 577.864 911.313 577.643C911.659 577.42 911.908 577.1 912.06 576.692L911.686 576.552ZM910.019 577.606C909.857 577.615 909.741 577.602 909.66 577.576L909.538 577.957C909.682 578.003 909.853 578.016 910.042 578.005L910.019 577.606ZM909.66 577.576C909.567 577.546 909.501 577.5 909.454 577.443C909.405 577.384 909.368 577.302 909.349 577.188C909.309 576.953 909.352 576.606 909.505 576.132L909.124 576.009C908.965 576.504 908.899 576.924 908.954 577.254C908.982 577.422 909.043 577.573 909.144 577.696C909.246 577.82 909.38 577.906 909.538 577.957L909.66 577.576ZM909.505 576.132C909.554 575.979 909.604 575.838 909.656 575.706L909.284 575.56C909.229 575.7 909.176 575.85 909.124 576.009L909.505 576.132ZM909.656 575.706L910.766 572.883L910.394 572.737L909.284 575.56L909.656 575.706ZM910.709 572.657C910.522 572.5 910.303 572.382 910.056 572.302L909.933 572.683C910.136 572.748 910.307 572.842 910.451 572.963L910.709 572.657ZM910.056 572.302C909.237 572.038 908.152 572.252 906.836 572.869L907.006 573.231C908.299 572.625 909.264 572.468 909.933 572.683L910.056 572.302ZM906.837 572.868C905.167 573.645 903.746 574.211 902.572 574.57L902.689 574.953C903.887 574.587 905.327 574.012 907.005 573.231L906.837 572.868ZM902.506 574.605C902.507 574.604 902.512 574.601 902.519 574.598C902.528 574.595 902.537 574.593 902.547 574.593L902.551 574.993C902.63 574.992 902.699 574.962 902.755 574.918L902.506 574.605ZM902.448 574.62C901.981 574.892 901.533 574.923 901.086 574.728L900.926 575.095C901.501 575.345 902.082 575.296 902.649 574.965L902.448 574.62ZM901.086 574.728C900.992 574.688 900.927 574.631 900.881 574.558C900.835 574.483 900.802 574.381 900.795 574.242C900.779 573.957 900.866 573.553 901.081 573.016L900.71 572.868C900.488 573.422 900.374 573.892 900.395 574.264C900.406 574.453 900.451 574.624 900.542 574.769C900.633 574.916 900.764 575.025 900.926 575.095L901.086 574.728ZM901.081 573.016L904.577 564.214L904.205 564.066L900.71 572.868L901.081 573.016ZM904.577 564.213C905.649 561.507 907.023 558.295 908.698 554.577L908.334 554.412C906.657 558.134 905.28 561.352 904.205 564.066L904.577 564.213ZM908.698 554.577C908.883 554.167 909.403 553.901 910.425 553.891L910.421 553.491C909.372 553.501 908.622 553.771 908.334 554.413L908.698 554.577ZM910.425 553.891C910.608 553.889 910.769 553.912 910.91 553.957L911.032 553.577C910.844 553.516 910.64 553.488 910.421 553.491L910.425 553.891ZM910.91 553.957C911.066 554.008 911.138 554.083 911.171 554.17C911.207 554.267 911.21 554.42 911.135 554.651L911.516 554.774C911.603 554.503 911.627 554.247 911.545 554.029C911.46 553.801 911.274 553.655 911.032 553.577L910.91 553.957ZM911.135 554.651C911.091 554.788 911.005 554.975 910.872 555.213L911.222 555.408C911.36 555.16 911.46 554.948 911.516 554.774L911.135 554.651ZM910.873 555.212C909.481 557.682 907.727 561.628 905.61 567.041L905.983 567.187C908.098 561.777 909.844 557.853 911.221 555.408L910.873 555.212ZM905.61 567.041C905.301 567.823 905.028 568.565 904.792 569.267L905.172 569.394C905.405 568.7 905.675 567.964 905.982 567.188L905.61 567.041ZM904.793 569.264C904.724 569.463 904.697 569.66 904.755 569.833C904.817 570.02 904.964 570.136 905.147 570.195L905.27 569.815C905.177 569.785 905.147 569.744 905.134 569.706C905.117 569.654 905.114 569.558 905.171 569.396L904.793 569.264ZM905.147 570.195C905.296 570.243 905.51 570.233 905.756 570.197C906.013 570.16 906.341 570.088 906.737 569.983C907.53 569.773 908.615 569.428 909.989 568.948L909.857 568.57C908.486 569.049 907.413 569.391 906.635 569.596C906.245 569.699 905.934 569.767 905.698 569.801C905.452 569.837 905.321 569.831 905.27 569.815L905.147 570.195ZM909.988 568.948C911.003 568.595 911.899 568.255 912.676 567.929L912.522 567.56C911.753 567.882 910.865 568.219 909.857 568.57L909.988 568.948ZM912.785 567.819C914.47 563.627 916.086 559.824 917.635 556.411L917.27 556.246C915.719 559.665 914.1 563.474 912.413 567.67L912.785 567.819ZM917.635 556.41C917.824 555.988 918.354 555.708 919.383 555.672L919.369 555.273C918.311 555.309 917.559 555.6 917.27 556.247L917.635 556.41ZM919.383 555.672C919.616 555.664 919.774 555.682 919.871 555.713L919.994 555.333C919.831 555.28 919.619 555.264 919.369 555.273L919.383 555.672ZM919.871 555.713C920.024 555.763 920.096 555.838 920.128 555.931C920.164 556.036 920.163 556.2 920.084 556.446L920.465 556.568C920.556 556.286 920.583 556.023 920.506 555.799C920.424 555.564 920.239 555.411 919.994 555.333L919.871 555.713ZM920.084 556.446C920.031 556.611 919.941 556.81 919.809 557.046L920.158 557.241C920.297 556.992 920.401 556.767 920.465 556.568L920.084 556.446ZM925.572 561.867L925.755 561.948L925.857 561.715L925.607 561.67L925.572 561.867ZM921.738 561.004L921.792 560.812L921.791 560.812L921.738 561.004ZM921.053 560.239L920.854 560.261L920.854 560.261L921.053 560.239ZM921.249 559.142L921.061 559.073L921.061 559.073L921.249 559.142ZM922.901 557.883L922.956 557.691L922.955 557.691L922.901 557.883ZM928.493 559.026L928.465 559.224L928.466 559.224L928.493 559.026ZM934.167 559.78L934.141 559.978L934.141 559.978L934.167 559.78ZM934.725 561.693L934.542 561.612L934.542 561.613L934.725 561.693ZM932.674 563.124L932.717 562.929L932.715 562.928L932.674 563.124ZM930.418 562.698L930.454 562.501L930.453 562.501L930.418 562.698ZM928.142 562.294L928.177 562.097L928.032 562.072L927.964 562.202L928.142 562.294ZM922.054 577.095L921.867 577.026L921.78 577.265L922.032 577.294L922.054 577.095ZM926.808 577.681L926.783 577.88L926.785 577.88L926.808 577.681ZM926.613 580.956L926.473 580.813L926.471 580.815L926.613 580.956ZM925.109 581.532L925.067 581.728L925.068 581.728L925.109 581.532ZM919.182 580.539L919.213 580.342L919.213 580.342L919.182 580.539ZM913.293 579.343L913.348 579.151L913.346 579.151L913.293 579.343ZM912.572 578.467L912.772 578.452L912.772 578.451L912.572 578.467ZM912.81 577.24L912.997 577.311L912.997 577.31L912.81 577.24ZM914.628 575.777L914.683 575.584L914.683 575.584L914.628 575.777ZM919.455 576.759L919.427 576.957L919.584 576.979L919.641 576.831L919.455 576.759ZM925.607 561.67C924.204 561.418 922.932 561.132 921.792 560.812L921.684 561.197C922.838 561.521 924.123 561.81 925.536 562.064L925.607 561.67ZM921.791 560.812C921.613 560.762 921.489 560.687 921.406 560.594C921.324 560.503 921.27 560.381 921.252 560.217L920.854 560.261C920.88 560.494 920.962 560.698 921.108 560.861C921.254 561.024 921.451 561.133 921.685 561.197L921.791 560.812ZM921.252 560.217C921.225 559.974 921.279 559.642 921.437 559.211L921.061 559.073C920.894 559.53 920.818 559.93 920.854 560.261L921.252 560.217ZM921.437 559.211C921.622 558.706 921.839 558.382 922.071 558.205C922.292 558.037 922.543 557.99 922.847 558.076L922.955 557.691C922.541 557.574 922.158 557.636 921.828 557.887C921.51 558.13 921.259 558.536 921.061 559.073L921.437 559.211ZM922.846 558.076C924.509 558.554 926.382 558.936 928.465 559.224L928.52 558.828C926.452 558.542 924.598 558.163 922.956 557.691L922.846 558.076ZM928.466 559.224C929.73 559.393 931.622 559.644 934.141 559.978L934.193 559.582C931.674 559.248 929.783 558.996 928.519 558.828L928.466 559.224ZM934.141 559.978C934.234 559.991 934.306 560.006 934.36 560.024L934.483 559.643C934.399 559.616 934.301 559.596 934.193 559.582L934.141 559.978ZM934.36 560.024C934.592 560.099 934.716 560.223 934.77 560.391C934.829 560.573 934.819 560.84 934.699 561.212L935.079 561.335C935.21 560.928 935.247 560.566 935.151 560.268C935.049 559.956 934.814 559.75 934.483 559.643L934.36 560.024ZM934.699 561.212C934.662 561.325 934.611 561.458 934.542 561.612L934.908 561.774C934.98 561.611 935.038 561.464 935.079 561.335L934.699 561.212ZM934.542 561.613C934.298 562.168 934.021 562.537 933.72 562.747C933.428 562.951 933.099 563.014 932.717 562.929L932.63 563.319C933.113 563.427 933.558 563.348 933.949 563.075C934.333 562.807 934.649 562.365 934.908 561.774L934.542 561.613ZM932.715 562.928C932.291 562.84 931.537 562.698 930.454 562.501L930.383 562.895C931.466 563.091 932.215 563.233 932.633 563.32L932.715 562.928ZM930.453 562.501L928.177 562.097L928.107 562.491L930.383 562.895L930.453 562.501ZM927.964 562.202C926.429 565.151 924.396 570.095 921.867 577.026L922.242 577.164C924.771 570.233 926.797 565.31 928.319 562.387L927.964 562.202ZM922.032 577.294C922.997 577.405 924.581 577.6 926.783 577.88L926.833 577.483C924.631 577.203 923.046 577.008 922.077 576.896L922.032 577.294ZM926.785 577.88C926.865 577.889 926.941 577.906 927.015 577.929L927.138 577.549C927.038 577.517 926.936 577.495 926.831 577.483L926.785 577.88ZM927.015 577.929C927.255 578.007 927.39 578.152 927.444 578.376C927.503 578.618 927.472 578.97 927.318 579.45L927.698 579.573C927.862 579.066 927.918 578.63 927.833 578.281C927.743 577.914 927.503 577.666 927.138 577.549L927.015 577.929ZM927.318 579.45C927.149 579.973 926.868 580.426 926.473 580.813L926.752 581.099C927.194 580.667 927.51 580.158 927.698 579.573L927.318 579.45ZM926.471 580.815C926.009 581.276 925.573 581.425 925.15 581.336L925.068 581.728C925.665 581.853 926.231 581.619 926.754 581.098L926.471 580.815ZM925.151 581.337C924.26 581.146 922.278 580.814 919.213 580.342L919.152 580.737C922.22 581.21 924.189 581.54 925.067 581.728L925.151 581.337ZM919.213 580.342C916.731 579.962 914.778 579.565 913.348 579.151L913.237 579.536C914.691 579.956 916.664 580.356 919.152 580.737L919.213 580.342ZM913.346 579.151C913.153 579.097 913.021 579.012 912.932 578.904C912.843 578.796 912.786 578.65 912.772 578.452L912.373 578.481C912.392 578.743 912.471 578.973 912.623 579.158C912.774 579.342 912.985 579.465 913.239 579.536L913.346 579.151ZM912.772 578.451C912.749 578.159 912.817 577.782 912.997 577.311L912.623 577.168C912.433 577.667 912.343 578.108 912.373 578.482L912.772 578.451ZM912.997 577.31C913.217 576.729 913.465 576.347 913.728 576.136C913.98 575.933 914.254 575.878 914.573 575.969L914.683 575.584C914.241 575.459 913.832 575.539 913.477 575.824C913.134 576.1 912.854 576.559 912.623 577.169L912.997 577.31ZM914.573 575.969C915.965 576.369 917.584 576.698 919.427 576.957L919.483 576.561C917.653 576.304 916.053 575.978 914.683 575.584L914.573 575.969ZM919.641 576.831C921.863 571.121 923.901 566.16 925.755 561.948L925.388 561.787C923.532 566.006 921.492 570.973 919.269 576.686L919.641 576.831ZM933.688 568.781L933.511 568.688L933.511 568.688L933.688 568.781ZM934.397 565.871L934.197 565.876L934.197 565.876L934.397 565.871ZM936.107 564.03L936.144 564.227L936.144 564.226L936.107 564.03ZM950.699 568.588L950.896 568.557L950.896 568.557L950.699 568.588ZM948.991 575.001L949.162 575.105L949.162 575.105L948.991 575.001ZM942.843 581.229L942.733 581.062L942.733 581.063L942.843 581.229ZM936.643 584.289L936.709 584.477L936.709 584.477L936.643 584.289ZM931.707 584.933L931.763 584.741L931.762 584.741L931.707 584.933ZM929.032 581.808L929.232 581.792L929.232 581.792L929.032 581.808ZM930.207 575.94L930.021 575.865L930.021 575.865L930.207 575.94ZM936.139 581.361L936.101 581.165L936.101 581.165L936.139 581.361ZM943.314 577.813L943.448 577.962L943.448 577.962L943.314 577.813ZM945.004 568.387L945.124 568.227L945.124 568.226L945.004 568.387ZM936.777 567.555L936.748 567.357L936.646 567.372L936.599 567.464L936.777 567.555ZM934.442 572.089L934.264 571.998L934.263 572L934.442 572.089ZM932.323 576.708L932.509 576.782L932.509 576.782L932.323 576.708ZM933.866 568.873C934.377 567.898 934.622 566.895 934.597 565.866L934.197 565.876C934.22 566.831 933.993 567.768 933.511 568.688L933.866 568.873ZM934.597 565.867C934.592 565.633 934.617 565.44 934.667 565.285L934.286 565.162C934.219 565.371 934.191 565.61 934.197 565.876L934.597 565.867ZM934.667 565.285C934.84 564.748 935.303 564.383 936.144 564.227L936.071 563.833C935.144 564.005 934.52 564.436 934.286 565.162L934.667 565.285ZM936.144 564.226C940.455 563.415 943.74 563.39 946.02 564.125L946.142 563.744C943.767 562.978 940.402 563.018 936.07 563.833L936.144 564.226ZM946.02 564.125C948.697 564.987 950.164 566.491 950.501 568.62L950.896 568.557C950.528 566.237 948.917 564.638 946.142 563.744L946.02 564.125ZM950.501 568.619C950.668 569.679 950.555 570.827 950.156 572.067L950.537 572.189C950.951 570.902 951.074 569.69 950.896 568.557L950.501 568.619ZM950.156 572.067C949.869 572.957 949.424 573.901 948.82 574.897L949.162 575.105C949.779 574.088 950.238 573.116 950.537 572.189L950.156 572.067ZM948.82 574.897C947.372 577.281 945.345 579.337 942.733 581.062L942.954 581.396C945.609 579.642 947.68 577.545 949.162 575.105L948.82 574.897ZM942.733 581.063C940.865 582.299 938.813 583.312 936.576 584.1L936.709 584.477C938.976 583.679 941.057 582.652 942.954 581.396L942.733 581.063ZM936.576 584.1C934.43 584.855 932.836 585.051 931.763 584.741L931.652 585.125C932.851 585.471 934.546 585.238 936.709 584.477L936.576 584.1ZM931.762 584.741C930.96 584.51 930.359 584.148 929.945 583.663C929.531 583.18 929.29 582.561 929.232 581.792L928.833 581.823C928.897 582.661 929.163 583.365 929.641 583.924C930.118 584.481 930.794 584.879 931.652 585.125L931.762 584.741ZM929.232 581.792C929.135 580.533 929.348 579.078 929.881 577.425L929.5 577.302C928.957 578.989 928.731 580.497 928.833 581.823L929.232 581.792ZM929.881 577.425C930.027 576.971 930.198 576.501 930.392 576.014L930.021 575.865C929.823 576.36 929.65 576.839 929.5 577.302L929.881 577.425ZM930.392 576.014C930.921 574.697 932.077 572.318 933.866 568.873L933.511 568.688C931.723 572.133 930.558 574.527 930.021 575.865L930.392 576.014ZM936.177 581.558C938.961 581.023 941.386 579.824 943.448 577.962L943.18 577.665C941.173 579.477 938.815 580.644 936.101 581.165L936.177 581.558ZM943.448 577.962C945.136 576.433 946.241 574.895 946.74 573.344L946.36 573.222C945.889 574.683 944.836 576.165 943.179 577.665L943.448 577.962ZM946.74 573.344C947.074 572.311 947.112 571.357 946.84 570.493C946.567 569.629 945.989 568.874 945.124 568.227L944.885 568.547C945.697 569.156 946.216 569.846 946.458 570.614C946.701 571.382 946.673 572.248 946.36 573.222L946.74 573.344ZM945.124 568.226C944.718 567.924 944.228 567.683 943.657 567.499L943.535 567.88C944.072 568.053 944.521 568.276 944.885 568.547L945.124 568.226ZM943.657 567.499C942.022 566.972 939.712 566.932 936.748 567.357L936.805 567.753C939.749 567.331 941.986 567.381 943.535 567.88L943.657 567.499ZM936.599 567.464L934.264 571.998L934.62 572.181L936.955 567.647L936.599 567.464ZM934.263 572C933.382 573.754 932.673 575.299 932.138 576.633L932.509 576.782C933.039 575.461 933.743 573.927 934.62 572.179L934.263 572ZM932.138 576.633C931.993 576.991 931.877 577.307 931.789 577.581L932.169 577.704C932.254 577.441 932.367 577.134 932.509 576.782L932.138 576.633ZM931.789 577.581C931.451 578.629 931.352 579.5 931.526 580.177C931.704 580.871 932.165 581.337 932.878 581.566L933.001 581.186C932.407 580.995 932.055 580.628 931.913 580.077C931.767 579.509 931.841 578.724 932.169 577.704L931.789 577.581ZM932.878 581.566C933.704 581.832 934.809 581.821 936.177 581.558L936.101 581.165C934.76 581.423 933.732 581.421 933.001 581.186L932.878 581.566ZM957.918 572.29L958.101 572.371L958.203 572.138L957.954 572.093L957.918 572.29ZM954.084 571.427L954.138 571.235L954.138 571.234L954.084 571.427ZM953.4 570.662L953.201 570.684L953.201 570.684L953.4 570.662ZM953.596 569.565L953.408 569.496L953.408 569.496L953.596 569.565ZM955.248 568.306L955.303 568.114L955.302 568.114L955.248 568.306ZM960.839 569.449L960.812 569.647L960.813 569.647L960.839 569.449ZM966.513 570.203L966.487 570.401L966.487 570.401L966.513 570.203ZM967.072 572.116L966.889 572.035L966.889 572.036L967.072 572.116ZM965.02 573.547L965.064 573.352L965.061 573.351L965.02 573.547ZM962.765 573.121L962.801 572.924L962.8 572.924L962.765 573.121ZM960.488 572.717L960.523 572.52L960.379 572.494L960.311 572.625L960.488 572.717ZM954.401 587.518L954.213 587.449L954.126 587.688L954.378 587.717L954.401 587.518ZM959.155 588.104L959.13 588.303L959.132 588.303L959.155 588.104ZM958.959 591.379L958.819 591.236L958.818 591.238L958.959 591.379ZM957.456 591.955L957.414 592.15L957.415 592.151L957.456 591.955ZM951.529 590.962L951.559 590.764L951.559 590.764L951.529 590.962ZM945.639 589.766L945.695 589.574L945.693 589.574L945.639 589.766ZM944.919 588.889L945.118 588.875L945.118 588.874L944.919 588.889ZM945.157 587.662L945.344 587.734L945.344 587.733L945.157 587.662ZM946.975 586.199L947.03 586.007L947.03 586.007L946.975 586.199ZM951.802 587.182L951.774 587.38L951.931 587.402L951.988 587.254L951.802 587.182ZM957.954 572.093C956.55 571.841 955.279 571.555 954.138 571.235L954.03 571.62C955.185 571.944 956.469 572.233 957.883 572.487L957.954 572.093ZM954.138 571.234C953.959 571.185 953.836 571.11 953.753 571.017C953.671 570.926 953.617 570.804 953.598 570.64L953.201 570.684C953.227 570.917 953.309 571.121 953.455 571.284C953.6 571.446 953.797 571.555 954.031 571.62L954.138 571.234ZM953.598 570.64C953.572 570.397 953.626 570.065 953.783 569.633L953.408 569.496C953.241 569.953 953.164 570.353 953.201 570.684L953.598 570.64ZM953.783 569.634C953.969 569.129 954.185 568.805 954.417 568.628C954.638 568.46 954.889 568.413 955.193 568.499L955.302 568.114C954.888 567.997 954.505 568.059 954.175 568.31C953.856 568.553 953.606 568.959 953.408 569.496L953.783 569.634ZM955.192 568.498C956.855 568.977 958.729 569.359 960.812 569.647L960.867 569.251C958.798 568.965 956.944 568.586 955.303 568.114L955.192 568.498ZM960.813 569.647C962.077 569.816 963.968 570.067 966.487 570.401L966.54 570.005C964.021 569.67 962.129 569.419 960.866 569.251L960.813 569.647ZM966.487 570.401C966.58 570.413 966.653 570.429 966.707 570.447L966.83 570.066C966.746 570.039 966.648 570.019 966.54 570.005L966.487 570.401ZM966.707 570.447C966.939 570.521 967.062 570.646 967.117 570.814C967.176 570.996 967.165 571.263 967.045 571.635L967.426 571.758C967.557 571.351 967.594 570.988 967.497 570.69C967.396 570.378 967.16 570.172 966.83 570.066L966.707 570.447ZM967.045 571.635C967.009 571.747 966.957 571.881 966.889 572.035L967.255 572.197C967.327 572.034 967.384 571.887 967.426 571.758L967.045 571.635ZM966.889 572.036C966.645 572.591 966.367 572.96 966.067 573.17C965.774 573.374 965.445 573.437 965.064 573.352L964.977 573.742C965.46 573.85 965.905 573.77 966.296 573.498C966.679 573.23 966.995 572.788 967.255 572.197L966.889 572.036ZM965.061 573.351C964.638 573.263 963.883 573.12 962.801 572.924L962.729 573.318C963.812 573.514 964.562 573.656 964.979 573.743L965.061 573.351ZM962.8 572.924L960.523 572.52L960.453 572.914L962.73 573.318L962.8 572.924ZM960.311 572.625C958.776 575.573 956.743 580.518 954.213 587.449L954.589 587.586C957.118 580.656 959.143 575.733 960.666 572.809L960.311 572.625ZM954.378 587.717C955.344 587.827 956.928 588.023 959.13 588.303L959.18 587.906C956.978 587.626 955.392 587.43 954.424 587.319L954.378 587.717ZM959.132 588.303C959.211 588.312 959.288 588.328 959.361 588.352L959.484 587.971C959.385 587.939 959.283 587.917 959.178 587.905L959.132 588.303ZM959.361 588.352C959.602 588.43 959.736 588.574 959.791 588.799C959.85 589.041 959.819 589.393 959.664 589.873L960.045 589.996C960.208 589.489 960.264 589.052 960.179 588.704C960.09 588.337 959.849 588.089 959.484 587.971L959.361 588.352ZM959.664 589.873C959.496 590.396 959.215 590.849 958.819 591.236L959.099 591.522C959.541 591.09 959.857 590.58 960.045 589.996L959.664 589.873ZM958.818 591.238C958.356 591.698 957.919 591.848 957.497 591.759L957.415 592.151C958.012 592.276 958.578 592.042 959.1 591.521L958.818 591.238ZM957.498 591.759C956.606 591.568 954.624 591.237 951.559 590.764L951.499 591.16C954.567 591.632 956.536 591.962 957.414 592.15L957.498 591.759ZM951.559 590.764C949.078 590.385 947.124 589.987 945.695 589.574L945.584 589.958C947.037 590.379 949.01 590.779 951.499 591.16L951.559 590.764ZM945.693 589.574C945.5 589.52 945.367 589.434 945.279 589.326C945.19 589.219 945.133 589.073 945.118 588.875L944.719 588.904C944.738 589.166 944.818 589.396 944.969 589.58C945.121 589.765 945.332 589.888 945.585 589.959L945.693 589.574ZM945.118 588.874C945.095 588.582 945.164 588.205 945.344 587.734L944.97 587.591C944.78 588.09 944.69 588.531 944.719 588.905L945.118 588.874ZM945.344 587.733C945.564 587.152 945.812 586.77 946.075 586.559C946.326 586.356 946.601 586.301 946.92 586.392L947.03 586.007C946.588 585.881 946.179 585.962 945.824 586.247C945.481 586.523 945.2 586.981 944.97 587.592L945.344 587.733ZM946.919 586.392C948.312 586.792 949.93 587.121 951.774 587.38L951.829 586.984C949.999 586.727 948.4 586.401 947.03 586.007L946.919 586.392ZM951.988 587.254C954.21 581.544 956.248 576.583 958.101 572.371L957.735 572.209C955.878 576.429 953.838 581.396 951.615 587.109L951.988 587.254ZM970.51 577.365L970.693 577.446L970.804 577.195L970.531 577.166L970.51 577.365ZM965.629 576.594L965.583 576.789L965.585 576.789L965.629 576.594ZM964.883 575.752L964.684 575.762L964.684 575.768L964.883 575.752ZM965.13 574.542L964.942 574.473L964.942 574.474L965.13 574.542ZM966.952 573.023L966.997 572.828L966.996 572.828L966.952 573.023ZM973.128 573.91L973.112 574.109L973.114 574.11L973.128 573.91ZM979.359 574.356L979.376 574.157L979.374 574.157L979.359 574.356ZM978.975 577.771L979.108 577.92L979.109 577.92L978.975 577.771ZM977.643 578.216L977.674 578.018L977.673 578.018L977.643 578.216ZM973.122 577.662L973.143 577.463L973.007 577.448L972.944 577.57L973.122 577.662ZM969.416 586.052L969.228 585.983L969.228 585.983L969.416 586.052ZM966.271 594.609L966.084 594.54L966.083 594.541L966.271 594.609ZM964.45 595.727L964.442 595.527L964.44 595.527L964.45 595.727ZM963.868 593.62L963.682 593.547L963.682 593.547L963.868 593.62ZM966.951 585.788L967.137 585.861L967.137 585.861L966.951 585.788ZM970.531 577.166C968.625 576.961 967.007 576.705 965.674 576.399L965.585 576.789C966.937 577.1 968.573 577.358 970.489 577.563L970.531 577.166ZM965.676 576.4C965.475 576.352 965.337 576.271 965.247 576.168C965.157 576.067 965.098 575.928 965.083 575.736L964.684 575.768C964.705 576.028 964.789 576.254 964.947 576.434C965.105 576.612 965.323 576.726 965.583 576.789L965.676 576.4ZM965.083 575.743C965.07 575.471 965.143 575.096 965.318 574.61L964.942 574.474C964.759 574.98 964.667 575.413 964.684 575.762L965.083 575.743ZM965.318 574.612C965.532 574.034 965.778 573.648 966.043 573.427C966.299 573.213 966.581 573.145 966.908 573.218L966.996 572.828C966.548 572.728 966.139 572.826 965.787 573.119C965.445 573.404 965.168 573.865 964.942 574.473L965.318 574.612ZM966.907 573.218C968.705 573.634 970.774 573.931 973.112 574.109L973.143 573.711C970.82 573.533 968.772 573.239 966.997 572.828L966.907 573.218ZM973.114 574.11C974.497 574.202 976.574 574.351 979.344 574.556L979.374 574.157C976.603 573.952 974.525 573.803 973.141 573.71L973.114 574.11ZM979.342 574.556C979.453 574.565 979.541 574.582 979.609 574.604L979.732 574.223C979.627 574.189 979.507 574.168 979.376 574.157L979.342 574.556ZM979.609 574.604C979.829 574.675 979.952 574.81 980.002 575.025C980.055 575.259 980.023 575.601 979.872 576.069L980.253 576.192C980.412 575.699 980.469 575.274 980.392 574.936C980.31 574.579 980.082 574.336 979.732 574.223L979.609 574.604ZM979.872 576.069C979.683 576.656 979.341 577.173 978.841 577.622L979.109 577.92C979.657 577.427 980.041 576.851 980.253 576.192L979.872 576.069ZM978.842 577.622C978.462 577.962 978.077 578.083 977.674 578.018L977.611 578.413C978.153 578.5 978.656 578.325 979.108 577.92L978.842 577.622ZM977.673 578.018C976.695 577.866 975.184 577.681 973.143 577.463L973.101 577.861C975.141 578.079 976.644 578.263 977.612 578.414L977.673 578.018ZM972.944 577.57C971.525 580.311 970.286 583.115 969.228 585.983L969.603 586.121C970.655 583.27 971.888 580.48 973.3 577.754L972.944 577.57ZM969.228 585.983L966.084 594.54L966.459 594.678L969.603 586.121L969.228 585.983ZM966.083 594.541C965.969 594.856 965.781 595.09 965.518 595.251C965.253 595.414 964.898 595.511 964.442 595.527L964.457 595.927C964.959 595.909 965.386 595.801 965.728 595.592C966.072 595.38 966.316 595.072 966.459 594.677L966.083 594.541ZM964.44 595.527C964.308 595.534 964.185 595.518 964.071 595.481L963.948 595.862C964.111 595.914 964.282 595.935 964.459 595.927L964.44 595.527ZM964.071 595.481C963.979 595.451 963.914 595.407 963.868 595.351C963.821 595.295 963.784 595.217 963.765 595.107C963.725 594.882 963.765 594.549 963.912 594.093L963.531 593.97C963.377 594.448 963.314 594.855 963.371 595.177C963.399 595.341 963.46 595.487 963.561 595.608C963.661 595.728 963.794 595.812 963.948 595.862L964.071 595.481ZM963.912 594.093C963.955 593.958 964.003 593.825 964.054 593.693L963.682 593.547C963.627 593.686 963.577 593.827 963.531 593.97L963.912 594.093ZM964.054 593.693L967.137 585.861L966.764 585.715L963.682 593.547L964.054 593.693ZM967.137 585.861C968.088 583.44 969.274 580.635 970.693 577.446L970.327 577.283C968.907 580.476 967.719 583.287 966.764 585.715L967.137 585.861ZM990.98 578.43L991.104 578.273L991.103 578.272L990.98 578.43ZM991.817 580.19L991.631 580.117L991.631 580.117L991.817 580.19ZM987.623 590.315L987.441 590.233L987.441 590.233L987.623 590.315ZM983.579 599.398L983.761 599.48L983.762 599.48L983.579 599.398ZM981.537 601.29L981.546 601.49L981.547 601.49L981.537 601.29ZM977.77 599.776L977.882 599.61L977.882 599.61L977.77 599.776ZM974.991 597.462L974.822 597.569L974.822 597.57L974.991 597.462ZM974.564 595.72L974.37 595.669L974.369 595.672L974.564 595.72ZM976.22 594.004L976.234 594.203L976.236 594.203L976.22 594.004ZM976.751 594.49L976.551 594.491L976.551 594.491L976.751 594.49ZM978.775 596.833L978.877 596.661L978.877 596.661L978.775 596.833ZM980.411 597.403L980.388 597.602L980.388 597.602L980.411 597.403ZM981.673 596.821L981.841 596.929L981.842 596.928L981.673 596.821ZM984.637 590.957L984.82 591.037L984.933 590.779L984.652 590.757L984.637 590.957ZM978.724 590.412L978.699 590.611L978.7 590.611L978.724 590.412ZM976.473 584.902L976.288 584.826L976.288 584.826L976.473 584.902ZM980.525 576.996L980.699 577.094L980.705 577.084L980.709 577.074L980.525 576.996ZM982.453 576.127L982.456 576.327L982.457 576.327L982.453 576.127ZM983.056 577.811L982.88 577.716L982.88 577.716L983.056 577.811ZM982.111 588.08L982.112 587.88L982.111 587.88L982.111 588.08ZM985.288 587.47L985.39 587.642L985.391 587.642L985.288 587.47ZM987.181 584.885L987.366 584.962L987.369 584.953L987.181 584.885ZM988.544 581.055L988.358 580.981L988.355 580.989L988.544 581.055ZM990.459 578.358C990.567 578.393 990.7 578.466 990.857 578.588L991.103 578.272C990.924 578.134 990.75 578.031 990.582 577.977L990.459 578.358ZM990.856 578.587C991.232 578.884 991.47 579.161 991.591 579.416C991.709 579.664 991.718 579.893 991.631 580.117L992.003 580.263C992.134 579.927 992.113 579.583 991.952 579.244C991.795 578.913 991.505 578.59 991.104 578.273L990.856 578.587ZM991.631 580.117C990.14 583.942 988.744 587.314 987.441 590.233L987.806 590.396C989.112 587.47 990.511 584.092 992.003 580.263L991.631 580.117ZM987.441 590.233L983.396 599.317L983.762 599.48L987.806 590.396L987.441 590.233ZM983.396 599.317C982.861 600.513 982.227 601.054 981.526 601.091L981.547 601.49C982.478 601.441 983.206 600.721 983.761 599.48L983.396 599.317ZM981.527 601.091C981.167 601.107 980.777 601.05 980.354 600.914L980.231 601.295C980.691 601.443 981.13 601.51 981.546 601.49L981.527 601.091ZM980.354 600.914C979.661 600.691 978.838 600.259 977.882 599.61L977.657 599.941C978.629 600.601 979.488 601.055 980.231 601.295L980.354 600.914ZM977.882 599.61C977.121 599.094 976.513 598.646 976.057 598.266C975.597 597.883 975.304 597.58 975.159 597.354L974.822 597.57C975.002 597.85 975.334 598.185 975.801 598.573C976.271 598.965 976.89 599.421 977.657 599.941L977.882 599.61ZM975.16 597.355C974.764 596.731 974.649 596.208 974.758 595.768L974.369 595.672C974.224 596.258 974.394 596.896 974.822 597.569L975.16 597.355ZM974.757 595.77C974.893 595.249 975.089 594.87 975.333 594.617C975.574 594.368 975.87 594.23 976.234 594.203L976.205 593.804C975.747 593.838 975.357 594.016 975.045 594.339C974.738 594.658 974.517 595.107 974.37 595.669L974.757 595.77ZM976.236 594.203C976.384 594.191 976.451 594.222 976.482 594.251C976.513 594.279 976.55 594.343 976.551 594.491L976.951 594.49C976.95 594.284 976.898 594.09 976.752 593.956C976.607 593.822 976.409 593.787 976.203 593.805L976.236 594.203ZM976.551 594.491C976.552 594.935 976.749 595.366 977.107 595.78C977.464 596.193 977.989 596.601 978.673 597.005L978.877 596.661C978.213 596.268 977.727 595.887 977.409 595.519C977.092 595.152 976.951 594.81 976.951 594.49L976.551 594.491ZM978.673 597.005C978.967 597.18 979.285 597.322 979.628 597.433L979.75 597.052C979.435 596.95 979.144 596.82 978.877 596.661L978.673 597.005ZM979.628 597.433C979.89 597.517 980.143 597.574 980.388 597.602L980.434 597.204C980.218 597.18 979.99 597.129 979.75 597.052L979.628 597.433ZM980.388 597.602C980.693 597.637 980.975 597.602 981.225 597.487C981.475 597.372 981.68 597.182 981.841 596.929L981.504 596.714C981.377 596.912 981.228 597.045 981.057 597.124C980.886 597.202 980.681 597.233 980.434 597.204L980.388 597.602ZM981.842 596.928C982.724 595.536 983.717 593.57 984.82 591.037L984.454 590.877C983.354 593.403 982.37 595.347 981.504 596.714L981.842 596.928ZM984.652 590.757C982.165 590.567 980.197 590.386 978.747 590.214L978.7 590.611C980.158 590.784 982.132 590.966 984.622 591.156L984.652 590.757ZM978.748 590.214C978.326 590.162 977.958 590.085 977.644 589.983L977.521 590.364C977.865 590.475 978.258 590.557 978.699 590.611L978.748 590.214ZM977.644 589.983C976.83 589.721 976.333 589.264 976.113 588.622C975.888 587.966 975.938 587.083 976.303 585.95L975.922 585.828C975.545 586.997 975.469 587.978 975.735 588.751C976.004 589.537 976.614 590.072 977.521 590.364L977.644 589.983ZM976.303 585.95C976.407 585.627 976.526 585.302 976.658 584.978L976.288 584.826C976.152 585.16 976.03 585.494 975.922 585.828L976.303 585.95ZM976.658 584.978C977.4 583.177 978.745 580.551 980.699 577.094L980.351 576.897C978.396 580.357 977.04 583.001 976.288 584.826L976.658 584.978ZM980.709 577.074C980.899 576.627 981.428 576.343 982.456 576.327L982.45 575.927C981.385 575.943 980.629 576.239 980.341 576.918L980.709 577.074ZM982.457 576.327C982.667 576.322 982.822 576.341 982.931 576.376L983.054 575.996C982.886 575.942 982.681 575.921 982.448 575.927L982.457 576.327ZM982.931 576.376C983.089 576.427 983.163 576.506 983.196 576.601C983.234 576.708 983.233 576.876 983.153 577.126L983.534 577.249C983.626 576.962 983.653 576.695 983.574 576.469C983.49 576.23 983.303 576.076 983.054 575.996L982.931 576.376ZM983.153 577.126C983.108 577.264 983.02 577.459 982.88 577.716L983.232 577.907C983.375 577.643 983.478 577.422 983.534 577.249L983.153 577.126ZM982.88 577.716C981.673 579.95 980.727 581.752 980.041 583.122C979.358 584.488 978.928 585.436 978.761 585.954L979.142 586.077C979.298 585.592 979.714 584.671 980.399 583.301C981.082 581.937 982.026 580.138 983.232 577.906L982.88 577.716ZM978.761 585.954C978.606 586.434 978.611 586.869 978.817 587.234C979.022 587.595 979.403 587.847 979.913 588.011L980.035 587.631C979.576 587.483 979.302 587.277 979.166 587.037C979.031 586.8 979.009 586.489 979.142 586.077L978.761 585.954ZM979.913 588.011C980.477 588.193 981.213 588.28 982.111 588.28L982.111 587.88C981.233 587.88 980.544 587.795 980.035 587.631L979.913 588.011ZM982.111 588.28C983.554 588.283 984.657 588.079 985.39 587.642L985.185 587.298C984.546 587.68 983.532 587.883 982.112 587.88L982.111 588.28ZM985.391 587.642C986.179 587.168 986.831 586.26 987.366 584.961L986.996 584.809C986.475 586.074 985.866 586.889 985.185 587.299L985.391 587.642ZM987.369 584.953C987.828 583.677 988.282 582.4 988.733 581.122L988.355 580.989C987.905 582.266 987.451 583.543 986.993 584.818L987.369 584.953ZM988.73 581.129C989.145 580.092 989.511 579.348 989.828 578.885C989.987 578.653 990.125 578.505 990.239 578.424C990.352 578.345 990.418 578.345 990.459 578.358L990.582 577.977C990.38 577.912 990.183 577.974 990.009 578.097C989.838 578.217 989.668 578.41 989.498 578.659C989.156 579.159 988.776 579.937 988.358 580.981L988.73 581.129Z" fill="#E83A3B" mask="url(#path-1-outside-1_5_269113)"/>
</svg>
