<svg width="1406" height="934" viewBox="0 0 1406 934" fill="none" xmlns="http://www.w3.org/2000/svg">
<g style="mix-blend-mode:multiply">
<path d="M224.131 643.466C224.184 643.466 224.228 643.423 224.228 643.369C224.228 643.315 224.184 643.271 224.131 643.271C224.077 643.271 224.033 643.315 224.033 643.369C224.033 643.423 224.077 643.466 224.131 643.466Z" fill="#060D14"/>
<path d="M222.087 650.533C222.13 650.533 222.165 650.498 222.165 650.455C222.165 650.412 222.13 650.377 222.087 650.377C222.044 650.377 222.009 650.412 222.009 650.455C222.009 650.498 222.044 650.533 222.087 650.533Z" fill="#060D14"/>
<path d="M220.063 657.597C220.084 657.597 220.101 657.58 220.101 657.559C220.101 657.537 220.084 657.52 220.063 657.52C220.042 657.52 220.024 657.537 220.024 657.559C220.024 657.58 220.042 657.597 220.063 657.597Z" fill="#060D14"/>
<path d="M218.019 664.664C218.03 664.664 218.039 664.655 218.039 664.645C218.039 664.634 218.03 664.625 218.019 664.625C218.009 664.625 218 664.634 218 664.645C218 664.655 218.009 664.664 218.019 664.664Z" fill="#060D14"/>
<path d="M225.105 666.825C225.191 666.825 225.261 666.755 225.261 666.669C225.261 666.583 225.191 666.513 225.105 666.513C225.019 666.513 224.95 666.583 224.95 666.669C224.95 666.755 225.019 666.825 225.105 666.825Z" fill="#060D14"/>
<path d="M223.08 673.832C223.113 673.832 223.139 673.806 223.139 673.774C223.139 673.741 223.113 673.715 223.08 673.715C223.048 673.715 223.022 673.741 223.022 673.774C223.022 673.806 223.048 673.832 223.08 673.832Z" fill="#060D14"/>
<path d="M221.055 680.878C221.066 680.878 221.074 680.87 221.074 680.859C221.074 680.848 221.066 680.84 221.055 680.84C221.044 680.84 221.036 680.848 221.036 680.859C221.036 680.87 221.044 680.878 221.055 680.878Z" fill="#060D14"/>
</g>
<g style="mix-blend-mode:multiply">
<path d="M224.798 343.006C224.828 343.146 224.966 343.236 225.107 343.206C225.247 343.176 225.337 343.038 225.307 342.897C225.277 342.757 225.139 342.667 224.998 342.697C224.858 342.727 224.768 342.866 224.798 343.006Z" fill="#060D14"/>
<path d="M224.659 346.758C224.674 346.828 224.743 346.873 224.813 346.858C224.883 346.843 224.928 346.774 224.913 346.704C224.898 346.634 224.829 346.589 224.759 346.604C224.688 346.619 224.644 346.688 224.659 346.758Z" fill="#060D14"/>
<path d="M224.49 350.516C224.495 350.538 224.516 350.552 224.538 350.547C224.559 350.542 224.573 350.521 224.568 350.5C224.564 350.478 224.543 350.464 224.521 350.469C224.499 350.473 224.486 350.495 224.49 350.516Z" fill="#060D14"/>
<path d="M224.253 354.289C224.254 354.294 224.26 354.298 224.265 354.297C224.27 354.295 224.274 354.29 224.273 354.285C224.271 354.279 224.266 354.276 224.261 354.277C224.255 354.278 224.252 354.283 224.253 354.289Z" fill="#060D14"/>
<path d="M223.342 312.446C223.344 312.451 223.349 312.455 223.354 312.454C223.36 312.453 223.363 312.447 223.362 312.442C223.361 312.437 223.356 312.433 223.35 312.434C223.345 312.435 223.341 312.441 223.342 312.446Z" fill="#060D14"/>
<path d="M223.056 316.229C223.06 316.246 223.076 316.256 223.092 316.252C223.108 316.249 223.119 316.233 223.115 316.217C223.112 316.201 223.096 316.19 223.08 316.194C223.063 316.197 223.053 316.213 223.056 316.229Z" fill="#060D14"/>
<path d="M222.723 320.033C222.736 320.092 222.794 320.13 222.854 320.118C222.913 320.105 222.951 320.046 222.939 319.987C222.926 319.928 222.867 319.89 222.808 319.902C222.749 319.915 222.711 319.974 222.723 320.033Z" fill="#060D14"/>
<path d="M222.369 323.831C222.393 323.944 222.505 324.016 222.618 323.992C222.732 323.968 222.804 323.856 222.78 323.743C222.755 323.63 222.644 323.557 222.53 323.581C222.417 323.606 222.345 323.717 222.369 323.831Z" fill="#060D14"/>
<path d="M222.044 327.622C222.075 327.768 222.219 327.861 222.364 327.83C222.51 327.798 222.603 327.655 222.572 327.509C222.541 327.363 222.397 327.27 222.252 327.302C222.106 327.333 222.013 327.476 222.044 327.622Z" fill="#060D14"/>
<path d="M221.787 331.399C221.818 331.545 221.962 331.638 222.108 331.607C222.253 331.576 222.346 331.432 222.315 331.286C222.284 331.141 222.141 331.048 221.995 331.079C221.849 331.11 221.756 331.253 221.787 331.399Z" fill="#060D14"/>
<path d="M221.581 335.175C221.606 335.289 221.717 335.361 221.831 335.337C221.944 335.313 222.016 335.201 221.992 335.088C221.968 334.974 221.856 334.902 221.743 334.926C221.629 334.95 221.557 335.062 221.581 335.175Z" fill="#060D14"/>
<path d="M221.393 338.938C221.409 339.013 221.484 339.061 221.559 339.045C221.635 339.029 221.683 338.955 221.667 338.879C221.651 338.803 221.576 338.755 221.501 338.771C221.425 338.788 221.377 338.862 221.393 338.938Z" fill="#060D14"/>
<path d="M221.185 342.704C221.195 342.747 221.237 342.775 221.28 342.765C221.324 342.756 221.351 342.714 221.342 342.671C221.333 342.627 221.29 342.6 221.247 342.609C221.204 342.618 221.176 342.661 221.185 342.704Z" fill="#060D14"/>
<path d="M220.977 346.471C220.981 346.487 220.997 346.497 221.013 346.494C221.029 346.49 221.04 346.474 221.036 346.458C221.033 346.442 221.017 346.432 221 346.435C220.984 346.438 220.974 346.454 220.977 346.471Z" fill="#060D14"/>
<path d="M220.733 350.255C220.734 350.261 220.739 350.264 220.744 350.263C220.75 350.262 220.753 350.256 220.752 350.251C220.751 350.246 220.746 350.242 220.74 350.243C220.735 350.244 220.731 350.25 220.733 350.255Z" fill="#060D14"/>
<path d="M219.299 315.969C219.3 315.974 219.305 315.977 219.311 315.976C219.316 315.975 219.32 315.97 219.318 315.964C219.317 315.959 219.312 315.956 219.307 315.957C219.301 315.958 219.298 315.963 219.299 315.969Z" fill="#060D14"/>
<path d="M219.023 319.749C219.026 319.766 219.042 319.776 219.058 319.772C219.075 319.769 219.085 319.753 219.081 319.737C219.078 319.721 219.062 319.71 219.046 319.714C219.03 319.717 219.019 319.733 219.023 319.749Z" fill="#060D14"/>
<path d="M218.737 323.533C218.743 323.56 218.769 323.577 218.796 323.571C218.823 323.565 218.84 323.539 218.835 323.512C218.829 323.485 218.802 323.468 218.775 323.473C218.748 323.479 218.731 323.506 218.737 323.533Z" fill="#060D14"/>
<path d="M218.463 327.324C218.471 327.362 218.508 327.386 218.546 327.378C218.584 327.37 218.608 327.332 218.6 327.295C218.592 327.257 218.554 327.233 218.516 327.241C218.479 327.249 218.455 327.286 218.463 327.324Z" fill="#060D14"/>
<path d="M218.206 331.1C218.213 331.133 218.245 331.153 218.277 331.146C218.309 331.14 218.33 331.108 218.323 331.075C218.316 331.043 218.284 331.022 218.252 331.029C218.219 331.036 218.199 331.068 218.206 331.1Z" fill="#060D14"/>
<path d="M217.969 334.873C217.973 334.895 217.995 334.909 218.016 334.904C218.038 334.899 218.052 334.878 218.047 334.857C218.042 334.835 218.021 334.821 217.999 334.826C217.978 334.83 217.964 334.852 217.969 334.873Z" fill="#060D14"/>
<path d="M217.722 338.648C217.725 338.665 217.741 338.675 217.757 338.671C217.773 338.668 217.784 338.652 217.78 338.636C217.777 338.62 217.761 338.609 217.745 338.613C217.728 338.616 217.718 338.632 217.722 338.648Z" fill="#060D14"/>
<path d="M217.477 342.433C217.478 342.438 217.483 342.442 217.489 342.441C217.494 342.439 217.497 342.434 217.496 342.429C217.495 342.423 217.49 342.42 217.484 342.421C217.479 342.422 217.476 342.428 217.477 342.433Z" fill="#060D14"/>
<path d="M214.999 323.268C215 323.273 215.005 323.277 215.011 323.276C215.016 323.274 215.019 323.269 215.018 323.264C215.017 323.258 215.012 323.255 215.006 323.256C215.001 323.257 214.997 323.262 214.999 323.268Z" fill="#060D14"/>
<path d="M214.742 327.045C214.743 327.05 214.749 327.054 214.754 327.052C214.76 327.051 214.763 327.046 214.762 327.041C214.761 327.035 214.755 327.032 214.75 327.033C214.745 327.034 214.741 327.039 214.742 327.045Z" fill="#060D14"/>
<path d="M214.476 330.824C214.477 330.829 214.482 330.832 214.488 330.831C214.493 330.83 214.496 330.825 214.495 330.819C214.494 330.814 214.489 330.811 214.483 330.812C214.478 330.813 214.475 330.818 214.476 330.824Z" fill="#060D14"/>
</g>
<path d="M638.351 521.872C636.491 535.702 634.441 549.492 631.751 563.182C630.865 567.689 629.951 572.195 629.011 576.702C628.671 578.342 636.011 578.542 636.491 576.122C639.311 562.452 641.951 548.762 643.941 534.952C644.601 530.402 645.221 525.842 645.831 521.292C646.071 519.492 638.681 519.472 638.351 521.872Z" fill="#E83A3B"/>
</svg>
