<svg width="1406" height="934" viewBox="0 0 1406 934" fill="none" xmlns="http://www.w3.org/2000/svg">
<g style="mix-blend-mode:multiply">
<path d="M1025.04 175.437C1025.05 175.438 1025.06 175.43 1025.06 175.419C1025.06 175.407 1025.05 175.397 1025.04 175.395C1025.03 175.393 1025.02 175.401 1025.02 175.413C1025.02 175.424 1025.03 175.435 1025.04 175.437Z" fill="#060D14"/>
<path d="M1031.67 178.772C1031.69 178.776 1031.71 178.759 1031.72 178.736C1031.72 178.712 1031.71 178.691 1031.69 178.688C1031.67 178.684 1031.65 178.701 1031.64 178.724C1031.64 178.748 1031.65 178.769 1031.67 178.772Z" fill="#060D14"/>
<path d="M1008.53 176.299C1008.55 176.302 1008.57 176.286 1008.58 176.262C1008.58 176.239 1008.56 176.217 1008.54 176.214C1008.52 176.211 1008.5 176.227 1008.5 176.25C1008.5 176.274 1008.51 176.296 1008.53 176.299Z" fill="#060D14"/>
<path d="M1015.16 179.676C1015.2 179.682 1015.24 179.649 1015.25 179.602C1015.26 179.555 1015.23 179.512 1015.19 179.505C1015.15 179.498 1015.11 179.531 1015.1 179.579C1015.09 179.626 1015.12 179.669 1015.16 179.676Z" fill="#060D14"/>
<path d="M992.032 177.137C992.042 177.139 992.052 177.131 992.054 177.119C992.056 177.108 992.049 177.097 992.038 177.096C992.028 177.094 992.018 177.102 992.017 177.114C992.015 177.125 992.022 177.136 992.032 177.137Z" fill="#060D14"/>
<path d="M998.665 180.493C998.696 180.498 998.727 180.473 998.732 180.438C998.738 180.402 998.716 180.369 998.685 180.364C998.653 180.359 998.623 180.384 998.617 180.42C998.612 180.456 998.633 180.488 998.665 180.493Z" fill="#060D14"/>
</g>
<path d="M665.884 295.877C666.018 283.791 666.338 271.744 665.91 259.664C665.885 258.852 663.176 258.074 662.594 257.83C662.339 257.777 658.886 256.65 658.883 257.058C659.314 269.129 658.972 281.182 658.86 293.262C658.85 294.046 661.593 294.852 662.176 295.096C662.43 295.149 665.865 296.313 665.876 295.917L665.884 295.877Z" fill="#E83A3B"/>
</svg>
