<svg width="1406" height="934" viewBox="0 0 1406 934" fill="none" xmlns="http://www.w3.org/2000/svg">
<path d="M741.862 293.88C740.657 285.126 741.714 276.209 744.932 267.98C746.511 263.872 748.558 259.96 751.032 256.32C752.252 254.584 753.564 252.915 754.962 251.32C755.712 250.48 756.482 249.65 757.272 248.85L758.412 247.72L758.932 247.23L759.352 246.85C761.21 245.192 763.188 243.674 765.272 242.31C765.872 241.92 766.472 241.54 767.082 241.17L767.692 240.81C767.142 241.13 768.122 240.58 768.122 240.58C769.282 239.95 770.452 239.37 771.642 238.83C772.832 238.29 774.462 236.61 773.432 235.13C772.402 233.65 769.952 233.84 768.522 234.48C750.622 242.55 737.672 260.05 734.642 279.39C733.807 284.793 733.787 290.29 734.582 295.7C734.842 297.45 737.582 297.7 738.842 297.31C740.392 296.88 742.132 295.74 741.842 293.91L741.862 293.88Z" fill="#E83A3B"/>
</svg>
