<svg width="1406" height="934" viewBox="0 0 1406 934" fill="none" xmlns="http://www.w3.org/2000/svg">
<mask id="path-1-outside-1_5_173257" maskUnits="userSpaceOnUse" x="206.787" y="453.282" width="143.749" height="90.149" fill="black">
<rect fill="white" x="206.787" y="453.282" width="143.749" height="90.149"/>
<path d="M235.323 531.644C235.458 531.83 235.565 532 235.643 532.154C235.947 532.754 235.864 533.173 235.394 533.412C235.272 533.474 235.153 533.519 235.035 533.548C234.077 533.79 233.442 533.653 233.13 533.139C230.921 529.529 228.551 525.41 226.02 520.782C226.206 524.082 226.375 526.555 226.527 528.201C226.778 530.928 227.106 533.381 227.509 535.562C227.69 536.541 227.43 537.295 226.729 537.823C226.648 537.885 226.543 537.948 226.413 538.014C225.854 538.298 225.379 538.136 224.99 537.529C222.298 533.288 219.659 529.453 217.073 526.024C217.541 528.111 218.043 530.467 218.579 533.09L219.96 539.821C220.215 541.067 220.116 541.806 219.662 542.036C219.508 542.114 219.319 542.134 219.095 542.094C218.403 541.976 217.929 541.666 217.674 541.163C217.596 541.009 217.538 540.835 217.501 540.64L215.467 529.76C214.774 526.044 213.843 522.47 212.672 519.037C212.583 518.42 212.717 518.02 213.074 517.839C213.244 517.753 213.465 517.717 213.738 517.732C214.551 517.768 215.128 518.061 215.469 518.612L219.907 525.703C221.627 528.449 223.229 530.822 224.712 532.822C224.377 528.384 224.111 525.257 223.913 523.441C223.53 519.915 223.035 516.817 222.425 514.15C222.275 513.512 222.411 513.087 222.833 512.873C222.97 512.803 223.135 512.755 223.326 512.73C224.11 512.628 224.672 512.903 225.014 513.555C227.687 518.744 229.293 521.828 229.831 522.809C231.73 526.29 233.56 529.235 235.323 531.644ZM237.264 507.126C243.673 513.711 248.472 518.82 251.661 522.452C251.878 522.699 251.982 523.085 251.973 523.609C251.971 524.069 251.896 524.484 251.748 524.855C251.604 525.213 251.373 525.442 251.057 525.542C250.757 525.633 250.406 525.403 250.004 524.853C249.348 523.942 248.394 522.764 247.141 521.32L247.129 521.326C245.605 522.1 244 523.256 242.313 524.794L237.819 528.894L237.893 530.126C237.914 530.349 237.947 530.756 237.991 531.345C238.062 532.206 237.677 532.825 236.838 533.2C236.371 533.406 236.017 533.269 235.774 532.791C235.581 532.41 235.459 531.829 235.41 531.049C234.812 521.311 234.466 513.576 234.371 507.844C234.36 507.239 234.658 506.782 235.266 506.473C235.396 506.407 235.499 506.36 235.576 506.331C236.306 506.062 236.834 506.248 237.159 506.889C237.196 506.962 237.231 507.041 237.264 507.126ZM237.532 524.743C239.229 523.566 241.562 521.495 244.533 518.53C242.906 516.991 240.477 514.675 237.247 511.584C237.144 515.358 237.238 519.744 237.532 524.743ZM250.248 498.81C250.447 498.7 250.64 498.597 250.826 498.502C253.745 497.021 255.838 497.381 257.108 499.581C258.044 501.206 258.14 502.921 257.394 504.727C256.909 505.901 255.883 507.384 254.316 509.178C256.363 510.138 258.174 511.166 259.749 512.263C261.048 513.174 262.665 514.494 264.603 516.223C264.717 516.328 264.811 516.453 264.885 516.599C265.108 517.037 265.136 517.655 264.969 518.453C264.882 518.864 264.72 519.166 264.481 519.358C264.242 519.551 263.914 519.457 263.497 519.077C260.808 516.629 258.4 514.737 256.274 513.399C254.642 512.372 253.084 512.235 251.6 512.988C251.178 513.202 250.765 513.482 250.361 513.83C250.983 515.278 251.638 516.74 252.326 518.216L254.321 522.51C254.63 523.179 254.457 523.863 253.802 524.562C253.697 524.676 253.584 524.764 253.462 524.826C252.935 525.093 252.419 524.647 251.912 523.487C248.771 516.293 246.28 510.238 244.438 505.321C244.19 504.652 244.929 503.466 246.655 501.765C248.111 500.333 249.308 499.349 250.248 498.81ZM248.907 510.363C254.119 506.169 256.219 503.305 255.206 501.77C254.668 500.952 253.662 500.917 252.186 501.665C250.727 502.406 249.161 503.97 247.487 506.358C247.881 507.596 248.354 508.931 248.907 510.363ZM260.018 495.735C260.558 497.663 261.193 499.578 261.924 501.48C262.927 499.921 263.928 498.226 264.925 496.395L267.743 491.219C267.892 490.95 268.055 490.77 268.234 490.68C268.607 490.49 269.045 490.722 269.549 491.373C269.7 491.572 269.828 491.772 269.93 491.975C270.301 492.704 270.286 493.379 269.887 494C268.78 495.734 267.41 497.927 265.779 500.58C268.111 501.741 270.033 502.917 271.544 504.107L277.518 508.799C277.726 508.968 277.866 509.264 277.938 509.687C278.107 510.763 277.936 511.502 277.426 511.903C277.18 512.1 276.844 512.01 276.419 511.635L273.139 508.696C270.339 506.212 268.001 504.708 266.123 504.182C265.362 503.967 264.689 504.007 264.106 504.303C263.814 504.452 263.549 504.662 263.31 504.936C263.409 505.192 264.958 508.626 267.957 515.24C268.286 515.97 268.13 516.686 267.488 517.389C267.383 517.504 267.269 517.592 267.148 517.653C266.669 517.896 266.194 517.551 265.721 516.619C265.655 516.489 265.593 516.358 265.535 516.224C262.226 508.575 259.592 502.149 257.635 496.944C257.42 496.38 257.672 495.722 258.391 494.97C258.545 494.81 258.691 494.696 258.828 494.626C259.21 494.432 259.525 494.583 259.776 495.077C259.863 495.248 259.943 495.467 260.018 495.735ZM282.27 487.687C281.803 487.852 281.319 488.062 280.816 488.317C278.984 489.247 276.895 490.796 274.55 492.965C274.898 494.072 275.458 495.73 276.232 497.937C278.356 496.136 281.365 493.839 285.26 491.048C285.409 490.86 285.557 490.729 285.703 490.655C286.092 490.458 286.455 490.691 286.792 491.356C287.093 491.948 287.241 492.673 287.238 493.531C287.233 494.124 287.098 494.55 286.831 494.808C285.661 495.717 284.123 496.834 282.216 498.158L277.527 501.424C277.799 502.061 278.052 502.61 278.286 503.072C279.294 505.059 280.341 506.097 281.427 506.188C281.704 506.211 282 506.142 282.316 505.982C283.532 505.365 285.151 503.422 287.173 500.154C287.29 499.901 287.433 499.732 287.603 499.645C287.96 499.464 288.437 499.63 289.033 500.143C289.434 500.49 289.716 500.826 289.881 501.15C290.074 501.531 290.096 501.897 289.948 502.248C287.866 505.598 285.949 507.717 284.198 508.605C283.298 509.062 282.441 509.191 281.627 508.993C279.477 508.473 277.649 506.729 276.144 503.762C276.012 503.502 275.845 503.143 275.644 502.685C274.976 501.169 274.189 498.994 273.282 496.162C273.12 495.662 272.859 495.137 272.498 494.587C272.162 494.105 271.824 493.629 271.483 493.159C271.426 493.066 271.371 492.967 271.317 492.862C270.914 492.067 271.161 491.198 272.058 490.253C273.747 488.479 275.122 487.251 276.183 486.57C277.419 485.77 278.971 485.023 280.842 484.329C281.174 484.201 281.561 484.3 282.002 484.627C282.361 484.893 282.652 485.205 282.874 485.561C283.161 486.027 283.261 486.445 283.174 486.816C283.082 487.219 282.781 487.509 282.27 487.687ZM289.321 484.981C287.82 486.181 286.484 487.144 285.313 487.871C284.908 488.117 284.534 488.093 284.191 487.798C283.962 487.588 283.736 487.244 283.514 486.765C282.991 485.614 283.066 484.826 283.738 484.404C285.298 483.439 286.967 482.2 288.747 480.685C289.795 479.776 291.375 478.419 293.486 476.614C293.58 476.536 293.667 476.477 293.748 476.435C294.283 476.164 294.779 476.478 295.235 477.378C295.531 477.962 295.659 478.605 295.618 479.309C295.585 479.866 295.374 480.284 294.985 480.563C294.188 481.141 292.988 482.071 291.385 483.353C292.305 486.291 293.397 489.147 294.662 491.92L298.455 500.21C298.772 500.895 298.603 501.588 297.949 502.287C297.844 502.401 297.726 502.491 297.596 502.557C297.134 502.791 296.681 502.471 296.237 501.595C296.171 501.466 296.109 501.334 296.052 501.2L292.725 493.468C291.695 491.076 290.56 488.246 289.321 484.981ZM301.941 477.493C300.763 478.305 299.653 479 298.611 479.58C298.239 479.789 297.897 479.769 297.587 479.518C297.362 479.337 297.151 479.031 296.953 478.601C296.492 477.592 296.587 476.906 297.24 476.544C298.747 475.718 300.339 474.676 302.015 473.418C303.031 472.648 304.551 471.495 306.575 469.958C306.655 469.897 306.728 469.85 306.793 469.817C307.32 469.549 307.769 469.781 308.139 470.51C308.197 470.624 308.256 470.762 308.318 470.924C308.768 472.092 308.619 472.912 307.869 473.384C307.509 473.618 306.875 474.047 305.968 474.67L304.067 475.986C305.049 479.147 307.082 484.079 310.167 490.782C310.931 490.18 312.194 489.203 313.955 487.851C314.028 487.793 314.105 487.744 314.186 487.703C314.753 487.415 315.271 487.733 315.74 488.657C316.004 489.176 316.131 489.728 316.122 490.314C316.118 491.009 315.897 491.498 315.46 491.781C314.698 492.27 313.063 493.426 310.553 495.25C308.52 496.729 306.846 497.829 305.529 498.548C305.123 498.774 304.747 498.735 304.4 498.433C304.146 498.215 303.915 497.868 303.704 497.394C303.185 496.23 303.272 495.457 303.965 495.075C305.226 494.384 306.599 493.484 308.084 492.373C305.64 486.753 303.593 481.793 301.941 477.493ZM315.797 478.521L320.357 488.593C320.678 489.307 320.516 490.022 319.869 490.737C319.752 490.868 319.641 490.96 319.536 491.013C319.074 491.248 318.612 490.911 318.152 490.003C318.073 489.849 318.008 489.709 317.954 489.583L314.065 480.471C312.898 477.729 311.553 474.334 310.029 470.285C309.818 469.73 310.068 469.078 310.779 468.329C310.933 468.17 311.075 468.057 311.204 467.992C311.577 467.802 311.887 467.951 312.134 468.437C312.22 468.608 312.301 468.827 312.376 469.095C312.72 470.337 313.352 471.662 314.271 473.072C315.555 475.04 317.393 477.207 319.786 479.571C322.939 482.691 325.19 483.985 326.541 483.453C327.705 482.995 327.13 480.483 324.814 475.919C323.572 473.471 321.742 470.367 319.326 466.608C318.626 465.23 318.609 464.372 319.274 464.035C319.347 463.998 319.41 463.971 319.462 463.955C320.246 463.71 320.886 463.977 321.382 464.755C323.249 467.712 324.748 470.305 325.88 472.534C326.772 474.294 327.487 475.914 328.024 477.394C329.322 480.977 329.725 483.54 329.234 485.084C329.047 485.678 328.726 486.091 328.272 486.321C327.55 486.687 326.501 486.598 325.123 486.053C322.866 485.16 319.757 482.649 315.797 478.521ZM334.244 456.624C334.948 456.062 335.599 455.819 336.197 455.892C336.535 455.935 337.214 457.002 338.235 459.094C339.19 461.057 339.672 462.198 339.682 462.519C339.707 463.353 339.438 463.897 338.874 464.152C338.432 464.346 338.098 464.22 337.872 463.774C337.814 463.661 337.763 463.519 337.717 463.348C337.518 462.613 337.054 461.88 336.326 461.149C335.68 460.498 335.178 460.263 334.821 460.444C333.962 460.88 333.119 461.93 332.291 463.593C331.616 464.935 331.141 466.231 330.868 467.48C330.238 470.318 330.285 473.001 331.007 475.529C331.177 476.126 331.375 476.647 331.601 477.093C332.284 478.439 333.259 479.275 334.525 479.601C335.148 479.764 335.837 479.654 336.591 479.272C337.847 478.634 339.282 477.203 340.895 474.978C341.771 473.769 342.33 472.44 342.573 470.991C342.664 470.446 342.629 470.015 342.468 469.699C342.415 469.594 342.366 469.517 342.321 469.468C342.03 469.137 341.362 469.256 340.316 469.828C339.567 470.239 338.856 470.767 338.185 471.414C337.364 472.207 336.903 472.936 336.801 473.599C336.75 473.941 336.652 474.149 336.506 474.223C336.295 474.33 335.985 474.12 335.575 473.594C335.371 473.331 335.202 473.07 335.071 472.81C334.326 471.343 334.661 469.893 336.076 468.462C336.961 467.575 337.959 466.87 339.07 466.347C341.097 465.4 342.605 465.206 343.592 465.765C344.191 466.103 344.648 466.58 344.96 467.196C345.158 467.586 345.296 468.02 345.376 468.499C345.583 469.77 345.48 471.204 345.066 472.8C344.664 474.319 344.072 475.634 343.29 476.744C341.448 479.361 339.614 481.132 337.79 482.058C335.228 483.358 333.037 483.078 331.217 481.218C330.538 480.523 329.952 479.689 329.458 478.716C328.557 476.94 328.019 474.854 327.842 472.456C327.55 468.486 328.364 464.755 330.283 461.263C331.244 459.522 332.565 457.975 334.244 456.624Z"/>
</mask>
<path d="M235.323 531.644C235.458 531.83 235.565 532 235.643 532.154C235.947 532.754 235.864 533.173 235.394 533.412C235.272 533.474 235.153 533.519 235.035 533.548C234.077 533.79 233.442 533.653 233.13 533.139C230.921 529.529 228.551 525.41 226.02 520.782C226.206 524.082 226.375 526.555 226.527 528.201C226.778 530.928 227.106 533.381 227.509 535.562C227.69 536.541 227.43 537.295 226.729 537.823C226.648 537.885 226.543 537.948 226.413 538.014C225.854 538.298 225.379 538.136 224.99 537.529C222.298 533.288 219.659 529.453 217.073 526.024C217.541 528.111 218.043 530.467 218.579 533.09L219.96 539.821C220.215 541.067 220.116 541.806 219.662 542.036C219.508 542.114 219.319 542.134 219.095 542.094C218.403 541.976 217.929 541.666 217.674 541.163C217.596 541.009 217.538 540.835 217.501 540.64L215.467 529.76C214.774 526.044 213.843 522.47 212.672 519.037C212.583 518.42 212.717 518.02 213.074 517.839C213.244 517.753 213.465 517.717 213.738 517.732C214.551 517.768 215.128 518.061 215.469 518.612L219.907 525.703C221.627 528.449 223.229 530.822 224.712 532.822C224.377 528.384 224.111 525.257 223.913 523.441C223.53 519.915 223.035 516.817 222.425 514.15C222.275 513.512 222.411 513.087 222.833 512.873C222.97 512.803 223.135 512.755 223.326 512.73C224.11 512.628 224.672 512.903 225.014 513.555C227.687 518.744 229.293 521.828 229.831 522.809C231.73 526.29 233.56 529.235 235.323 531.644ZM237.264 507.126C243.673 513.711 248.472 518.82 251.661 522.452C251.878 522.699 251.982 523.085 251.973 523.609C251.971 524.069 251.896 524.484 251.748 524.855C251.604 525.213 251.373 525.442 251.057 525.542C250.757 525.633 250.406 525.403 250.004 524.853C249.348 523.942 248.394 522.764 247.141 521.32L247.129 521.326C245.605 522.1 244 523.256 242.313 524.794L237.819 528.894L237.893 530.126C237.914 530.349 237.947 530.756 237.991 531.345C238.062 532.206 237.677 532.825 236.838 533.2C236.371 533.406 236.017 533.269 235.774 532.791C235.581 532.41 235.459 531.829 235.41 531.049C234.812 521.311 234.466 513.576 234.371 507.844C234.36 507.239 234.658 506.782 235.266 506.473C235.396 506.407 235.499 506.36 235.576 506.331C236.306 506.062 236.834 506.248 237.159 506.889C237.196 506.962 237.231 507.041 237.264 507.126ZM237.532 524.743C239.229 523.566 241.562 521.495 244.533 518.53C242.906 516.991 240.477 514.675 237.247 511.584C237.144 515.358 237.238 519.744 237.532 524.743ZM250.248 498.81C250.447 498.7 250.64 498.597 250.826 498.502C253.745 497.021 255.838 497.381 257.108 499.581C258.044 501.206 258.14 502.921 257.394 504.727C256.909 505.901 255.883 507.384 254.316 509.178C256.363 510.138 258.174 511.166 259.749 512.263C261.048 513.174 262.665 514.494 264.603 516.223C264.717 516.328 264.811 516.453 264.885 516.599C265.108 517.037 265.136 517.655 264.969 518.453C264.882 518.864 264.72 519.166 264.481 519.358C264.242 519.551 263.914 519.457 263.497 519.077C260.808 516.629 258.4 514.737 256.274 513.399C254.642 512.372 253.084 512.235 251.6 512.988C251.178 513.202 250.765 513.482 250.361 513.83C250.983 515.278 251.638 516.74 252.326 518.216L254.321 522.51C254.63 523.179 254.457 523.863 253.802 524.562C253.697 524.676 253.584 524.764 253.462 524.826C252.935 525.093 252.419 524.647 251.912 523.487C248.771 516.293 246.28 510.238 244.438 505.321C244.19 504.652 244.929 503.466 246.655 501.765C248.111 500.333 249.308 499.349 250.248 498.81ZM248.907 510.363C254.119 506.169 256.219 503.305 255.206 501.77C254.668 500.952 253.662 500.917 252.186 501.665C250.727 502.406 249.161 503.97 247.487 506.358C247.881 507.596 248.354 508.931 248.907 510.363ZM260.018 495.735C260.558 497.663 261.193 499.578 261.924 501.48C262.927 499.921 263.928 498.226 264.925 496.395L267.743 491.219C267.892 490.95 268.055 490.77 268.234 490.68C268.607 490.49 269.045 490.722 269.549 491.373C269.7 491.572 269.828 491.772 269.93 491.975C270.301 492.704 270.286 493.379 269.887 494C268.78 495.734 267.41 497.927 265.779 500.58C268.111 501.741 270.033 502.917 271.544 504.107L277.518 508.799C277.726 508.968 277.866 509.264 277.938 509.687C278.107 510.763 277.936 511.502 277.426 511.903C277.18 512.1 276.844 512.01 276.419 511.635L273.139 508.696C270.339 506.212 268.001 504.708 266.123 504.182C265.362 503.967 264.689 504.007 264.106 504.303C263.814 504.452 263.549 504.662 263.31 504.936C263.409 505.192 264.958 508.626 267.957 515.24C268.286 515.97 268.13 516.686 267.488 517.389C267.383 517.504 267.269 517.592 267.148 517.653C266.669 517.896 266.194 517.551 265.721 516.619C265.655 516.489 265.593 516.358 265.535 516.224C262.226 508.575 259.592 502.149 257.635 496.944C257.42 496.38 257.672 495.722 258.391 494.97C258.545 494.81 258.691 494.696 258.828 494.626C259.21 494.432 259.525 494.583 259.776 495.077C259.863 495.248 259.943 495.467 260.018 495.735ZM282.27 487.687C281.803 487.852 281.319 488.062 280.816 488.317C278.984 489.247 276.895 490.796 274.55 492.965C274.898 494.072 275.458 495.73 276.232 497.937C278.356 496.136 281.365 493.839 285.26 491.048C285.409 490.86 285.557 490.729 285.703 490.655C286.092 490.458 286.455 490.691 286.792 491.356C287.093 491.948 287.241 492.673 287.238 493.531C287.233 494.124 287.098 494.55 286.831 494.808C285.661 495.717 284.123 496.834 282.216 498.158L277.527 501.424C277.799 502.061 278.052 502.61 278.286 503.072C279.294 505.059 280.341 506.097 281.427 506.188C281.704 506.211 282 506.142 282.316 505.982C283.532 505.365 285.151 503.422 287.173 500.154C287.29 499.901 287.433 499.732 287.603 499.645C287.96 499.464 288.437 499.63 289.033 500.143C289.434 500.49 289.716 500.826 289.881 501.15C290.074 501.531 290.096 501.897 289.948 502.248C287.866 505.598 285.949 507.717 284.198 508.605C283.298 509.062 282.441 509.191 281.627 508.993C279.477 508.473 277.649 506.729 276.144 503.762C276.012 503.502 275.845 503.143 275.644 502.685C274.976 501.169 274.189 498.994 273.282 496.162C273.12 495.662 272.859 495.137 272.498 494.587C272.162 494.105 271.824 493.629 271.483 493.159C271.426 493.066 271.371 492.967 271.317 492.862C270.914 492.067 271.161 491.198 272.058 490.253C273.747 488.479 275.122 487.251 276.183 486.57C277.419 485.77 278.971 485.023 280.842 484.329C281.174 484.201 281.561 484.3 282.002 484.627C282.361 484.893 282.652 485.205 282.874 485.561C283.161 486.027 283.261 486.445 283.174 486.816C283.082 487.219 282.781 487.509 282.27 487.687ZM289.321 484.981C287.82 486.181 286.484 487.144 285.313 487.871C284.908 488.117 284.534 488.093 284.191 487.798C283.962 487.588 283.736 487.244 283.514 486.765C282.991 485.614 283.066 484.826 283.738 484.404C285.298 483.439 286.967 482.2 288.747 480.685C289.795 479.776 291.375 478.419 293.486 476.614C293.58 476.536 293.667 476.477 293.748 476.435C294.283 476.164 294.779 476.478 295.235 477.378C295.531 477.962 295.659 478.605 295.618 479.309C295.585 479.866 295.374 480.284 294.985 480.563C294.188 481.141 292.988 482.071 291.385 483.353C292.305 486.291 293.397 489.147 294.662 491.92L298.455 500.21C298.772 500.895 298.603 501.588 297.949 502.287C297.844 502.401 297.726 502.491 297.596 502.557C297.134 502.791 296.681 502.471 296.237 501.595C296.171 501.466 296.109 501.334 296.052 501.2L292.725 493.468C291.695 491.076 290.56 488.246 289.321 484.981ZM301.941 477.493C300.763 478.305 299.653 479 298.611 479.58C298.239 479.789 297.897 479.769 297.587 479.518C297.362 479.337 297.151 479.031 296.953 478.601C296.492 477.592 296.587 476.906 297.24 476.544C298.747 475.718 300.339 474.676 302.015 473.418C303.031 472.648 304.551 471.495 306.575 469.958C306.655 469.897 306.728 469.85 306.793 469.817C307.32 469.549 307.769 469.781 308.139 470.51C308.197 470.624 308.256 470.762 308.318 470.924C308.768 472.092 308.619 472.912 307.869 473.384C307.509 473.618 306.875 474.047 305.968 474.67L304.067 475.986C305.049 479.147 307.082 484.079 310.167 490.782C310.931 490.18 312.194 489.203 313.955 487.851C314.028 487.793 314.105 487.744 314.186 487.703C314.753 487.415 315.271 487.733 315.74 488.657C316.004 489.176 316.131 489.728 316.122 490.314C316.118 491.009 315.897 491.498 315.46 491.781C314.698 492.27 313.063 493.426 310.553 495.25C308.52 496.729 306.846 497.829 305.529 498.548C305.123 498.774 304.747 498.735 304.4 498.433C304.146 498.215 303.915 497.868 303.704 497.394C303.185 496.23 303.272 495.457 303.965 495.075C305.226 494.384 306.599 493.484 308.084 492.373C305.64 486.753 303.593 481.793 301.941 477.493ZM315.797 478.521L320.357 488.593C320.678 489.307 320.516 490.022 319.869 490.737C319.752 490.868 319.641 490.96 319.536 491.013C319.074 491.248 318.612 490.911 318.152 490.003C318.073 489.849 318.008 489.709 317.954 489.583L314.065 480.471C312.898 477.729 311.553 474.334 310.029 470.285C309.818 469.73 310.068 469.078 310.779 468.329C310.933 468.17 311.075 468.057 311.204 467.992C311.577 467.802 311.887 467.951 312.134 468.437C312.22 468.608 312.301 468.827 312.376 469.095C312.72 470.337 313.352 471.662 314.271 473.072C315.555 475.04 317.393 477.207 319.786 479.571C322.939 482.691 325.19 483.985 326.541 483.453C327.705 482.995 327.13 480.483 324.814 475.919C323.572 473.471 321.742 470.367 319.326 466.608C318.626 465.23 318.609 464.372 319.274 464.035C319.347 463.998 319.41 463.971 319.462 463.955C320.246 463.71 320.886 463.977 321.382 464.755C323.249 467.712 324.748 470.305 325.88 472.534C326.772 474.294 327.487 475.914 328.024 477.394C329.322 480.977 329.725 483.54 329.234 485.084C329.047 485.678 328.726 486.091 328.272 486.321C327.55 486.687 326.501 486.598 325.123 486.053C322.866 485.16 319.757 482.649 315.797 478.521ZM334.244 456.624C334.948 456.062 335.599 455.819 336.197 455.892C336.535 455.935 337.214 457.002 338.235 459.094C339.19 461.057 339.672 462.198 339.682 462.519C339.707 463.353 339.438 463.897 338.874 464.152C338.432 464.346 338.098 464.22 337.872 463.774C337.814 463.661 337.763 463.519 337.717 463.348C337.518 462.613 337.054 461.88 336.326 461.149C335.68 460.498 335.178 460.263 334.821 460.444C333.962 460.88 333.119 461.93 332.291 463.593C331.616 464.935 331.141 466.231 330.868 467.48C330.238 470.318 330.285 473.001 331.007 475.529C331.177 476.126 331.375 476.647 331.601 477.093C332.284 478.439 333.259 479.275 334.525 479.601C335.148 479.764 335.837 479.654 336.591 479.272C337.847 478.634 339.282 477.203 340.895 474.978C341.771 473.769 342.33 472.44 342.573 470.991C342.664 470.446 342.629 470.015 342.468 469.699C342.415 469.594 342.366 469.517 342.321 469.468C342.03 469.137 341.362 469.256 340.316 469.828C339.567 470.239 338.856 470.767 338.185 471.414C337.364 472.207 336.903 472.936 336.801 473.599C336.75 473.941 336.652 474.149 336.506 474.223C336.295 474.33 335.985 474.12 335.575 473.594C335.371 473.331 335.202 473.07 335.071 472.81C334.326 471.343 334.661 469.893 336.076 468.462C336.961 467.575 337.959 466.87 339.07 466.347C341.097 465.4 342.605 465.206 343.592 465.765C344.191 466.103 344.648 466.58 344.96 467.196C345.158 467.586 345.296 468.02 345.376 468.499C345.583 469.77 345.48 471.204 345.066 472.8C344.664 474.319 344.072 475.634 343.29 476.744C341.448 479.361 339.614 481.132 337.79 482.058C335.228 483.358 333.037 483.078 331.217 481.218C330.538 480.523 329.952 479.689 329.458 478.716C328.557 476.94 328.019 474.854 327.842 472.456C327.55 468.486 328.364 464.755 330.283 461.263C331.244 459.522 332.565 457.975 334.244 456.624Z" fill="#E83A3B"/>
<path d="M235.323 531.644L235.484 531.526L235.484 531.526L235.323 531.644ZM235.035 533.548L234.987 533.354L234.986 533.354L235.035 533.548ZM233.13 533.139L233.301 533.035L233.3 533.034L233.13 533.139ZM226.02 520.782L226.195 520.686L225.82 520.793L226.02 520.782ZM226.527 528.201L226.328 528.219L226.328 528.219L226.527 528.201ZM227.509 535.562L227.706 535.526L227.706 535.526L227.509 535.562ZM226.729 537.823L226.609 537.664L226.608 537.664L226.729 537.823ZM224.99 537.529L224.821 537.636L224.821 537.637L224.99 537.529ZM217.073 526.024L217.233 525.904L216.878 526.068L217.073 526.024ZM218.579 533.09L218.383 533.13L218.383 533.13L218.579 533.09ZM219.96 539.821L220.156 539.78L220.156 539.78L219.96 539.821ZM219.095 542.094L219.129 541.897L219.128 541.897L219.095 542.094ZM217.501 540.64L217.304 540.677L217.304 540.678L217.501 540.64ZM215.467 529.76L215.27 529.797L215.27 529.797L215.467 529.76ZM212.672 519.037L212.474 519.065L212.477 519.084L212.483 519.102L212.672 519.037ZM213.738 517.732L213.727 517.931L213.729 517.932L213.738 517.732ZM215.469 518.612L215.299 518.717L215.299 518.718L215.469 518.612ZM219.907 525.703L219.738 525.809L219.738 525.809L219.907 525.703ZM224.712 532.822L224.551 532.941L224.964 533.497L224.911 532.807L224.712 532.822ZM223.913 523.441L223.714 523.463L223.714 523.463L223.913 523.441ZM222.425 514.15L222.62 514.105L222.62 514.104L222.425 514.15ZM223.326 512.73L223.3 512.531L223.299 512.531L223.326 512.73ZM225.014 513.555L225.192 513.464L225.191 513.463L225.014 513.555ZM229.831 522.809L230.006 522.713L230.006 522.713L229.831 522.809ZM235.161 531.761C235.292 531.942 235.392 532.103 235.464 532.245L235.821 532.064C235.737 531.898 235.624 531.719 235.484 531.526L235.161 531.761ZM235.464 532.245C235.607 532.526 235.642 532.733 235.613 532.88C235.586 533.015 235.498 533.135 235.303 533.234L235.484 533.59C235.76 533.45 235.949 533.241 236.005 532.957C236.059 532.685 235.983 532.382 235.821 532.064L235.464 532.245ZM235.303 533.234C235.194 533.289 235.088 533.329 234.987 533.354L235.083 533.742C235.217 533.709 235.351 533.658 235.484 533.59L235.303 533.234ZM234.986 533.354C234.523 533.471 234.158 533.491 233.882 533.431C233.614 533.374 233.426 533.241 233.301 533.035L232.959 533.242C233.146 533.551 233.431 533.744 233.798 533.822C234.157 533.9 234.589 533.867 235.084 533.742L234.986 533.354ZM233.3 533.034C231.094 529.428 228.726 525.312 226.195 520.686L225.844 520.878C228.377 525.508 230.749 529.63 232.959 533.243L233.3 533.034ZM225.82 520.793C226.006 524.094 226.175 526.57 226.328 528.219L226.726 528.183C226.574 526.541 226.405 524.071 226.219 520.771L225.82 520.793ZM226.328 528.219C226.58 530.951 226.908 533.411 227.312 535.599L227.706 535.526C227.304 533.352 226.977 530.905 226.726 528.183L226.328 528.219ZM227.312 535.599C227.398 536.062 227.377 536.459 227.26 536.796C227.145 537.132 226.931 537.421 226.609 537.664L226.85 537.983C227.228 537.697 227.494 537.345 227.639 536.927C227.782 536.51 227.801 536.041 227.706 535.526L227.312 535.599ZM226.608 537.664C226.54 537.716 226.446 537.773 226.323 537.836L226.504 538.192C226.64 538.123 226.757 538.054 226.85 537.983L226.608 537.664ZM226.323 537.836C226.079 537.96 225.877 537.976 225.702 537.916C225.523 537.855 225.339 537.703 225.158 537.421L224.821 537.637C225.03 537.962 225.278 538.194 225.573 538.295C225.874 538.397 226.189 538.352 226.504 538.192L226.323 537.836ZM225.158 537.421C222.464 533.177 219.822 529.337 217.233 525.904L216.914 526.145C219.496 529.568 222.131 533.399 224.821 537.636L225.158 537.421ZM216.878 526.068C217.346 528.154 217.847 530.508 218.383 533.13L218.774 533.05C218.238 530.426 217.737 528.069 217.269 525.981L216.878 526.068ZM218.383 533.13L219.764 539.861L220.156 539.78L218.774 533.05L218.383 533.13ZM219.764 539.861C219.89 540.475 219.924 540.946 219.878 541.283C219.833 541.619 219.715 541.784 219.571 541.858L219.752 542.214C220.062 542.057 220.221 541.738 220.275 541.336C220.329 540.934 220.285 540.412 220.156 539.78L219.764 539.861ZM219.571 541.858C219.466 541.911 219.324 541.931 219.129 541.897L219.06 542.291C219.313 542.336 219.549 542.317 219.752 542.214L219.571 541.858ZM219.128 541.897C218.482 541.787 218.072 541.505 217.853 541.073L217.496 541.254C217.787 541.827 218.324 542.166 219.061 542.291L219.128 541.897ZM217.853 541.073C217.784 540.938 217.732 540.781 217.697 540.602L217.304 540.678C217.345 540.888 217.408 541.081 217.496 541.254L217.853 541.073ZM217.697 540.603L215.664 529.723L215.27 529.797L217.304 540.677L217.697 540.603ZM215.664 529.723C214.969 525.998 214.035 522.415 212.861 518.972L212.483 519.102C213.65 522.525 214.58 526.09 215.27 529.797L215.664 529.723ZM212.87 519.008C212.785 518.42 212.924 518.139 213.164 518.018L212.983 517.661C212.51 517.901 212.381 518.419 212.474 519.065L212.87 519.008ZM213.164 518.018C213.293 517.953 213.475 517.918 213.727 517.931L213.749 517.532C213.455 517.516 213.195 517.553 212.983 517.661L213.164 518.018ZM213.729 517.932C214.495 517.965 215.002 518.237 215.299 518.717L215.639 518.507C215.254 517.885 214.607 517.57 213.747 517.532L213.729 517.932ZM215.299 518.718L219.738 525.809L220.077 525.597L215.638 518.506L215.299 518.718ZM219.738 525.809C221.459 528.559 223.064 530.936 224.551 532.941L224.873 532.703C223.393 530.708 221.794 528.34 220.077 525.597L219.738 525.809ZM224.911 532.807C224.576 528.369 224.31 525.239 224.112 523.42L223.714 523.463C223.911 525.275 224.178 528.399 224.513 532.837L224.911 532.807ZM224.112 523.42C223.729 519.887 223.232 516.782 222.62 514.105L222.23 514.194C222.837 516.852 223.332 519.942 223.714 523.463L224.112 523.42ZM222.62 514.104C222.55 513.805 222.552 513.579 222.605 513.413C222.656 513.255 222.757 513.135 222.923 513.051L222.742 512.694C222.487 512.824 222.309 513.025 222.224 513.292C222.141 513.552 222.151 513.857 222.231 514.196L222.62 514.104ZM222.923 513.051C223.037 512.994 223.178 512.951 223.352 512.928L223.299 512.531C223.091 512.559 222.904 512.612 222.742 512.694L222.923 513.051ZM223.352 512.928C223.715 512.881 224.01 512.923 224.248 513.039C224.485 513.155 224.682 513.353 224.837 513.648L225.191 513.463C225.004 513.105 224.75 512.839 224.424 512.68C224.099 512.521 223.721 512.477 223.3 512.531L223.352 512.928ZM224.836 513.647C227.508 518.834 229.116 521.921 229.656 522.905L230.006 522.713C229.469 521.735 227.865 518.653 225.192 513.464L224.836 513.647ZM229.655 522.905C231.557 526.391 233.392 529.344 235.161 531.762L235.484 531.526C233.728 529.126 231.902 526.189 230.006 522.713L229.655 522.905ZM237.264 507.126L237.078 507.198L237.092 507.236L237.121 507.266L237.264 507.126ZM251.661 522.452L251.511 522.584L251.511 522.585L251.661 522.452ZM251.973 523.609L251.773 523.606L251.773 523.609L251.973 523.609ZM251.748 524.855L251.934 524.929L251.934 524.929L251.748 524.855ZM251.057 525.542L251.115 525.733L251.117 525.733L251.057 525.542ZM250.004 524.853L249.842 524.97L249.842 524.971L250.004 524.853ZM247.141 521.32L247.292 521.189L247.19 521.071L247.051 521.142L247.141 521.32ZM242.313 524.794L242.448 524.942L242.448 524.942L242.313 524.794ZM237.819 528.894L237.684 528.747L237.613 528.811L237.619 528.906L237.819 528.894ZM237.893 530.126L237.693 530.138L237.694 530.145L237.893 530.126ZM237.991 531.345L237.792 531.36L237.792 531.361L237.991 531.345ZM236.838 533.2L236.918 533.382L236.919 533.382L236.838 533.2ZM235.41 531.049L235.21 531.061L235.21 531.062L235.41 531.049ZM234.371 507.844L234.571 507.841L234.571 507.84L234.371 507.844ZM235.576 506.331L235.507 506.143L235.506 506.144L235.576 506.331ZM237.532 524.743L237.332 524.755L237.353 525.11L237.646 524.907L237.532 524.743ZM244.533 518.53L244.674 518.672L244.82 518.526L244.671 518.385L244.533 518.53ZM237.247 511.584L237.386 511.44L237.06 511.128L237.048 511.579L237.247 511.584ZM237.121 507.266C243.529 513.85 248.326 518.956 251.511 522.584L251.811 522.321C248.619 518.684 243.817 513.573 237.407 506.987L237.121 507.266ZM251.511 522.585C251.68 522.777 251.781 523.103 251.773 523.606L252.173 523.613C252.182 523.067 252.076 522.621 251.811 522.32L251.511 522.585ZM251.773 523.609C251.771 524.047 251.7 524.436 251.562 524.781L251.934 524.929C252.093 524.531 252.171 524.091 252.173 523.61L251.773 523.609ZM251.563 524.78C251.437 525.093 251.247 525.273 250.997 525.351L251.117 525.733C251.5 525.612 251.771 525.333 251.934 524.929L251.563 524.78ZM250.999 525.35C250.923 525.374 250.822 525.365 250.678 525.271C250.531 525.175 250.36 525.001 250.166 524.735L249.842 524.971C250.05 525.255 250.255 525.472 250.459 525.605C250.666 525.741 250.891 525.801 251.115 525.733L250.999 525.35ZM250.166 524.736C249.505 523.818 248.547 522.635 247.292 521.189L246.99 521.451C248.241 522.894 249.191 524.066 249.842 524.97L250.166 524.736ZM247.051 521.142L247.039 521.148L247.22 521.505L247.232 521.499L247.051 521.142ZM247.039 521.148C245.494 521.932 243.874 523.1 242.179 524.646L242.448 524.942C244.125 523.412 245.716 522.268 247.22 521.505L247.039 521.148ZM242.179 524.646L237.684 528.747L237.953 529.042L242.448 524.942L242.179 524.646ZM237.619 528.906L237.693 530.138L238.092 530.114L238.018 528.882L237.619 528.906ZM237.694 530.145C237.715 530.366 237.748 530.77 237.792 531.36L238.191 531.33C238.147 530.741 238.114 530.332 238.092 530.107L237.694 530.145ZM237.792 531.361C237.824 531.757 237.751 532.083 237.586 532.349C237.419 532.616 237.149 532.841 236.756 533.017L236.919 533.382C237.366 533.183 237.707 532.911 237.925 532.56C238.144 532.208 238.229 531.794 238.191 531.329L237.792 531.361ZM236.757 533.017C236.555 533.106 236.406 533.109 236.294 533.065C236.179 533.021 236.06 532.914 235.952 532.701L235.596 532.882C235.73 533.147 235.911 533.347 236.15 533.439C236.392 533.531 236.654 533.499 236.918 533.382L236.757 533.017ZM235.952 532.701C235.778 532.356 235.658 531.808 235.61 531.036L235.21 531.062C235.26 531.85 235.384 532.464 235.596 532.882L235.952 532.701ZM235.61 531.037C235.012 521.3 234.666 513.569 234.571 507.841L234.171 507.848C234.266 513.584 234.613 521.322 235.21 531.061L235.61 531.037ZM234.571 507.84C234.566 507.573 234.629 507.348 234.754 507.156C234.88 506.964 235.076 506.794 235.356 506.651L235.175 506.295C234.848 506.461 234.591 506.674 234.419 506.938C234.245 507.204 234.165 507.51 234.171 507.848L234.571 507.84ZM235.356 506.651C235.484 506.587 235.58 506.543 235.646 506.518L235.506 506.144C235.419 506.176 235.308 506.228 235.175 506.295L235.356 506.651ZM235.645 506.519C235.984 506.394 236.248 506.385 236.453 506.458C236.656 506.529 236.835 506.691 236.981 506.979L237.337 506.798C237.158 506.446 236.911 506.195 236.586 506.08C236.264 505.967 235.899 505.999 235.507 506.143L235.645 506.519ZM236.981 506.979C237.014 507.046 237.047 507.119 237.078 507.198L237.45 507.054C237.415 506.963 237.378 506.878 237.337 506.798L236.981 506.979ZM237.646 524.907C239.358 523.72 241.702 521.638 244.674 518.672L244.392 518.389C241.423 521.352 239.099 523.412 237.418 524.579L237.646 524.907ZM244.671 518.385C243.044 516.846 240.616 514.531 237.386 511.44L237.109 511.729C240.339 514.82 242.768 517.136 244.396 518.676L244.671 518.385ZM237.048 511.579C236.943 515.359 237.038 519.752 237.332 524.755L237.732 524.731C237.438 519.736 237.344 515.356 237.447 511.59L237.048 511.579ZM250.248 498.81L250.151 498.636L250.149 498.637L250.248 498.81ZM257.108 499.581L257.281 499.482L257.281 499.481L257.108 499.581ZM257.394 504.727L257.579 504.803L257.579 504.803L257.394 504.727ZM254.316 509.178L254.165 509.047L253.991 509.247L254.231 509.36L254.316 509.178ZM259.749 512.263L259.864 512.099L259.864 512.099L259.749 512.263ZM264.603 516.223L264.738 516.075L264.736 516.074L264.603 516.223ZM264.969 518.453L265.165 518.494L265.165 518.494L264.969 518.453ZM264.481 519.358L264.355 519.202L264.355 519.202L264.481 519.358ZM263.497 519.077L263.632 518.929L263.632 518.929L263.497 519.077ZM256.274 513.399L256.167 513.569L256.167 513.569L256.274 513.399ZM250.361 513.83L250.23 513.679L250.119 513.774L250.177 513.909L250.361 513.83ZM252.326 518.216L252.507 518.132L252.507 518.131L252.326 518.216ZM254.321 522.51L254.502 522.426L254.502 522.425L254.321 522.51ZM253.802 524.562L253.656 524.425L253.655 524.427L253.802 524.562ZM251.912 523.487L251.728 523.567L251.728 523.567L251.912 523.487ZM244.438 505.321L244.251 505.391L244.251 505.391L244.438 505.321ZM246.655 501.765L246.515 501.622L246.515 501.622L246.655 501.765ZM248.907 510.363L248.721 510.435L248.82 510.69L249.033 510.519L248.907 510.363ZM255.206 501.77L255.038 501.879L255.039 501.88L255.206 501.77ZM247.487 506.358L247.324 506.244L247.267 506.325L247.297 506.419L247.487 506.358ZM250.346 498.985C250.542 498.875 250.733 498.774 250.916 498.681L250.736 498.324C250.546 498.42 250.352 498.524 250.151 498.636L250.346 498.985ZM250.916 498.681C252.357 497.95 253.564 497.689 254.551 497.859C255.528 498.026 256.323 498.622 256.934 499.681L257.281 499.481C256.623 498.341 255.736 497.656 254.619 497.464C253.512 497.274 252.214 497.574 250.736 498.324L250.916 498.681ZM256.934 499.681C257.838 501.25 257.932 502.9 257.209 504.65L257.579 504.803C258.347 502.943 258.25 501.163 257.281 499.482L256.934 499.681ZM257.209 504.65C256.737 505.793 255.728 507.258 254.165 509.047L254.467 509.31C256.038 507.511 257.081 506.008 257.579 504.803L257.209 504.65ZM254.231 509.36C256.269 510.315 258.07 511.338 259.635 512.427L259.864 512.099C258.277 510.995 256.456 509.961 254.401 508.997L254.231 509.36ZM259.635 512.427C260.924 513.331 262.535 514.646 264.469 516.372L264.736 516.074C262.796 514.343 261.172 513.017 259.864 512.099L259.635 512.427ZM264.467 516.37C264.563 516.458 264.643 516.564 264.707 516.69L265.064 516.509C264.979 516.343 264.871 516.198 264.738 516.076L264.467 516.37ZM264.707 516.69C264.899 517.068 264.936 517.632 264.774 518.412L265.165 518.494C265.335 517.678 265.316 517.006 265.064 516.509L264.707 516.69ZM264.774 518.411C264.693 518.794 264.547 519.048 264.355 519.202L264.606 519.514C264.892 519.283 265.072 518.934 265.165 518.494L264.774 518.411ZM264.355 519.202C264.293 519.253 264.22 519.271 264.111 519.24C263.99 519.205 263.831 519.111 263.632 518.929L263.363 519.225C263.581 519.424 263.794 519.566 264.001 519.625C264.219 519.687 264.43 519.656 264.606 519.514L264.355 519.202ZM263.632 518.929C260.937 516.477 258.52 514.576 256.38 513.23L256.167 513.569C258.28 514.898 260.678 516.782 263.363 519.225L263.632 518.929ZM256.38 513.23C254.7 512.172 253.067 512.019 251.51 512.809L251.691 513.166C253.1 512.451 254.583 512.572 256.167 513.569L256.38 513.23ZM251.51 512.809C251.072 513.031 250.646 513.322 250.23 513.679L250.491 513.982C250.885 513.643 251.285 513.372 251.691 513.166L251.51 512.809ZM250.177 513.909C250.8 515.359 251.456 516.823 252.145 518.3L252.507 518.131C251.82 516.657 251.166 515.197 250.545 513.751L250.177 513.909ZM252.145 518.3L254.14 522.594L254.502 522.425L252.507 518.132L252.145 518.3ZM254.139 522.594C254.275 522.888 254.304 523.18 254.229 523.475C254.153 523.775 253.968 524.092 253.656 524.425L253.948 524.699C254.291 524.333 254.52 523.958 254.617 523.573C254.715 523.185 254.675 522.8 254.502 522.426L254.139 522.594ZM253.655 524.427C253.564 524.526 253.469 524.598 253.372 524.648L253.553 525.004C253.699 524.93 253.831 524.827 253.95 524.697L253.655 524.427ZM253.372 524.648C253.274 524.697 253.186 524.71 253.103 524.696C253.017 524.681 252.92 524.635 252.81 524.54C252.586 524.347 252.345 523.979 252.095 523.407L251.728 523.567C251.985 524.155 252.256 524.59 252.549 524.843C252.698 524.972 252.86 525.06 253.035 525.09C253.213 525.12 253.387 525.088 253.553 525.004L253.372 524.648ZM252.095 523.407C248.956 516.215 246.466 510.163 244.625 505.251L244.251 505.391C246.095 510.313 248.587 516.371 251.728 523.567L252.095 523.407ZM244.626 505.252C244.537 505.012 244.611 504.622 244.976 504.036C245.334 503.463 245.937 502.754 246.796 501.907L246.515 501.622C245.648 502.477 245.019 503.212 244.637 503.824C244.263 504.424 244.092 504.961 244.251 505.391L244.626 505.252ZM246.796 501.908C248.247 500.479 249.43 499.509 250.348 498.984L250.149 498.637C249.186 499.188 247.974 500.187 246.515 501.622L246.796 501.908ZM249.033 510.519C251.643 508.419 253.487 506.641 254.552 505.187C255.085 504.461 255.431 503.804 255.576 503.218C255.722 502.628 255.663 502.1 255.372 501.66L255.039 501.88C255.254 502.207 255.313 502.613 255.188 503.122C255.061 503.637 254.747 504.245 254.23 504.951C253.196 506.362 251.384 508.113 248.782 510.207L249.033 510.519ZM255.373 501.66C255.067 501.195 254.62 500.95 254.055 500.93C253.502 500.911 252.846 501.106 252.096 501.487L252.277 501.844C253.002 501.476 253.586 501.314 254.041 501.33C254.481 501.345 254.807 501.527 255.038 501.879L255.373 501.66ZM252.096 501.487C250.592 502.25 249.003 503.846 247.324 506.244L247.651 506.473C249.318 504.094 250.861 502.562 252.277 501.844L252.096 501.487ZM247.297 506.419C247.692 507.661 248.166 509 248.721 510.435L249.094 510.291C248.542 508.862 248.07 507.531 247.678 506.298L247.297 506.419ZM260.018 495.735L259.825 495.788L259.825 495.789L260.018 495.735ZM261.924 501.48L261.737 501.552L261.879 501.92L262.092 501.589L261.924 501.48ZM264.925 496.395L265.101 496.491L265.101 496.491L264.925 496.395ZM267.743 491.219L267.568 491.122L267.567 491.124L267.743 491.219ZM269.549 491.373L269.708 491.252L269.707 491.251L269.549 491.373ZM269.887 494L269.719 493.892L269.719 493.892L269.887 494ZM265.779 500.58L265.609 500.475L265.494 500.661L265.69 500.759L265.779 500.58ZM271.544 504.107L271.421 504.264L271.421 504.265L271.544 504.107ZM277.518 508.799L277.644 508.644L277.642 508.641L277.518 508.799ZM277.938 509.687L278.136 509.656L278.135 509.653L277.938 509.687ZM277.426 511.903L277.303 511.746L277.302 511.747L277.426 511.903ZM276.419 511.635L276.285 511.784L276.286 511.785L276.419 511.635ZM273.139 508.696L273.272 508.547L273.271 508.547L273.139 508.696ZM266.123 504.182L266.069 504.374L266.069 504.374L266.123 504.182ZM263.31 504.936L263.159 504.805L263.08 504.896L263.124 505.009L263.31 504.936ZM267.957 515.24L268.139 515.158L268.139 515.157L267.957 515.24ZM267.488 517.389L267.635 517.524L267.635 517.524L267.488 517.389ZM265.535 516.224L265.719 516.144L265.719 516.144L265.535 516.224ZM257.635 496.944L257.822 496.874L257.821 496.873L257.635 496.944ZM258.391 494.97L258.247 494.831L258.247 494.831L258.391 494.97ZM259.825 495.789C260.367 497.723 261.004 499.644 261.737 501.552L262.111 501.409C261.382 499.512 260.749 497.603 260.211 495.681L259.825 495.789ZM262.092 501.589C263.098 500.025 264.101 498.326 265.101 496.491L264.749 496.299C263.754 498.127 262.756 499.818 261.756 501.372L262.092 501.589ZM265.101 496.491L267.918 491.315L267.567 491.124L264.749 496.299L265.101 496.491ZM267.918 491.316C268.057 491.064 268.196 490.923 268.324 490.858L268.143 490.501C267.915 490.617 267.726 490.836 267.568 491.122L267.918 491.316ZM268.324 490.858C268.441 490.798 268.575 490.796 268.749 490.888C268.931 490.984 269.146 491.179 269.391 491.496L269.707 491.251C269.448 490.916 269.191 490.669 268.935 490.534C268.671 490.395 268.399 490.372 268.143 490.501L268.324 490.858ZM269.39 491.495C269.535 491.684 269.655 491.874 269.752 492.065L270.109 491.884C270 491.67 269.866 491.459 269.708 491.252L269.39 491.495ZM269.752 492.065C270.094 492.74 270.075 493.338 269.719 493.892L270.056 494.108C270.498 493.42 270.507 492.669 270.109 491.884L269.752 492.065ZM269.719 493.892C268.61 495.628 267.24 497.822 265.609 500.475L265.949 500.684C267.58 498.033 268.949 495.84 270.056 494.107L269.719 493.892ZM265.69 500.759C268.014 501.916 269.923 503.085 271.421 504.264L271.668 503.95C270.143 502.749 268.209 501.566 265.868 500.401L265.69 500.759ZM271.421 504.265L277.394 508.956L277.642 508.641L271.668 503.95L271.421 504.265ZM277.392 508.954C277.546 509.079 277.673 509.319 277.741 509.72L278.135 509.653C278.06 509.21 277.907 508.857 277.644 508.644L277.392 508.954ZM277.74 509.718C277.906 510.773 277.725 511.414 277.303 511.746L277.55 512.06C278.148 511.59 278.308 510.753 278.135 509.656L277.74 509.718ZM277.302 511.747C277.234 511.801 277.155 511.821 277.041 511.79C276.916 511.757 276.753 511.664 276.551 511.485L276.286 511.785C276.509 511.982 276.727 512.121 276.938 512.177C277.16 512.236 277.373 512.202 277.551 512.06L277.302 511.747ZM276.552 511.486L273.272 508.547L273.005 508.845L276.285 511.784L276.552 511.486ZM273.271 508.547C270.466 506.058 268.1 504.528 266.177 503.989L266.069 504.374C267.902 504.887 270.212 506.367 273.006 508.846L273.271 508.547ZM266.178 503.989C265.379 503.764 264.653 503.802 264.015 504.125L264.196 504.482C264.726 504.213 265.345 504.17 266.069 504.374L266.178 503.989ZM264.015 504.125C263.698 504.286 263.413 504.514 263.159 504.805L263.461 505.068C263.684 504.811 263.929 504.617 264.196 504.482L264.015 504.125ZM263.124 505.009C263.226 505.271 264.779 508.715 267.775 515.322L268.139 515.157C265.138 508.538 263.593 505.113 263.497 504.864L263.124 505.009ZM267.774 515.322C267.923 515.652 267.959 515.97 267.891 516.282C267.822 516.597 267.644 516.921 267.34 517.254L267.635 517.524C267.973 517.154 268.194 516.769 268.282 516.367C268.37 515.963 268.32 515.558 268.139 515.158L267.774 515.322ZM267.34 517.254C267.249 517.353 267.155 517.426 267.057 517.475L267.238 517.832C267.384 517.758 267.516 517.654 267.635 517.524L267.34 517.254ZM267.057 517.475C266.968 517.52 266.887 517.535 266.811 517.526C266.733 517.518 266.646 517.485 266.55 517.415C266.35 517.271 266.131 516.985 265.899 516.529L265.542 516.709C265.784 517.185 266.038 517.538 266.315 517.739C266.456 517.841 266.607 517.907 266.768 517.924C266.93 517.942 267.088 517.908 267.238 517.832L267.057 517.475ZM265.899 516.529C265.835 516.403 265.775 516.275 265.719 516.144L265.352 516.303C265.411 516.441 265.475 516.576 265.542 516.709L265.899 516.529ZM265.719 516.144C262.41 508.498 259.778 502.074 257.822 496.874L257.447 497.014C259.407 502.223 262.042 508.653 265.352 516.303L265.719 516.144ZM257.821 496.873C257.65 496.423 257.829 495.847 258.536 495.108L258.247 494.831C257.515 495.597 257.189 496.337 257.448 497.015L257.821 496.873ZM258.535 495.108C258.68 494.959 258.808 494.86 258.919 494.804L258.738 494.447C258.574 494.531 258.41 494.662 258.247 494.831L258.535 495.108ZM258.919 494.804C259.068 494.729 259.176 494.731 259.265 494.774C259.366 494.822 259.482 494.939 259.598 495.168L259.955 494.987C259.82 494.722 259.652 494.516 259.437 494.413C259.211 494.305 258.97 494.329 258.738 494.447L258.919 494.804ZM259.598 495.168C259.676 495.322 259.753 495.528 259.825 495.788L260.211 495.681C260.134 495.406 260.049 495.173 259.955 494.987L259.598 495.168ZM282.27 487.687L282.204 487.498L282.203 487.498L282.27 487.687ZM274.55 492.965L274.414 492.818L274.321 492.904L274.359 493.025L274.55 492.965ZM276.232 497.937L276.043 498.003L276.139 498.278L276.361 498.09L276.232 497.937ZM285.26 491.048L285.376 491.21L285.399 491.194L285.416 491.172L285.26 491.048ZM287.238 493.531L287.438 493.532L287.438 493.531L287.238 493.531ZM286.831 494.808L286.954 494.965L286.962 494.959L286.97 494.951L286.831 494.808ZM282.216 498.158L282.102 497.994L282.101 497.994L282.216 498.158ZM277.527 501.424L277.412 501.26L277.279 501.353L277.343 501.503L277.527 501.424ZM281.427 506.188L281.41 506.388L281.411 506.388L281.427 506.188ZM287.173 500.154L287.343 500.259L287.35 500.249L287.355 500.238L287.173 500.154ZM289.033 500.143L289.164 499.992L289.163 499.991L289.033 500.143ZM289.948 502.248L290.118 502.353L290.126 502.34L290.132 502.326L289.948 502.248ZM281.627 508.993L281.674 508.798L281.674 508.798L281.627 508.993ZM275.644 502.685L275.461 502.766L275.461 502.766L275.644 502.685ZM273.282 496.162L273.472 496.101L273.472 496.1L273.282 496.162ZM272.498 494.587L272.665 494.477L272.662 494.472L272.498 494.587ZM271.483 493.159L271.313 493.264L271.317 493.271L271.321 493.277L271.483 493.159ZM272.058 490.253L271.913 490.115L271.913 490.115L272.058 490.253ZM276.183 486.57L276.291 486.738L276.292 486.738L276.183 486.57ZM280.842 484.329L280.911 484.516L280.913 484.516L280.842 484.329ZM282.002 484.627L281.883 484.788L281.883 484.788L282.002 484.627ZM282.874 485.561L283.044 485.456L283.043 485.455L282.874 485.561ZM283.174 486.816L282.979 486.77L282.979 486.771L283.174 486.816ZM282.203 487.498C281.728 487.667 281.235 487.881 280.726 488.139L280.907 488.496C281.403 488.244 281.879 488.037 282.337 487.875L282.203 487.498ZM280.726 488.139C278.871 489.08 276.766 490.643 274.414 492.818L274.686 493.111C277.024 490.949 279.097 489.414 280.907 488.496L280.726 488.139ZM274.359 493.025C274.708 494.136 275.27 495.796 276.043 498.003L276.42 497.871C275.647 495.664 275.088 494.009 274.741 492.905L274.359 493.025ZM276.361 498.09C278.479 496.294 281.483 494.001 285.376 491.21L285.143 490.885C281.247 493.678 278.232 495.978 276.102 497.785L276.361 498.09ZM285.416 491.172C285.555 490.997 285.682 490.89 285.793 490.833L285.612 490.477C285.431 490.568 285.263 490.723 285.103 490.923L285.416 491.172ZM285.793 490.833C285.925 490.766 286.038 490.772 286.159 490.85C286.296 490.939 286.451 491.126 286.614 491.446L286.971 491.266C286.796 490.922 286.601 490.659 286.375 490.514C286.133 490.358 285.869 490.346 285.612 490.477L285.793 490.833ZM286.614 491.446C286.896 492.003 287.041 492.695 287.038 493.53L287.438 493.531C287.441 492.651 287.289 491.893 286.971 491.266L286.614 491.446ZM287.038 493.529C287.034 494.1 286.902 494.46 286.692 494.664L286.97 494.951C287.293 494.639 287.433 494.148 287.438 493.532L287.038 493.529ZM286.708 494.65C285.542 495.556 284.007 496.671 282.102 497.994L282.33 498.323C284.238 496.997 285.78 495.878 286.954 494.965L286.708 494.65ZM282.101 497.994L277.412 501.26L277.641 501.588L282.33 498.322L282.101 497.994ZM277.343 501.503C277.616 502.142 277.871 502.696 278.108 503.163L278.465 502.982C278.233 502.525 277.981 501.979 277.711 501.345L277.343 501.503ZM278.108 503.163C278.617 504.166 279.142 504.943 279.687 505.483C280.232 506.024 280.806 506.337 281.41 506.388L281.444 505.989C280.962 505.949 280.47 505.697 279.968 505.199C279.466 504.7 278.963 503.965 278.465 502.982L278.108 503.163ZM281.411 506.388C281.733 506.414 282.067 506.333 282.407 506.16L282.226 505.804C281.934 505.952 281.674 506.008 281.444 505.989L281.411 506.388ZM282.407 506.16C283.052 505.833 283.782 505.168 284.596 504.19C285.414 503.209 286.33 501.898 287.343 500.259L287.003 500.049C285.995 501.679 285.09 502.973 284.289 503.934C283.485 504.899 282.797 505.514 282.226 505.804L282.407 506.16ZM287.355 500.238C287.461 500.008 287.578 499.882 287.694 499.824L287.513 499.467C287.287 499.581 287.118 499.795 286.991 500.07L287.355 500.238ZM287.694 499.824C287.812 499.764 287.961 499.753 288.162 499.823C288.368 499.894 288.614 500.046 288.903 500.295L289.163 499.991C288.856 499.727 288.565 499.539 288.294 499.445C288.018 499.349 287.751 499.346 287.513 499.467L287.694 499.824ZM288.902 500.294C289.291 500.631 289.553 500.948 289.702 501.241L290.059 501.06C289.879 500.704 289.576 500.349 289.164 499.992L288.902 500.294ZM289.702 501.241C289.873 501.577 289.886 501.881 289.764 502.17L290.132 502.326C290.307 501.914 290.275 501.486 290.059 501.06L289.702 501.241ZM289.778 502.142C287.699 505.487 285.807 507.565 284.107 508.427L284.288 508.784C286.091 507.869 288.032 505.709 290.118 502.353L289.778 502.142ZM284.107 508.427C283.241 508.867 282.433 508.983 281.674 508.798L281.579 509.187C282.449 509.399 283.355 509.257 284.288 508.784L284.107 508.427ZM281.674 508.798C279.604 508.298 277.815 506.613 276.322 503.671L275.966 503.852C277.484 506.845 279.349 508.647 281.58 509.187L281.674 508.798ZM276.322 503.671C276.193 503.417 276.028 503.062 275.827 502.605L275.461 502.766C275.663 503.225 275.831 503.588 275.966 503.852L276.322 503.671ZM275.827 502.605C275.163 501.098 274.379 498.931 273.472 496.101L273.091 496.223C273.999 499.057 274.789 501.24 275.461 502.766L275.827 502.605ZM273.472 496.1C273.304 495.58 273.034 495.039 272.665 494.477L272.331 494.696C272.684 495.236 272.937 495.745 273.092 496.223L273.472 496.1ZM272.662 494.472C272.325 493.989 271.986 493.513 271.645 493.042L271.321 493.277C271.661 493.745 271.999 494.22 272.334 494.701L272.662 494.472ZM271.654 493.054C271.599 492.966 271.547 492.872 271.495 492.771L271.139 492.952C271.194 493.062 271.253 493.166 271.313 493.264L271.654 493.054ZM271.495 492.771C271.317 492.419 271.282 492.055 271.392 491.668C271.504 491.275 271.768 490.849 272.203 490.391L271.913 490.115C271.451 490.601 271.143 491.082 271.008 491.559C270.871 492.041 270.914 492.509 271.139 492.952L271.495 492.771ZM272.203 490.391C273.889 488.62 275.251 487.406 276.291 486.738L276.075 486.402C274.993 487.096 273.605 488.338 271.913 490.115L272.203 490.391ZM276.292 486.738C277.512 485.948 279.05 485.207 280.911 484.516L280.772 484.141C278.893 484.839 277.326 485.592 276.075 486.402L276.292 486.738ZM280.913 484.516C281.153 484.423 281.466 484.478 281.883 484.788L282.121 484.466C281.657 484.122 281.196 483.978 280.77 484.142L280.913 484.516ZM281.883 484.788C282.223 485.04 282.496 485.333 282.704 485.667L283.043 485.455C282.808 485.076 282.499 484.747 282.121 484.466L281.883 484.788ZM282.703 485.666C282.975 486.107 283.05 486.47 282.979 486.77L283.368 486.861C283.472 486.42 283.347 485.947 283.044 485.456L282.703 485.666ZM282.979 486.771C282.907 487.086 282.673 487.335 282.204 487.498L282.336 487.876C282.889 487.683 283.258 487.351 283.369 486.86L282.979 486.771ZM289.321 484.981L289.508 484.91L289.411 484.653L289.197 484.825L289.321 484.981ZM285.313 487.871L285.417 488.042L285.419 488.041L285.313 487.871ZM284.191 487.798L284.056 487.945L284.061 487.95L284.191 487.798ZM283.514 486.765L283.332 486.848L283.333 486.849L283.514 486.765ZM283.738 484.404L283.633 484.234L283.632 484.234L283.738 484.404ZM288.747 480.685L288.877 480.837L288.878 480.836L288.747 480.685ZM293.486 476.614L293.358 476.46L293.357 476.462L293.486 476.614ZM295.618 479.309L295.818 479.321L295.818 479.321L295.618 479.309ZM294.985 480.563L294.869 480.4L294.868 480.401L294.985 480.563ZM291.385 483.353L291.26 483.197L291.154 483.282L291.195 483.412L291.385 483.353ZM294.662 491.92L294.48 492.003L294.48 492.003L294.662 491.92ZM298.455 500.21L298.273 500.293L298.273 500.294L298.455 500.21ZM297.949 502.287L297.803 502.15L297.801 502.151L297.949 502.287ZM296.052 501.2L295.868 501.279L295.868 501.279L296.052 501.2ZM292.725 493.468L292.909 493.389L292.909 493.389L292.725 493.468ZM289.197 484.825C287.699 486.022 286.37 486.98 285.208 487.701L285.419 488.041C286.598 487.309 287.941 486.34 289.446 485.137L289.197 484.825ZM285.21 487.7C285.033 487.807 284.878 487.846 284.742 487.838C284.606 487.829 284.467 487.771 284.321 487.646L284.061 487.95C284.258 488.119 284.477 488.221 284.716 488.237C284.954 488.252 285.189 488.18 285.417 488.042L285.21 487.7ZM284.326 487.651C284.126 487.467 283.913 487.15 283.695 486.681L283.333 486.849C283.559 487.337 283.798 487.709 284.056 487.945L284.326 487.651ZM283.696 486.682C283.441 486.121 283.344 485.674 283.377 485.33C283.408 484.999 283.561 484.752 283.844 484.573L283.632 484.234C283.243 484.479 283.022 484.837 282.979 485.292C282.937 485.736 283.064 486.258 283.332 486.848L283.696 486.682ZM283.843 484.574C285.413 483.603 287.091 482.357 288.877 480.837L288.618 480.533C286.844 482.042 285.182 483.276 283.633 484.234L283.843 484.574ZM288.878 480.836C289.926 479.928 291.505 478.571 293.616 476.766L293.357 476.462C291.245 478.267 289.665 479.625 288.616 480.534L288.878 480.836ZM293.615 476.767C293.7 476.696 293.774 476.646 293.838 476.614L293.657 476.257C293.559 476.307 293.459 476.376 293.358 476.46L293.615 476.767ZM293.838 476.614C294.044 476.509 294.227 476.518 294.414 476.636C294.617 476.765 294.834 477.03 295.057 477.469L295.413 477.288C295.179 476.826 294.921 476.484 294.628 476.299C294.319 476.103 293.986 476.09 293.657 476.257L293.838 476.614ZM295.057 477.469C295.336 478.018 295.457 478.626 295.419 479.297L295.818 479.321C295.861 478.584 295.727 477.905 295.413 477.288L295.057 477.469ZM295.419 479.297C295.388 479.805 295.2 480.163 294.869 480.4L295.102 480.725C295.548 480.405 295.782 479.927 295.818 479.321L295.419 479.297ZM294.868 480.401C294.066 480.982 292.863 481.914 291.26 483.197L291.51 483.509C293.112 482.227 294.309 481.3 295.103 480.725L294.868 480.401ZM291.195 483.412C292.117 486.358 293.212 489.222 294.48 492.003L294.844 491.837C293.583 489.071 292.494 486.223 291.576 483.293L291.195 483.412ZM294.48 492.003L298.273 500.293L298.637 500.127L294.844 491.837L294.48 492.003ZM298.273 500.294C298.414 500.598 298.445 500.896 298.372 501.196C298.298 501.499 298.114 501.817 297.803 502.15L298.095 502.423C298.438 502.057 298.666 501.68 298.76 501.291C298.856 500.898 298.813 500.507 298.636 500.126L298.273 500.294ZM297.801 502.151C297.711 502.249 297.613 502.324 297.506 502.379L297.687 502.735C297.839 502.658 297.976 502.553 298.096 502.422L297.801 502.151ZM297.506 502.379C297.42 502.422 297.342 502.436 297.27 502.43C297.197 502.423 297.116 502.393 297.026 502.329C296.839 502.197 296.632 501.933 296.415 501.505L296.059 501.686C296.286 502.133 296.528 502.467 296.795 502.656C296.93 502.752 297.077 502.813 297.233 502.828C297.39 502.843 297.542 502.809 297.687 502.735L297.506 502.379ZM296.415 501.505C296.351 501.379 296.291 501.251 296.235 501.121L295.868 501.279C295.927 501.417 295.991 501.552 296.059 501.686L296.415 501.505ZM296.235 501.121L292.909 493.389L292.542 493.547L295.868 501.279L296.235 501.121ZM292.909 493.389C291.88 491 290.747 488.174 289.508 484.91L289.134 485.052C290.374 488.319 291.51 491.151 292.542 493.547L292.909 493.389ZM301.941 477.493L302.128 477.421L302.037 477.184L301.828 477.328L301.941 477.493ZM298.611 479.58L298.514 479.405L298.513 479.405L298.611 479.58ZM297.587 479.518L297.461 479.674L297.461 479.674L297.587 479.518ZM296.953 478.601L296.771 478.684L296.771 478.685L296.953 478.601ZM297.24 476.544L297.144 476.369L297.143 476.37L297.24 476.544ZM302.015 473.418L302.135 473.578L302.136 473.578L302.015 473.418ZM306.575 469.958L306.695 470.118L306.695 470.118L306.575 469.958ZM308.318 470.924L308.131 470.995L308.132 470.996L308.318 470.924ZM307.869 473.384L307.763 473.215L307.76 473.216L307.869 473.384ZM305.968 474.67L305.855 474.505L305.854 474.505L305.968 474.67ZM304.067 475.986L303.953 475.822L303.832 475.905L303.876 476.045L304.067 475.986ZM310.167 490.782L309.985 490.865L310.091 491.096L310.29 490.939L310.167 490.782ZM313.955 487.851L314.077 488.009L314.079 488.008L313.955 487.851ZM316.122 490.314L315.922 490.311L315.922 490.313L316.122 490.314ZM315.46 491.781L315.568 491.95L315.569 491.949L315.46 491.781ZM310.553 495.25L310.435 495.088L310.435 495.088L310.553 495.25ZM305.529 498.548L305.433 498.372L305.431 498.373L305.529 498.548ZM304.4 498.433L304.531 498.282L304.53 498.281L304.4 498.433ZM303.704 497.394L303.887 497.313L303.887 497.312L303.704 497.394ZM303.965 495.075L303.869 494.899L303.869 494.9L303.965 495.075ZM308.084 492.373L308.204 492.534L308.331 492.439L308.268 492.294L308.084 492.373ZM301.828 477.328C300.654 478.137 299.549 478.829 298.514 479.405L298.709 479.754C299.757 479.171 300.872 478.472 302.055 477.657L301.828 477.328ZM298.513 479.405C298.352 479.496 298.211 479.529 298.087 479.522C297.965 479.514 297.84 479.466 297.712 479.363L297.461 479.674C297.643 479.821 297.845 479.908 298.064 479.921C298.281 479.934 298.498 479.873 298.709 479.754L298.513 479.405ZM297.712 479.363C297.522 479.209 297.327 478.935 297.135 478.518L296.771 478.685C296.975 479.127 297.202 479.464 297.461 479.674L297.712 479.363ZM297.135 478.518C296.911 478.029 296.837 477.646 296.877 477.357C296.915 477.082 297.061 476.872 297.337 476.719L297.143 476.37C296.767 476.578 296.538 476.892 296.481 477.302C296.425 477.699 296.533 478.164 296.771 478.684L297.135 478.518ZM297.336 476.72C298.853 475.888 300.453 474.841 302.135 473.578L301.895 473.258C300.225 474.512 298.641 475.548 297.144 476.369L297.336 476.72ZM302.136 473.578C303.152 472.807 304.672 471.654 306.695 470.118L306.454 469.799C304.43 471.335 302.91 472.489 301.894 473.259L302.136 473.578ZM306.695 470.118C306.77 470.061 306.833 470.021 306.884 469.995L306.703 469.638C306.624 469.678 306.541 469.733 306.454 469.799L306.695 470.118ZM306.884 469.995C307.101 469.885 307.276 469.886 307.433 469.967C307.603 470.055 307.784 470.252 307.961 470.601L308.317 470.42C308.124 470.039 307.895 469.755 307.616 469.612C307.325 469.461 307.012 469.481 306.703 469.638L306.884 469.995ZM307.961 470.601C308.014 470.706 308.071 470.837 308.131 470.995L308.505 470.852C308.441 470.686 308.379 470.541 308.317 470.42L307.961 470.601ZM308.132 470.996C308.35 471.562 308.412 472.019 308.347 472.379C308.283 472.73 308.093 473.007 307.763 473.215L307.976 473.553C308.395 473.29 308.655 472.92 308.74 472.451C308.824 471.991 308.737 471.454 308.505 470.852L308.132 470.996ZM307.76 473.216C307.397 473.452 306.762 473.882 305.855 474.505L306.081 474.835C306.988 474.211 307.62 473.784 307.978 473.552L307.76 473.216ZM305.854 474.505L303.953 475.822L304.181 476.15L306.082 474.834L305.854 474.505ZM303.876 476.045C304.862 479.22 306.9 484.162 309.985 490.865L310.348 490.698C307.264 483.996 305.236 479.075 304.258 475.927L303.876 476.045ZM310.29 490.939C311.054 490.338 312.316 489.361 314.077 488.009L313.833 487.692C312.072 489.044 310.809 490.022 310.043 490.625L310.29 490.939ZM314.079 488.008C314.141 487.958 314.207 487.916 314.276 487.881L314.095 487.525C314.002 487.572 313.914 487.628 313.831 487.693L314.079 488.008ZM314.276 487.881C314.502 487.767 314.699 487.775 314.895 487.896C315.108 488.026 315.334 488.298 315.562 488.748L315.919 488.567C315.678 488.092 315.41 487.743 315.105 487.555C314.783 487.358 314.438 487.351 314.095 487.525L314.276 487.881ZM315.562 488.748C315.81 489.238 315.93 489.758 315.922 490.311L316.322 490.317C316.331 489.699 316.197 489.115 315.919 488.567L315.562 488.748ZM315.922 490.313C315.918 490.966 315.714 491.379 315.351 491.613L315.569 491.949C316.081 491.618 316.318 491.053 316.322 490.315L315.922 490.313ZM315.352 491.613C314.585 492.105 312.944 493.265 310.435 495.088L310.67 495.411C313.181 493.587 314.812 492.434 315.568 491.95L315.352 491.613ZM310.435 495.088C308.406 496.565 306.739 497.659 305.433 498.372L305.624 498.723C306.952 497.998 308.635 496.893 310.67 495.411L310.435 495.088ZM305.431 498.373C305.256 498.471 305.102 498.504 304.963 498.49C304.824 498.475 304.68 498.412 304.531 498.282L304.268 498.583C304.466 498.756 304.684 498.863 304.922 498.888C305.159 498.912 305.396 498.851 305.626 498.723L305.431 498.373ZM304.53 498.281C304.308 498.09 304.091 497.774 303.887 497.313L303.522 497.475C303.738 497.963 303.984 498.339 304.269 498.584L304.53 498.281ZM303.887 497.312C303.634 496.744 303.541 496.299 303.579 495.964C303.615 495.643 303.771 495.41 304.062 495.25L303.869 494.9C303.467 495.122 303.232 495.467 303.182 495.919C303.132 496.357 303.256 496.879 303.522 497.475L303.887 497.312ZM304.061 495.25C305.332 494.554 306.713 493.648 308.204 492.534L307.964 492.213C306.484 493.32 305.119 494.215 303.869 494.899L304.061 495.25ZM308.268 492.294C305.825 486.675 303.778 481.717 302.128 477.421L301.754 477.564C303.407 481.868 305.456 486.831 307.901 492.453L308.268 492.294ZM315.797 478.521L315.942 478.383L315.615 478.604L315.797 478.521ZM320.357 488.593L320.539 488.511L320.539 488.511L320.357 488.593ZM319.869 490.737L319.721 490.603L319.721 490.603L319.869 490.737ZM317.954 489.583L318.138 489.505L318.138 489.505L317.954 489.583ZM314.065 480.471L313.881 480.549L313.881 480.549L314.065 480.471ZM310.029 470.285L310.216 470.215L310.216 470.215L310.029 470.285ZM310.779 468.329L310.635 468.191L310.635 468.192L310.779 468.329ZM312.376 469.095L312.568 469.041L312.568 469.041L312.376 469.095ZM314.271 473.072L314.104 473.181L314.104 473.181L314.271 473.072ZM319.786 479.571L319.926 479.429L319.926 479.429L319.786 479.571ZM326.541 483.453L326.468 483.267L326.468 483.267L326.541 483.453ZM319.326 466.608L319.147 466.699L319.152 466.708L319.157 466.717L319.326 466.608ZM319.462 463.955L319.403 463.764L319.403 463.764L319.462 463.955ZM321.382 464.755L321.551 464.648L321.551 464.647L321.382 464.755ZM328.024 477.394L328.212 477.326L328.212 477.326L328.024 477.394ZM329.234 485.084L329.044 485.023L329.043 485.023L329.234 485.084ZM325.123 486.053L325.05 486.239L325.05 486.239L325.123 486.053ZM315.615 478.604L320.175 488.676L320.539 488.511L315.979 478.439L315.615 478.604ZM320.175 488.676C320.319 488.996 320.352 489.308 320.281 489.62C320.209 489.935 320.028 490.263 319.721 490.603L320.018 490.871C320.357 490.496 320.58 490.108 320.671 489.709C320.763 489.306 320.717 488.905 320.539 488.511L320.175 488.676ZM319.721 490.603C319.613 490.724 319.52 490.797 319.445 490.835L319.626 491.192C319.762 491.123 319.892 491.011 320.018 490.87L319.721 490.603ZM319.445 490.835C319.36 490.878 319.284 490.891 319.211 490.883C319.138 490.875 319.055 490.843 318.961 490.775C318.769 490.635 318.555 490.357 318.33 489.912L317.973 490.093C318.208 490.557 318.456 490.902 318.725 491.098C318.862 491.198 319.01 491.263 319.167 491.281C319.326 491.298 319.48 491.266 319.626 491.192L319.445 490.835ZM318.33 489.912C318.253 489.761 318.189 489.626 318.138 489.505L317.77 489.662C317.826 489.792 317.894 489.936 317.973 490.093L318.33 489.912ZM318.138 489.505L314.248 480.392L313.881 480.549L317.77 489.662L318.138 489.505ZM314.249 480.392C313.083 477.654 311.739 474.262 310.216 470.215L309.841 470.356C311.366 474.406 312.712 477.804 313.881 480.549L314.249 480.392ZM310.216 470.215C310.048 469.773 310.225 469.203 310.924 468.467L310.635 468.192C309.911 468.952 309.588 469.686 309.842 470.356L310.216 470.215ZM310.924 468.468C311.069 468.317 311.193 468.222 311.295 468.17L311.114 467.813C310.957 467.893 310.797 468.023 310.635 468.191L310.924 468.468ZM311.295 468.17C311.439 468.097 311.543 468.1 311.63 468.141C311.728 468.188 311.841 468.302 311.956 468.528L312.312 468.347C312.18 468.086 312.015 467.882 311.803 467.781C311.58 467.674 311.342 467.697 311.114 467.813L311.295 468.17ZM311.956 468.528C312.034 468.682 312.11 468.888 312.183 469.148L312.568 469.041C312.491 468.765 312.407 468.533 312.312 468.347L311.956 468.528ZM312.183 469.148C312.535 470.415 313.177 471.759 314.104 473.181L314.439 472.963C313.528 471.565 312.906 470.258 312.568 469.041L312.183 469.148ZM314.104 473.181C315.398 475.165 317.247 477.343 319.645 479.713L319.926 479.429C317.54 477.071 315.713 474.915 314.439 472.963L314.104 473.181ZM319.645 479.713C321.226 481.278 322.592 482.396 323.74 483.055C324.879 483.71 325.851 483.94 326.615 483.639L326.468 483.267C325.881 483.498 325.052 483.348 323.939 482.708C322.835 482.074 321.498 480.984 319.926 479.429L319.645 479.713ZM326.614 483.639C326.983 483.494 327.201 483.185 327.284 482.763C327.366 482.351 327.324 481.82 327.177 481.181C326.884 479.901 326.152 478.114 324.992 475.829L324.636 476.01C325.792 478.289 326.505 480.04 326.788 481.27C326.929 481.887 326.957 482.355 326.892 482.685C326.828 483.006 326.682 483.183 326.468 483.267L326.614 483.639ZM324.992 475.829C323.746 473.372 321.912 470.262 319.494 466.5L319.157 466.717C321.572 470.473 323.398 473.57 324.636 476.01L324.992 475.829ZM319.504 466.518C319.159 465.837 318.996 465.311 318.988 464.927C318.984 464.739 319.018 464.593 319.079 464.481C319.139 464.371 319.231 464.281 319.364 464.214L319.183 463.857C318.985 463.958 318.829 464.102 318.727 464.29C318.626 464.477 318.583 464.695 318.588 464.935C318.598 465.41 318.793 466.001 319.147 466.699L319.504 466.518ZM319.364 464.214C319.432 464.179 319.484 464.158 319.522 464.146L319.403 463.764C319.336 463.785 319.262 463.817 319.183 463.857L319.364 464.214ZM319.522 464.146C319.877 464.035 320.184 464.044 320.453 464.156C320.724 464.269 320.98 464.497 321.213 464.862L321.551 464.647C321.288 464.235 320.975 463.94 320.607 463.787C320.236 463.632 319.831 463.63 319.403 463.764L319.522 464.146ZM321.213 464.861C323.078 467.815 324.574 470.403 325.701 472.625L326.058 472.444C324.923 470.207 323.421 467.608 321.551 464.648L321.213 464.861ZM325.701 472.625C326.591 474.379 327.302 475.991 327.836 477.463L328.212 477.326C327.672 475.836 326.953 474.209 326.058 472.444L325.701 472.625ZM327.836 477.463C328.482 479.247 328.903 480.77 329.102 482.035C329.302 483.302 329.276 484.293 329.044 485.023L329.425 485.144C329.684 484.33 329.701 483.268 329.497 481.972C329.293 480.674 328.864 479.124 328.212 477.326L327.836 477.463ZM329.043 485.023C328.868 485.579 328.577 485.942 328.181 486.143L328.362 486.499C328.875 486.24 329.225 485.777 329.425 485.144L329.043 485.023ZM328.181 486.143C327.54 486.468 326.562 486.407 325.197 485.867L325.05 486.239C326.44 486.789 327.56 486.906 328.362 486.499L328.181 486.143ZM325.197 485.867C322.984 484.991 319.901 482.51 315.942 478.383L315.653 478.66C319.613 482.787 322.748 485.328 325.05 486.239L325.197 485.867ZM334.244 456.624L334.119 456.467L334.119 456.468L334.244 456.624ZM336.197 455.892L336.223 455.694L336.222 455.694L336.197 455.892ZM338.235 459.094L338.415 459.007L338.415 459.007L338.235 459.094ZM339.682 462.519L339.882 462.513L339.882 462.513L339.682 462.519ZM338.874 464.152L338.955 464.336L338.957 464.335L338.874 464.152ZM337.717 463.348L337.91 463.296L337.91 463.296L337.717 463.348ZM336.326 461.149L336.184 461.289L336.184 461.29L336.326 461.149ZM332.291 463.593L332.469 463.683L332.47 463.682L332.291 463.593ZM330.868 467.48L331.063 467.524L331.064 467.523L330.868 467.48ZM331.007 475.529L331.199 475.475L331.199 475.475L331.007 475.529ZM334.525 479.601L334.576 479.407L334.575 479.407L334.525 479.601ZM340.895 474.978L341.057 475.095L341.057 475.095L340.895 474.978ZM342.573 470.991L342.771 471.025L342.771 471.024L342.573 470.991ZM342.321 469.468L342.17 469.6L342.174 469.604L342.321 469.468ZM340.316 469.828L340.22 469.652L340.22 469.652L340.316 469.828ZM338.185 471.414L338.046 471.27L338.046 471.27L338.185 471.414ZM336.801 473.599L336.604 473.569L336.603 473.569L336.801 473.599ZM335.575 473.594L335.733 473.471L335.733 473.471L335.575 473.594ZM336.076 468.462L335.934 468.321L335.934 468.322L336.076 468.462ZM339.07 466.347L338.985 466.165L338.985 466.166L339.07 466.347ZM343.592 465.765L343.493 465.939L343.494 465.939L343.592 465.765ZM345.376 468.499L345.574 468.467L345.574 468.466L345.376 468.499ZM345.066 472.8L345.259 472.851L345.26 472.85L345.066 472.8ZM343.29 476.744L343.127 476.629L343.127 476.629L343.29 476.744ZM331.217 481.218L331.074 481.358L331.074 481.358L331.217 481.218ZM327.842 472.456L327.643 472.471L327.643 472.471L327.842 472.456ZM330.283 461.263L330.108 461.167L330.108 461.167L330.283 461.263ZM334.369 456.78C335.051 456.236 335.65 456.026 336.173 456.091L336.222 455.694C335.549 455.611 334.845 455.889 334.119 456.467L334.369 456.78ZM336.172 456.091C336.169 456.09 336.186 456.092 336.225 456.12C336.262 456.146 336.309 456.189 336.367 456.252C336.483 456.378 336.624 456.57 336.791 456.832C337.125 457.356 337.546 458.138 338.055 459.182L338.415 459.007C337.903 457.959 337.474 457.161 337.129 456.618C336.956 456.347 336.801 456.133 336.662 455.982C336.593 455.906 336.524 455.842 336.455 455.793C336.389 455.746 336.31 455.705 336.223 455.694L336.172 456.091ZM338.055 459.182C338.532 460.162 338.889 460.934 339.128 461.5C339.248 461.783 339.337 462.012 339.396 462.188C339.458 462.371 339.481 462.478 339.482 462.526L339.882 462.513C339.878 462.4 339.837 462.244 339.775 462.061C339.712 461.871 339.618 461.632 339.497 461.344C339.254 460.769 338.893 459.989 338.415 459.007L338.055 459.182ZM339.482 462.525C339.494 462.921 339.435 463.23 339.32 463.464C339.206 463.694 339.032 463.861 338.792 463.97L338.957 464.335C339.28 464.188 339.523 463.956 339.678 463.641C339.832 463.331 339.895 462.951 339.882 462.513L339.482 462.525ZM338.794 463.969C338.604 464.053 338.466 464.055 338.363 464.016C338.258 463.976 338.15 463.88 338.05 463.684L337.694 463.865C337.82 464.114 337.992 464.303 338.222 464.39C338.453 464.477 338.703 464.446 338.955 464.336L338.794 463.969ZM338.05 463.684C338.001 463.586 337.954 463.458 337.91 463.296L337.524 463.4C337.572 463.579 337.628 463.735 337.694 463.865L338.05 463.684ZM337.91 463.296C337.699 462.518 337.212 461.755 336.468 461.007L336.184 461.29C336.896 462.005 337.336 462.709 337.524 463.4L337.91 463.296ZM336.468 461.008C336.137 460.675 335.831 460.435 335.55 460.303C335.266 460.17 334.983 460.137 334.731 460.266L334.912 460.622C335.016 460.569 335.163 460.563 335.38 460.665C335.6 460.769 335.868 460.971 336.184 461.289L336.468 461.008ZM334.731 460.266C333.811 460.732 332.943 461.832 332.112 463.504L332.47 463.682C333.294 462.027 334.113 461.028 334.912 460.622L334.731 460.266ZM332.112 463.503C331.431 464.857 330.95 466.169 330.673 467.438L331.064 467.523C331.333 466.292 331.801 465.012 332.469 463.683L332.112 463.503ZM330.673 467.437C330.037 470.303 330.082 473.02 330.815 475.584L331.199 475.475C330.487 472.981 330.44 470.332 331.063 467.524L330.673 467.437ZM330.815 475.584C330.987 476.19 331.19 476.724 331.423 477.184L331.78 477.003C331.561 476.571 331.367 476.062 331.199 475.475L330.815 475.584ZM331.423 477.184C332.127 478.572 333.144 479.452 334.475 479.795L334.575 479.407C333.373 479.098 332.441 478.306 331.78 477.003L331.423 477.184ZM334.475 479.794C335.158 479.973 335.897 479.848 336.681 479.45L336.5 479.093C335.776 479.461 335.138 479.555 334.576 479.407L334.475 479.794ZM336.681 479.45C337.982 478.79 339.44 477.326 341.057 475.095L340.733 474.86C339.124 477.08 337.712 478.478 336.5 479.093L336.681 479.45ZM341.057 475.095C341.95 473.862 342.522 472.504 342.771 471.025L342.376 470.958C342.138 472.376 341.591 473.676 340.733 474.86L341.057 475.095ZM342.771 471.024C342.864 470.459 342.834 469.979 342.647 469.609L342.29 469.79C342.423 470.052 342.463 470.434 342.376 470.959L342.771 471.024ZM342.647 469.609C342.59 469.498 342.531 469.401 342.467 469.332L342.174 469.604C342.2 469.633 342.239 469.69 342.29 469.79L342.647 469.609ZM342.471 469.337C342.258 469.093 341.93 469.047 341.566 469.113C341.201 469.178 340.75 469.363 340.22 469.652L340.412 470.003C340.928 469.721 341.334 469.561 341.637 469.506C341.942 469.452 342.093 469.512 342.17 469.6L342.471 469.337ZM340.22 469.652C339.454 470.073 338.729 470.612 338.046 471.27L338.324 471.558C338.983 470.923 339.68 470.405 340.412 470.003L340.22 469.652ZM338.046 471.27C337.214 472.074 336.715 472.841 336.604 473.569L336.999 473.629C337.091 473.03 337.515 472.34 338.324 471.557L338.046 471.27ZM336.603 473.569C336.58 473.73 336.546 473.846 336.509 473.926C336.471 474.005 336.436 474.034 336.416 474.044L336.597 474.401C336.722 474.337 336.81 474.225 336.87 474.097C336.931 473.968 336.972 473.81 336.999 473.628L336.603 473.569ZM336.416 474.044C336.407 474.049 336.36 474.069 336.227 473.98C336.098 473.893 335.934 473.728 335.733 473.471L335.418 473.717C335.627 473.986 335.822 474.189 336.003 474.311C336.181 474.431 336.394 474.504 336.597 474.401L336.416 474.044ZM335.733 473.471C335.535 473.217 335.374 472.966 335.249 472.72L334.892 472.901C335.031 473.173 335.206 473.445 335.418 473.717L335.733 473.471ZM335.249 472.72C334.896 472.023 334.803 471.342 334.959 470.668C335.115 469.99 335.528 469.301 336.218 468.603L335.934 468.322C335.209 469.055 334.747 469.806 334.569 470.578C334.39 471.353 334.501 472.13 334.892 472.901L335.249 472.72ZM336.218 468.603C337.087 467.732 338.066 467.04 339.155 466.528L338.985 466.166C337.853 466.699 336.836 467.417 335.934 468.321L336.218 468.603ZM339.155 466.528C341.176 465.584 342.599 465.432 343.493 465.939L343.69 465.591C342.61 464.979 341.019 465.216 338.985 466.165L339.155 466.528ZM343.494 465.939C344.059 466.258 344.487 466.706 344.782 467.287L345.138 467.106C344.808 466.455 344.324 465.948 343.69 465.591L343.494 465.939ZM344.782 467.287C344.969 467.656 345.102 468.071 345.179 468.532L345.574 468.466C345.491 467.969 345.346 467.515 345.138 467.106L344.782 467.287ZM345.179 468.531C345.38 469.769 345.281 471.174 344.873 472.75L345.26 472.85C345.678 471.235 345.786 469.772 345.574 468.467L345.179 468.531ZM344.873 472.749C344.476 474.249 343.893 475.541 343.127 476.629L343.454 476.859C344.252 475.727 344.853 474.39 345.259 472.851L344.873 472.749ZM343.127 476.629C341.293 479.233 339.483 480.975 337.7 481.879L337.881 482.236C339.746 481.29 341.602 479.489 343.454 476.859L343.127 476.629ZM337.7 481.879C336.444 482.517 335.296 482.758 334.251 482.624C333.208 482.491 332.244 481.982 331.36 481.078L331.074 481.358C332.01 482.314 333.052 482.874 334.2 483.021C335.346 483.167 336.575 482.899 337.881 482.236L337.7 481.879ZM331.36 481.078C330.697 480.399 330.122 479.582 329.637 478.625L329.28 478.806C329.782 479.795 330.379 480.646 331.074 481.358L331.36 481.078ZM329.637 478.625C328.75 476.878 328.217 474.818 328.042 472.441L327.643 472.471C327.821 474.89 328.365 477.003 329.28 478.806L329.637 478.625ZM328.042 472.441C327.753 468.51 328.558 464.817 330.458 461.36L330.108 461.167C328.17 464.692 327.348 468.462 327.643 472.471L328.042 472.441ZM330.458 461.36C331.406 459.643 332.709 458.116 334.369 456.779L334.119 456.468C332.421 457.834 331.083 459.4 330.108 461.167L330.458 461.36Z" fill="#E83A3B" mask="url(#path-1-outside-1_5_173257)"/>
</svg>
