<svg width="1406" height="934" viewBox="0 0 1406 934" fill="none" xmlns="http://www.w3.org/2000/svg">
<mask id="path-1-outside-1_5_83392" maskUnits="userSpaceOnUse" x="454.675" y="133.287" width="94.7785" height="78.2615" fill="black">
<rect fill="white" x="454.675" y="133.287" width="94.7785" height="78.2615"/>
<path d="M467.961 139.988C467.776 139.341 467.912 138.638 468.367 137.879C468.825 137.101 469.426 136.832 470.169 137.075C474.091 138.345 476.968 139.677 478.8 141.07C480.6 142.429 481.537 143.655 481.613 144.751C481.652 145.304 481.505 145.814 481.171 146.279C480.853 146.722 480.361 147.119 479.695 147.47C478.341 148.187 476.522 148.571 474.237 148.621C476.021 149.846 477.007 151.006 477.193 152.102C477.347 152.996 477.161 153.808 476.636 154.539C475.884 155.588 474.538 156.457 472.599 157.147C469.233 158.346 465.948 158.635 462.745 158.015C461.568 157.785 460.587 157.389 459.804 156.827C458.475 155.873 457.917 154.499 458.13 152.705C458.278 151.469 458.965 149.998 460.189 148.292C460.497 147.864 460.797 147.469 461.089 147.108C462.394 145.493 464.684 143.12 467.961 139.988ZM462.831 148.493C460.992 151.212 461.118 153.227 463.21 154.538C464.983 155.654 467.256 155.97 470.03 155.488C471.183 155.286 472.11 154.944 472.813 154.464C473.035 154.31 473.215 154.137 473.353 153.945C474.005 153.037 473.485 151.976 471.794 150.762C470.221 149.633 467.594 148.475 463.914 147.289C463.455 147.788 463.094 148.189 462.831 148.493ZM466.78 144.277C468.431 144.891 470.186 145.401 472.044 145.806C474.686 146.381 476.455 146.442 477.351 145.989C477.472 145.93 477.558 145.863 477.611 145.789C477.85 145.457 477.533 144.955 476.661 144.285C475.589 143.471 473.291 142.454 469.769 141.235C469.359 141.635 468.87 142.129 468.302 142.717L466.78 144.277ZM494.513 153.638C491.934 156.062 489.545 158.667 487.344 161.452L480.835 169.704C480.344 170.326 479.639 170.513 478.719 170.267C478.549 170.223 478.416 170.167 478.32 170.098C477.891 169.791 477.974 169.223 478.568 168.396C478.663 168.263 478.757 168.14 478.849 168.027L480.769 165.679C480.654 165.496 480.501 165.336 480.309 165.198C479.674 164.742 478.642 164.606 477.212 164.788C475.38 165.018 473.844 165.124 472.604 165.106C472.573 165.118 472.544 165.119 472.516 165.111C471.932 165.24 471.43 165.12 471.011 164.752C470.592 164.385 470.758 163.748 471.508 162.843L477.528 155.531C479.379 153.279 481.671 150.639 484.405 147.61C484.79 147.181 485.477 147.121 486.466 147.427C486.658 147.487 486.824 147.567 486.964 147.668C487.304 147.911 487.32 148.248 487.013 148.676C486.918 148.809 486.768 148.97 486.565 149.16C484.496 151.077 481.626 154.288 477.956 158.793C477.425 159.441 476.94 160.061 476.503 160.654C476.273 160.959 476.277 161.196 476.513 161.366C476.853 161.61 478.476 161.695 481.382 161.621C482.453 161.595 483.406 161.546 484.241 161.473C487.128 157.996 489.832 154.867 492.352 152.088C492.743 151.652 493.441 151.577 494.445 151.861C494.678 151.927 494.849 152 494.96 152.08C495.3 152.323 495.308 152.671 494.985 153.121C494.873 153.276 494.716 153.449 494.513 153.638ZM503.423 158.069C503.613 158.194 503.793 158.317 503.962 158.439C506.621 160.347 507.267 162.372 505.899 164.512C504.888 166.092 503.41 166.966 501.464 167.137C500.199 167.247 498.409 167.02 496.095 166.456C496.186 168.714 496.108 170.795 495.861 172.699C495.65 174.271 495.224 176.315 494.582 178.831C494.541 178.981 494.474 179.123 494.378 179.256C494.092 179.654 493.556 179.964 492.772 180.184C492.367 180.296 492.024 180.291 491.743 180.168C491.462 180.044 491.394 179.71 491.539 179.165C492.473 175.65 493.043 172.641 493.251 170.138C493.41 168.216 492.814 166.77 491.463 165.8C491.079 165.525 490.639 165.287 490.144 165.089C489.146 166.308 488.15 167.563 487.157 168.853L484.265 172.602C483.814 173.185 483.127 173.346 482.205 173.087C482.055 173.047 481.924 172.987 481.814 172.907C481.334 172.563 481.491 171.899 482.287 170.914C487.225 164.813 491.452 159.812 494.967 155.912C495.447 155.383 496.84 155.493 499.145 156.241C501.086 156.873 502.512 157.482 503.423 158.069ZM492.552 162.201C498.675 164.895 502.185 165.438 503.08 163.832C503.559 162.978 503.126 162.069 501.782 161.104C500.452 160.15 498.342 159.481 495.452 159.096C494.534 160.015 493.568 161.05 492.552 162.201ZM504.17 172.838L497.331 181.525C496.845 182.139 496.136 182.324 495.204 182.08C495.034 182.037 494.901 181.98 494.805 181.911C494.384 181.609 494.47 181.045 495.064 180.217C495.164 180.077 495.258 179.954 495.345 179.849L501.641 172.198C503.537 169.9 505.93 167.141 508.821 163.924C509.217 163.481 509.911 163.402 510.903 163.689C511.115 163.752 511.281 163.825 511.399 163.91C511.739 164.154 511.749 164.498 511.431 164.941C511.32 165.096 511.163 165.268 510.959 165.458C510.016 166.336 509.13 167.508 508.303 168.973C507.147 171.019 506.072 173.649 505.075 176.862C503.759 181.097 503.648 183.692 504.743 184.646C505.685 185.468 507.649 183.8 510.633 179.642C512.234 177.411 514.145 174.358 516.368 170.481C517.269 169.225 518.023 168.815 518.628 169.249C518.695 169.297 518.747 169.341 518.786 169.38C519.364 169.962 519.422 170.653 518.961 171.452C517.197 174.472 515.586 176.997 514.128 179.028C512.978 180.631 511.87 182.012 510.803 183.171C508.221 185.973 506.132 187.512 504.536 187.787C503.922 187.895 503.408 187.8 502.994 187.503C502.337 187.031 501.933 186.059 501.782 184.585C501.534 182.17 502.33 178.254 504.17 172.838ZM529.12 182.133C528.758 181.795 528.348 181.462 527.89 181.133C526.221 179.935 523.884 178.795 520.879 177.712C520.056 178.532 518.843 179.793 517.24 181.496C519.818 182.551 523.242 184.164 527.514 186.335C527.75 186.381 527.934 186.451 528.067 186.547C528.422 186.801 528.381 187.231 527.947 187.837C527.56 188.376 526.985 188.842 526.222 189.234C525.693 189.504 525.253 189.579 524.901 189.461C523.555 188.842 521.855 187.991 519.801 186.909L514.742 184.252C514.302 184.787 513.931 185.265 513.629 185.686C512.331 187.495 511.891 188.903 512.311 189.909C512.418 190.165 512.615 190.396 512.904 190.603C514.011 191.398 516.482 191.94 520.314 192.228C520.592 192.215 520.808 192.264 520.963 192.376C521.288 192.609 521.361 193.108 521.181 193.874C521.057 194.39 520.889 194.795 520.677 195.091C520.428 195.438 520.113 195.626 519.734 195.656C515.801 195.351 513.037 194.627 511.442 193.482C510.622 192.893 510.113 192.192 509.914 191.378C509.385 189.23 510.09 186.805 512.03 184.102C512.2 183.865 512.441 183.552 512.755 183.162C513.794 181.871 515.361 180.17 517.457 178.06C517.826 177.687 518.171 177.213 518.494 176.639C518.767 176.118 519.033 175.599 519.293 175.081C519.349 174.987 519.412 174.892 519.481 174.796C520 174.072 520.886 173.891 522.137 174.252C524.49 174.933 526.213 175.588 527.307 176.216C528.586 176.944 529.964 177.978 531.442 179.318C531.709 179.554 531.799 179.943 531.712 180.485C531.641 180.927 531.499 181.328 531.285 181.689C531.004 182.159 530.678 182.44 530.309 182.533C529.91 182.638 529.513 182.505 529.12 182.133ZM529.947 187.527C530.71 186.776 531.231 185.925 531.511 184.974C531.583 184.734 531.674 184.536 531.785 184.381C532.172 183.842 532.811 183.63 533.703 183.744C538.066 184.29 541.242 185.276 543.228 186.702C545.555 188.372 546.546 190.319 546.202 192.545C546.03 193.642 545.558 194.729 544.784 195.808C544.227 196.583 543.504 197.357 542.615 198.128C540.482 199.977 537.897 201.327 534.857 202.179C532.684 202.79 530.405 203.129 528.018 203.196C525.735 203.258 524.103 202.96 523.122 202.3C521.687 201.337 521.156 200.073 521.531 198.506C521.832 197.245 522.494 195.902 523.517 194.477C523.797 194.085 524.106 193.686 524.443 193.279C525.357 192.177 527.191 190.26 529.947 187.527ZM528.434 200.254C531.212 200.592 533.851 200.198 536.35 199.07C538.405 198.14 539.894 197.032 540.816 195.747C542.046 194.033 542.054 192.322 540.842 190.612C540.563 190.222 540.187 189.857 539.714 189.517C538.355 188.542 536.204 187.805 533.262 187.304L529.653 190.908C528.28 192.306 527.137 193.556 526.224 194.657C525.979 194.951 525.774 195.213 525.61 195.442C524.343 197.207 524.267 198.49 525.383 199.29C526.047 199.767 527.064 200.089 528.434 200.254Z"/>
</mask>
<path d="M467.961 139.988C467.776 139.341 467.912 138.638 468.367 137.879C468.825 137.101 469.426 136.832 470.169 137.075C474.091 138.345 476.968 139.677 478.8 141.07C480.6 142.429 481.537 143.655 481.613 144.751C481.652 145.304 481.505 145.814 481.171 146.279C480.853 146.722 480.361 147.119 479.695 147.47C478.341 148.187 476.522 148.571 474.237 148.621C476.021 149.846 477.007 151.006 477.193 152.102C477.347 152.996 477.161 153.808 476.636 154.539C475.884 155.588 474.538 156.457 472.599 157.147C469.233 158.346 465.948 158.635 462.745 158.015C461.568 157.785 460.587 157.389 459.804 156.827C458.475 155.873 457.917 154.499 458.13 152.705C458.278 151.469 458.965 149.998 460.189 148.292C460.497 147.864 460.797 147.469 461.089 147.108C462.394 145.493 464.684 143.12 467.961 139.988ZM462.831 148.493C460.992 151.212 461.118 153.227 463.21 154.538C464.983 155.654 467.256 155.97 470.03 155.488C471.183 155.286 472.11 154.944 472.813 154.464C473.035 154.31 473.215 154.137 473.353 153.945C474.005 153.037 473.485 151.976 471.794 150.762C470.221 149.633 467.594 148.475 463.914 147.289C463.455 147.788 463.094 148.189 462.831 148.493ZM466.78 144.277C468.431 144.891 470.186 145.401 472.044 145.806C474.686 146.381 476.455 146.442 477.351 145.989C477.472 145.93 477.558 145.863 477.611 145.789C477.85 145.457 477.533 144.955 476.661 144.285C475.589 143.471 473.291 142.454 469.769 141.235C469.359 141.635 468.87 142.129 468.302 142.717L466.78 144.277ZM494.513 153.638C491.934 156.062 489.545 158.667 487.344 161.452L480.835 169.704C480.344 170.326 479.639 170.513 478.719 170.267C478.549 170.223 478.416 170.167 478.32 170.098C477.891 169.791 477.974 169.223 478.568 168.396C478.663 168.263 478.757 168.14 478.849 168.027L480.769 165.679C480.654 165.496 480.501 165.336 480.309 165.198C479.674 164.742 478.642 164.606 477.212 164.788C475.38 165.018 473.844 165.124 472.604 165.106C472.573 165.118 472.544 165.119 472.516 165.111C471.932 165.24 471.43 165.12 471.011 164.752C470.592 164.385 470.758 163.748 471.508 162.843L477.528 155.531C479.379 153.279 481.671 150.639 484.405 147.61C484.79 147.181 485.477 147.121 486.466 147.427C486.658 147.487 486.824 147.567 486.964 147.668C487.304 147.911 487.32 148.248 487.013 148.676C486.918 148.809 486.768 148.97 486.565 149.16C484.496 151.077 481.626 154.288 477.956 158.793C477.425 159.441 476.94 160.061 476.503 160.654C476.273 160.959 476.277 161.196 476.513 161.366C476.853 161.61 478.476 161.695 481.382 161.621C482.453 161.595 483.406 161.546 484.241 161.473C487.128 157.996 489.832 154.867 492.352 152.088C492.743 151.652 493.441 151.577 494.445 151.861C494.678 151.927 494.849 152 494.96 152.08C495.3 152.323 495.308 152.671 494.985 153.121C494.873 153.276 494.716 153.449 494.513 153.638ZM503.423 158.069C503.613 158.194 503.793 158.317 503.962 158.439C506.621 160.347 507.267 162.372 505.899 164.512C504.888 166.092 503.41 166.966 501.464 167.137C500.199 167.247 498.409 167.02 496.095 166.456C496.186 168.714 496.108 170.795 495.861 172.699C495.65 174.271 495.224 176.315 494.582 178.831C494.541 178.981 494.474 179.123 494.378 179.256C494.092 179.654 493.556 179.964 492.772 180.184C492.367 180.296 492.024 180.291 491.743 180.168C491.462 180.044 491.394 179.71 491.539 179.165C492.473 175.65 493.043 172.641 493.251 170.138C493.41 168.216 492.814 166.77 491.463 165.8C491.079 165.525 490.639 165.287 490.144 165.089C489.146 166.308 488.15 167.563 487.157 168.853L484.265 172.602C483.814 173.185 483.127 173.346 482.205 173.087C482.055 173.047 481.924 172.987 481.814 172.907C481.334 172.563 481.491 171.899 482.287 170.914C487.225 164.813 491.452 159.812 494.967 155.912C495.447 155.383 496.84 155.493 499.145 156.241C501.086 156.873 502.512 157.482 503.423 158.069ZM492.552 162.201C498.675 164.895 502.185 165.438 503.08 163.832C503.559 162.978 503.126 162.069 501.782 161.104C500.452 160.15 498.342 159.481 495.452 159.096C494.534 160.015 493.568 161.05 492.552 162.201ZM504.17 172.838L497.331 181.525C496.845 182.139 496.136 182.324 495.204 182.08C495.034 182.037 494.901 181.98 494.805 181.911C494.384 181.609 494.47 181.045 495.064 180.217C495.164 180.077 495.258 179.954 495.345 179.849L501.641 172.198C503.537 169.9 505.93 167.141 508.821 163.924C509.217 163.481 509.911 163.402 510.903 163.689C511.115 163.752 511.281 163.825 511.399 163.91C511.739 164.154 511.749 164.498 511.431 164.941C511.32 165.096 511.163 165.268 510.959 165.458C510.016 166.336 509.13 167.508 508.303 168.973C507.147 171.019 506.072 173.649 505.075 176.862C503.759 181.097 503.648 183.692 504.743 184.646C505.685 185.468 507.649 183.8 510.633 179.642C512.234 177.411 514.145 174.358 516.368 170.481C517.269 169.225 518.023 168.815 518.628 169.249C518.695 169.297 518.747 169.341 518.786 169.38C519.364 169.962 519.422 170.653 518.961 171.452C517.197 174.472 515.586 176.997 514.128 179.028C512.978 180.631 511.87 182.012 510.803 183.171C508.221 185.973 506.132 187.512 504.536 187.787C503.922 187.895 503.408 187.8 502.994 187.503C502.337 187.031 501.933 186.059 501.782 184.585C501.534 182.17 502.33 178.254 504.17 172.838ZM529.12 182.133C528.758 181.795 528.348 181.462 527.89 181.133C526.221 179.935 523.884 178.795 520.879 177.712C520.056 178.532 518.843 179.793 517.24 181.496C519.818 182.551 523.242 184.164 527.514 186.335C527.75 186.381 527.934 186.451 528.067 186.547C528.422 186.801 528.381 187.231 527.947 187.837C527.56 188.376 526.985 188.842 526.222 189.234C525.693 189.504 525.253 189.579 524.901 189.461C523.555 188.842 521.855 187.991 519.801 186.909L514.742 184.252C514.302 184.787 513.931 185.265 513.629 185.686C512.331 187.495 511.891 188.903 512.311 189.909C512.418 190.165 512.615 190.396 512.904 190.603C514.011 191.398 516.482 191.94 520.314 192.228C520.592 192.215 520.808 192.264 520.963 192.376C521.288 192.609 521.361 193.108 521.181 193.874C521.057 194.39 520.889 194.795 520.677 195.091C520.428 195.438 520.113 195.626 519.734 195.656C515.801 195.351 513.037 194.627 511.442 193.482C510.622 192.893 510.113 192.192 509.914 191.378C509.385 189.23 510.09 186.805 512.03 184.102C512.2 183.865 512.441 183.552 512.755 183.162C513.794 181.871 515.361 180.17 517.457 178.06C517.826 177.687 518.171 177.213 518.494 176.639C518.767 176.118 519.033 175.599 519.293 175.081C519.349 174.987 519.412 174.892 519.481 174.796C520 174.072 520.886 173.891 522.137 174.252C524.49 174.933 526.213 175.588 527.307 176.216C528.586 176.944 529.964 177.978 531.442 179.318C531.709 179.554 531.799 179.943 531.712 180.485C531.641 180.927 531.499 181.328 531.285 181.689C531.004 182.159 530.678 182.44 530.309 182.533C529.91 182.638 529.513 182.505 529.12 182.133ZM529.947 187.527C530.71 186.776 531.231 185.925 531.511 184.974C531.583 184.734 531.674 184.536 531.785 184.381C532.172 183.842 532.811 183.63 533.703 183.744C538.066 184.29 541.242 185.276 543.228 186.702C545.555 188.372 546.546 190.319 546.202 192.545C546.03 193.642 545.558 194.729 544.784 195.808C544.227 196.583 543.504 197.357 542.615 198.128C540.482 199.977 537.897 201.327 534.857 202.179C532.684 202.79 530.405 203.129 528.018 203.196C525.735 203.258 524.103 202.96 523.122 202.3C521.687 201.337 521.156 200.073 521.531 198.506C521.832 197.245 522.494 195.902 523.517 194.477C523.797 194.085 524.106 193.686 524.443 193.279C525.357 192.177 527.191 190.26 529.947 187.527ZM528.434 200.254C531.212 200.592 533.851 200.198 536.35 199.07C538.405 198.14 539.894 197.032 540.816 195.747C542.046 194.033 542.054 192.322 540.842 190.612C540.563 190.222 540.187 189.857 539.714 189.517C538.355 188.542 536.204 187.805 533.262 187.304L529.653 190.908C528.28 192.306 527.137 193.556 526.224 194.657C525.979 194.951 525.774 195.213 525.61 195.442C524.343 197.207 524.267 198.49 525.383 199.29C526.047 199.767 527.064 200.089 528.434 200.254Z" fill="#E83A3B"/>
<path d="M467.961 139.988L468.099 140.133L468.186 140.05L468.153 139.934L467.961 139.988ZM468.367 137.879L468.538 137.982L468.539 137.981L468.367 137.879ZM470.169 137.075L470.107 137.265L470.108 137.265L470.169 137.075ZM478.8 141.07L478.679 141.229L478.679 141.229L478.8 141.07ZM481.613 144.751L481.414 144.764L481.414 144.765L481.613 144.751ZM479.695 147.47L479.602 147.293L479.602 147.293L479.695 147.47ZM474.237 148.621L474.232 148.421L473.612 148.435L474.123 148.786L474.237 148.621ZM477.193 152.102L476.996 152.136L476.996 152.136L477.193 152.102ZM472.599 157.147L472.532 156.959L472.532 156.959L472.599 157.147ZM462.745 158.015L462.707 158.211L462.707 158.211L462.745 158.015ZM458.13 152.705L457.931 152.681L457.931 152.682L458.13 152.705ZM461.089 147.108L461.245 147.234L461.245 147.234L461.089 147.108ZM462.831 148.493L462.68 148.362L462.672 148.371L462.666 148.381L462.831 148.493ZM463.21 154.538L463.316 154.369L463.316 154.368L463.21 154.538ZM470.03 155.488L470.064 155.685L470.065 155.685L470.03 155.488ZM472.813 154.464L472.926 154.629L472.927 154.629L472.813 154.464ZM463.914 147.289L463.975 147.098L463.853 147.059L463.766 147.153L463.914 147.289ZM466.78 144.277L466.637 144.137L466.422 144.357L466.71 144.464L466.78 144.277ZM472.044 145.806L472.087 145.61L472.087 145.61L472.044 145.806ZM477.351 145.989L477.263 145.809L477.261 145.81L477.351 145.989ZM476.661 144.285L476.782 144.126L476.781 144.125L476.661 144.285ZM469.769 141.235L469.834 141.046L469.717 141.006L469.629 141.092L469.769 141.235ZM468.302 142.717L468.445 142.857L468.446 142.856L468.302 142.717ZM468.153 139.934C467.988 139.355 468.102 138.709 468.538 137.982L468.195 137.777C467.721 138.567 467.565 139.328 467.769 140.043L468.153 139.934ZM468.539 137.981C468.755 137.614 468.992 137.389 469.243 137.277C469.489 137.167 469.773 137.156 470.107 137.265L470.231 136.885C469.822 136.751 469.434 136.754 469.08 136.911C468.729 137.068 468.437 137.366 468.194 137.778L468.539 137.981ZM470.108 137.265C474.023 138.533 476.874 139.857 478.679 141.229L478.921 140.911C477.062 139.497 474.16 138.158 470.231 136.885L470.108 137.265ZM478.679 141.229C479.571 141.902 480.24 142.536 480.694 143.131C481.149 143.725 481.379 144.269 481.414 144.764L481.813 144.737C481.771 144.137 481.495 143.52 481.012 142.888C480.528 142.255 479.829 141.596 478.92 140.91L478.679 141.229ZM481.414 144.765C481.449 145.27 481.316 145.734 481.008 146.163L481.333 146.396C481.693 145.894 481.855 145.338 481.813 144.736L481.414 144.765ZM481.008 146.163C480.714 146.573 480.25 146.952 479.602 147.293L479.789 147.647C480.472 147.287 480.992 146.872 481.333 146.396L481.008 146.163ZM479.602 147.293C478.285 147.991 476.5 148.372 474.232 148.421L474.241 148.821C476.543 148.771 478.397 148.384 479.789 147.646L479.602 147.293ZM474.123 148.786C475.901 150.005 476.824 151.125 476.996 152.136L477.39 152.069C477.189 150.887 476.141 149.686 474.35 148.456L474.123 148.786ZM476.996 152.136C477.141 152.977 476.967 153.735 476.474 154.423L476.799 154.656C477.355 153.881 477.553 153.014 477.39 152.069L476.996 152.136ZM476.474 154.423C475.755 155.424 474.453 156.275 472.532 156.959L472.666 157.336C474.622 156.64 476.012 155.752 476.799 154.656L476.474 154.423ZM472.532 156.959C469.196 158.146 465.948 158.431 462.783 157.818L462.707 158.211C465.949 158.839 469.27 158.545 472.666 157.336L472.532 156.959ZM462.784 157.819C461.627 157.593 460.675 157.206 459.921 156.665L459.688 156.99C460.499 157.572 461.508 157.977 462.707 158.211L462.784 157.819ZM459.921 156.665C458.658 155.758 458.123 154.46 458.329 152.729L457.931 152.682C457.711 154.539 458.292 155.988 459.688 156.99L459.921 156.665ZM458.328 152.729C458.471 151.542 459.135 150.104 460.352 148.409L460.027 148.175C458.795 149.892 458.086 151.396 457.931 152.681L458.328 152.729ZM460.352 148.409C460.657 147.983 460.955 147.591 461.245 147.234L460.934 146.982C460.639 147.346 460.336 147.744 460.027 148.175L460.352 148.409ZM461.245 147.234C462.541 145.629 464.823 143.264 468.099 140.133L467.823 139.844C464.545 142.976 462.247 145.357 460.934 146.982L461.245 147.234ZM462.666 148.381C461.736 149.756 461.28 150.984 461.347 152.056C461.415 153.142 462.017 154.026 463.103 154.707L463.316 154.368C462.311 153.739 461.804 152.96 461.746 152.031C461.687 151.088 462.088 149.949 462.997 148.605L462.666 148.381ZM463.103 154.707C464.931 155.857 467.259 156.173 470.064 155.685L469.996 155.291C467.254 155.768 465.035 155.45 463.316 154.369L463.103 154.707ZM470.065 155.685C471.235 155.48 472.192 155.13 472.926 154.629L472.7 154.299C472.028 154.758 471.13 155.092 469.996 155.291L470.065 155.685ZM472.927 154.629C473.165 154.464 473.363 154.275 473.515 154.062L473.191 153.829C473.068 154 472.905 154.157 472.699 154.3L472.927 154.629ZM473.515 154.062C473.697 153.809 473.802 153.537 473.822 153.249C473.841 152.961 473.774 152.671 473.632 152.38C473.35 151.805 472.765 151.213 471.91 150.6L471.677 150.924C472.514 151.525 473.034 152.07 473.273 152.556C473.39 152.796 473.436 153.017 473.423 153.222C473.409 153.426 473.335 153.628 473.191 153.829L473.515 154.062ZM471.91 150.6C470.311 149.452 467.659 148.286 463.975 147.098L463.852 147.479C467.528 148.664 470.13 149.814 471.677 150.924L471.91 150.6ZM463.766 147.153C463.307 147.653 462.945 148.056 462.68 148.362L462.983 148.624C463.244 148.322 463.603 147.922 464.061 147.424L463.766 147.153ZM466.71 144.464C468.371 145.082 470.135 145.595 472.002 146.001L472.087 145.61C470.237 145.207 468.492 144.7 466.85 144.089L466.71 144.464ZM472.002 146.001C473.329 146.29 474.444 146.452 475.345 146.483C476.241 146.514 476.948 146.417 477.441 146.167L477.261 145.81C476.858 146.014 476.232 146.113 475.359 146.083C474.491 146.053 473.401 145.897 472.087 145.61L472.002 146.001ZM477.439 146.168C477.576 146.101 477.695 146.017 477.774 145.906L477.449 145.673C477.422 145.71 477.367 145.758 477.263 145.809L477.439 146.168ZM477.774 145.906C477.962 145.645 477.901 145.34 477.722 145.057C477.544 144.776 477.224 144.466 476.782 144.126L476.539 144.443C476.969 144.774 477.244 145.05 477.384 145.271C477.522 145.489 477.5 145.602 477.449 145.673L477.774 145.906ZM476.781 144.125C475.68 143.289 473.353 142.264 469.834 141.046L469.703 141.424C473.229 142.644 475.497 143.652 476.54 144.444L476.781 144.125ZM469.629 141.092C469.217 141.494 468.727 141.989 468.158 142.578L468.446 142.856C469.013 142.269 469.5 141.776 469.908 141.378L469.629 141.092ZM468.159 142.578L466.637 144.137L466.923 144.417L468.445 142.857L468.159 142.578ZM494.513 153.638L494.376 153.492L494.376 153.493L494.513 153.638ZM487.344 161.452L487.188 161.328L487.187 161.328L487.344 161.452ZM480.835 169.704L480.992 169.828L480.992 169.828L480.835 169.704ZM478.719 170.267L478.771 170.074L478.769 170.073L478.719 170.267ZM478.849 168.027L478.694 167.901L478.694 167.901L478.849 168.027ZM480.769 165.679L480.924 165.806L481.015 165.695L480.939 165.573L480.769 165.679ZM477.212 164.788L477.237 164.987L477.238 164.987L477.212 164.788ZM472.604 165.106L472.606 164.906L472.568 164.906L472.533 164.919L472.604 165.106ZM472.516 165.111L472.576 164.92L472.525 164.904L472.473 164.915L472.516 165.111ZM471.011 164.752L470.879 164.903L471.011 164.752ZM471.508 162.843L471.662 162.971L471.663 162.97L471.508 162.843ZM477.528 155.531L477.682 155.659L477.682 155.658L477.528 155.531ZM484.405 147.61L484.553 147.744L484.553 147.743L484.405 147.61ZM486.466 147.427L486.406 147.618L486.406 147.618L486.466 147.427ZM486.565 149.16L486.701 149.307L486.701 149.306L486.565 149.16ZM477.956 158.793L478.111 158.92L478.112 158.919L477.956 158.793ZM476.503 160.654L476.663 160.775L476.665 160.773L476.503 160.654ZM481.382 161.621L481.377 161.421L481.377 161.421L481.382 161.621ZM484.241 161.473L484.258 161.673L484.341 161.665L484.394 161.601L484.241 161.473ZM492.352 152.088L492.5 152.222L492.501 152.222L492.352 152.088ZM494.445 151.861L494.5 151.669L494.5 151.669L494.445 151.861ZM494.376 153.493C491.79 155.923 489.394 158.535 487.188 161.328L487.501 161.576C489.695 158.798 492.078 156.201 494.65 153.784L494.376 153.493ZM487.187 161.328L480.678 169.58L480.992 169.828L487.502 161.576L487.187 161.328ZM480.678 169.58C480.457 169.86 480.194 170.036 479.886 170.118C479.576 170.2 479.207 170.19 478.771 170.074L478.667 170.46C479.151 170.59 479.594 170.609 479.989 170.504C480.387 170.398 480.722 170.17 480.992 169.828L480.678 169.58ZM478.769 170.073C478.612 170.033 478.505 169.985 478.436 169.936L478.203 170.261C478.327 170.349 478.486 170.413 478.669 170.461L478.769 170.073ZM478.436 169.936C478.357 169.878 478.308 169.815 478.28 169.745C478.252 169.675 478.242 169.586 478.258 169.471C478.293 169.235 478.44 168.918 478.73 168.513L478.405 168.279C478.102 168.702 477.911 169.082 477.863 169.413C477.838 169.582 477.85 169.744 477.908 169.892C477.967 170.042 478.069 170.164 478.203 170.261L478.436 169.936ZM478.73 168.513C478.823 168.383 478.915 168.263 479.004 168.154L478.694 167.901C478.599 168.017 478.503 168.144 478.405 168.279L478.73 168.513ZM479.004 168.154L480.924 165.806L480.614 165.553L478.694 167.901L479.004 168.154ZM480.939 165.573C480.809 165.366 480.637 165.187 480.426 165.035L480.192 165.36C480.365 165.484 480.5 165.626 480.6 165.785L480.939 165.573ZM480.426 165.035C479.726 164.534 478.629 164.406 477.187 164.59L477.238 164.987C478.655 164.805 479.621 164.95 480.192 165.36L480.426 165.035ZM477.188 164.59C475.361 164.819 473.834 164.924 472.606 164.906L472.601 165.306C473.854 165.324 475.4 165.217 477.237 164.987L477.188 164.59ZM472.533 164.919C472.535 164.919 472.54 164.917 472.548 164.916C472.557 164.916 472.567 164.917 472.576 164.92L472.457 165.302C472.533 165.325 472.608 165.318 472.674 165.293L472.533 164.919ZM472.473 164.915C471.945 165.032 471.51 164.924 471.143 164.602L470.879 164.903C471.35 165.316 471.918 165.447 472.559 165.306L472.473 164.915ZM471.143 164.602C471.066 164.535 471.022 164.461 471.001 164.377C470.979 164.292 470.98 164.185 471.015 164.05C471.087 163.774 471.294 163.416 471.662 162.971L471.354 162.716C470.973 163.176 470.722 163.588 470.628 163.949C470.58 164.132 470.571 164.309 470.613 164.475C470.655 164.643 470.747 164.786 470.879 164.903L471.143 164.602ZM471.663 162.97L477.682 155.659L477.373 155.404L471.354 162.716L471.663 162.97ZM477.682 155.658C479.531 153.409 481.821 150.771 484.553 147.744L484.256 147.476C481.521 150.506 479.227 153.149 477.373 155.404L477.682 155.658ZM484.553 147.743C484.854 147.409 485.431 147.316 486.406 147.618L486.525 147.236C485.524 146.926 484.726 146.953 484.256 147.476L484.553 147.743ZM486.406 147.618C486.581 147.672 486.728 147.744 486.848 147.83L487.081 147.505C486.921 147.39 486.734 147.301 486.525 147.236L486.406 147.618ZM486.848 147.83C486.981 147.926 487.027 148.02 487.032 148.112C487.037 148.216 486.992 148.362 486.85 148.559L487.175 148.793C487.341 148.561 487.442 148.325 487.431 148.093C487.419 147.849 487.287 147.653 487.081 147.505L486.848 147.83ZM486.85 148.559C486.766 148.677 486.628 148.828 486.428 149.014L486.701 149.306C486.909 149.113 487.069 148.941 487.175 148.793L486.85 148.559ZM486.429 149.013C484.349 150.94 481.472 154.16 477.801 158.667L478.112 158.919C481.78 154.415 484.642 151.213 486.701 149.307L486.429 149.013ZM477.802 158.666C477.268 159.316 476.782 159.939 476.342 160.536L476.665 160.773C477.099 160.183 477.581 159.565 478.111 158.92L477.802 158.666ZM476.344 160.534C476.217 160.702 476.131 160.881 476.133 161.063C476.136 161.26 476.24 161.416 476.396 161.528L476.63 161.203C476.55 161.146 476.534 161.099 476.533 161.058C476.533 161.004 476.56 160.912 476.663 160.775L476.344 160.534ZM476.396 161.528C476.523 161.619 476.731 161.675 476.975 161.716C477.231 161.759 477.565 161.791 477.975 161.812C478.794 161.855 479.932 161.858 481.387 161.821L481.377 161.421C479.926 161.458 478.799 161.455 477.996 161.413C477.593 161.392 477.276 161.361 477.041 161.322C476.796 161.281 476.673 161.235 476.63 161.203L476.396 161.528ZM481.387 161.821C482.461 161.795 483.418 161.745 484.258 161.673L484.223 161.274C483.393 161.346 482.445 161.395 481.377 161.421L481.387 161.821ZM484.394 161.601C487.28 158.125 489.982 154.999 492.5 152.222L492.204 151.954C489.682 154.735 486.976 157.866 484.087 161.346L484.394 161.601ZM492.501 152.222C492.81 151.878 493.4 151.773 494.391 152.054L494.5 151.669C493.481 151.38 492.677 151.427 492.203 151.954L492.501 152.222ZM494.391 152.054C494.615 152.117 494.761 152.183 494.843 152.242L495.077 151.917C494.938 151.817 494.74 151.737 494.5 151.669L494.391 152.054ZM494.843 152.242C494.974 152.336 495.019 152.43 495.021 152.527C495.024 152.639 494.972 152.795 494.822 153.004L495.147 153.238C495.32 152.997 495.426 152.754 495.421 152.518C495.415 152.269 495.286 152.067 495.077 151.917L494.843 152.242ZM494.822 153.004C494.721 153.145 494.574 153.308 494.376 153.492L494.649 153.785C494.858 153.589 495.025 153.407 495.147 153.238L494.822 153.004ZM503.423 158.069L503.533 157.902L503.531 157.901L503.423 158.069ZM505.899 164.512L506.067 164.62L506.067 164.619L505.899 164.512ZM501.464 167.137L501.481 167.336L501.481 167.336L501.464 167.137ZM496.095 166.456L496.142 166.261L495.884 166.198L495.895 166.464L496.095 166.456ZM495.861 172.699L496.059 172.726L496.059 172.725L495.861 172.699ZM494.582 178.831L494.775 178.883L494.776 178.881L494.582 178.831ZM492.772 180.184L492.825 180.377L492.826 180.377L492.772 180.184ZM491.743 180.168L491.823 179.984L491.823 179.984L491.743 180.168ZM491.539 179.165L491.733 179.217L491.733 179.217L491.539 179.165ZM493.251 170.138L493.051 170.122L493.051 170.122L493.251 170.138ZM490.144 165.089L490.218 164.903L490.082 164.848L489.989 164.962L490.144 165.089ZM487.157 168.853L487.315 168.975L487.315 168.975L487.157 168.853ZM484.265 172.602L484.423 172.725L484.423 172.724L484.265 172.602ZM482.205 173.087L482.259 172.895L482.257 172.894L482.205 173.087ZM482.287 170.914L482.132 170.789L482.132 170.789L482.287 170.914ZM494.967 155.912L494.819 155.777L494.819 155.778L494.967 155.912ZM499.145 156.241L499.207 156.051L499.207 156.051L499.145 156.241ZM492.552 162.201L492.402 162.069L492.221 162.274L492.471 162.384L492.552 162.201ZM503.08 163.832L502.906 163.734L502.905 163.734L503.08 163.832ZM495.452 159.096L495.478 158.898L495.38 158.884L495.31 158.955L495.452 159.096ZM503.313 158.236C503.501 158.36 503.678 158.482 503.846 158.602L504.079 158.277C503.907 158.153 503.725 158.028 503.533 157.902L503.313 158.236ZM503.846 158.602C505.158 159.544 505.946 160.495 506.25 161.449C506.551 162.394 506.389 163.373 505.73 164.404L506.067 164.619C506.776 163.51 506.976 162.408 506.631 161.328C506.29 160.258 505.426 159.243 504.079 158.277L503.846 158.602ZM505.73 164.404C504.755 165.929 503.334 166.772 501.446 166.937L501.481 167.336C503.486 167.161 505.022 166.254 506.067 164.62L505.73 164.404ZM501.447 166.937C500.214 167.045 498.45 166.824 496.142 166.261L496.047 166.65C498.368 167.216 500.183 167.449 501.481 167.336L501.447 166.937ZM495.895 166.464C495.986 168.713 495.908 170.783 495.662 172.673L496.059 172.725C496.308 170.808 496.386 168.716 496.295 166.448L495.895 166.464ZM495.662 172.673C495.453 174.234 495.029 176.269 494.388 178.782L494.776 178.881C495.418 176.361 495.847 174.309 496.059 172.726L495.662 172.673ZM494.389 178.779C494.355 178.905 494.298 179.024 494.216 179.139L494.541 179.372C494.649 179.221 494.728 179.058 494.775 178.883L494.389 178.779ZM494.216 179.139C493.968 179.483 493.485 179.776 492.718 179.991L492.826 180.377C493.628 180.152 494.215 179.825 494.541 179.372L494.216 179.139ZM492.718 179.991C492.341 180.096 492.049 180.083 491.823 179.984L491.663 180.351C491.999 180.498 492.392 180.497 492.825 180.377L492.718 179.991ZM491.823 179.984C491.75 179.952 491.7 179.896 491.677 179.785C491.652 179.661 491.663 179.476 491.733 179.217L491.346 179.114C491.27 179.399 491.243 179.654 491.286 179.864C491.331 180.087 491.455 180.26 491.663 180.351L491.823 179.984ZM491.733 179.217C492.668 175.695 493.241 172.673 493.45 170.155L493.051 170.122C492.845 172.609 492.278 175.606 491.346 179.114L491.733 179.217ZM493.45 170.155C493.614 168.176 492.998 166.656 491.579 165.638L491.346 165.963C492.631 166.885 493.206 168.256 493.051 170.122L493.45 170.155ZM491.579 165.638C491.181 165.352 490.726 165.107 490.218 164.903L490.069 165.274C490.551 165.468 490.977 165.698 491.346 165.963L491.579 165.638ZM489.989 164.962C488.989 166.183 487.993 167.44 486.998 168.731L487.315 168.975C488.307 167.687 489.302 166.433 490.299 165.215L489.989 164.962ZM486.998 168.731L484.107 172.48L484.423 172.724L487.315 168.975L486.998 168.731ZM484.107 172.48C483.908 172.736 483.662 172.896 483.366 172.966C483.065 173.036 482.698 173.018 482.259 172.895L482.151 173.28C482.633 173.415 483.071 173.446 483.457 173.355C483.847 173.263 484.171 173.05 484.423 172.725L484.107 172.48ZM482.257 172.894C482.127 172.859 482.019 172.809 481.93 172.745L481.697 173.07C481.83 173.165 481.983 173.235 482.153 173.281L482.257 172.894ZM481.93 172.745C481.841 172.681 481.789 172.609 481.764 172.528C481.737 172.445 481.733 172.338 481.767 172.197C481.835 171.909 482.05 171.526 482.443 171.04L482.132 170.789C481.728 171.287 481.467 171.728 481.377 172.105C481.332 172.296 481.329 172.481 481.383 172.65C481.438 172.822 481.546 172.962 481.697 173.07L481.93 172.745ZM482.443 171.04C487.38 164.94 491.604 159.942 495.116 156.046L494.819 155.778C491.3 159.682 487.071 164.685 482.132 170.789L482.443 171.04ZM495.115 156.046C495.287 155.857 495.667 155.743 496.356 155.797C497.029 155.85 497.936 156.059 499.083 156.431L499.207 156.051C498.048 155.675 497.107 155.455 496.387 155.398C495.683 155.343 495.127 155.438 494.819 155.777L495.115 156.046ZM499.083 156.431C501.02 157.062 502.426 157.665 503.314 158.237L503.531 157.901C502.598 157.3 501.153 156.684 499.207 156.051L499.083 156.431ZM492.471 162.384C495.537 163.733 497.965 164.551 499.746 164.827C500.636 164.964 501.379 164.969 501.965 164.828C502.557 164.685 502.998 164.391 503.255 163.929L502.905 163.734C502.715 164.076 502.381 164.316 501.872 164.439C501.357 164.563 500.672 164.565 499.807 164.431C498.079 164.164 495.689 163.363 492.632 162.018L492.471 162.384ZM503.255 163.93C503.527 163.444 503.538 162.935 503.295 162.423C503.058 161.925 502.582 161.432 501.898 160.941L501.665 161.266C502.325 161.74 502.738 162.185 502.934 162.595C503.123 162.993 503.112 163.366 502.906 163.734L503.255 163.93ZM501.898 160.941C500.529 159.959 498.379 159.284 495.478 158.898L495.425 159.294C498.305 159.677 500.376 160.341 501.665 161.266L501.898 160.941ZM495.31 158.955C494.389 159.877 493.42 160.915 492.402 162.069L492.702 162.333C493.715 161.185 494.679 160.153 495.593 159.237L495.31 158.955ZM504.17 172.838L504.359 172.902L504.012 172.714L504.17 172.838ZM497.331 181.525L497.488 181.65L497.488 181.649L497.331 181.525ZM495.204 182.08L495.254 181.887L495.254 181.887L495.204 182.08ZM495.345 179.849L495.499 179.976L495.499 179.976L495.345 179.849ZM501.641 172.198L501.487 172.071L501.487 172.071L501.641 172.198ZM508.821 163.924L508.97 164.057L508.97 164.057L508.821 163.924ZM510.903 163.689L510.96 163.497L510.959 163.497L510.903 163.689ZM510.959 165.458L511.096 165.604L511.096 165.604L510.959 165.458ZM508.303 168.973L508.129 168.874L508.129 168.875L508.303 168.973ZM505.075 176.862L505.266 176.921L505.266 176.921L505.075 176.862ZM504.743 184.646L504.874 184.495L504.874 184.495L504.743 184.646ZM516.368 170.481L516.206 170.364L516.2 170.372L516.195 170.381L516.368 170.481ZM518.786 169.38L518.928 169.239L518.928 169.239L518.786 169.38ZM518.961 171.452L519.134 171.553L519.134 171.552L518.961 171.452ZM510.803 183.171L510.95 183.306L510.95 183.306L510.803 183.171ZM504.536 187.787L504.502 187.59L504.501 187.59L504.536 187.787ZM501.782 184.585L501.583 184.606L501.583 184.606L501.782 184.585ZM504.012 172.714L497.174 181.402L497.488 181.649L504.327 172.962L504.012 172.714ZM497.174 181.401C496.956 181.677 496.694 181.85 496.384 181.931C496.072 182.013 495.698 182.003 495.254 181.887L495.153 182.274C495.642 182.402 496.089 182.422 496.485 182.318C496.885 182.214 497.22 181.988 497.488 181.65L497.174 181.401ZM495.254 181.887C495.097 181.846 494.99 181.798 494.921 181.749L494.688 182.074C494.811 182.163 494.97 182.227 495.154 182.274L495.254 181.887ZM494.921 181.749C494.844 181.693 494.797 181.631 494.771 181.564C494.744 181.494 494.734 181.406 494.751 181.292C494.787 181.056 494.935 180.739 495.226 180.334L494.901 180.101C494.598 180.523 494.406 180.902 494.356 181.231C494.33 181.399 494.34 181.56 494.397 181.708C494.455 181.856 494.555 181.978 494.688 182.074L494.921 181.749ZM495.226 180.334C495.325 180.196 495.416 180.077 495.499 179.976L495.191 179.722C495.1 179.831 495.004 179.958 494.901 180.101L495.226 180.334ZM495.499 179.976L501.795 172.325L501.487 172.071L495.191 179.722L495.499 179.976ZM501.795 172.325C503.689 170.03 506.08 167.274 508.97 164.057L508.672 163.79C505.78 167.009 503.385 169.77 501.487 172.071L501.795 172.325ZM508.97 164.057C509.285 163.705 509.873 163.599 510.848 163.881L510.959 163.497C509.95 163.205 509.15 163.256 508.672 163.79L508.97 164.057ZM510.846 163.881C511.047 163.94 511.189 164.006 511.282 164.073L511.515 163.748C511.372 163.645 511.184 163.563 510.96 163.497L510.846 163.881ZM511.282 164.073C511.414 164.167 511.459 164.261 511.462 164.357C511.465 164.466 511.416 164.619 511.269 164.824L511.594 165.057C511.765 164.82 511.869 164.579 511.862 164.344C511.854 164.097 511.724 163.897 511.515 163.748L511.282 164.073ZM511.269 164.824C511.168 164.965 511.021 165.127 510.823 165.312L511.096 165.604C511.305 165.409 511.472 165.227 511.594 165.057L511.269 164.824ZM510.823 165.312C509.861 166.207 508.963 167.397 508.129 168.874L508.477 169.071C509.297 167.619 510.171 166.465 511.096 165.604L510.823 165.312ZM508.129 168.875C506.964 170.938 505.883 173.581 504.884 176.802L505.266 176.921C506.26 173.717 507.331 171.101 508.477 169.071L508.129 168.875ZM504.884 176.802C504.224 178.927 503.861 180.653 503.805 181.976C503.749 183.289 503.992 184.257 504.611 184.797L504.874 184.495C504.398 184.081 504.15 183.275 504.204 181.993C504.259 180.721 504.61 179.032 505.266 176.921L504.884 176.802ZM504.611 184.796C504.909 185.057 505.284 185.108 505.697 184.987C506.1 184.87 506.553 184.588 507.052 184.164C508.053 183.313 509.301 181.84 510.796 179.758L510.471 179.525C508.981 181.601 507.755 183.041 506.793 183.859C506.31 184.269 505.909 184.509 505.585 184.603C505.271 184.695 505.047 184.646 504.874 184.495L504.611 184.796ZM510.796 179.758C512.402 177.52 514.317 174.46 516.542 170.58L516.195 170.381C513.974 174.255 512.066 177.302 510.471 179.525L510.796 179.758ZM516.531 170.597C516.975 169.977 517.368 169.59 517.705 169.407C517.87 169.317 518.015 169.28 518.143 169.282C518.268 169.284 518.39 169.324 518.512 169.412L518.745 169.087C518.564 168.957 518.364 168.886 518.15 168.882C517.937 168.878 517.724 168.941 517.513 169.056C517.097 169.283 516.662 169.729 516.206 170.364L516.531 170.597ZM518.512 169.412C518.573 169.456 518.616 169.492 518.645 169.521L518.928 169.239C518.879 169.189 518.816 169.138 518.745 169.087L518.512 169.412ZM518.644 169.521C518.907 169.785 519.04 170.061 519.064 170.351C519.089 170.645 519.005 170.976 518.788 171.352L519.134 171.552C519.379 171.129 519.496 170.715 519.463 170.318C519.429 169.917 519.244 169.557 518.928 169.239L518.644 169.521ZM518.788 171.351C517.026 174.367 515.419 176.887 513.966 178.911L514.291 179.145C515.753 177.107 517.367 174.576 519.134 171.553L518.788 171.351ZM513.966 178.911C512.819 180.509 511.716 181.883 510.656 183.035L510.95 183.306C512.023 182.14 513.137 180.752 514.291 179.145L513.966 178.911ZM510.656 183.035C509.37 184.431 508.212 185.506 507.181 186.265C506.148 187.026 505.256 187.46 504.502 187.59L504.57 187.984C505.412 187.839 506.362 187.365 507.418 186.587C508.477 185.808 509.654 184.713 510.95 183.306L510.656 183.035ZM504.501 187.59C503.927 187.691 503.471 187.599 503.111 187.341L502.877 187.666C503.344 188.001 503.916 188.099 504.57 187.984L504.501 187.59ZM503.111 187.341C502.526 186.921 502.13 186.025 501.98 184.565L501.583 184.606C501.735 186.092 502.147 187.141 502.877 187.666L503.111 187.341ZM501.98 184.565C501.738 182.197 502.52 178.319 504.359 172.902L503.98 172.774C502.141 178.19 501.33 182.143 501.583 184.606L501.98 184.565ZM529.12 182.133L529.257 181.988L529.256 181.987L529.12 182.133ZM520.879 177.712L520.946 177.524L520.827 177.481L520.738 177.571L520.879 177.712ZM517.24 181.496L517.095 181.359L516.895 181.571L517.164 181.681L517.24 181.496ZM527.514 186.335L527.424 186.513L527.449 186.526L527.476 186.531L527.514 186.335ZM526.222 189.234L526.313 189.413L526.314 189.412L526.222 189.234ZM524.901 189.461L524.818 189.643L524.827 189.648L524.838 189.651L524.901 189.461ZM519.801 186.909L519.894 186.732L519.894 186.732L519.801 186.909ZM514.742 184.252L514.835 184.075L514.691 183.999L514.588 184.125L514.742 184.252ZM512.311 189.909L512.126 189.986L512.126 189.986L512.311 189.909ZM520.314 192.228L520.299 192.428L520.311 192.429L520.323 192.428L520.314 192.228ZM521.181 193.874L521.375 193.921L521.375 193.92L521.181 193.874ZM519.734 195.656L519.719 195.855L519.734 195.857L519.75 195.855L519.734 195.656ZM509.914 191.378L510.108 191.33L510.108 191.33L509.914 191.378ZM512.755 183.162L512.599 183.036L512.599 183.037L512.755 183.162ZM517.457 178.06L517.599 178.201L517.599 178.201L517.457 178.06ZM518.494 176.639L518.668 176.737L518.671 176.732L518.494 176.639ZM519.293 175.081L519.121 174.978L519.118 174.984L519.114 174.991L519.293 175.081ZM522.137 174.252L522.193 174.06L522.193 174.059L522.137 174.252ZM527.307 176.216L527.207 176.389L527.208 176.39L527.307 176.216ZM531.442 179.318L531.308 179.466L531.309 179.468L531.442 179.318ZM531.712 180.485L531.515 180.454L531.515 180.454L531.712 180.485ZM531.285 181.689L531.456 181.792L531.457 181.791L531.285 181.689ZM530.309 182.533L530.26 182.339L530.259 182.34L530.309 182.533ZM529.256 181.987C528.888 181.642 528.471 181.304 528.007 180.971L527.774 181.296C528.226 181.62 528.629 181.948 528.983 182.279L529.256 181.987ZM528.007 180.971C526.317 179.758 523.961 178.61 520.946 177.524L520.811 177.901C523.807 178.98 526.125 180.113 527.774 181.296L528.007 180.971ZM520.738 177.571C519.912 178.392 518.698 179.656 517.095 181.359L517.386 181.633C518.988 179.93 520.199 178.671 521.02 177.854L520.738 177.571ZM517.164 181.681C519.734 182.733 523.154 184.343 527.424 186.513L527.605 186.157C523.331 183.985 519.901 182.369 517.316 181.311L517.164 181.681ZM527.476 186.531C527.695 186.574 527.849 186.637 527.95 186.709L528.184 186.384C528.019 186.266 527.804 186.188 527.553 186.139L527.476 186.531ZM527.95 186.709C528.071 186.796 528.117 186.898 528.104 187.042C528.089 187.204 527.994 187.428 527.784 187.72L528.109 187.954C528.334 187.64 528.477 187.346 528.502 187.079C528.529 186.792 528.418 186.552 528.184 186.384L527.95 186.709ZM527.784 187.72C527.421 188.227 526.873 188.675 526.131 189.057L526.314 189.412C527.097 189.009 527.699 188.525 528.109 187.954L527.784 187.72ZM526.131 189.056C525.623 189.315 525.242 189.365 524.965 189.272L524.838 189.651C525.264 189.794 525.764 189.692 526.313 189.413L526.131 189.056ZM524.985 189.28C523.643 188.663 521.947 187.814 519.894 186.732L519.708 187.086C521.763 188.169 523.467 189.022 524.818 189.643L524.985 189.28ZM519.894 186.732L514.835 184.075L514.649 184.429L519.708 187.086L519.894 186.732ZM514.588 184.125C514.146 184.662 513.772 185.144 513.467 185.569L513.792 185.802C514.091 185.386 514.459 184.912 514.897 184.379L514.588 184.125ZM513.467 185.569C512.811 186.483 512.363 187.307 512.135 188.039C511.906 188.772 511.893 189.426 512.126 189.986L512.495 189.832C512.309 189.386 512.306 188.833 512.517 188.158C512.728 187.482 513.149 186.698 513.792 185.802L513.467 185.569ZM512.126 189.986C512.251 190.285 512.477 190.543 512.787 190.766L513.02 190.441C512.754 190.25 512.585 190.045 512.495 189.832L512.126 189.986ZM512.787 190.766C513.375 191.187 514.301 191.528 515.544 191.801C516.792 192.075 518.378 192.283 520.299 192.428L520.329 192.029C518.418 191.885 516.852 191.679 515.63 191.41C514.403 191.141 513.54 190.814 513.02 190.441L512.787 190.766ZM520.323 192.428C520.576 192.416 520.742 192.463 520.847 192.538L521.08 192.213C520.875 192.066 520.607 192.014 520.304 192.029L520.323 192.428ZM520.847 192.538C520.954 192.615 521.033 192.743 521.064 192.954C521.095 193.169 521.073 193.458 520.986 193.828L521.375 193.92C521.468 193.525 521.501 193.181 521.459 192.897C521.418 192.608 521.298 192.369 521.08 192.213L520.847 192.538ZM520.986 193.828C520.866 194.328 520.706 194.707 520.514 194.974L520.839 195.207C521.072 194.883 521.248 194.451 521.375 193.921L520.986 193.828ZM520.514 194.974C520.295 195.28 520.031 195.432 519.718 195.457L519.75 195.855C520.196 195.82 520.561 195.596 520.839 195.207L520.514 194.974ZM519.749 195.457C515.823 195.152 513.107 194.43 511.559 193.319L511.325 193.644C512.968 194.823 515.779 195.55 519.719 195.855L519.749 195.457ZM511.559 193.319C510.769 192.753 510.293 192.089 510.108 191.33L509.719 191.425C509.932 192.295 510.475 193.034 511.325 193.644L511.559 193.319ZM510.108 191.33C509.599 189.263 510.269 186.898 512.193 184.218L511.868 183.985C509.911 186.712 509.171 189.198 509.719 191.426L510.108 191.33ZM512.193 184.218C512.359 183.986 512.598 183.676 512.911 183.287L512.599 183.037C512.285 183.428 512.04 183.745 511.868 183.985L512.193 184.218ZM512.911 183.287C513.943 182.004 515.505 180.309 517.599 178.201L517.315 177.919C515.217 180.031 513.644 181.737 512.599 183.036L512.911 183.287ZM517.599 178.201C517.983 177.812 518.339 177.323 518.668 176.737L518.319 176.541C518.003 177.103 517.668 177.562 517.315 177.919L517.599 178.201ZM518.671 176.732C518.944 176.21 519.211 175.69 519.472 175.17L519.114 174.991C518.855 175.508 518.589 176.027 518.317 176.546L518.671 176.732ZM519.465 175.183C519.518 175.095 519.577 175.004 519.643 174.912L519.318 174.679C519.246 174.779 519.181 174.879 519.121 174.978L519.465 175.183ZM519.643 174.912C519.873 174.592 520.18 174.394 520.574 174.313C520.975 174.231 521.474 174.269 522.082 174.444L522.193 174.059C521.548 173.874 520.98 173.822 520.494 173.921C520.003 174.022 519.608 174.276 519.318 174.679L519.643 174.912ZM522.081 174.444C524.431 175.124 526.135 175.774 527.207 176.389L527.406 176.043C526.292 175.402 524.55 174.742 522.193 174.06L522.081 174.444ZM527.208 176.39C528.471 177.108 529.837 178.133 531.308 179.466L531.576 179.17C530.092 177.823 528.701 176.779 527.406 176.042L527.208 176.39ZM531.309 179.468C531.501 179.638 531.597 179.941 531.515 180.454L531.91 180.517C532.001 179.946 531.916 179.471 531.575 179.168L531.309 179.468ZM531.515 180.454C531.448 180.872 531.313 181.249 531.113 181.587L531.457 181.791C531.685 181.407 531.835 180.982 531.91 180.517L531.515 180.454ZM531.113 181.586C530.847 182.031 530.559 182.264 530.26 182.339L530.358 182.727C530.798 182.616 531.16 182.287 531.456 181.792L531.113 181.586ZM530.259 182.34C529.946 182.422 529.618 182.328 529.257 181.988L528.982 182.278C529.408 182.681 529.873 182.855 530.36 182.727L530.259 182.34ZM529.947 187.527L529.807 187.384L529.806 187.385L529.947 187.527ZM531.511 184.974L531.319 184.916L531.319 184.917L531.511 184.974ZM533.703 183.744L533.678 183.942L533.678 183.942L533.703 183.744ZM546.202 192.545L546.399 192.576L546.4 192.576L546.202 192.545ZM542.615 198.128L542.746 198.279L542.746 198.279L542.615 198.128ZM534.857 202.179L534.803 201.986L534.803 201.986L534.857 202.179ZM528.018 203.196L528.024 203.395L528.024 203.395L528.018 203.196ZM523.122 202.3L523.233 202.134L523.233 202.134L523.122 202.3ZM521.531 198.506L521.725 198.553L521.725 198.553L521.531 198.506ZM524.443 193.279L524.289 193.151L524.289 193.151L524.443 193.279ZM528.434 200.254L528.458 200.056L528.458 200.056L528.434 200.254ZM536.35 199.07L536.432 199.253L536.432 199.253L536.35 199.07ZM540.842 190.612L541.005 190.496L541.005 190.496L540.842 190.612ZM533.262 187.304L533.296 187.107L533.194 187.09L533.121 187.163L533.262 187.304ZM529.653 190.908L529.512 190.766L529.51 190.767L529.653 190.908ZM526.224 194.657L526.377 194.785L526.378 194.785L526.224 194.657ZM530.088 187.67C530.872 186.897 531.413 186.017 531.703 185.03L531.319 184.917C531.05 185.833 530.547 186.656 529.807 187.384L530.088 187.67ZM531.703 185.031C531.77 184.806 531.853 184.63 531.948 184.498L531.623 184.265C531.495 184.442 531.395 184.662 531.319 184.916L531.703 185.031ZM531.948 184.498C532.277 184.039 532.829 183.833 533.678 183.942L533.728 183.545C532.793 183.426 532.067 183.645 531.623 184.265L531.948 184.498ZM533.678 183.942C538.031 184.487 541.166 185.468 543.112 186.864L543.345 186.54C541.317 185.084 538.102 184.093 533.728 183.545L533.678 183.942ZM543.112 186.864C545.397 188.504 546.334 190.385 546.004 192.515L546.4 192.576C546.758 190.254 545.713 188.239 543.345 186.54L543.112 186.864ZM546.004 192.514C545.838 193.575 545.38 194.633 544.621 195.691L544.946 195.924C545.735 194.825 546.222 193.709 546.399 192.576L546.004 192.514ZM544.621 195.691C544.076 196.451 543.364 197.214 542.484 197.977L542.746 198.279C543.645 197.5 544.379 196.715 544.946 195.924L544.621 195.691ZM542.484 197.977C540.376 199.805 537.818 201.142 534.803 201.986L534.911 202.371C537.976 201.513 540.589 200.15 542.746 198.279L542.484 197.977ZM534.803 201.986C532.647 202.593 530.384 202.93 528.013 202.996L528.024 203.395C530.426 203.328 532.722 202.987 534.912 202.371L534.803 201.986ZM528.013 202.996C525.739 203.058 524.161 202.757 523.233 202.134L523.01 202.466C524.046 203.162 525.732 203.458 528.024 203.395L528.013 202.996ZM523.233 202.134C522.54 201.669 522.079 201.14 521.832 200.552C521.586 199.966 521.546 199.302 521.725 198.553L521.336 198.46C521.141 199.277 521.179 200.029 521.463 200.707C521.747 201.384 522.269 201.969 523.011 202.466L523.233 202.134ZM521.725 198.553C522.018 197.324 522.666 196.004 523.679 194.593L523.354 194.36C522.321 195.799 521.645 197.166 521.336 198.46L521.725 198.553ZM523.679 194.593C523.957 194.206 524.263 193.81 524.597 193.406L524.289 193.151C523.95 193.561 523.638 193.964 523.354 194.36L523.679 194.593ZM524.597 193.406C525.504 192.313 527.332 190.403 530.088 187.669L529.806 187.385C527.051 190.117 525.21 192.041 524.289 193.151L524.597 193.406ZM528.41 200.453C531.224 200.795 533.899 200.395 536.432 199.253L536.267 198.888C533.803 200 531.201 200.39 528.458 200.056L528.41 200.453ZM536.432 199.253C538.507 198.313 540.029 197.186 540.979 195.863L540.654 195.63C539.759 196.877 538.303 197.966 536.267 198.888L536.432 199.253ZM540.979 195.863C541.612 194.981 541.94 194.085 541.945 193.179C541.949 192.273 541.63 191.377 541.005 190.496L540.679 190.728C541.266 191.556 541.549 192.372 541.545 193.177C541.541 193.982 541.25 194.799 540.654 195.63L540.979 195.863ZM541.005 190.496C540.71 190.084 540.317 189.704 539.831 189.355L539.597 189.68C540.056 190.009 540.415 190.359 540.679 190.728L541.005 190.496ZM539.831 189.355C538.435 188.353 536.248 187.609 533.296 187.107L533.229 187.502C536.161 188 538.276 188.731 539.597 189.68L539.831 189.355ZM533.121 187.163L529.512 190.766L529.794 191.049L533.404 187.446L533.121 187.163ZM529.51 190.767C528.135 192.168 526.988 193.422 526.07 194.529L526.378 194.785C527.286 193.689 528.425 192.443 529.796 191.048L529.51 190.767ZM526.07 194.529C525.823 194.826 525.615 195.091 525.448 195.325L525.773 195.558C525.933 195.334 526.135 195.077 526.377 194.785L526.07 194.529ZM525.448 195.325C524.806 196.22 524.445 197.019 524.403 197.716C524.361 198.431 524.657 199.016 525.266 199.453L525.499 199.128C524.993 198.764 524.769 198.307 524.803 197.74C524.837 197.154 525.148 196.429 525.773 195.558L525.448 195.325ZM525.266 199.453C525.971 199.958 527.027 200.286 528.41 200.453L528.458 200.056C527.102 199.892 526.124 199.576 525.499 199.128L525.266 199.453Z" fill="#E83A3B" mask="url(#path-1-outside-1_5_83392)"/>
</svg>
