<svg width="1406" height="934" viewBox="0 0 1406 934" fill="none" xmlns="http://www.w3.org/2000/svg">
<g style="mix-blend-mode:multiply">
<path d="M367.917 730.785C367.992 730.785 368.053 730.724 368.053 730.649C368.053 730.574 367.992 730.513 367.917 730.513C367.842 730.513 367.781 730.574 367.781 730.649C367.781 730.724 367.842 730.785 367.917 730.785Z" fill="#060D14"/>
<path d="M375.001 732.711C375.022 732.711 375.039 732.694 375.039 732.673C375.039 732.652 375.022 732.634 375.001 732.634C374.979 732.634 374.962 732.652 374.962 732.673C374.962 732.694 374.979 732.711 375.001 732.711Z" fill="#060D14"/>
<path d="M337.513 729.89C337.674 729.89 337.805 729.759 337.805 729.598C337.805 729.436 337.674 729.306 337.513 729.306C337.352 729.306 337.221 729.436 337.221 729.598C337.221 729.759 337.352 729.89 337.513 729.89Z" fill="#060D14"/>
<path d="M344.617 731.876C344.757 731.876 344.87 731.763 344.87 731.623C344.87 731.483 344.757 731.37 344.617 731.37C344.477 731.37 344.364 731.483 344.364 731.623C344.364 731.763 344.477 731.876 344.617 731.876Z" fill="#060D14"/>
<path d="M351.703 733.822C351.789 733.822 351.859 733.752 351.859 733.666C351.859 733.58 351.789 733.51 351.703 733.51C351.617 733.51 351.548 733.58 351.548 733.666C351.548 733.752 351.617 733.822 351.703 733.822Z" fill="#060D14"/>
<path d="M358.788 735.769C358.831 735.769 358.866 735.734 358.866 735.691C358.866 735.648 358.831 735.613 358.788 735.613C358.745 735.613 358.71 735.648 358.71 735.691C358.71 735.734 358.745 735.769 358.788 735.769Z" fill="#060D14"/>
<path d="M365.873 737.773C365.894 737.773 365.911 737.756 365.911 737.734C365.911 737.713 365.894 737.696 365.873 737.696C365.852 737.696 365.834 737.713 365.834 737.734C365.834 737.756 365.852 737.773 365.873 737.773Z" fill="#060D14"/>
<path d="M314.213 730.61C314.224 730.61 314.233 730.602 314.233 730.591C314.233 730.58 314.224 730.572 314.213 730.572C314.203 730.572 314.194 730.58 314.194 730.591C314.194 730.602 314.203 730.61 314.213 730.61Z" fill="#060D14"/>
<path d="M321.298 732.652C321.319 732.652 321.337 732.635 321.337 732.614C321.337 732.592 321.319 732.575 321.298 732.575C321.277 732.575 321.26 732.592 321.26 732.614C321.26 732.635 321.277 732.652 321.298 732.652Z" fill="#060D14"/>
<path d="M328.403 734.698C328.425 734.698 328.442 734.68 328.442 734.659C328.442 734.638 328.425 734.621 328.403 734.621C328.382 734.621 328.365 734.638 328.365 734.659C328.365 734.68 328.382 734.698 328.403 734.698Z" fill="#060D14"/>
<path d="M335.489 736.741C335.521 736.741 335.547 736.715 335.547 736.682C335.547 736.65 335.521 736.624 335.489 736.624C335.456 736.624 335.43 736.65 335.43 736.682C335.43 736.715 335.456 736.741 335.489 736.741Z" fill="#060D14"/>
<path d="M342.574 738.766C342.595 738.766 342.613 738.748 342.613 738.727C342.613 738.706 342.595 738.688 342.574 738.688C342.553 738.688 342.536 738.706 342.536 738.727C342.536 738.748 342.553 738.766 342.574 738.766Z" fill="#060D14"/>
<path d="M349.658 740.77C349.669 740.77 349.678 740.761 349.678 740.751C349.678 740.74 349.669 740.731 349.658 740.731C349.648 740.731 349.639 740.74 349.639 740.751C349.639 740.761 349.648 740.77 349.658 740.77Z" fill="#060D14"/>
</g>
<path d="M589.458 301.799C580.086 284.709 569.63 268.237 558.154 252.482C557.491 251.583 556.019 250.42 555.376 251.998C554.732 253.577 555.498 255.815 556.409 257.069C567.548 272.315 577.702 288.259 586.806 304.802C587.273 305.66 588.584 307.711 589.733 306.607C590.882 305.503 590.036 302.902 589.448 301.837L589.458 301.799Z" fill="#E83A3B"/>
</svg>
