<svg width="1406" height="934" viewBox="0 0 1406 934" fill="none" xmlns="http://www.w3.org/2000/svg">
<g style="mix-blend-mode:multiply">
<path d="M709.289 669.02C709.295 669.02 709.299 669.016 709.299 669.01C709.299 669.004 709.295 669 709.289 669C709.284 669 709.279 669.004 709.279 669.01C709.279 669.016 709.284 669.02 709.289 669.02Z" fill="#060D14"/>
<path d="M712.94 670.07C712.951 670.07 712.96 670.061 712.96 670.05C712.96 670.039 712.951 670.03 712.94 670.03C712.929 670.03 712.92 670.039 712.92 670.05C712.92 670.061 712.929 670.07 712.94 670.07Z" fill="#060D14"/>
<path d="M716.581 671.13C716.597 671.13 716.611 671.116 716.611 671.1C716.611 671.083 716.597 671.07 716.581 671.07C716.564 671.07 716.551 671.083 716.551 671.1C716.551 671.116 716.564 671.13 716.581 671.13Z" fill="#060D14"/>
<path d="M720.219 672.17C720.236 672.17 720.249 672.156 720.249 672.14C720.249 672.123 720.236 672.11 720.219 672.11C720.203 672.11 720.189 672.123 720.189 672.14C720.189 672.156 720.203 672.17 720.219 672.17Z" fill="#060D14"/>
<path d="M723.869 673.2C723.875 673.2 723.879 673.196 723.879 673.19C723.879 673.185 723.875 673.18 723.869 673.18C723.864 673.18 723.859 673.185 723.859 673.19C723.859 673.196 723.864 673.2 723.869 673.2Z" fill="#060D14"/>
<path d="M700.971 670.57C700.976 670.57 700.981 670.565 700.981 670.56C700.981 670.554 700.976 670.55 700.971 670.55C700.965 670.55 700.961 670.554 700.961 670.56C700.961 670.565 700.965 670.57 700.971 670.57Z" fill="#060D14"/>
<path d="M704.61 671.64C704.627 671.64 704.64 671.627 704.64 671.61C704.64 671.594 704.627 671.58 704.61 671.58C704.594 671.58 704.58 671.594 704.58 671.61C704.58 671.627 704.594 671.64 704.61 671.64Z" fill="#060D14"/>
<path d="M708.25 672.72C708.288 672.72 708.32 672.689 708.32 672.65C708.32 672.611 708.288 672.58 708.25 672.58C708.211 672.58 708.18 672.611 708.18 672.65C708.18 672.689 708.211 672.72 708.25 672.72Z" fill="#060D14"/>
<path d="M711.89 673.83C711.962 673.83 712.02 673.772 712.02 673.7C712.02 673.628 711.962 673.57 711.89 673.57C711.818 673.57 711.76 673.628 711.76 673.7C711.76 673.772 711.818 673.83 711.89 673.83Z" fill="#060D14"/>
<path d="M715.541 674.9C715.629 674.9 715.701 674.828 715.701 674.74C715.701 674.652 715.629 674.58 715.541 674.58C715.452 674.58 715.381 674.652 715.381 674.74C715.381 674.828 715.452 674.9 715.541 674.9Z" fill="#060D14"/>
<path d="M719.179 675.93C719.256 675.93 719.319 675.867 719.319 675.79C719.319 675.713 719.256 675.65 719.179 675.65C719.102 675.65 719.039 675.713 719.039 675.79C719.039 675.867 719.102 675.93 719.179 675.93Z" fill="#060D14"/>
<path d="M722.82 676.9C722.859 676.9 722.89 676.868 722.89 676.83C722.89 676.791 722.859 676.76 722.82 676.76C722.781 676.76 722.75 676.791 722.75 676.83C722.75 676.868 722.781 676.9 722.82 676.9Z" fill="#060D14"/>
<path d="M726.46 677.91C726.476 677.91 726.49 677.897 726.49 677.88C726.49 677.864 726.476 677.85 726.46 677.85C726.443 677.85 726.43 677.864 726.43 677.88C726.43 677.897 726.443 677.91 726.46 677.91Z" fill="#060D14"/>
<path d="M730.11 678.93C730.115 678.93 730.12 678.926 730.12 678.92C730.12 678.915 730.115 678.91 730.11 678.91C730.104 678.91 730.1 678.915 730.1 678.92C730.1 678.926 730.104 678.93 730.11 678.93Z" fill="#060D14"/>
<path d="M699.921 674.24C699.937 674.24 699.951 674.227 699.951 674.21C699.951 674.194 699.937 674.18 699.921 674.18C699.904 674.18 699.891 674.194 699.891 674.21C699.891 674.227 699.904 674.24 699.921 674.24Z" fill="#060D14"/>
<path d="M703.559 675.37C703.626 675.37 703.679 675.316 703.679 675.25C703.679 675.184 703.626 675.13 703.559 675.13C703.493 675.13 703.439 675.184 703.439 675.25C703.439 675.316 703.493 675.37 703.559 675.37Z" fill="#060D14"/>
<path d="M707.209 676.56C707.353 676.56 707.469 676.444 707.469 676.3C707.469 676.156 707.353 676.04 707.209 676.04C707.066 676.04 706.949 676.156 706.949 676.3C706.949 676.444 707.066 676.56 707.209 676.56Z" fill="#060D14"/>
<path d="M710.85 677.76C711.082 677.76 711.27 677.572 711.27 677.34C711.27 677.108 711.082 676.92 710.85 676.92C710.618 676.92 710.43 677.108 710.43 677.34C710.43 677.572 710.618 677.76 710.85 677.76Z" fill="#060D14"/>
<path d="M714.49 678.86C714.755 678.86 714.97 678.645 714.97 678.38C714.97 678.115 714.755 677.9 714.49 677.9C714.225 677.9 714.01 678.115 714.01 678.38C714.01 678.645 714.225 678.86 714.49 678.86Z" fill="#060D14"/>
<path d="M718.131 679.84C718.357 679.84 718.541 679.656 718.541 679.43C718.541 679.204 718.357 679.02 718.131 679.02C717.904 679.02 717.721 679.204 717.721 679.43C717.721 679.656 717.904 679.84 718.131 679.84Z" fill="#060D14"/>
<path d="M721.779 680.71C721.912 680.71 722.019 680.603 722.019 680.47C722.019 680.337 721.912 680.23 721.779 680.23C721.647 680.23 721.539 680.337 721.539 680.47C721.539 680.603 721.647 680.71 721.779 680.71Z" fill="#060D14"/>
<path d="M725.421 681.63C725.481 681.63 725.531 681.581 725.531 681.52C725.531 681.459 725.481 681.41 725.421 681.41C725.36 681.41 725.311 681.459 725.311 681.52C725.311 681.581 725.36 681.63 725.421 681.63Z" fill="#060D14"/>
<path d="M729.059 682.59C729.076 682.59 729.089 682.576 729.089 682.56C729.089 682.543 729.076 682.53 729.059 682.53C729.043 682.53 729.029 682.543 729.029 682.56C729.029 682.576 729.043 682.59 729.059 682.59Z" fill="#060D14"/>
<path d="M732.699 683.62C732.705 683.62 732.709 683.616 732.709 683.61C732.709 683.605 732.705 683.6 732.699 683.6C732.694 683.6 732.689 683.605 732.689 683.61C732.689 683.616 732.694 683.62 732.699 683.62Z" fill="#060D14"/>
<path d="M695.231 676.82C695.242 676.82 695.251 676.811 695.251 676.8C695.251 676.789 695.242 676.78 695.231 676.78C695.22 676.78 695.211 676.789 695.211 676.8C695.211 676.811 695.22 676.82 695.231 676.82Z" fill="#060D14"/>
<path d="M698.881 677.93C698.925 677.93 698.961 677.894 698.961 677.85C698.961 677.806 698.925 677.77 698.881 677.77C698.837 677.77 698.801 677.806 698.801 677.85C698.801 677.894 698.837 677.93 698.881 677.93Z" fill="#060D14"/>
<path d="M702.52 679.15C702.663 679.15 702.78 679.033 702.78 678.89C702.78 678.746 702.663 678.63 702.52 678.63C702.376 678.63 702.26 678.746 702.26 678.89C702.26 679.033 702.376 679.15 702.52 679.15Z" fill="#060D14"/>
<path d="M706.16 680.51C706.475 680.51 706.73 680.255 706.73 679.94C706.73 679.625 706.475 679.37 706.16 679.37C705.845 679.37 705.59 679.625 705.59 679.94C705.59 680.255 705.845 680.51 706.16 680.51Z" fill="#060D14"/>
<path d="M709.8 681.88C710.297 681.88 710.7 681.477 710.7 680.98C710.7 680.483 710.297 680.08 709.8 680.08C709.303 680.08 708.9 680.483 708.9 680.98C708.9 681.477 709.303 681.88 709.8 681.88Z" fill="#060D14"/>
<path d="M713.45 683.07C714.025 683.07 714.49 682.605 714.49 682.03C714.49 681.456 714.025 680.99 713.45 680.99C712.876 680.99 712.41 681.456 712.41 682.03C712.41 682.605 712.876 683.07 713.45 683.07Z" fill="#060D14"/>
<path d="M717.091 683.95C717.577 683.95 717.971 683.556 717.971 683.07C717.971 682.584 717.577 682.19 717.091 682.19C716.605 682.19 716.211 682.584 716.211 683.07C716.211 683.556 716.605 683.95 717.091 683.95Z" fill="#060D14"/>
<path d="M720.73 684.69C721.045 684.69 721.3 684.435 721.3 684.12C721.3 683.805 721.045 683.55 720.73 683.55C720.415 683.55 720.16 683.805 720.16 684.12C720.16 684.435 720.415 684.69 720.73 684.69Z" fill="#060D14"/>
<path d="M724.37 685.44C724.524 685.44 724.65 685.315 724.65 685.16C724.65 685.005 724.524 684.88 724.37 684.88C724.215 684.88 724.09 685.005 724.09 685.16C724.09 685.315 724.215 685.44 724.37 685.44Z" fill="#060D14"/>
<path d="M728.02 686.32C728.081 686.32 728.13 686.271 728.13 686.21C728.13 686.149 728.081 686.1 728.02 686.1C727.959 686.1 727.91 686.149 727.91 686.21C727.91 686.271 727.959 686.32 728.02 686.32Z" fill="#060D14"/>
<path d="M731.661 687.28C731.677 687.28 731.691 687.267 731.691 687.25C731.691 687.234 731.677 687.22 731.661 687.22C731.644 687.22 731.631 687.234 731.631 687.25C731.631 687.267 731.644 687.28 731.661 687.28Z" fill="#060D14"/>
<path d="M735.299 688.3C735.305 688.3 735.309 688.295 735.309 688.29C735.309 688.284 735.305 688.28 735.299 688.28C735.294 688.28 735.289 688.284 735.289 688.29C735.289 688.295 735.294 688.3 735.299 688.3Z" fill="#060D14"/>
<path d="M694.19 680.48C694.207 680.48 694.22 680.466 694.22 680.45C694.22 680.433 694.207 680.42 694.19 680.42C694.174 680.42 694.16 680.433 694.16 680.45C694.16 680.466 694.174 680.48 694.19 680.48Z" fill="#060D14"/>
<path d="M697.829 681.62C697.901 681.62 697.959 681.562 697.959 681.49C697.959 681.418 697.901 681.36 697.829 681.36C697.757 681.36 697.699 681.418 697.699 681.49C697.699 681.562 697.757 681.62 697.829 681.62Z" fill="#060D14"/>
<path d="M701.471 682.95C701.697 682.95 701.881 682.766 701.881 682.54C701.881 682.313 701.697 682.13 701.471 682.13C701.244 682.13 701.061 682.313 701.061 682.54C701.061 682.766 701.244 682.95 701.471 682.95Z" fill="#060D14"/>
<path d="M705.12 684.47C705.612 684.47 706.01 684.071 706.01 683.58C706.01 683.088 705.612 682.69 705.12 682.69C704.629 682.69 704.23 683.088 704.23 683.58C704.23 684.071 704.629 684.47 705.12 684.47Z" fill="#060D14"/>
<path d="M708.76 686.06C709.55 686.06 710.19 685.42 710.19 684.63C710.19 683.84 709.55 683.2 708.76 683.2C707.97 683.2 707.33 683.84 707.33 684.63C707.33 685.42 707.97 686.06 708.76 686.06Z" fill="#060D14"/>
<path d="M712.401 687.35C713.329 687.35 714.081 686.598 714.081 685.67C714.081 684.742 713.329 683.99 712.401 683.99C711.473 683.99 710.721 684.742 710.721 685.67C710.721 686.598 711.473 687.35 712.401 687.35Z" fill="#060D14"/>
<path d="M716.041 688.2C716.864 688.2 717.531 687.533 717.531 686.71C717.531 685.887 716.864 685.22 716.041 685.22C715.218 685.22 714.551 685.887 714.551 686.71C714.551 687.533 715.218 688.2 716.041 688.2Z" fill="#060D14"/>
<path d="M719.69 688.8C720.265 688.8 720.73 688.335 720.73 687.76C720.73 687.186 720.265 686.72 719.69 686.72C719.116 686.72 718.65 687.186 718.65 687.76C718.65 688.335 719.116 688.8 719.69 688.8Z" fill="#060D14"/>
<path d="M723.33 689.4C723.662 689.4 723.93 689.132 723.93 688.8C723.93 688.469 723.662 688.2 723.33 688.2C722.999 688.2 722.73 688.469 722.73 688.8C722.73 689.132 722.999 689.4 723.33 689.4Z" fill="#060D14"/>
<path d="M726.97 690.14C727.13 690.14 727.26 690.01 727.26 689.85C727.26 689.69 727.13 689.56 726.97 689.56C726.81 689.56 726.68 689.69 726.68 689.85C726.68 690.01 726.81 690.14 726.97 690.14Z" fill="#060D14"/>
<path d="M730.62 691.01C730.686 691.01 730.74 690.956 730.74 690.89C730.74 690.824 730.686 690.77 730.62 690.77C730.554 690.77 730.5 690.824 730.5 690.89C730.5 690.956 730.554 691.01 730.62 691.01Z" fill="#060D14"/>
<path d="M734.26 691.97C734.277 691.97 734.29 691.957 734.29 691.94C734.29 691.924 734.277 691.91 734.26 691.91C734.244 691.91 734.23 691.924 734.23 691.94C734.23 691.957 734.244 691.97 734.26 691.97Z" fill="#060D14"/>
<path d="M693.139 684.12C693.156 684.12 693.169 684.107 693.169 684.09C693.169 684.073 693.156 684.06 693.139 684.06C693.123 684.06 693.109 684.073 693.109 684.09C693.109 684.107 693.123 684.12 693.139 684.12Z" fill="#060D14"/>
<path d="M696.791 685.29C696.879 685.29 696.951 685.219 696.951 685.13C696.951 685.042 696.879 684.97 696.791 684.97C696.702 684.97 696.631 685.042 696.631 685.13C696.631 685.219 696.702 685.29 696.791 685.29Z" fill="#060D14"/>
<path d="M700.429 686.67C700.7 686.67 700.919 686.451 700.919 686.18C700.919 685.909 700.7 685.69 700.429 685.69C700.159 685.69 699.939 685.909 699.939 686.18C699.939 686.451 700.159 686.67 700.429 686.67Z" fill="#060D14"/>
<path d="M704.07 688.3C704.667 688.3 705.15 687.817 705.15 687.22C705.15 686.624 704.667 686.14 704.07 686.14C703.474 686.14 702.99 686.624 702.99 687.22C702.99 687.817 703.474 688.3 704.07 688.3Z" fill="#060D14"/>
<path d="M707.721 690.02C708.687 690.02 709.471 689.237 709.471 688.27C709.471 687.304 708.687 686.52 707.721 686.52C706.754 686.52 705.971 687.304 705.971 688.27C705.971 689.237 706.754 690.02 707.721 690.02Z" fill="#060D14"/>
<path d="M711.361 691.45C712.543 691.45 713.501 690.492 713.501 689.31C713.501 688.128 712.543 687.17 711.361 687.17C710.179 687.17 709.221 688.128 709.221 689.31C709.221 690.492 710.179 691.45 711.361 691.45Z" fill="#060D14"/>
<path d="M715.001 692.4C716.128 692.4 717.041 691.486 717.041 690.36C717.041 689.233 716.128 688.32 715.001 688.32C713.874 688.32 712.961 689.233 712.961 690.36C712.961 691.486 713.874 692.4 715.001 692.4Z" fill="#060D14"/>
<path d="M718.641 692.99C719.519 692.99 720.231 692.278 720.231 691.4C720.231 690.522 719.519 689.81 718.641 689.81C717.763 689.81 717.051 690.522 717.051 691.4C717.051 692.278 717.763 692.99 718.641 692.99Z" fill="#060D14"/>
<path d="M722.29 693.51C722.876 693.51 723.35 693.036 723.35 692.45C723.35 691.865 722.876 691.39 722.29 691.39C721.705 691.39 721.23 691.865 721.23 692.45C721.23 693.036 721.705 693.51 722.29 693.51Z" fill="#060D14"/>
<path d="M725.93 694.1C726.267 694.1 726.54 693.827 726.54 693.49C726.54 693.153 726.267 692.88 725.93 692.88C725.593 692.88 725.32 693.153 725.32 693.49C725.32 693.827 725.593 694.1 725.93 694.1Z" fill="#060D14"/>
<path d="M729.571 694.81C729.72 694.81 729.841 694.689 729.841 694.54C729.841 694.391 729.72 694.27 729.571 694.27C729.422 694.27 729.301 694.391 729.301 694.54C729.301 694.689 729.422 694.81 729.571 694.81Z" fill="#060D14"/>
<path d="M733.211 695.66C733.255 695.66 733.291 695.624 733.291 695.58C733.291 695.536 733.255 695.5 733.211 695.5C733.167 695.5 733.131 695.536 733.131 695.58C733.131 695.624 733.167 695.66 733.211 695.66Z" fill="#060D14"/>
<path d="M736.86 696.64C736.871 696.64 736.88 696.631 736.88 696.62C736.88 696.609 736.871 696.6 736.86 696.6C736.849 696.6 736.84 696.609 736.84 696.62C736.84 696.631 736.849 696.64 736.86 696.64Z" fill="#060D14"/>
<path d="M692.1 687.75C692.111 687.75 692.12 687.741 692.12 687.73C692.12 687.719 692.111 687.71 692.1 687.71C692.089 687.71 692.08 687.719 692.08 687.73C692.08 687.741 692.089 687.75 692.1 687.75Z" fill="#060D14"/>
<path d="M695.74 688.92C695.817 688.92 695.88 688.857 695.88 688.78C695.88 688.703 695.817 688.64 695.74 688.64C695.662 688.64 695.6 688.703 695.6 688.78C695.6 688.857 695.662 688.92 695.74 688.92Z" fill="#060D14"/>
<path d="M699.39 690.28C699.644 690.28 699.85 690.074 699.85 689.82C699.85 689.566 699.644 689.36 699.39 689.36C699.136 689.36 698.93 689.566 698.93 689.82C698.93 690.074 699.136 690.28 699.39 690.28Z" fill="#060D14"/>
<path d="M703.031 691.93C703.616 691.93 704.091 691.455 704.091 690.87C704.091 690.285 703.616 689.81 703.031 689.81C702.445 689.81 701.971 690.285 701.971 690.87C701.971 691.455 702.445 691.93 703.031 691.93Z" fill="#060D14"/>
<path d="M706.671 693.7C707.659 693.7 708.461 692.899 708.461 691.91C708.461 690.922 707.659 690.12 706.671 690.12C705.682 690.12 704.881 690.922 704.881 691.91C704.881 692.899 705.682 693.7 706.671 693.7Z" fill="#060D14"/>
<path d="M710.31 695.26C711.58 695.26 712.61 694.23 712.61 692.96C712.61 691.69 711.58 690.66 710.31 690.66C709.04 690.66 708.01 691.69 708.01 692.96C708.01 694.23 709.04 695.26 710.31 695.26Z" fill="#060D14"/>
<path d="M713.959 696.35C715.257 696.35 716.309 695.298 716.309 694C716.309 692.702 715.257 691.65 713.959 691.65C712.662 691.65 711.609 692.702 711.609 694C711.609 695.298 712.662 696.35 713.959 696.35Z" fill="#060D14"/>
<path d="M717.599 697.1C718.737 697.1 719.659 696.178 719.659 695.04C719.659 693.902 718.737 692.98 717.599 692.98C716.461 692.98 715.539 693.902 715.539 695.04C715.539 696.178 716.461 697.1 717.599 697.1Z" fill="#060D14"/>
<path d="M721.239 697.63C722.09 697.63 722.779 696.94 722.779 696.09C722.779 695.239 722.09 694.55 721.239 694.55C720.389 694.55 719.699 695.239 719.699 696.09C719.699 696.94 720.389 697.63 721.239 697.63Z" fill="#060D14"/>
<path d="M724.88 698.09C725.41 698.09 725.84 697.66 725.84 697.13C725.84 696.6 725.41 696.17 724.88 696.17C724.35 696.17 723.92 696.6 723.92 697.13C723.92 697.66 724.35 698.09 724.88 698.09Z" fill="#060D14"/>
<path d="M728.53 698.63C728.779 698.63 728.98 698.429 728.98 698.18C728.98 697.931 728.779 697.73 728.53 697.73C728.282 697.73 728.08 697.931 728.08 698.18C728.08 698.429 728.282 698.63 728.53 698.63Z" fill="#060D14"/>
<path d="M732.17 699.38C732.258 699.38 732.33 699.308 732.33 699.22C732.33 699.132 732.258 699.06 732.17 699.06C732.081 699.06 732.01 699.132 732.01 699.22C732.01 699.308 732.081 699.38 732.17 699.38Z" fill="#060D14"/>
<path d="M735.809 700.3C735.826 700.3 735.839 700.287 735.839 700.27C735.839 700.254 735.826 700.24 735.809 700.24C735.793 700.24 735.779 700.254 735.779 700.27C735.779 700.287 735.793 700.3 735.809 700.3Z" fill="#060D14"/>
<path d="M691.059 691.4C691.07 691.4 691.079 691.391 691.079 691.38C691.079 691.369 691.07 691.36 691.059 691.36C691.048 691.36 691.039 691.369 691.039 691.38C691.039 691.391 691.048 691.4 691.059 691.4Z" fill="#060D14"/>
<path d="M694.7 692.53C694.761 692.53 694.81 692.481 694.81 692.42C694.81 692.359 694.761 692.31 694.7 692.31C694.639 692.31 694.59 692.359 694.59 692.42C694.59 692.481 694.639 692.53 694.7 692.53Z" fill="#060D14"/>
<path d="M698.341 693.84C698.551 693.84 698.721 693.67 698.721 693.46C698.721 693.25 698.551 693.08 698.341 693.08C698.131 693.08 697.961 693.25 697.961 693.46C697.961 693.67 698.131 693.84 698.341 693.84Z" fill="#060D14"/>
<path d="M701.98 695.42C702.483 695.42 702.89 695.013 702.89 694.51C702.89 694.008 702.483 693.6 701.98 693.6C701.478 693.6 701.07 694.008 701.07 694.51C701.07 695.013 701.478 695.42 701.98 695.42Z" fill="#060D14"/>
<path d="M705.63 697.18C706.53 697.18 707.26 696.45 707.26 695.55C707.26 694.65 706.53 693.92 705.63 693.92C704.73 693.92 704 694.65 704 695.55C704 696.45 704.73 697.18 705.63 697.18Z" fill="#060D14"/>
<path d="M709.271 698.81C710.491 698.81 711.481 697.821 711.481 696.6C711.481 695.38 710.491 694.39 709.271 694.39C708.05 694.39 707.061 695.38 707.061 696.6C707.061 697.821 708.05 698.81 709.271 698.81Z" fill="#060D14"/>
<path d="M712.91 700.03C714.229 700.03 715.3 698.96 715.3 697.64C715.3 696.32 714.229 695.25 712.91 695.25C711.59 695.25 710.52 696.32 710.52 697.64C710.52 698.96 711.59 700.03 712.91 700.03Z" fill="#060D14"/>
<path d="M716.55 700.91C717.776 700.91 718.77 699.916 718.77 698.69C718.77 697.464 717.776 696.47 716.55 696.47C715.324 696.47 714.33 697.464 714.33 698.69C714.33 699.916 715.324 700.91 716.55 700.91Z" fill="#060D14"/>
<path d="M720.199 701.48C721.166 701.48 721.949 700.696 721.949 699.73C721.949 698.763 721.166 697.98 720.199 697.98C719.233 697.98 718.449 698.763 718.449 699.73C718.449 700.696 719.233 701.48 720.199 701.48Z" fill="#060D14"/>
<path d="M723.84 701.89C724.454 701.89 724.95 701.393 724.95 700.78C724.95 700.167 724.454 699.67 723.84 699.67C723.227 699.67 722.73 700.167 722.73 700.78C722.73 701.393 723.227 701.89 723.84 701.89Z" fill="#060D14"/>
<path d="M727.48 702.37C727.783 702.37 728.03 702.124 728.03 701.82C728.03 701.516 727.783 701.27 727.48 701.27C727.176 701.27 726.93 701.516 726.93 701.82C726.93 702.124 727.176 702.37 727.48 702.37Z" fill="#060D14"/>
<path d="M731.12 703.05C731.225 703.05 731.31 702.965 731.31 702.86C731.31 702.755 731.225 702.67 731.12 702.67C731.015 702.67 730.93 702.755 730.93 702.86C730.93 702.965 731.015 703.05 731.12 703.05Z" fill="#060D14"/>
<path d="M734.77 703.95C734.793 703.95 734.81 703.932 734.81 703.91C734.81 703.888 734.793 703.87 734.77 703.87C734.748 703.87 734.73 703.888 734.73 703.91C734.73 703.932 734.748 703.95 734.77 703.95Z" fill="#060D14"/>
<path d="M690.01 695.03C690.016 695.03 690.02 695.025 690.02 695.02C690.02 695.014 690.016 695.01 690.01 695.01C690.004 695.01 690 695.014 690 695.02C690 695.025 690.004 695.03 690.01 695.03Z" fill="#060D14"/>
<path d="M693.65 696.13C693.689 696.13 693.72 696.099 693.72 696.06C693.72 696.022 693.689 695.99 693.65 695.99C693.611 695.99 693.58 696.022 693.58 696.06C693.58 696.099 693.611 696.13 693.65 696.13Z" fill="#060D14"/>
<path d="M697.3 697.39C697.454 697.39 697.58 697.265 697.58 697.11C697.58 696.955 697.454 696.83 697.3 696.83C697.145 696.83 697.02 696.955 697.02 697.11C697.02 697.265 697.145 697.39 697.3 697.39Z" fill="#060D14"/>
<path d="M700.941 698.88C701.344 698.88 701.671 698.553 701.671 698.15C701.671 697.747 701.344 697.42 700.941 697.42C700.538 697.42 700.211 697.747 700.211 698.15C700.211 698.553 700.538 698.88 700.941 698.88Z" fill="#060D14"/>
<path d="M704.581 700.56C705.332 700.56 705.941 699.951 705.941 699.2C705.941 698.449 705.332 697.84 704.581 697.84C703.83 697.84 703.221 698.449 703.221 699.2C703.221 699.951 703.83 700.56 704.581 700.56Z" fill="#060D14"/>
<path d="M708.22 702.12C709.258 702.12 710.1 701.278 710.1 700.24C710.1 699.202 709.258 698.36 708.22 698.36C707.182 698.36 706.34 699.202 706.34 700.24C706.34 701.278 707.182 702.12 708.22 702.12Z" fill="#060D14"/>
<path d="M711.871 703.35C713.008 703.35 713.931 702.428 713.931 701.29C713.931 700.152 713.008 699.23 711.871 699.23C710.733 699.23 709.811 700.152 709.811 701.29C709.811 702.428 710.733 703.35 711.871 703.35Z" fill="#060D14"/>
<path d="M715.509 704.23C716.559 704.23 717.409 703.38 717.409 702.33C717.409 701.281 716.559 700.43 715.509 700.43C714.46 700.43 713.609 701.281 713.609 702.33C713.609 703.38 714.46 704.23 715.509 704.23Z" fill="#060D14"/>
<path d="M719.15 704.87C719.979 704.87 720.65 704.199 720.65 703.37C720.65 702.542 719.979 701.87 719.15 701.87C718.322 701.87 717.65 702.542 717.65 703.37C717.65 704.199 718.322 704.87 719.15 704.87Z" fill="#060D14"/>
<path d="M722.79 705.38C723.32 705.38 723.75 704.95 723.75 704.42C723.75 703.89 723.32 703.46 722.79 703.46C722.26 703.46 721.83 703.89 721.83 704.42C721.83 704.95 722.26 705.38 722.79 705.38Z" fill="#060D14"/>
<path d="M726.441 705.93C726.7 705.93 726.911 705.72 726.911 705.46C726.911 705.201 726.7 704.99 726.441 704.99C726.181 704.99 725.971 705.201 725.971 705.46C725.971 705.72 726.181 705.93 726.441 705.93Z" fill="#060D14"/>
<path d="M730.08 706.68C730.174 706.68 730.25 706.604 730.25 706.51C730.25 706.416 730.174 706.34 730.08 706.34C729.986 706.34 729.91 706.416 729.91 706.51C729.91 706.604 729.986 706.68 730.08 706.68Z" fill="#060D14"/>
<path d="M733.719 707.58C733.736 707.58 733.749 707.567 733.749 707.55C733.749 707.533 733.736 707.52 733.719 707.52C733.703 707.52 733.689 707.533 733.689 707.55C733.689 707.567 733.703 707.58 733.719 707.58Z" fill="#060D14"/>
<path d="M692.61 699.75C692.632 699.75 692.65 699.732 692.65 699.71C692.65 699.688 692.632 699.67 692.61 699.67C692.588 699.67 692.57 699.688 692.57 699.71C692.57 699.732 692.588 699.75 692.61 699.75Z" fill="#060D14"/>
<path d="M696.251 700.94C696.355 700.94 696.441 700.855 696.441 700.75C696.441 700.645 696.355 700.56 696.251 700.56C696.146 700.56 696.061 700.645 696.061 700.75C696.061 700.855 696.146 700.94 696.251 700.94Z" fill="#060D14"/>
<path d="M699.891 702.3C700.173 702.3 700.401 702.071 700.401 701.79C700.401 701.508 700.173 701.28 699.891 701.28C699.609 701.28 699.381 701.508 699.381 701.79C699.381 702.071 699.609 702.3 699.891 702.3Z" fill="#060D14"/>
<path d="M703.54 703.8C704.07 703.8 704.5 703.37 704.5 702.84C704.5 702.31 704.07 701.88 703.54 701.88C703.01 701.88 702.58 702.31 702.58 702.84C702.58 703.37 703.01 703.8 703.54 703.8Z" fill="#060D14"/>
<path d="M707.179 705.19C707.903 705.19 708.489 704.603 708.489 703.88C708.489 703.156 707.903 702.57 707.179 702.57C706.456 702.57 705.869 703.156 705.869 703.88C705.869 704.603 706.456 705.19 707.179 705.19Z" fill="#060D14"/>
<path d="M710.82 706.33C711.593 706.33 712.22 705.703 712.22 704.93C712.22 704.157 711.593 703.53 710.82 703.53C710.047 703.53 709.42 704.157 709.42 704.93C709.42 705.703 710.047 706.33 710.82 706.33Z" fill="#060D14"/>
<path d="M714.461 707.21C715.146 707.21 715.701 706.655 715.701 705.97C715.701 705.285 715.146 704.73 714.461 704.73C713.776 704.73 713.221 705.285 713.221 705.97C713.221 706.655 713.776 707.21 714.461 707.21Z" fill="#060D14"/>
<path d="M718.11 707.98C718.641 707.98 719.07 707.55 719.07 707.02C719.07 706.49 718.641 706.06 718.11 706.06C717.58 706.06 717.15 706.49 717.15 707.02C717.15 707.55 717.58 707.98 718.11 707.98Z" fill="#060D14"/>
<path d="M721.751 708.67C722.088 708.67 722.361 708.397 722.361 708.06C722.361 707.723 722.088 707.45 721.751 707.45C721.414 707.45 721.141 707.723 721.141 708.06C721.141 708.397 721.414 708.67 721.751 708.67Z" fill="#060D14"/>
<path d="M725.39 709.4C725.55 709.4 725.68 709.27 725.68 709.11C725.68 708.95 725.55 708.82 725.39 708.82C725.229 708.82 725.1 708.95 725.1 709.11C725.1 709.27 725.229 709.4 725.39 709.4Z" fill="#060D14"/>
<path d="M729.04 710.26C729.1 710.26 729.15 710.211 729.15 710.15C729.15 710.089 729.1 710.04 729.04 710.04C728.979 710.04 728.93 710.089 728.93 710.15C728.93 710.211 728.979 710.26 729.04 710.26Z" fill="#060D14"/>
<path d="M732.68 711.21C732.691 711.21 732.7 711.201 732.7 711.19C732.7 711.179 732.691 711.17 732.68 711.17C732.669 711.17 732.66 711.179 732.66 711.19C732.66 711.201 732.669 711.21 732.68 711.21Z" fill="#060D14"/>
<path d="M691.559 703.37C691.57 703.37 691.579 703.361 691.579 703.35C691.579 703.339 691.57 703.33 691.559 703.33C691.548 703.33 691.539 703.339 691.539 703.35C691.539 703.361 691.548 703.37 691.559 703.37Z" fill="#060D14"/>
<path d="M695.209 704.48C695.259 704.48 695.299 704.44 695.299 704.39C695.299 704.34 695.259 704.3 695.209 704.3C695.159 704.3 695.119 704.34 695.119 704.39C695.119 704.44 695.159 704.48 695.209 704.48Z" fill="#060D14"/>
<path d="M698.85 705.71C698.999 705.71 699.12 705.589 699.12 705.44C699.12 705.291 698.999 705.17 698.85 705.17C698.701 705.17 698.58 705.291 698.58 705.44C698.58 705.589 698.701 705.71 698.85 705.71Z" fill="#060D14"/>
<path d="M702.491 707.01C702.784 707.01 703.021 706.773 703.021 706.48C703.021 706.187 702.784 705.95 702.491 705.95C702.198 705.95 701.961 706.187 701.961 706.48C701.961 706.773 702.198 707.01 702.491 707.01Z" fill="#060D14"/>
<path d="M706.139 708.23C706.526 708.23 706.839 707.917 706.839 707.53C706.839 707.143 706.526 706.83 706.139 706.83C705.753 706.83 705.439 707.143 705.439 707.53C705.439 707.917 705.753 708.23 706.139 708.23Z" fill="#060D14"/>
<path d="M709.781 709.3C710.184 709.3 710.511 708.973 710.511 708.57C710.511 708.167 710.184 707.84 709.781 707.84C709.378 707.84 709.051 708.167 709.051 708.57C709.051 708.973 709.378 709.3 709.781 709.3Z" fill="#060D14"/>
<path d="M713.421 710.23C713.763 710.23 714.041 709.953 714.041 709.61C714.041 709.268 713.763 708.99 713.421 708.99C713.078 708.99 712.801 709.268 712.801 709.61C712.801 709.953 713.078 710.23 713.421 710.23Z" fill="#060D14"/>
<path d="M717.059 711.11C717.308 711.11 717.509 710.909 717.509 710.66C717.509 710.411 717.308 710.21 717.059 710.21C716.811 710.21 716.609 710.411 716.609 710.66C716.609 710.909 716.811 711.11 717.059 711.11Z" fill="#060D14"/>
<path d="M720.709 711.96C720.853 711.96 720.969 711.844 720.969 711.7C720.969 711.556 720.853 711.44 720.709 711.44C720.566 711.44 720.449 711.556 720.449 711.7C720.449 711.844 720.566 711.96 720.709 711.96Z" fill="#060D14"/>
<path d="M724.351 712.88C724.423 712.88 724.481 712.822 724.481 712.75C724.481 712.678 724.423 712.62 724.351 712.62C724.279 712.62 724.221 712.678 724.221 712.75C724.221 712.822 724.279 712.88 724.351 712.88Z" fill="#060D14"/>
<path d="M727.989 713.83C728.011 713.83 728.029 713.812 728.029 713.79C728.029 713.768 728.011 713.75 727.989 713.75C727.967 713.75 727.949 713.768 727.949 713.79C727.949 713.812 727.967 713.83 727.989 713.83Z" fill="#060D14"/>
<path d="M731.629 714.85C731.635 714.85 731.639 714.846 731.639 714.84C731.639 714.835 731.635 714.83 731.629 714.83C731.624 714.83 731.619 714.835 731.619 714.84C731.619 714.846 731.624 714.85 731.629 714.85Z" fill="#060D14"/>
<path d="M690.52 707C690.525 707 690.53 706.995 690.53 706.99C690.53 706.984 690.525 706.98 690.52 706.98C690.514 706.98 690.51 706.984 690.51 706.99C690.51 706.995 690.514 707 690.52 707Z" fill="#060D14"/>
<path d="M694.161 708.07C694.177 708.07 694.191 708.056 694.191 708.04C694.191 708.023 694.177 708.01 694.161 708.01C694.144 708.01 694.131 708.023 694.131 708.04C694.131 708.056 694.144 708.07 694.161 708.07Z" fill="#060D14"/>
<path d="M697.809 709.19C697.87 709.19 697.919 709.141 697.919 709.08C697.919 709.019 697.87 708.97 697.809 708.97C697.748 708.97 697.699 709.019 697.699 709.08C697.699 709.141 697.748 709.19 697.809 709.19Z" fill="#060D14"/>
<path d="M701.45 710.33C701.566 710.33 701.66 710.236 701.66 710.12C701.66 710.004 701.566 709.91 701.45 709.91C701.334 709.91 701.24 710.004 701.24 710.12C701.24 710.236 701.334 710.33 701.45 710.33Z" fill="#060D14"/>
<path d="M705.09 711.44C705.239 711.44 705.36 711.319 705.36 711.17C705.36 711.021 705.239 710.9 705.09 710.9C704.941 710.9 704.82 711.021 704.82 711.17C704.82 711.319 704.941 711.44 705.09 711.44Z" fill="#060D14"/>
<path d="M708.731 712.48C708.88 712.48 709.001 712.359 709.001 712.21C709.001 712.061 708.88 711.94 708.731 711.94C708.582 711.94 708.461 712.061 708.461 712.21C708.461 712.359 708.582 712.48 708.731 712.48Z" fill="#060D14"/>
<path d="M712.38 713.47C712.496 713.47 712.59 713.376 712.59 713.26C712.59 713.144 712.496 713.05 712.38 713.05C712.264 713.05 712.17 713.144 712.17 713.26C712.17 713.376 712.264 713.47 712.38 713.47Z" fill="#060D14"/>
<path d="M716.021 714.44C716.098 714.44 716.161 714.377 716.161 714.3C716.161 714.223 716.098 714.16 716.021 714.16C715.944 714.16 715.881 714.223 715.881 714.3C715.881 714.377 715.944 714.44 716.021 714.44Z" fill="#060D14"/>
<path d="M719.66 715.43C719.704 715.43 719.74 715.394 719.74 715.35C719.74 715.306 719.704 715.27 719.66 715.27C719.616 715.27 719.58 715.306 719.58 715.35C719.58 715.394 719.616 715.43 719.66 715.43Z" fill="#060D14"/>
<path d="M723.3 716.42C723.316 716.42 723.33 716.406 723.33 716.39C723.33 716.373 723.316 716.36 723.3 716.36C723.283 716.36 723.27 716.373 723.27 716.39C723.27 716.406 723.283 716.42 723.3 716.42Z" fill="#060D14"/>
<path d="M726.949 717.45C726.955 717.45 726.959 717.446 726.959 717.44C726.959 717.435 726.955 717.43 726.949 717.43C726.944 717.43 726.939 717.435 726.939 717.44C726.939 717.446 726.944 717.45 726.949 717.45Z" fill="#060D14"/>
<path d="M693.119 711.69C693.125 711.69 693.129 711.685 693.129 711.68C693.129 711.674 693.125 711.67 693.119 711.67C693.114 711.67 693.109 711.674 693.109 711.68C693.109 711.685 693.114 711.69 693.119 711.69Z" fill="#060D14"/>
<path d="M696.76 712.75C696.777 712.75 696.79 712.737 696.79 712.72C696.79 712.703 696.777 712.69 696.76 712.69C696.744 712.69 696.73 712.703 696.73 712.72C696.73 712.737 696.744 712.75 696.76 712.75Z" fill="#060D14"/>
<path d="M700.4 713.82C700.427 713.82 700.45 713.798 700.45 713.77C700.45 713.743 700.427 713.72 700.4 713.72C700.372 713.72 700.35 713.743 700.35 713.77C700.35 713.798 700.372 713.82 700.4 713.82Z" fill="#060D14"/>
<path d="M704.05 714.88C704.089 714.88 704.12 714.849 704.12 714.81C704.12 714.772 704.089 714.74 704.05 714.74C704.012 714.74 703.98 714.772 703.98 714.81C703.98 714.849 704.012 714.88 704.05 714.88Z" fill="#060D14"/>
<path d="M707.691 715.92C707.724 715.92 707.751 715.893 707.751 715.86C707.751 715.827 707.724 715.8 707.691 715.8C707.658 715.8 707.631 715.827 707.631 715.86C707.631 715.893 707.658 715.92 707.691 715.92Z" fill="#060D14"/>
<path d="M711.329 716.94C711.351 716.94 711.369 716.922 711.369 716.9C711.369 716.878 711.351 716.86 711.329 716.86C711.307 716.86 711.289 716.878 711.289 716.9C711.289 716.922 711.307 716.94 711.329 716.94Z" fill="#060D14"/>
<path d="M714.969 717.97C714.986 717.97 714.999 717.957 714.999 717.94C714.999 717.924 714.986 717.91 714.969 717.91C714.953 717.91 714.939 717.924 714.939 717.94C714.939 717.957 714.953 717.97 714.969 717.97Z" fill="#060D14"/>
<path d="M718.619 719C718.625 719 718.629 718.995 718.629 718.99C718.629 718.984 718.625 718.98 718.619 718.98C718.614 718.98 718.609 718.984 718.609 718.99C718.609 718.995 718.614 719 718.619 719Z" fill="#060D14"/>
<path d="M699.36 717.42C699.365 717.42 699.37 717.415 699.37 717.41C699.37 717.404 699.365 717.4 699.36 717.4C699.354 717.4 699.35 717.404 699.35 717.41C699.35 717.415 699.354 717.42 699.36 717.42Z" fill="#060D14"/>
<path d="M703 718.46C703.006 718.46 703.01 718.455 703.01 718.45C703.01 718.444 703.006 718.44 703 718.44C702.995 718.44 702.99 718.444 702.99 718.45C702.99 718.455 702.995 718.46 703 718.46Z" fill="#060D14"/>
<path d="M706.641 719.51C706.646 719.51 706.651 719.506 706.651 719.5C706.651 719.495 706.646 719.49 706.641 719.49C706.635 719.49 706.631 719.495 706.631 719.5C706.631 719.506 706.635 719.51 706.641 719.51Z" fill="#060D14"/>
</g>
<path d="M718.641 690.28C718.256 688.875 717.46 687.617 716.355 686.667C715.251 685.718 713.888 685.12 712.441 684.95C712.221 684.95 712.001 684.95 711.641 684.84C711.811 684.35 711.951 683.96 712.061 683.55C712.361 682.558 712.461 681.515 712.354 680.484C712.248 679.452 711.938 678.452 711.442 677.541C710.946 676.63 710.275 675.827 709.466 675.178C708.657 674.529 707.727 674.047 706.731 673.76C704.521 673.169 702.168 673.466 700.174 674.587C698.18 675.709 696.704 677.565 696.061 679.76C695.661 681.007 695.588 682.335 695.847 683.618C696.106 684.901 696.689 686.096 697.541 687.09C697.681 687.25 697.841 687.45 698.041 687.67C697.761 687.89 697.541 688.08 697.321 688.24C696.262 689.093 695.534 690.289 695.261 691.62C694.967 693.095 695.115 694.624 695.686 696.015C696.257 697.406 697.225 698.597 698.471 699.44C698.92 699.721 699.4 699.949 699.901 700.12C700.99 700.529 702.182 700.58 703.302 700.265C704.423 699.951 705.413 699.287 706.131 698.37C706.351 698.12 706.541 697.87 706.791 697.57C707.121 698.04 707.391 698.42 707.691 698.78C708.101 699.321 708.64 699.752 709.257 700.035C709.875 700.317 710.553 700.443 711.231 700.4C711.9 700.397 712.562 700.265 713.181 700.01C714.386 699.571 715.482 698.874 716.392 697.97C717.302 697.065 718.004 695.973 718.451 694.77C719.04 693.343 719.107 691.753 718.641 690.28ZM716.311 693.68C715.962 694.685 715.416 695.611 714.705 696.402C713.994 697.194 713.133 697.836 712.171 698.29C711.85 698.428 711.514 698.528 711.171 698.59C710.773 698.697 710.354 698.7 709.955 698.599C709.555 698.497 709.189 698.295 708.891 698.01C708.26 697.414 707.804 696.657 707.571 695.82C707.411 695.27 707.301 694.69 707.131 694.14C707.065 693.91 706.953 693.695 706.801 693.51C706.693 693.425 706.557 693.386 706.421 693.4C706.311 693.46 706.121 693.6 706.121 693.68C706.076 694.155 706.103 694.634 706.201 695.1C706.298 695.5 706.289 695.919 706.173 696.314C706.057 696.709 705.839 697.066 705.541 697.35C704.992 698.029 704.226 698.499 703.373 698.681C702.519 698.863 701.629 698.746 700.851 698.35C700.016 697.963 699.293 697.37 698.75 696.627C698.208 695.883 697.864 695.014 697.751 694.1C697.421 691.96 697.911 690.72 699.611 688.86C700.161 688.86 700.711 688.94 701.291 688.94C701.376 688.921 701.456 688.884 701.527 688.833C701.597 688.781 701.656 688.716 701.701 688.64C701.72 688.574 701.722 688.503 701.708 688.436C701.695 688.368 701.664 688.304 701.621 688.25L700.791 687.43C700.301 686.91 699.791 686.43 699.311 685.87C698.577 685.028 698.103 683.992 697.947 682.886C697.791 681.78 697.959 680.653 698.431 679.64C698.872 678.585 699.599 677.674 700.53 677.009C701.461 676.345 702.559 675.954 703.701 675.88C704.78 675.719 705.882 675.833 706.905 676.212C707.928 676.592 708.838 677.224 709.551 678.05C710.374 678.975 710.885 680.135 711.012 681.366C711.14 682.597 710.877 683.837 710.261 684.91C710.049 685.233 709.741 685.481 709.381 685.62C709.041 685.766 708.734 685.979 708.479 686.247C708.225 686.516 708.028 686.833 707.901 687.18C708.017 687.356 708.187 687.49 708.384 687.564C708.582 687.637 708.797 687.647 709.001 687.59C709.763 687.478 710.531 687.404 711.301 687.37C712.437 687.36 713.546 687.722 714.458 688.401C715.37 689.08 716.034 690.038 716.351 691.13C716.615 691.966 716.597 692.866 716.301 693.69L716.311 693.68Z" fill="#060D14"/>
<path d="M716.301 693.691C715.952 694.696 715.406 695.621 714.696 696.413C713.985 697.204 713.123 697.846 712.161 698.301C711.84 698.438 711.505 698.539 711.161 698.601C710.763 698.708 710.345 698.711 709.945 698.609C709.546 698.508 709.179 698.305 708.881 698.021C708.25 697.424 707.794 696.667 707.561 695.831C707.401 695.281 707.291 694.701 707.121 694.151C707.056 693.92 706.944 693.706 706.791 693.521C706.684 693.435 706.547 693.396 706.411 693.411C706.301 693.471 706.111 693.611 706.111 693.691C706.066 694.165 706.093 694.644 706.191 695.111C706.289 695.511 706.279 695.929 706.163 696.324C706.047 696.719 705.829 697.077 705.531 697.361C704.982 698.039 704.217 698.509 703.363 698.691C702.509 698.873 701.619 698.757 700.841 698.361C700.006 697.974 699.283 697.381 698.741 696.637C698.199 695.893 697.855 695.024 697.741 694.111C697.411 691.971 697.901 690.731 699.601 688.871C700.151 688.871 700.701 688.951 701.281 688.951C701.366 688.931 701.447 688.895 701.517 688.843C701.588 688.792 701.647 688.726 701.691 688.651C701.71 688.584 701.713 688.514 701.699 688.446C701.685 688.378 701.655 688.314 701.611 688.261L700.781 687.441C700.291 686.921 699.781 686.441 699.301 685.881C698.567 685.039 698.093 684.002 697.937 682.896C697.781 681.79 697.949 680.663 698.421 679.651C698.862 678.595 699.589 677.684 700.52 677.02C701.451 676.355 702.55 675.964 703.691 675.891C704.77 675.729 705.873 675.843 706.896 676.223C707.918 676.602 708.829 677.234 709.541 678.061C710.364 678.985 710.875 680.145 711.003 681.376C711.13 682.607 710.867 683.847 710.251 684.921C710.039 685.243 709.731 685.492 709.371 685.631C709.031 685.776 708.724 685.989 708.47 686.258C708.215 686.526 708.018 686.843 707.891 687.191C708.008 687.366 708.177 687.5 708.375 687.574C708.572 687.648 708.788 687.657 708.991 687.601C709.754 687.488 710.521 687.415 711.291 687.381C712.428 687.371 713.537 687.733 714.448 688.412C715.36 689.09 716.025 690.049 716.341 691.141C716.606 691.972 716.592 692.868 716.301 693.691Z" fill="white"/>
<g opacity="0.3">
<path d="M705.57 697.35C705.868 697.067 706.086 696.709 706.202 696.314C706.318 695.919 706.328 695.5 706.23 695.1C706.164 694.866 706.134 694.624 706.14 694.38C705.55 695.96 704.14 698.68 702 696.29C701.134 695.274 700.48 694.095 700.074 692.823C699.669 691.551 699.522 690.21 699.64 688.88C697.94 690.74 697.45 691.98 697.78 694.12C697.894 695.034 698.238 695.903 698.78 696.647C699.322 697.39 700.045 697.983 700.88 698.37C701.66 698.764 702.552 698.877 703.406 698.692C704.26 698.506 705.024 698.032 705.57 697.35Z" fill="#707070"/>
<path d="M709.191 685.771L709.411 685.641C709.771 685.502 710.079 685.253 710.291 684.931C710.907 683.857 711.17 682.617 711.043 681.386C710.915 680.155 710.404 678.995 709.581 678.071C709.005 677.4 708.296 676.856 707.499 676.474C706.702 676.092 705.835 675.88 704.951 675.851C711.111 678.271 709.641 684.301 709.191 685.771Z" fill="#707070"/>
<path d="M716.381 691.151C716.064 690.059 715.399 689.101 714.488 688.422C713.576 687.743 712.467 687.381 711.331 687.391C711.091 687.391 710.841 687.391 710.601 687.391C713.601 687.981 715.681 689.771 712.601 693.001C710.241 695.501 708.091 694.611 707.061 693.901C707.094 693.963 707.118 694.031 707.131 694.101C707.301 694.651 707.411 695.231 707.571 695.781C707.803 696.617 708.26 697.374 708.891 697.971C709.189 698.255 709.555 698.458 709.955 698.559C710.354 698.661 710.773 698.658 711.171 698.551C711.514 698.489 711.85 698.388 712.171 698.251C713.132 697.796 713.994 697.154 714.705 696.363C715.416 695.571 715.962 694.646 716.311 693.641C716.598 692.839 716.623 691.967 716.381 691.151Z" fill="#707070"/>
</g>
</svg>
