<svg width="1406" height="934" viewBox="0 0 1406 934" fill="none" xmlns="http://www.w3.org/2000/svg">
<g style="mix-blend-mode:multiply">
<path d="M860.406 133.868C860.408 133.874 860.413 133.877 860.418 133.876C860.424 133.875 860.427 133.87 860.426 133.864C860.425 133.859 860.419 133.855 860.414 133.857C860.409 133.858 860.405 133.863 860.406 133.868Z" fill="#060D14"/>
<path d="M860.143 137.657C860.145 137.668 860.156 137.675 860.167 137.673C860.177 137.67 860.184 137.66 860.182 137.649C860.18 137.638 860.169 137.631 860.158 137.634C860.147 137.636 860.14 137.646 860.143 137.657Z" fill="#060D14"/>
<path d="M859.866 141.438C859.869 141.455 859.885 141.465 859.901 141.461C859.917 141.458 859.928 141.442 859.924 141.426C859.921 141.41 859.905 141.399 859.889 141.403C859.872 141.406 859.862 141.422 859.866 141.438Z" fill="#060D14"/>
<path d="M859.61 145.216C859.613 145.232 859.629 145.242 859.645 145.239C859.662 145.235 859.672 145.219 859.668 145.203C859.665 145.187 859.649 145.177 859.633 145.18C859.617 145.184 859.606 145.199 859.61 145.216Z" fill="#060D14"/>
<path d="M859.363 149C859.365 149.006 859.37 149.009 859.375 149.008C859.381 149.007 859.384 149.002 859.383 148.996C859.382 148.991 859.376 148.987 859.371 148.988C859.366 148.99 859.362 148.995 859.363 149Z" fill="#060D14"/>
<path d="M857.152 126.056C857.154 126.061 857.159 126.065 857.164 126.064C857.17 126.062 857.173 126.057 857.172 126.052C857.171 126.046 857.166 126.043 857.16 126.044C857.155 126.045 857.151 126.051 857.152 126.056Z" fill="#060D14"/>
<path d="M856.868 129.839C856.871 129.855 856.887 129.866 856.903 129.862C856.919 129.859 856.93 129.843 856.926 129.827C856.923 129.81 856.907 129.8 856.891 129.804C856.874 129.807 856.864 129.823 856.868 129.839Z" fill="#060D14"/>
<path d="M856.571 133.625C856.579 133.662 856.616 133.686 856.654 133.678C856.692 133.67 856.716 133.633 856.708 133.595C856.7 133.557 856.663 133.533 856.625 133.541C856.587 133.55 856.563 133.587 856.571 133.625Z" fill="#060D14"/>
<path d="M856.246 137.416C856.261 137.486 856.33 137.531 856.4 137.516C856.47 137.501 856.515 137.432 856.5 137.362C856.485 137.291 856.416 137.247 856.346 137.262C856.275 137.277 856.231 137.346 856.246 137.416Z" fill="#060D14"/>
<path d="M855.961 141.209C855.979 141.296 856.064 141.351 856.151 141.332C856.237 141.314 856.292 141.229 856.274 141.142C856.255 141.056 856.17 141.001 856.084 141.019C855.997 141.038 855.942 141.123 855.961 141.209Z" fill="#060D14"/>
<path d="M855.714 144.984C855.731 145.06 855.805 145.108 855.881 145.092C855.956 145.075 856.004 145.001 855.988 144.926C855.972 144.85 855.898 144.802 855.822 144.818C855.746 144.834 855.698 144.908 855.714 144.984Z" fill="#060D14"/>
<path d="M855.526 148.746C855.534 148.784 855.571 148.808 855.609 148.8C855.647 148.792 855.671 148.755 855.663 148.717C855.655 148.679 855.618 148.655 855.58 148.663C855.542 148.671 855.518 148.708 855.526 148.746Z" fill="#060D14"/>
<path d="M855.299 152.517C855.303 152.533 855.319 152.543 855.335 152.54C855.351 152.537 855.361 152.521 855.358 152.504C855.354 152.488 855.338 152.478 855.322 152.481C855.306 152.485 855.296 152.501 855.299 152.517Z" fill="#060D14"/>
<path d="M855.065 156.3C855.066 156.305 855.071 156.308 855.076 156.307C855.082 156.306 855.085 156.301 855.084 156.295C855.083 156.29 855.078 156.287 855.072 156.288C855.067 156.289 855.063 156.294 855.065 156.3Z" fill="#060D14"/>
<path d="M853.344 125.796C853.348 125.812 853.363 125.822 853.38 125.819C853.396 125.815 853.406 125.799 853.403 125.783C853.399 125.767 853.383 125.757 853.367 125.76C853.351 125.764 853.341 125.78 853.344 125.796Z" fill="#060D14"/>
<path d="M852.999 129.591C853.013 129.656 853.077 129.697 853.142 129.684C853.207 129.67 853.248 129.606 853.234 129.541C853.22 129.476 853.156 129.435 853.092 129.449C853.027 129.463 852.986 129.527 852.999 129.591Z" fill="#060D14"/>
<path d="M852.599 133.41C852.629 133.55 852.767 133.64 852.907 133.61C853.048 133.58 853.137 133.442 853.107 133.301C853.077 133.161 852.939 133.071 852.798 133.101C852.658 133.131 852.569 133.269 852.599 133.41Z" fill="#060D14"/>
<path d="M852.184 137.22C852.233 137.447 852.456 137.591 852.683 137.543C852.91 137.495 853.054 137.271 853.006 137.045C852.957 136.818 852.734 136.673 852.507 136.722C852.28 136.77 852.136 136.993 852.184 137.22Z" fill="#060D14"/>
<path d="M851.87 141.009C851.926 141.269 852.181 141.434 852.44 141.378C852.699 141.323 852.865 141.068 852.809 140.809C852.754 140.55 852.499 140.384 852.24 140.44C851.98 140.495 851.815 140.75 851.87 141.009Z" fill="#060D14"/>
<path d="M851.672 144.774C851.72 144.995 851.938 145.137 852.159 145.089C852.38 145.042 852.522 144.824 852.474 144.603C852.427 144.381 852.209 144.24 851.988 144.287C851.766 144.335 851.625 144.552 851.672 144.774Z" fill="#060D14"/>
<path d="M851.583 148.525C851.61 148.655 851.738 148.737 851.868 148.709C851.997 148.682 852.08 148.554 852.052 148.425C852.024 148.295 851.897 148.212 851.767 148.24C851.638 148.268 851.555 148.395 851.583 148.525Z" fill="#060D14"/>
<path d="M851.445 152.277C851.457 152.336 851.516 152.374 851.575 152.362C851.635 152.349 851.672 152.291 851.66 152.231C851.647 152.172 851.589 152.134 851.529 152.147C851.47 152.159 851.432 152.218 851.445 152.277Z" fill="#060D14"/>
<path d="M851.266 156.037C851.269 156.053 851.285 156.064 851.302 156.06C851.318 156.057 851.328 156.041 851.325 156.024C851.321 156.008 851.305 155.998 851.289 156.001C851.273 156.005 851.262 156.021 851.266 156.037Z" fill="#060D14"/>
<path d="M851.018 159.812C851.019 159.817 851.024 159.821 851.03 159.82C851.035 159.818 851.038 159.813 851.037 159.808C851.036 159.802 851.031 159.799 851.025 159.8C851.02 159.801 851.017 159.806 851.018 159.812Z" fill="#060D14"/>
<path d="M849.842 121.748C849.844 121.759 849.855 121.766 849.866 121.763C849.877 121.761 849.883 121.751 849.881 121.74C849.879 121.729 849.868 121.722 849.857 121.724C849.847 121.727 849.84 121.737 849.842 121.748Z" fill="#060D14"/>
<path d="M849.518 125.55C849.528 125.593 849.57 125.62 849.613 125.611C849.657 125.602 849.684 125.559 849.675 125.516C849.666 125.473 849.623 125.445 849.58 125.455C849.537 125.464 849.509 125.506 849.518 125.55Z" fill="#060D14"/>
<path d="M849.085 129.364C849.115 129.504 849.253 129.594 849.393 129.564C849.534 129.534 849.623 129.396 849.593 129.255C849.563 129.115 849.425 129.025 849.285 129.055C849.144 129.085 849.055 129.223 849.085 129.364Z" fill="#060D14"/>
<path d="M848.516 133.208C848.582 133.516 848.885 133.712 849.192 133.646C849.5 133.58 849.697 133.277 849.631 132.97C849.565 132.662 849.262 132.465 848.954 132.531C848.646 132.597 848.45 132.9 848.516 133.208Z" fill="#060D14"/>
<path d="M847.937 137.053C848.041 137.54 848.52 137.849 849.006 137.746C849.492 137.642 849.802 137.164 849.698 136.678C849.594 136.191 849.116 135.882 848.63 135.985C848.144 136.089 847.834 136.567 847.937 137.053Z" fill="#060D14"/>
<path d="M847.535 140.872C847.655 141.434 848.207 141.792 848.769 141.672C849.331 141.552 849.689 140.999 849.569 140.437C849.449 139.876 848.896 139.518 848.335 139.638C847.773 139.758 847.415 140.31 847.535 140.872Z" fill="#060D14"/>
<path d="M847.435 144.615C847.537 145.091 848.004 145.394 848.48 145.292C848.955 145.191 849.258 144.723 849.156 144.248C849.055 143.773 848.587 143.47 848.112 143.571C847.637 143.673 847.334 144.14 847.435 144.615Z" fill="#060D14"/>
<path d="M847.471 148.33C847.537 148.638 847.84 148.834 848.148 148.768C848.455 148.702 848.652 148.399 848.586 148.092C848.52 147.784 848.217 147.587 847.909 147.653C847.602 147.719 847.405 148.022 847.471 148.33Z" fill="#060D14"/>
<path d="M847.499 152.046C847.531 152.197 847.68 152.294 847.831 152.261C847.983 152.229 848.079 152.08 848.047 151.929C848.014 151.778 847.866 151.681 847.714 151.714C847.563 151.746 847.467 151.895 847.499 152.046Z" fill="#060D14"/>
<path d="M847.4 155.799C847.412 155.858 847.471 155.896 847.53 155.884C847.59 155.871 847.627 155.813 847.615 155.753C847.602 155.694 847.544 155.656 847.484 155.668C847.425 155.681 847.387 155.74 847.4 155.799Z" fill="#060D14"/>
<path d="M847.221 159.559C847.224 159.576 847.24 159.586 847.257 159.583C847.273 159.579 847.283 159.563 847.28 159.547C847.276 159.531 847.26 159.52 847.244 159.524C847.228 159.527 847.218 159.543 847.221 159.559Z" fill="#060D14"/>
<path d="M846.984 163.332C846.986 163.338 846.991 163.341 846.996 163.34C847.002 163.339 847.005 163.334 847.004 163.328C847.003 163.323 846.998 163.319 846.992 163.32C846.987 163.322 846.983 163.327 846.984 163.332Z" fill="#060D14"/>
<path d="M846.045 121.495C846.049 121.512 846.065 121.522 846.081 121.519C846.097 121.515 846.107 121.499 846.104 121.483C846.1 121.467 846.085 121.456 846.068 121.46C846.052 121.463 846.042 121.479 846.045 121.495Z" fill="#060D14"/>
<path d="M845.691 125.293C845.706 125.363 845.775 125.408 845.845 125.393C845.915 125.378 845.96 125.309 845.945 125.239C845.93 125.169 845.861 125.124 845.791 125.139C845.721 125.154 845.676 125.223 845.691 125.293Z" fill="#060D14"/>
<path d="M845.151 129.131C845.198 129.352 845.416 129.493 845.638 129.446C845.859 129.399 846 129.181 845.953 128.96C845.906 128.738 845.688 128.597 845.466 128.644C845.245 128.692 845.104 128.909 845.151 129.131Z" fill="#060D14"/>
<path d="M844.426 133.018C844.528 133.499 845.001 133.805 845.482 133.703C845.963 133.6 846.269 133.127 846.166 132.646C846.064 132.166 845.591 131.859 845.11 131.962C844.629 132.064 844.323 132.537 844.426 133.018Z" fill="#060D14"/>
<path d="M843.631 136.91C843.796 137.682 844.556 138.175 845.328 138.01C846.1 137.845 846.593 137.085 846.428 136.313C846.263 135.54 845.503 135.048 844.73 135.213C843.958 135.378 843.466 136.138 843.631 136.91Z" fill="#060D14"/>
<path d="M843.13 140.739C843.323 141.646 844.216 142.225 845.123 142.031C846.031 141.837 846.609 140.944 846.415 140.037C846.222 139.13 845.329 138.551 844.422 138.745C843.514 138.939 842.936 139.831 843.13 140.739Z" fill="#060D14"/>
<path d="M843.059 144.476C843.231 145.281 844.023 145.794 844.827 145.622C845.632 145.45 846.145 144.658 845.973 143.854C845.801 143.049 845.01 142.536 844.205 142.708C843.4 142.88 842.887 143.671 843.059 144.476Z" fill="#060D14"/>
<path d="M843.236 148.171C843.356 148.732 843.908 149.091 844.47 148.971C845.032 148.851 845.39 148.298 845.27 147.736C845.15 147.175 844.597 146.817 844.036 146.936C843.474 147.056 843.116 147.609 843.236 148.171Z" fill="#060D14"/>
<path d="M843.409 151.856C843.478 152.18 843.797 152.387 844.121 152.317C844.445 152.248 844.652 151.929 844.582 151.605C844.513 151.281 844.194 151.075 843.87 151.144C843.546 151.213 843.34 151.532 843.409 151.856Z" fill="#060D14"/>
<path d="M843.445 155.57C843.478 155.727 843.632 155.827 843.789 155.793C843.945 155.76 844.045 155.606 844.012 155.449C843.978 155.292 843.824 155.193 843.668 155.226C843.511 155.26 843.411 155.414 843.445 155.57Z" fill="#060D14"/>
<path d="M843.357 159.321C843.371 159.386 843.434 159.427 843.499 159.414C843.564 159.4 843.605 159.336 843.591 159.271C843.578 159.206 843.514 159.165 843.449 159.179C843.384 159.193 843.343 159.257 843.357 159.321Z" fill="#060D14"/>
<path d="M843.178 163.082C843.182 163.098 843.197 163.108 843.214 163.105C843.23 163.102 843.24 163.086 843.237 163.069C843.233 163.053 843.217 163.043 843.201 163.046C843.185 163.05 843.175 163.066 843.178 163.082Z" fill="#060D14"/>
<path d="M842.266 121.229C842.269 121.245 842.285 121.255 842.302 121.252C842.318 121.248 842.328 121.233 842.325 121.216C842.321 121.2 842.305 121.19 842.289 121.193C842.273 121.197 842.262 121.213 842.266 121.229Z" fill="#060D14"/>
<path d="M841.885 125.043C841.903 125.13 841.988 125.185 842.074 125.166C842.161 125.148 842.216 125.063 842.197 124.976C842.179 124.89 842.094 124.835 842.008 124.853C841.921 124.872 841.866 124.957 841.885 125.043Z" fill="#060D14"/>
<path d="M841.294 128.891C841.351 129.156 841.611 129.324 841.876 129.268C842.141 129.211 842.309 128.951 842.253 128.686C842.196 128.422 841.936 128.253 841.671 128.309C841.407 128.366 841.238 128.626 841.294 128.891Z" fill="#060D14"/>
<path d="M840.461 132.791C840.585 133.374 841.159 133.746 841.743 133.622C842.326 133.497 842.698 132.923 842.573 132.34C842.449 131.757 841.875 131.385 841.291 131.509C840.708 131.634 840.336 132.208 840.461 132.791Z" fill="#060D14"/>
<path d="M839.542 136.72C839.744 137.665 840.674 138.268 841.619 138.066C842.564 137.864 843.167 136.934 842.965 135.989C842.763 135.044 841.833 134.441 840.888 134.643C839.943 134.845 839.34 135.775 839.542 136.72Z" fill="#060D14"/>
<path d="M838.904 140.578C839.151 141.734 840.288 142.471 841.444 142.224C842.6 141.977 843.336 140.84 843.09 139.684C842.843 138.528 841.706 137.791 840.55 138.038C839.394 138.285 838.657 139.422 838.904 140.578Z" fill="#060D14"/>
<path d="M838.735 144.336C838.97 145.438 840.054 146.141 841.156 145.905C842.258 145.67 842.96 144.586 842.725 143.484C842.49 142.382 841.406 141.68 840.304 141.915C839.202 142.151 838.5 143.235 838.735 144.336Z" fill="#060D14"/>
<path d="M838.918 148.019C839.101 148.878 839.946 149.426 840.805 149.242C841.663 149.059 842.211 148.214 842.027 147.355C841.844 146.496 840.999 145.949 840.14 146.132C839.282 146.316 838.734 147.161 838.918 148.019Z" fill="#060D14"/>
<path d="M839.172 151.698C839.294 152.27 839.857 152.635 840.43 152.513C841.002 152.391 841.367 151.827 841.245 151.255C841.123 150.682 840.559 150.317 839.987 150.44C839.414 150.562 839.049 151.125 839.172 151.698Z" fill="#060D14"/>
<path d="M839.356 155.38C839.427 155.71 839.751 155.92 840.08 155.849C840.41 155.779 840.62 155.455 840.549 155.125C840.479 154.796 840.155 154.586 839.825 154.656C839.496 154.727 839.286 155.051 839.356 155.38Z" fill="#060D14"/>
<path d="M839.421 159.088C839.452 159.234 839.596 159.327 839.741 159.296C839.887 159.265 839.98 159.121 839.949 158.975C839.918 158.83 839.774 158.737 839.629 158.768C839.483 158.799 839.39 158.942 839.421 159.088Z" fill="#060D14"/>
<path d="M839.35 162.826C839.36 162.869 839.402 162.896 839.445 162.887C839.489 162.878 839.516 162.835 839.507 162.792C839.498 162.749 839.455 162.721 839.412 162.731C839.369 162.74 839.341 162.782 839.35 162.826Z" fill="#060D14"/>
<path d="M839.155 166.6C839.157 166.61 839.167 166.617 839.178 166.615C839.189 166.613 839.196 166.602 839.194 166.591C839.191 166.581 839.181 166.574 839.17 166.576C839.159 166.578 839.152 166.589 839.155 166.6Z" fill="#060D14"/>
<path d="M838.498 120.97C838.501 120.981 838.511 120.988 838.522 120.986C838.533 120.983 838.54 120.973 838.537 120.962C838.535 120.951 838.524 120.944 838.514 120.947C838.503 120.949 838.496 120.959 838.498 120.97Z" fill="#060D14"/>
<path d="M838.115 124.775C838.131 124.85 838.205 124.898 838.281 124.882C838.357 124.866 838.405 124.792 838.389 124.716C838.372 124.64 838.298 124.592 838.222 124.608C838.147 124.624 838.099 124.699 838.115 124.775Z" fill="#060D14"/>
<path d="M837.548 128.628C837.601 128.876 837.845 129.035 838.094 128.982C838.342 128.929 838.501 128.684 838.448 128.436C838.395 128.187 838.15 128.029 837.902 128.082C837.653 128.135 837.495 128.379 837.548 128.628Z" fill="#060D14"/>
<path d="M836.695 132.532C836.817 133.105 837.381 133.47 837.953 133.347C838.526 133.225 838.891 132.662 838.768 132.089C838.646 131.517 838.083 131.152 837.51 131.274C836.938 131.396 836.573 131.96 836.695 132.532Z" fill="#060D14"/>
<path d="M835.724 136.462C835.931 137.428 836.882 138.045 837.849 137.838C838.816 137.632 839.432 136.681 839.225 135.714C839.019 134.747 838.068 134.131 837.101 134.337C836.134 134.544 835.518 135.495 835.724 136.462Z" fill="#060D14"/>
<path d="M834.958 140.347C835.224 141.59 836.446 142.382 837.688 142.116C838.93 141.851 839.722 140.629 839.457 139.386C839.192 138.144 837.97 137.352 836.727 137.618C835.485 137.883 834.693 139.105 834.958 140.347Z" fill="#060D14"/>
<path d="M834.654 144.145C834.925 145.414 836.174 146.223 837.443 145.952C838.713 145.681 839.522 144.432 839.251 143.163C838.98 141.894 837.731 141.085 836.462 141.356C835.192 141.627 834.383 142.875 834.654 144.145Z" fill="#060D14"/>
<path d="M834.682 147.861C834.92 148.974 836.015 149.683 837.127 149.445C838.24 149.208 838.949 148.113 838.712 147C838.474 145.888 837.379 145.178 836.267 145.416C835.154 145.654 834.445 146.748 834.682 147.861Z" fill="#060D14"/>
<path d="M834.923 151.531C835.101 152.363 835.919 152.893 836.751 152.716C837.582 152.538 838.113 151.72 837.935 150.888C837.757 150.056 836.939 149.526 836.107 149.704C835.276 149.881 834.745 150.699 834.923 151.531Z" fill="#060D14"/>
<path d="M835.235 155.187C835.346 155.706 835.856 156.036 836.374 155.925C836.893 155.815 837.223 155.304 837.113 154.786C837.002 154.267 836.492 153.937 835.973 154.048C835.455 154.158 835.124 154.669 835.235 155.187Z" fill="#060D14"/>
<path d="M835.468 158.869C835.52 159.112 835.759 159.267 836.002 159.215C836.245 159.163 836.4 158.924 836.348 158.681C836.296 158.438 836.057 158.283 835.814 158.335C835.571 158.387 835.416 158.626 835.468 158.869Z" fill="#060D14"/>
<path d="M835.496 162.586C835.514 162.672 835.599 162.727 835.686 162.709C835.772 162.69 835.827 162.605 835.809 162.519C835.79 162.432 835.705 162.377 835.619 162.396C835.533 162.414 835.477 162.499 835.496 162.586Z" fill="#060D14"/>
<path d="M835.356 166.338C835.359 166.354 835.375 166.364 835.391 166.361C835.408 166.357 835.418 166.341 835.414 166.325C835.411 166.309 835.395 166.299 835.379 166.302C835.363 166.306 835.352 166.322 835.356 166.338Z" fill="#060D14"/>
<path d="M834.711 120.716C834.713 120.727 834.724 120.734 834.735 120.731C834.746 120.729 834.753 120.718 834.75 120.708C834.748 120.697 834.737 120.69 834.727 120.692C834.716 120.694 834.709 120.705 834.711 120.716Z" fill="#060D14"/>
<path d="M834.366 124.511C834.379 124.571 834.438 124.609 834.497 124.596C834.556 124.583 834.594 124.525 834.582 124.465C834.569 124.406 834.51 124.368 834.451 124.381C834.392 124.394 834.354 124.452 834.366 124.511Z" fill="#060D14"/>
<path d="M833.846 128.345C833.89 128.55 834.092 128.681 834.297 128.637C834.502 128.593 834.633 128.391 834.589 128.186C834.545 127.981 834.343 127.85 834.138 127.894C833.933 127.938 833.802 128.14 833.846 128.345Z" fill="#060D14"/>
<path d="M833.063 132.234C833.168 132.726 833.651 133.039 834.143 132.934C834.634 132.829 834.947 132.346 834.842 131.854C834.737 131.363 834.254 131.049 833.762 131.154C833.271 131.259 832.958 131.743 833.063 132.234Z" fill="#060D14"/>
<path d="M832.104 136.172C832.292 137.052 833.158 137.613 834.038 137.425C834.918 137.237 835.48 136.371 835.292 135.491C835.104 134.61 834.237 134.049 833.357 134.237C832.477 134.425 831.916 135.291 832.104 136.172Z" fill="#060D14"/>
<path d="M831.27 140.072C831.525 141.265 832.699 142.026 833.893 141.771C835.087 141.516 835.847 140.342 835.592 139.149C835.338 137.955 834.163 137.194 832.97 137.449C831.776 137.704 831.015 138.878 831.27 140.072Z" fill="#060D14"/>
<path d="M830.836 143.887C831.112 145.177 832.382 146 833.673 145.725C834.964 145.449 835.787 144.179 835.511 142.888C835.235 141.597 833.965 140.774 832.674 141.05C831.384 141.326 830.561 142.596 830.836 143.887Z" fill="#060D14"/>
<path d="M830.737 147.63C830.993 148.829 832.173 149.593 833.372 149.337C834.571 149.081 835.335 147.901 835.079 146.702C834.823 145.503 833.643 144.739 832.444 144.995C831.245 145.251 830.481 146.431 830.737 147.63Z" fill="#060D14"/>
<path d="M830.941 151.318C831.143 152.264 832.073 152.866 833.018 152.664C833.963 152.462 834.565 151.533 834.364 150.587C834.162 149.642 833.232 149.04 832.287 149.242C831.341 149.443 830.739 150.373 830.941 151.318Z" fill="#060D14"/>
<path d="M831.301 154.964C831.429 155.563 832.019 155.945 832.618 155.817C833.218 155.689 833.6 155.1 833.472 154.5C833.344 153.901 832.754 153.518 832.155 153.646C831.555 153.774 831.173 154.364 831.301 154.964Z" fill="#060D14"/>
<path d="M831.592 158.624C831.655 158.921 831.948 159.11 832.245 159.047C832.542 158.983 832.731 158.691 832.668 158.394C832.604 158.097 832.312 157.907 832.015 157.971C831.718 158.034 831.528 158.327 831.592 158.624Z" fill="#060D14"/>
<path d="M831.688 162.325C831.71 162.428 831.81 162.493 831.913 162.471C832.016 162.449 832.081 162.348 832.059 162.246C832.037 162.143 831.936 162.078 831.834 162.1C831.731 162.122 831.666 162.223 831.688 162.325Z" fill="#060D14"/>
<path d="M831.569 166.083C831.573 166.105 831.595 166.119 831.616 166.114C831.638 166.109 831.652 166.088 831.647 166.066C831.642 166.045 831.621 166.031 831.6 166.036C831.578 166.04 831.564 166.062 831.569 166.083Z" fill="#060D14"/>
<path d="M830.943 120.447C830.945 120.452 830.95 120.456 830.955 120.455C830.961 120.454 830.964 120.448 830.963 120.443C830.962 120.437 830.957 120.434 830.951 120.435C830.946 120.436 830.942 120.442 830.943 120.447Z" fill="#060D14"/>
<path d="M830.628 124.236C830.636 124.274 830.673 124.298 830.711 124.29C830.749 124.282 830.773 124.245 830.765 124.207C830.757 124.169 830.719 124.145 830.682 124.153C830.644 124.161 830.62 124.199 830.628 124.236Z" fill="#060D14"/>
<path d="M830.157 128.069C830.19 128.22 830.338 128.317 830.49 128.284C830.641 128.252 830.737 128.103 830.705 127.952C830.673 127.801 830.524 127.704 830.373 127.737C830.221 127.769 830.125 127.918 830.157 128.069Z" fill="#060D14"/>
<path d="M829.461 131.94C829.545 132.335 829.933 132.586 830.327 132.502C830.722 132.417 830.973 132.03 830.889 131.635C830.805 131.241 830.417 130.99 830.022 131.074C829.628 131.158 829.377 131.546 829.461 131.94Z" fill="#060D14"/>
<path d="M828.579 135.851C828.736 136.585 829.459 137.054 830.193 136.897C830.928 136.74 831.396 136.017 831.239 135.283C831.082 134.548 830.36 134.08 829.625 134.237C828.891 134.394 828.422 135.116 828.579 135.851Z" fill="#060D14"/>
<path d="M827.813 139.736C828.03 140.752 829.029 141.399 830.045 141.182C831.06 140.965 831.707 139.966 831.49 138.951C831.273 137.935 830.275 137.288 829.259 137.505C828.244 137.722 827.596 138.721 827.813 139.736Z" fill="#060D14"/>
<path d="M827.372 143.563C827.61 144.675 828.704 145.385 829.817 145.147C830.929 144.909 831.639 143.815 831.401 142.702C831.163 141.589 830.069 140.88 828.956 141.118C827.844 141.355 827.134 142.45 827.372 143.563Z" fill="#060D14"/>
<path d="M827.273 147.306C827.492 148.332 828.501 148.987 829.527 148.767C830.554 148.548 831.208 147.539 830.989 146.512C830.769 145.486 829.76 144.832 828.734 145.051C827.708 145.27 827.053 146.28 827.273 147.306Z" fill="#060D14"/>
<path d="M827.407 151C827.58 151.81 828.377 152.326 829.187 152.153C829.997 151.98 830.514 151.183 830.341 150.373C830.168 149.563 829.371 149.047 828.56 149.22C827.75 149.393 827.234 150.19 827.407 151Z" fill="#060D14"/>
<path d="M827.669 154.666C827.779 155.185 828.289 155.515 828.808 155.404C829.326 155.294 829.657 154.783 829.546 154.265C829.435 153.746 828.925 153.416 828.407 153.527C827.888 153.637 827.558 154.148 827.669 154.666Z" fill="#060D14"/>
<path d="M827.894 158.35C827.948 158.604 828.198 158.766 828.452 158.712C828.705 158.658 828.867 158.408 828.813 158.154C828.759 157.9 828.509 157.738 828.255 157.793C828.001 157.847 827.84 158.096 827.894 158.35Z" fill="#060D14"/>
<path d="M827.92 162.067C827.939 162.159 828.03 162.217 828.122 162.198C828.213 162.178 828.272 162.088 828.252 161.996C828.233 161.904 828.142 161.845 828.051 161.865C827.959 161.885 827.9 161.975 827.92 162.067Z" fill="#060D14"/>
<path d="M827.799 165.814C827.803 165.831 827.819 165.841 827.835 165.837C827.851 165.834 827.861 165.818 827.858 165.802C827.854 165.786 827.838 165.775 827.822 165.779C827.806 165.782 827.796 165.798 827.799 165.814Z" fill="#060D14"/>
<path d="M826.87 123.976C826.874 123.997 826.895 124.011 826.917 124.007C826.939 124.002 826.952 123.981 826.948 123.959C826.943 123.937 826.922 123.924 826.9 123.928C826.879 123.933 826.865 123.954 826.87 123.976Z" fill="#060D14"/>
<path d="M826.467 127.784C826.489 127.886 826.59 127.952 826.692 127.93C826.795 127.908 826.86 127.807 826.839 127.704C826.817 127.602 826.716 127.536 826.613 127.558C826.51 127.58 826.445 127.681 826.467 127.784Z" fill="#060D14"/>
<path d="M825.896 131.628C825.955 131.903 826.226 132.079 826.501 132.02C826.777 131.961 826.952 131.69 826.894 131.415C826.835 131.139 826.564 130.964 826.288 131.023C826.013 131.081 825.837 131.352 825.896 131.628Z" fill="#060D14"/>
<path d="M825.192 135.511C825.303 136.029 825.813 136.36 826.331 136.249C826.85 136.138 827.18 135.628 827.07 135.11C826.959 134.591 826.449 134.261 825.93 134.371C825.412 134.482 825.081 134.992 825.192 135.511Z" fill="#060D14"/>
<path d="M824.594 139.361C824.745 140.068 825.441 140.519 826.149 140.368C826.857 140.217 827.308 139.521 827.156 138.813C827.005 138.106 826.309 137.655 825.602 137.806C824.894 137.957 824.443 138.653 824.594 139.361Z" fill="#060D14"/>
<path d="M824.24 143.159C824.401 143.915 825.145 144.397 825.901 144.235C826.657 144.074 827.139 143.33 826.978 142.574C826.816 141.818 826.073 141.336 825.316 141.497C824.56 141.659 824.078 142.402 824.24 143.159Z" fill="#060D14"/>
<path d="M824.138 146.902C824.281 147.572 824.94 147.999 825.61 147.856C826.28 147.713 826.707 147.054 826.564 146.384C826.421 145.714 825.762 145.287 825.092 145.43C824.422 145.573 823.995 146.232 824.138 146.902Z" fill="#060D14"/>
<path d="M824.149 150.632C824.26 151.151 824.77 151.481 825.288 151.371C825.807 151.26 826.137 150.75 826.027 150.231C825.916 149.713 825.406 149.382 824.887 149.493C824.369 149.604 824.038 150.114 824.149 150.632Z" fill="#060D14"/>
<path d="M824.233 154.336C824.304 154.666 824.628 154.876 824.957 154.805C825.287 154.735 825.497 154.411 825.426 154.081C825.356 153.752 825.032 153.542 824.702 153.612C824.373 153.683 824.163 154.007 824.233 154.336Z" fill="#060D14"/>
<path d="M824.28 158.048C824.314 158.205 824.468 158.305 824.625 158.271C824.781 158.238 824.881 158.084 824.848 157.927C824.814 157.771 824.66 157.671 824.503 157.704C824.347 157.738 824.247 157.892 824.28 158.048Z" fill="#060D14"/>
<path d="M824.202 161.798C824.215 161.857 824.274 161.895 824.333 161.882C824.392 161.869 824.43 161.811 824.418 161.752C824.405 161.692 824.346 161.654 824.287 161.667C824.228 161.68 824.19 161.738 824.202 161.798Z" fill="#060D14"/>
<path d="M824.033 165.556C824.036 165.567 824.046 165.573 824.057 165.571C824.068 165.569 824.075 165.558 824.073 165.547C824.07 165.537 824.06 165.53 824.049 165.532C824.038 165.534 824.031 165.545 824.033 165.556Z" fill="#060D14"/>
<path d="M823.11 123.705C823.112 123.716 823.123 123.723 823.133 123.721C823.144 123.718 823.151 123.708 823.149 123.697C823.146 123.686 823.136 123.679 823.125 123.681C823.114 123.684 823.107 123.694 823.11 123.705Z" fill="#060D14"/>
<path d="M822.788 127.506C822.798 127.555 822.846 127.586 822.895 127.576C822.943 127.565 822.974 127.517 822.964 127.469C822.954 127.42 822.906 127.389 822.857 127.4C822.809 127.41 822.778 127.458 822.788 127.506Z" fill="#060D14"/>
<path d="M822.345 131.323C822.376 131.469 822.519 131.562 822.665 131.531C822.811 131.5 822.904 131.356 822.873 131.21C822.842 131.064 822.698 130.972 822.552 131.003C822.407 131.034 822.314 131.177 822.345 131.323Z" fill="#060D14"/>
<path d="M821.834 135.154C821.895 135.441 822.177 135.623 822.463 135.562C822.749 135.501 822.932 135.219 822.87 134.933C822.809 134.647 822.528 134.464 822.241 134.525C821.955 134.586 821.773 134.868 821.834 135.154Z" fill="#060D14"/>
<path d="M821.404 138.978C821.485 139.357 821.857 139.598 822.235 139.517C822.613 139.436 822.854 139.064 822.773 138.686C822.692 138.308 822.32 138.067 821.942 138.148C821.564 138.228 821.323 138.6 821.404 138.978Z" fill="#060D14"/>
<path d="M821.117 142.762C821.201 143.156 821.589 143.407 821.984 143.323C822.378 143.239 822.629 142.851 822.545 142.457C822.461 142.062 822.073 141.811 821.679 141.895C821.284 141.979 821.033 142.367 821.117 142.762Z" fill="#060D14"/>
<path d="M820.968 146.516C821.039 146.851 821.369 147.064 821.703 146.993C822.038 146.921 822.252 146.592 822.18 146.257C822.109 145.922 821.779 145.708 821.444 145.78C821.11 145.851 820.896 146.181 820.968 146.516Z" fill="#060D14"/>
<path d="M820.868 150.259C820.92 150.502 821.159 150.657 821.402 150.605C821.645 150.554 821.8 150.314 821.748 150.071C821.696 149.828 821.457 149.673 821.214 149.725C820.971 149.777 820.816 150.016 820.868 150.259Z" fill="#060D14"/>
<path d="M820.8 154.006C820.83 154.147 820.968 154.236 821.108 154.206C821.249 154.176 821.338 154.038 821.308 153.898C821.278 153.757 821.14 153.668 821 153.698C820.859 153.728 820.77 153.866 820.8 154.006Z" fill="#060D14"/>
<path d="M820.66 157.758C820.675 157.828 820.744 157.873 820.814 157.858C820.884 157.843 820.929 157.774 820.914 157.704C820.899 157.634 820.83 157.589 820.76 157.604C820.689 157.619 820.645 157.688 820.66 157.758Z" fill="#060D14"/>
<path d="M820.491 161.516C820.495 161.538 820.517 161.552 820.538 161.547C820.56 161.542 820.574 161.521 820.569 161.5C820.564 161.478 820.543 161.464 820.521 161.469C820.5 161.473 820.486 161.495 820.491 161.516Z" fill="#060D14"/>
<path d="M820.254 165.289C820.255 165.294 820.26 165.298 820.266 165.297C820.271 165.295 820.275 165.29 820.274 165.285C820.272 165.279 820.267 165.276 820.262 165.277C820.256 165.278 820.253 165.283 820.254 165.289Z" fill="#060D14"/>
<path d="M819.344 123.446C819.345 123.451 819.35 123.455 819.356 123.454C819.361 123.453 819.365 123.447 819.363 123.442C819.362 123.437 819.357 123.433 819.352 123.434C819.346 123.435 819.343 123.441 819.344 123.446Z" fill="#060D14"/>
<path d="M819.057 127.229C819.06 127.246 819.076 127.256 819.093 127.252C819.109 127.249 819.119 127.233 819.116 127.217C819.112 127.201 819.096 127.19 819.08 127.194C819.064 127.197 819.054 127.213 819.057 127.229Z" fill="#060D14"/>
<path d="M818.724 131.033C818.737 131.092 818.795 131.13 818.854 131.118C818.914 131.105 818.952 131.046 818.939 130.987C818.926 130.928 818.868 130.89 818.808 130.902C818.749 130.915 818.711 130.974 818.724 131.033Z" fill="#060D14"/>
<path d="M818.369 134.831C818.394 134.944 818.505 135.016 818.619 134.992C818.732 134.968 818.804 134.856 818.78 134.743C818.756 134.63 818.644 134.557 818.531 134.581C818.418 134.606 818.345 134.717 818.369 134.831Z" fill="#060D14"/>
<path d="M818.044 138.622C818.075 138.768 818.219 138.861 818.364 138.83C818.51 138.799 818.603 138.655 818.572 138.51C818.541 138.364 818.397 138.271 818.252 138.302C818.106 138.333 818.013 138.477 818.044 138.622Z" fill="#060D14"/>
<path d="M817.788 142.399C817.819 142.545 817.963 142.638 818.109 142.607C818.254 142.576 818.347 142.432 818.316 142.286C818.285 142.141 818.142 142.048 817.996 142.079C817.85 142.11 817.757 142.253 817.788 142.399Z" fill="#060D14"/>
<path d="M817.582 146.175C817.607 146.289 817.718 146.361 817.832 146.337C817.945 146.313 818.017 146.201 817.993 146.088C817.969 145.974 817.857 145.902 817.744 145.926C817.63 145.95 817.558 146.062 817.582 146.175Z" fill="#060D14"/>
<path d="M817.394 149.938C817.41 150.013 817.485 150.061 817.56 150.045C817.636 150.029 817.684 149.955 817.668 149.879C817.652 149.803 817.577 149.755 817.502 149.771C817.426 149.788 817.378 149.862 817.394 149.938Z" fill="#060D14"/>
<path d="M817.186 153.704C817.196 153.748 817.238 153.775 817.281 153.766C817.325 153.757 817.352 153.714 817.343 153.671C817.334 153.628 817.291 153.6 817.248 153.609C817.205 153.619 817.177 153.661 817.186 153.704Z" fill="#060D14"/>
<path d="M816.979 157.471C816.982 157.487 816.998 157.497 817.014 157.494C817.031 157.49 817.041 157.474 817.038 157.458C817.034 157.442 817.018 157.432 817.002 157.435C816.986 157.438 816.975 157.454 816.979 157.471Z" fill="#060D14"/>
<path d="M816.734 161.256C816.736 161.261 816.741 161.265 816.746 161.263C816.752 161.262 816.755 161.257 816.754 161.251C816.753 161.246 816.748 161.243 816.742 161.244C816.737 161.245 816.733 161.25 816.734 161.256Z" fill="#060D14"/>
<path d="M815.301 126.969C815.302 126.974 815.307 126.977 815.313 126.976C815.318 126.975 815.322 126.97 815.32 126.964C815.319 126.959 815.314 126.956 815.309 126.957C815.303 126.958 815.3 126.963 815.301 126.969Z" fill="#060D14"/>
<path d="M815.024 130.75C815.027 130.766 815.043 130.776 815.059 130.773C815.076 130.769 815.086 130.754 815.082 130.737C815.079 130.721 815.063 130.711 815.047 130.714C815.031 130.718 815.02 130.734 815.024 130.75Z" fill="#060D14"/>
<path d="M814.737 134.533C814.743 134.56 814.769 134.577 814.796 134.571C814.823 134.565 814.84 134.539 814.835 134.512C814.829 134.485 814.802 134.468 814.775 134.473C814.748 134.479 814.731 134.506 814.737 134.533Z" fill="#060D14"/>
<path d="M814.464 138.324C814.472 138.362 814.509 138.386 814.547 138.378C814.585 138.37 814.609 138.332 814.601 138.295C814.592 138.257 814.555 138.233 814.517 138.241C814.48 138.249 814.456 138.286 814.464 138.324Z" fill="#060D14"/>
<path d="M814.208 142.101C814.215 142.133 814.246 142.154 814.279 142.147C814.311 142.14 814.332 142.108 814.325 142.076C814.318 142.043 814.286 142.023 814.254 142.03C814.221 142.037 814.201 142.068 814.208 142.101Z" fill="#060D14"/>
<path d="M813.969 145.874C813.974 145.895 813.995 145.909 814.017 145.904C814.038 145.9 814.052 145.879 814.047 145.857C814.043 145.835 814.022 145.822 814 145.826C813.978 145.831 813.965 145.852 813.969 145.874Z" fill="#060D14"/>
<path d="M813.723 149.648C813.726 149.665 813.742 149.675 813.759 149.671C813.775 149.668 813.785 149.652 813.782 149.636C813.778 149.62 813.762 149.609 813.746 149.613C813.73 149.616 813.72 149.632 813.723 149.648Z" fill="#060D14"/>
<path d="M813.479 153.433C813.48 153.438 813.485 153.442 813.491 153.441C813.496 153.439 813.499 153.434 813.498 153.429C813.497 153.423 813.492 153.42 813.486 153.421C813.481 153.422 813.477 153.428 813.479 153.433Z" fill="#060D14"/>
<path d="M811 134.268C811.001 134.273 811.007 134.277 811.012 134.276C811.017 134.274 811.021 134.269 811.02 134.264C811.019 134.258 811.013 134.255 811.008 134.256C811.002 134.257 810.999 134.262 811 134.268Z" fill="#060D14"/>
<path d="M810.742 138.045C810.743 138.05 810.749 138.054 810.754 138.052C810.76 138.051 810.763 138.046 810.762 138.041C810.761 138.035 810.755 138.032 810.75 138.033C810.745 138.034 810.741 138.039 810.742 138.045Z" fill="#060D14"/>
<path d="M810.477 141.824C810.478 141.829 810.483 141.832 810.489 141.831C810.494 141.83 810.497 141.825 810.496 141.819C810.495 141.814 810.49 141.811 810.484 141.812C810.479 141.813 810.475 141.818 810.477 141.824Z" fill="#060D14"/>
</g>
<path d="M841.568 147.454C842.861 146.784 843.926 145.743 844.624 144.464C845.322 143.186 845.622 141.728 845.485 140.277C845.439 140.062 845.393 139.847 845.426 139.472C845.94 139.536 846.351 139.591 846.775 139.613C847.808 139.699 848.848 139.579 849.835 139.26C850.822 138.941 851.735 138.429 852.522 137.753C853.309 137.078 853.955 136.253 854.42 135.327C854.886 134.4 855.163 133.39 855.235 132.356C855.352 130.071 854.57 127.832 853.057 126.116C851.544 124.401 849.42 123.345 847.139 123.175C845.837 123.044 844.522 123.25 843.322 123.771C842.121 124.293 841.074 125.112 840.28 126.153C840.153 126.323 839.99 126.522 839.817 126.763C839.543 126.535 839.312 126.36 839.109 126.178C838.054 125.321 836.733 124.858 835.374 124.87C833.87 124.89 832.406 125.354 831.165 126.203C829.924 127.052 828.961 128.248 828.397 129.642C828.216 130.14 828.093 130.657 828.03 131.183C827.858 132.334 828.057 133.51 828.599 134.54C829.141 135.569 829.997 136.4 831.043 136.91C831.333 137.073 831.618 137.206 831.963 137.388C831.573 137.809 831.257 138.152 830.968 138.521C830.525 139.036 830.216 139.652 830.068 140.315C829.921 140.978 829.94 141.667 830.123 142.321C830.266 142.975 830.533 143.595 830.912 144.147C831.594 145.234 832.503 146.16 833.578 146.861C834.653 147.562 835.867 148.021 837.137 148.206C838.656 148.484 840.225 148.218 841.568 147.454ZM837.756 145.886C836.7 145.754 835.681 145.414 834.759 144.884C833.836 144.354 833.028 143.646 832.383 142.8C832.182 142.515 832.013 142.207 831.881 141.885C831.693 141.518 831.602 141.109 831.618 140.697C831.634 140.285 831.756 139.885 831.972 139.534C832.423 138.792 833.068 138.188 833.838 137.785C834.342 137.514 834.886 137.285 835.389 137.004C835.6 136.892 835.787 136.737 835.936 136.55C835.997 136.427 836.007 136.285 835.964 136.155C835.882 136.06 835.706 135.904 835.627 135.92C835.154 135.975 834.691 136.102 834.255 136.295C833.885 136.474 833.473 136.552 833.063 136.521C832.652 136.491 832.257 136.352 831.917 136.12C831.139 135.725 830.52 135.074 830.163 134.277C829.807 133.481 829.735 132.586 829.96 131.742C830.164 130.845 830.593 130.014 831.207 129.328C831.82 128.642 832.599 128.124 833.468 127.823C835.492 127.053 836.807 127.273 838.981 128.547C839.096 129.085 839.133 129.639 839.254 130.207C839.291 130.286 839.343 130.357 839.408 130.415C839.474 130.473 839.55 130.517 839.633 130.545C839.702 130.55 839.771 130.538 839.835 130.51C839.898 130.482 839.954 130.439 839.998 130.385L840.626 129.402C841.032 128.815 841.395 128.216 841.843 127.629C842.513 126.736 843.428 126.056 844.476 125.672C845.525 125.288 846.663 125.217 847.751 125.467C848.876 125.678 849.919 126.199 850.763 126.97C851.607 127.742 852.219 128.735 852.529 129.835C852.913 130.857 853.031 131.959 852.874 133.039C852.717 134.118 852.288 135.14 851.629 136.01C850.897 137.008 849.869 137.75 848.692 138.132C847.515 138.514 846.247 138.515 845.069 138.137C844.709 137.997 844.402 137.748 844.191 137.425C843.978 137.123 843.705 136.867 843.389 136.674C843.074 136.481 842.722 136.355 842.356 136.303C842.209 136.454 842.113 136.648 842.082 136.856C842.051 137.065 842.087 137.278 842.185 137.465C842.454 138.187 842.686 138.922 842.88 139.668C843.127 140.777 843.005 141.937 842.532 142.971C842.058 144.004 841.26 144.855 840.258 145.392C839.496 145.825 838.613 145.996 837.744 145.878L837.756 145.886Z" fill="#060D14"/>
<path d="M837.744 145.878C836.688 145.746 835.669 145.406 834.747 144.876C833.824 144.346 833.017 143.638 832.371 142.792C832.17 142.507 832.001 142.2 831.869 141.877C831.681 141.51 831.591 141.101 831.606 140.689C831.622 140.277 831.744 139.877 831.96 139.526C832.411 138.784 833.057 138.18 833.826 137.777C834.33 137.506 834.874 137.277 835.377 136.996C835.589 136.884 835.775 136.73 835.924 136.542C835.985 136.419 835.995 136.277 835.952 136.147C835.87 136.052 835.694 135.896 835.616 135.912C835.142 135.967 834.679 136.094 834.244 136.287C833.873 136.466 833.462 136.544 833.051 136.513C832.64 136.483 832.245 136.344 831.905 136.112C831.127 135.717 830.508 135.066 830.152 134.27C829.795 133.473 829.723 132.578 829.948 131.734C830.152 130.837 830.581 130.006 831.195 129.32C831.809 128.634 832.587 128.116 833.457 127.815C835.48 127.045 836.795 127.265 838.969 128.539C839.084 129.077 839.121 129.632 839.242 130.199C839.279 130.278 839.331 130.349 839.397 130.407C839.462 130.465 839.538 130.51 839.621 130.537C839.69 130.542 839.76 130.53 839.823 130.502C839.887 130.474 839.942 130.431 839.986 130.377L840.614 129.394C841.021 128.807 841.383 128.208 841.831 127.621C842.501 126.728 843.416 126.048 844.465 125.664C845.513 125.28 846.651 125.209 847.74 125.459C848.864 125.67 849.907 126.191 850.751 126.963C851.595 127.734 852.207 128.727 852.517 129.828C852.901 130.849 853.02 131.951 852.862 133.031C852.705 134.11 852.277 135.132 851.617 136.002C850.885 137 849.858 137.742 848.68 138.124C847.503 138.506 846.235 138.507 845.057 138.129C844.697 137.989 844.39 137.74 844.179 137.417C843.966 137.115 843.693 136.859 843.377 136.666C843.062 136.473 842.71 136.347 842.344 136.295C842.197 136.446 842.101 136.64 842.07 136.848C842.039 137.057 842.075 137.27 842.173 137.457C842.442 138.179 842.674 138.914 842.868 139.66C843.116 140.77 842.993 141.929 842.52 142.963C842.046 143.996 841.248 144.847 840.246 145.384C839.488 145.817 838.61 145.99 837.744 145.878Z" fill="white"/>
<g opacity="0.3">
<path d="M831.923 136.149C832.263 136.381 832.658 136.52 833.068 136.551C833.479 136.581 833.89 136.503 834.261 136.324C834.476 136.211 834.707 136.13 834.946 136.086C833.278 135.839 830.323 135.028 832.214 132.436C833.027 131.377 834.043 130.491 835.202 129.829C836.362 129.167 837.642 128.742 838.967 128.58C836.793 127.306 835.478 127.086 833.454 127.856C832.585 128.158 831.807 128.676 831.193 129.362C830.579 130.047 830.15 130.878 829.946 131.775C829.724 132.621 829.799 133.516 830.159 134.313C830.519 135.109 831.142 135.757 831.923 136.149Z" fill="#707070"/>
<path d="M844.003 137.27L844.176 137.458C844.387 137.782 844.694 138.031 845.054 138.171C846.233 138.549 847.5 138.547 848.677 138.165C849.855 137.784 850.882 137.041 851.614 136.043C852.15 135.34 852.534 134.533 852.741 133.674C852.948 132.815 852.974 131.922 852.818 131.052C851.738 137.581 845.534 137.403 844.003 137.27Z" fill="#707070"/>
<path d="M840.244 145.425C841.246 144.888 842.044 144.038 842.518 143.004C842.991 141.971 843.114 140.811 842.866 139.701C842.816 139.467 842.764 139.222 842.714 138.987C842.764 142.044 841.448 144.452 837.645 142.115C834.708 140.329 835.129 138.041 835.608 136.885C835.554 136.931 835.493 136.968 835.427 136.995C834.925 137.277 834.38 137.505 833.876 137.777C833.107 138.179 832.462 138.784 832.01 139.525C831.794 139.876 831.673 140.277 831.657 140.689C831.641 141.1 831.731 141.509 831.919 141.876C832.052 142.199 832.22 142.506 832.421 142.791C833.067 143.637 833.874 144.346 834.797 144.875C835.72 145.405 836.739 145.746 837.794 145.877C838.638 145.991 839.496 145.833 840.244 145.425Z" fill="#707070"/>
</g>
</svg>
