<svg width="1406" height="934" viewBox="0 0 1406 934" fill="none" xmlns="http://www.w3.org/2000/svg">
<path d="M569.987 452.771C570.528 452.704 554.599 445.748 551.788 444.842C536.274 439.846 520.607 435.46 504.307 434.115C484.491 432.479 464.993 448.536 464.993 469.154C464.993 482.44 468.412 493.146 478.876 501.862C481.023 503.65 482.67 497.93 482.784 496.789C483.592 488.716 480.42 480.341 474.326 474.926C466.411 467.894 439.969 459.727 430.287 467.697C412.762 482.123 407.749 508.034 406.43 529.38C405.8 539.581 406.197 549.886 406.197 560.105C406.197 564.23 402.728 568.086 400.364 571.299C390.469 584.749 375.097 583.839 360 585" stroke="#E83A3B" stroke-width="6" stroke-linecap="round" stroke-dasharray="11 11"/>
<g style="mix-blend-mode:multiply">
<path d="M1025.04 175.437C1025.05 175.438 1025.06 175.43 1025.06 175.419C1025.06 175.407 1025.05 175.397 1025.04 175.395C1025.03 175.393 1025.02 175.401 1025.02 175.413C1025.02 175.424 1025.03 175.435 1025.04 175.437Z" fill="#060D14"/>
<path d="M1031.67 178.772C1031.69 178.775 1031.71 178.759 1031.72 178.735C1031.72 178.712 1031.71 178.69 1031.69 178.687C1031.67 178.684 1031.65 178.7 1031.64 178.724C1031.64 178.747 1031.65 178.769 1031.67 178.772Z" fill="#060D14"/>
<path d="M1038.33 182.108C1038.35 182.111 1038.37 182.095 1038.37 182.071C1038.38 182.048 1038.36 182.026 1038.34 182.023C1038.32 182.02 1038.3 182.036 1038.3 182.06C1038.29 182.083 1038.31 182.105 1038.33 182.108Z" fill="#060D14"/>
<path d="M1044.97 185.422C1044.99 185.425 1045.01 185.409 1045.01 185.385C1045.01 185.362 1045 185.34 1044.98 185.337C1044.96 185.334 1044.94 185.35 1044.93 185.374C1044.93 185.397 1044.95 185.419 1044.97 185.422Z" fill="#060D14"/>
<path d="M1051.61 188.734C1051.62 188.736 1051.63 188.728 1051.63 188.717C1051.63 188.705 1051.62 188.694 1051.61 188.693C1051.6 188.691 1051.59 188.699 1051.59 188.711C1051.59 188.722 1051.6 188.733 1051.61 188.734Z" fill="#060D14"/>
<path d="M1008.53 176.299C1008.55 176.302 1008.57 176.286 1008.57 176.262C1008.58 176.239 1008.56 176.217 1008.54 176.214C1008.52 176.211 1008.5 176.227 1008.5 176.25C1008.5 176.274 1008.51 176.296 1008.53 176.299Z" fill="#060D14"/>
<path d="M1015.16 179.675C1015.2 179.682 1015.24 179.649 1015.25 179.602C1015.26 179.555 1015.23 179.511 1015.19 179.505C1015.15 179.498 1015.11 179.531 1015.1 179.578C1015.09 179.625 1015.12 179.669 1015.16 179.675Z" fill="#060D14"/>
<path d="M1021.81 183.057C1021.88 183.068 1021.95 183.01 1021.97 182.928C1021.98 182.845 1021.93 182.768 1021.86 182.757C1021.78 182.745 1021.71 182.803 1021.7 182.886C1021.69 182.969 1021.74 183.045 1021.81 183.057Z" fill="#060D14"/>
<path d="M1028.43 186.477C1028.55 186.495 1028.66 186.405 1028.68 186.274C1028.7 186.144 1028.62 186.024 1028.51 186.006C1028.39 185.988 1028.28 186.079 1028.26 186.209C1028.24 186.339 1028.32 186.459 1028.43 186.477Z" fill="#060D14"/>
<path d="M1035.07 189.811C1035.2 189.831 1035.32 189.732 1035.34 189.59C1035.36 189.448 1035.28 189.317 1035.15 189.297C1035.02 189.277 1034.9 189.376 1034.88 189.518C1034.86 189.66 1034.94 189.791 1035.07 189.811Z" fill="#060D14"/>
<path d="M1041.71 193.103C1041.83 193.121 1041.94 193.03 1041.96 192.9C1041.98 192.77 1041.9 192.65 1041.78 192.631C1041.67 192.613 1041.56 192.704 1041.54 192.834C1041.52 192.965 1041.59 193.085 1041.71 193.103Z" fill="#060D14"/>
<path d="M1048.38 196.333C1048.45 196.342 1048.51 196.293 1048.52 196.222C1048.53 196.151 1048.49 196.085 1048.42 196.075C1048.36 196.066 1048.3 196.115 1048.29 196.186C1048.28 196.257 1048.32 196.323 1048.38 196.333Z" fill="#060D14"/>
<path d="M992.032 177.137C992.042 177.139 992.052 177.131 992.053 177.119C992.055 177.108 992.048 177.097 992.038 177.096C992.028 177.094 992.018 177.102 992.016 177.114C992.015 177.125 992.021 177.136 992.032 177.137Z" fill="#060D14"/>
<path d="M998.664 180.493C998.696 180.498 998.726 180.473 998.732 180.438C998.737 180.402 998.716 180.369 998.684 180.364C998.653 180.359 998.622 180.384 998.617 180.42C998.611 180.456 998.633 180.488 998.664 180.493Z" fill="#060D14"/>
<path d="M1005.31 183.918C1005.39 183.931 1005.47 183.865 1005.49 183.77C1005.5 183.676 1005.44 183.588 1005.36 183.575C1005.27 183.562 1005.19 183.628 1005.18 183.723C1005.16 183.817 1005.22 183.905 1005.31 183.918Z" fill="#060D14"/>
<path d="M1011.91 187.467C1012.1 187.497 1012.28 187.348 1012.31 187.135C1012.35 186.922 1012.22 186.725 1012.03 186.696C1011.84 186.666 1011.65 186.815 1011.62 187.028C1011.59 187.241 1011.72 187.438 1011.91 187.467Z" fill="#060D14"/>
<path d="M1018.51 191.037C1018.83 191.087 1019.13 190.839 1019.19 190.484C1019.24 190.129 1019.03 189.801 1018.71 189.752C1018.39 189.702 1018.09 189.95 1018.03 190.305C1017.98 190.66 1018.19 190.988 1018.51 191.037Z" fill="#060D14"/>
<path d="M1025.11 194.585C1025.53 194.651 1025.94 194.32 1026.01 193.847C1026.08 193.374 1025.8 192.937 1025.37 192.871C1024.95 192.805 1024.55 193.135 1024.47 193.609C1024.4 194.082 1024.68 194.519 1025.11 194.585Z" fill="#060D14"/>
<path d="M988.818 184.671C988.849 184.676 988.879 184.651 988.885 184.616C988.89 184.58 988.869 184.547 988.838 184.542C988.806 184.537 988.776 184.562 988.77 184.598C988.765 184.633 988.786 184.666 988.818 184.671Z" fill="#060D14"/>
<path d="M995.436 188.112C995.531 188.127 995.622 188.052 995.639 187.946C995.655 187.839 995.591 187.741 995.496 187.726C995.401 187.711 995.31 187.786 995.293 187.892C995.277 187.999 995.341 188.097 995.436 188.112Z" fill="#060D14"/>
<path d="M1002.02 191.789C1002.28 191.83 1002.54 191.624 1002.58 191.328C1002.63 191.032 1002.45 190.759 1002.19 190.718C1001.92 190.676 1001.67 190.883 1001.62 191.179C1001.58 191.475 1001.75 191.748 1002.02 191.789Z" fill="#060D14"/>
<path d="M1008.58 195.618C1009.1 195.699 1009.59 195.294 1009.68 194.714C1009.77 194.134 1009.42 193.599 1008.91 193.518C1008.39 193.437 1007.89 193.842 1007.8 194.422C1007.71 195.002 1008.06 195.537 1008.58 195.618Z" fill="#060D14"/>
<path d="M978.958 188.798C978.969 188.8 978.978 188.792 978.98 188.78C978.982 188.768 978.975 188.758 978.965 188.756C978.955 188.755 978.945 188.763 978.943 188.774C978.941 188.786 978.948 188.796 978.958 188.798Z" fill="#060D14"/>
<path d="M985.577 192.243C985.651 192.254 985.722 192.196 985.735 192.114C985.748 192.031 985.698 191.954 985.624 191.943C985.549 191.931 985.479 191.989 985.466 192.072C985.453 192.155 985.503 192.231 985.577 192.243Z" fill="#060D14"/>
<path d="M992.178 195.946C992.432 195.985 992.674 195.787 992.718 195.503C992.762 195.219 992.592 194.957 992.337 194.917C992.083 194.878 991.841 195.076 991.797 195.36C991.753 195.644 991.923 195.906 992.178 195.946Z" fill="#060D14"/>
<path d="M975.745 196.332C975.777 196.337 975.807 196.312 975.813 196.277C975.818 196.241 975.797 196.208 975.765 196.203C975.734 196.198 975.704 196.223 975.698 196.259C975.692 196.294 975.714 196.327 975.745 196.332Z" fill="#060D14"/>
</g>
<g style="mix-blend-mode:multiply">
<path d="M732.68 711.21C732.691 711.21 732.7 711.201 732.7 711.19C732.7 711.179 732.691 711.17 732.68 711.17C732.669 711.17 732.66 711.179 732.66 711.19C732.66 711.201 732.669 711.21 732.68 711.21Z" fill="#060D14"/>
<path d="M720.71 711.96C720.854 711.96 720.97 711.844 720.97 711.7C720.97 711.556 720.854 711.44 720.71 711.44C720.567 711.44 720.45 711.556 720.45 711.7C720.45 711.844 720.567 711.96 720.71 711.96Z" fill="#060D14"/>
<path d="M724.351 712.88C724.423 712.88 724.481 712.822 724.481 712.75C724.481 712.678 724.423 712.62 724.351 712.62C724.279 712.62 724.221 712.678 724.221 712.75C724.221 712.822 724.279 712.88 724.351 712.88Z" fill="#060D14"/>
<path d="M727.99 713.83C728.012 713.83 728.03 713.812 728.03 713.79C728.03 713.768 728.012 713.75 727.99 713.75C727.968 713.75 727.95 713.768 727.95 713.79C727.95 713.812 727.968 713.83 727.99 713.83Z" fill="#060D14"/>
<path d="M731.63 714.85C731.636 714.85 731.64 714.846 731.64 714.84C731.64 714.835 731.636 714.83 731.63 714.83C731.625 714.83 731.62 714.835 731.62 714.84C731.62 714.846 731.625 714.85 731.63 714.85Z" fill="#060D14"/>
<path d="M708.73 712.48C708.879 712.48 709 712.359 709 712.21C709 712.061 708.879 711.94 708.73 711.94C708.581 711.94 708.46 712.061 708.46 712.21C708.46 712.359 708.581 712.48 708.73 712.48Z" fill="#060D14"/>
<path d="M712.38 713.47C712.496 713.47 712.59 713.376 712.59 713.26C712.59 713.144 712.496 713.05 712.38 713.05C712.264 713.05 712.17 713.144 712.17 713.26C712.17 713.376 712.264 713.47 712.38 713.47Z" fill="#060D14"/>
<path d="M716.02 714.44C716.097 714.44 716.16 714.377 716.16 714.3C716.16 714.223 716.097 714.16 716.02 714.16C715.943 714.16 715.88 714.223 715.88 714.3C715.88 714.377 715.943 714.44 716.02 714.44Z" fill="#060D14"/>
<path d="M719.66 715.43C719.704 715.43 719.74 715.394 719.74 715.35C719.74 715.306 719.704 715.27 719.66 715.27C719.616 715.27 719.58 715.306 719.58 715.35C719.58 715.394 719.616 715.43 719.66 715.43Z" fill="#060D14"/>
<path d="M723.301 716.42C723.317 716.42 723.331 716.406 723.331 716.39C723.331 716.373 723.317 716.36 723.301 716.36C723.284 716.36 723.271 716.373 723.271 716.39C723.271 716.406 723.284 716.42 723.301 716.42Z" fill="#060D14"/>
<path d="M726.95 717.45C726.956 717.45 726.96 717.445 726.96 717.44C726.96 717.434 726.956 717.43 726.95 717.43C726.945 717.43 726.94 717.434 726.94 717.44C726.94 717.445 726.945 717.45 726.95 717.45Z" fill="#060D14"/>
<path d="M693.12 711.69C693.126 711.69 693.13 711.685 693.13 711.68C693.13 711.674 693.126 711.67 693.12 711.67C693.115 711.67 693.11 711.674 693.11 711.68C693.11 711.685 693.115 711.69 693.12 711.69Z" fill="#060D14"/>
<path d="M696.76 712.75C696.777 712.75 696.79 712.737 696.79 712.72C696.79 712.703 696.777 712.69 696.76 712.69C696.744 712.69 696.73 712.703 696.73 712.72C696.73 712.737 696.744 712.75 696.76 712.75Z" fill="#060D14"/>
<path d="M700.401 713.82C700.428 713.82 700.451 713.797 700.451 713.77C700.451 713.742 700.428 713.72 700.401 713.72C700.373 713.72 700.351 713.742 700.351 713.77C700.351 713.797 700.373 713.82 700.401 713.82Z" fill="#060D14"/>
<path d="M704.05 714.88C704.089 714.88 704.12 714.848 704.12 714.81C704.12 714.771 704.089 714.74 704.05 714.74C704.012 714.74 703.98 714.771 703.98 714.81C703.98 714.848 704.012 714.88 704.05 714.88Z" fill="#060D14"/>
<path d="M707.69 715.92C707.723 715.92 707.75 715.893 707.75 715.86C707.75 715.827 707.723 715.8 707.69 715.8C707.657 715.8 707.63 715.827 707.63 715.86C707.63 715.893 707.657 715.92 707.69 715.92Z" fill="#060D14"/>
<path d="M711.33 716.94C711.352 716.94 711.37 716.922 711.37 716.9C711.37 716.878 711.352 716.86 711.33 716.86C711.308 716.86 711.29 716.878 711.29 716.9C711.29 716.922 711.308 716.94 711.33 716.94Z" fill="#060D14"/>
<path d="M714.97 717.97C714.987 717.97 715 717.957 715 717.94C715 717.924 714.987 717.91 714.97 717.91C714.954 717.91 714.94 717.924 714.94 717.94C714.94 717.957 714.954 717.97 714.97 717.97Z" fill="#060D14"/>
<path d="M718.62 719C718.626 719 718.63 718.995 718.63 718.99C718.63 718.984 718.626 718.98 718.62 718.98C718.615 718.98 718.61 718.984 718.61 718.99C718.61 718.995 718.615 719 718.62 719Z" fill="#060D14"/>
<path d="M699.361 717.42C699.366 717.42 699.371 717.415 699.371 717.41C699.371 717.404 699.366 717.4 699.361 717.4C699.355 717.4 699.351 717.404 699.351 717.41C699.351 717.415 699.355 717.42 699.361 717.42Z" fill="#060D14"/>
<path d="M703 718.46C703.006 718.46 703.01 718.455 703.01 718.45C703.01 718.444 703.006 718.44 703 718.44C702.995 718.44 702.99 718.444 702.99 718.45C702.99 718.455 702.995 718.46 703 718.46Z" fill="#060D14"/>
<path d="M706.64 719.51C706.645 719.51 706.65 719.505 706.65 719.5C706.65 719.494 706.645 719.49 706.64 719.49C706.634 719.49 706.63 719.494 706.63 719.5C706.63 719.505 706.634 719.51 706.64 719.51Z" fill="#060D14"/>
</g>
</svg>
