<svg width="1406" height="934" viewBox="0 0 1406 934" fill="none" xmlns="http://www.w3.org/2000/svg">
<path d="M775 452.696C775 459.666 777.744 464.917 781.862 470.531C792.231 484.67 808.518 486.22 824.929 486.566C835.793 486.795 846.43 485.716 856.755 482.197C862.512 480.234 870.159 477.455 873.593 471.973C879.044 463.271 874.61 451.358 866.551 446.21C856.126 439.55 844.633 438.92 834.499 446.39C817.18 459.156 817.248 483.988 818.789 503.23C821.319 534.812 829.055 566.361 839.013 596.373C841.915 605.116 845.413 613.495 849.396 621.775C850.369 623.796 850.997 625.206 852.195 627" stroke="#E83A3B" stroke-width="6" stroke-linecap="round" stroke-dasharray="11 11"/>
</svg>
