<svg width="58" height="58" viewBox="0 0 58 58" fill="none" xmlns="http://www.w3.org/2000/svg">
<path d="M3.59851 15.1832C3.3569 18.9647 4.23914 22.4768 5.96243 25.8636C6.04571 25.7474 6.12442 25.6856 6.13723 25.6127C6.2983 24.7301 6.98744 24.5308 7.70586 24.4137C7.98041 24.3667 8.14057 24.268 8.24124 24.0097C8.5158 23.2996 8.7812 22.5838 9.09877 21.893C9.42366 21.1856 9.58107 21.1727 10.1357 21.6717L11.0252 21.4697C10.2208 20.4819 9.35319 19.4701 8.54508 18.4113C7.17231 16.6109 5.91667 14.7312 4.95939 12.6671C4.80075 12.3194 4.6834 11.9541 4.60979 11.5788C4.49997 11.0337 4.84133 10.7035 5.34194 10.9248C6.25712 11.3297 7.12929 11.8167 8.01519 12.2779C8.36571 12.4623 8.70524 12.6634 9.0466 12.8562C10.8019 9.25913 13.6701 7.42741 17.6438 7.30198C17.4434 6.45345 17.2485 5.62613 17.0526 4.79881C17.0426 4.75454 17.0096 4.70658 17.0105 4.66877C17.0224 4.33212 16.8275 3.87188 17.2412 3.73261C17.4553 3.66067 17.8699 3.85713 18.0465 4.06188C19.1868 5.39924 20.3418 6.72553 21.4034 8.12468C22.5474 9.63083 23.5944 11.2126 24.6981 12.7824C25.3955 12.5702 25.8494 12.7907 26.1139 13.5728C26.3354 14.2295 26.4571 14.9019 26.188 15.6139L26.7884 16.2678C27.0163 15.8583 27.2139 15.4672 27.4464 15.0983C27.6477 14.7801 27.9086 14.568 28.3259 14.7773C28.4174 14.8225 28.5593 14.7534 28.6773 14.7543C29.0132 14.7543 29.3491 14.7801 29.684 14.7681C29.8561 14.7617 30.0254 14.6759 30.1974 14.663C30.5022 14.6436 30.8079 14.6519 31.1126 14.6538C31.2554 14.6538 31.4037 14.698 31.5391 14.6704C32.1935 14.5412 32.7746 14.6187 33.2349 15.1666C33.3296 15.2569 33.4436 15.3241 33.5681 15.363C33.9826 15.5309 34.3991 15.6951 34.82 15.8435C34.961 15.8876 35.1082 15.9078 35.2557 15.9035C36.1169 15.9035 36.9607 16.0372 37.7267 16.4283C39.7877 17.4825 40.3121 18.6271 39.8151 20.7816C39.682 21.3439 39.5051 21.8947 39.2861 22.4289C39.0692 22.9648 38.7828 23.4711 38.5192 24.0051L39.8984 24.8094C40.1546 24.5714 40.4777 24.3196 40.7431 24.0162C42.1507 22.4077 43.1574 20.5824 43.6488 18.4823C44.0057 16.9549 43.9838 15.422 43.8227 13.8707C43.5528 11.2222 42.749 8.65704 41.4606 6.33262C40.2498 4.13751 38.7013 2.22094 36.7309 0.664068C36.683 0.626388 36.6378 0.5854 36.5955 0.5414C36.4334 0.385987 36.3001 0.202641 36.202 0C36.7511 0.143881 37.3002 0.263782 37.842 0.435333C46.3752 3.15986 52.5069 8.62366 56.2372 16.8267C56.6948 17.8413 56.5795 18.9656 56.4751 20.0475C56.3946 20.8776 56.2006 21.7003 56.0871 22.5303C56.0651 22.6899 56.1475 22.8873 56.2354 23.0358C57.2778 24.7882 57.7774 26.7195 57.8891 28.7357C57.9898 30.5554 58.0319 32.3844 57.9733 34.2059C57.9147 36.0275 57.3327 37.7689 56.6399 39.453C53.1994 47.8092 47.2458 53.49 38.7791 56.4956C36.6329 57.2438 34.4002 57.7112 32.1358 57.8864C24.9065 58.4921 18.3385 56.6757 12.4319 52.4374C12.2014 52.2691 11.936 52.1559 11.6558 52.1063C10.629 51.9458 9.91694 51.2697 9.20493 50.6149C5.42705 47.1654 2.75288 42.9993 1.2291 38.0907C0.6086 36.0782 0.151008 34.0215 0.0704717 31.9085C0.007324 30.1782 -0.0567389 28.435 0.0860299 26.7149C0.420072 22.7 1.58968 18.9121 3.47221 15.3547C3.51043 15.2947 3.55262 15.2374 3.59851 15.1832ZM14.3309 25.4698C14.0728 25.1304 13.8888 24.8481 13.6601 24.6083C13.5685 24.5087 13.3489 24.4239 13.2327 24.4635C13.005 24.5489 12.7623 24.5866 12.5197 24.5742C12.277 24.5618 12.0394 24.4997 11.8214 24.3916C11.3025 24.1352 10.8028 23.8382 10.3041 23.5615L9.73482 25.4135C10.3013 25.3831 10.6637 25.6385 10.8504 26.1661C11.0014 26.5913 11.1799 27.0073 11.351 27.438C12.3065 26.8459 12.9993 25.7234 14.3309 25.4698Z" fill="#E63334"/>
</svg>
