<svg width="54" height="50" viewBox="0 0 54 50" fill="none" xmlns="http://www.w3.org/2000/svg">
<rect x="0.332031" width="52.7778" height="50" fill="#F63B3B"/>
<path fill-rule="evenodd" clip-rule="evenodd" d="M10.7656 25.4474C18.9678 21.9074 24.4372 19.5736 27.1738 18.446C34.9874 15.2266 36.611 14.6673 37.6693 14.6489C37.902 14.6448 38.4224 14.702 38.7595 14.9729C39.0442 15.2017 39.1225 15.5108 39.16 15.7277C39.1974 15.9446 39.2441 16.4388 39.207 16.8249C38.7836 21.2321 36.9514 31.9271 36.0194 36.8632C35.6249 38.9519 34.8484 39.6522 34.0965 39.7207C32.4626 39.8696 31.2219 38.651 29.6394 37.6234C27.1631 36.0154 25.7641 35.0144 23.3604 33.4453C20.5825 31.6319 22.3833 30.6352 23.9664 29.0064C24.3807 28.5801 31.5797 22.0936 31.7191 21.5051C31.7365 21.4315 31.7527 21.1572 31.5882 21.0124C31.4237 20.8675 31.1808 20.917 31.0056 20.9564C30.7573 21.0123 26.8013 23.6025 19.1377 28.727C18.0149 29.4908 16.9978 29.863 16.0865 29.8434C15.0819 29.8219 13.1495 29.2808 11.7129 28.8182C9.95091 28.2508 8.5505 27.9508 8.67244 26.9872C8.73596 26.4853 9.43367 25.9721 10.7656 25.4474Z" fill="#0B1520"/>
</svg>
